%TF.GenerationSoftware,KiCad,Pcbnew,8.0.5*%
%TF.CreationDate,2025-03-06T11:43:34+02:00*%
%TF.ProjectId,IOExpander_PCF8574,494f4578-7061-46e6-9465-725f50434638,rev?*%
%TF.SameCoordinates,Original*%
%TF.FileFunction,Copper,L2,Bot*%
%TF.FilePolarity,Positive*%
%FSLAX46Y46*%
G04 Gerber Fmt 4.6, Leading zero omitted, Abs format (unit mm)*
G04 Created by KiCad (PCBNEW 8.0.5) date 2025-03-06 11:43:34*
%MOMM*%
%LPD*%
G01*
G04 APERTURE LIST*
G04 Aperture macros list*
%AMRoundRect*
0 Rectangle with rounded corners*
0 $1 Rounding radius*
0 $2 $3 $4 $5 $6 $7 $8 $9 X,Y pos of 4 corners*
0 Add a 4 corners polygon primitive as box body*
4,1,4,$2,$3,$4,$5,$6,$7,$8,$9,$2,$3,0*
0 Add four circle primitives for the rounded corners*
1,1,$1+$1,$2,$3*
1,1,$1+$1,$4,$5*
1,1,$1+$1,$6,$7*
1,1,$1+$1,$8,$9*
0 Add four rect primitives between the rounded corners*
20,1,$1+$1,$2,$3,$4,$5,0*
20,1,$1+$1,$4,$5,$6,$7,0*
20,1,$1+$1,$6,$7,$8,$9,0*
20,1,$1+$1,$8,$9,$2,$3,0*%
G04 Aperture macros list end*
%TA.AperFunction,SMDPad,CuDef*%
%ADD10RoundRect,0.250000X0.625000X-0.400000X0.625000X0.400000X-0.625000X0.400000X-0.625000X-0.400000X0*%
%TD*%
%TA.AperFunction,SMDPad,CuDef*%
%ADD11RoundRect,0.250000X-0.625000X0.400000X-0.625000X-0.400000X0.625000X-0.400000X0.625000X0.400000X0*%
%TD*%
%TA.AperFunction,ComponentPad*%
%ADD12RoundRect,0.250000X-0.725000X0.600000X-0.725000X-0.600000X0.725000X-0.600000X0.725000X0.600000X0*%
%TD*%
%TA.AperFunction,ComponentPad*%
%ADD13O,1.950000X1.700000*%
%TD*%
%TA.AperFunction,SMDPad,CuDef*%
%ADD14RoundRect,0.250000X-0.400000X-0.625000X0.400000X-0.625000X0.400000X0.625000X-0.400000X0.625000X0*%
%TD*%
%TA.AperFunction,ComponentPad*%
%ADD15R,1.700000X1.700000*%
%TD*%
%TA.AperFunction,ComponentPad*%
%ADD16O,1.700000X1.700000*%
%TD*%
%TA.AperFunction,SMDPad,CuDef*%
%ADD17RoundRect,0.250000X-0.650000X0.412500X-0.650000X-0.412500X0.650000X-0.412500X0.650000X0.412500X0*%
%TD*%
%TA.AperFunction,SMDPad,CuDef*%
%ADD18RoundRect,0.150000X1.100000X0.150000X-1.100000X0.150000X-1.100000X-0.150000X1.100000X-0.150000X0*%
%TD*%
%TA.AperFunction,ViaPad*%
%ADD19C,1.500000*%
%TD*%
%TA.AperFunction,ViaPad*%
%ADD20C,1.000000*%
%TD*%
%TA.AperFunction,Conductor*%
%ADD21C,1.500000*%
%TD*%
%TA.AperFunction,Conductor*%
%ADD22C,1.000000*%
%TD*%
%TA.AperFunction,Conductor*%
%ADD23C,0.800000*%
%TD*%
%TA.AperFunction,Conductor*%
%ADD24C,0.600000*%
%TD*%
G04 APERTURE END LIST*
D10*
%TO.P,R32,1*%
%TO.N,5V*%
X91135200Y-71146000D03*
%TO.P,R32,2*%
%TO.N,/P07*%
X91135200Y-68046000D03*
%TD*%
%TO.P,R31,1*%
%TO.N,5V*%
X93675200Y-71146000D03*
%TO.P,R31,2*%
%TO.N,/P06*%
X93675200Y-68046000D03*
%TD*%
%TO.P,R30,1*%
%TO.N,5V*%
X96215200Y-71146000D03*
%TO.P,R30,2*%
%TO.N,/P05*%
X96215200Y-68046000D03*
%TD*%
%TO.P,R29,1*%
%TO.N,5V*%
X98755200Y-71146000D03*
%TO.P,R29,2*%
%TO.N,/P04*%
X98755200Y-68046000D03*
%TD*%
%TO.P,R28,1*%
%TO.N,5V*%
X101295200Y-71146000D03*
%TO.P,R28,2*%
%TO.N,/P03*%
X101295200Y-68046000D03*
%TD*%
%TO.P,R27,1*%
%TO.N,5V*%
X103835200Y-71146000D03*
%TO.P,R27,2*%
%TO.N,/P02*%
X103835200Y-68046000D03*
%TD*%
%TO.P,R26,1*%
%TO.N,5V*%
X106375200Y-71146000D03*
%TO.P,R26,2*%
%TO.N,/P01*%
X106375200Y-68046000D03*
%TD*%
%TO.P,R25,1*%
%TO.N,5V*%
X108915200Y-71146000D03*
%TO.P,R25,2*%
%TO.N,/P00*%
X108915200Y-68046000D03*
%TD*%
D11*
%TO.P,R24,1*%
%TO.N,5V*%
X91135200Y-35432400D03*
%TO.P,R24,2*%
%TO.N,/P17*%
X91135200Y-38532400D03*
%TD*%
%TO.P,R23,1*%
%TO.N,5V*%
X93675200Y-35432400D03*
%TO.P,R23,2*%
%TO.N,/P16*%
X93675200Y-38532400D03*
%TD*%
%TO.P,R22,1*%
%TO.N,5V*%
X96215200Y-35432400D03*
%TO.P,R22,2*%
%TO.N,/P15*%
X96215200Y-38532400D03*
%TD*%
%TO.P,R21,1*%
%TO.N,5V*%
X98755200Y-35432400D03*
%TO.P,R21,2*%
%TO.N,/P14*%
X98755200Y-38532400D03*
%TD*%
%TO.P,R20,1*%
%TO.N,5V*%
X101295200Y-35432400D03*
%TO.P,R20,2*%
%TO.N,/P13*%
X101295200Y-38532400D03*
%TD*%
%TO.P,R19,1*%
%TO.N,5V*%
X103835200Y-35432400D03*
%TO.P,R19,2*%
%TO.N,/P12*%
X103835200Y-38532400D03*
%TD*%
%TO.P,R5,1*%
%TO.N,5V*%
X106375200Y-35432400D03*
%TO.P,R5,2*%
%TO.N,/P11*%
X106375200Y-38532400D03*
%TD*%
%TO.P,R4,1*%
%TO.N,5V*%
X108915200Y-35432400D03*
%TO.P,R4,2*%
%TO.N,/P10*%
X108915200Y-38532400D03*
%TD*%
D12*
%TO.P,J1,1,Pin_1*%
%TO.N,5V*%
X84774000Y-49561200D03*
D13*
%TO.P,J1,2,Pin_2*%
%TO.N,GND*%
X84774000Y-52061200D03*
%TO.P,J1,3,Pin_3*%
%TO.N,/SCL*%
X84774000Y-54561200D03*
%TO.P,J1,4,Pin_4*%
%TO.N,/SDA*%
X84774000Y-57061200D03*
%TD*%
D14*
%TO.P,R1,1*%
%TO.N,5V*%
X78968000Y-54610000D03*
%TO.P,R1,2*%
%TO.N,/SCL*%
X82068000Y-54610000D03*
%TD*%
%TO.P,R7,1*%
%TO.N,5V*%
X111988000Y-48260000D03*
%TO.P,R7,2*%
%TO.N,/1_A1*%
X115088000Y-48260000D03*
%TD*%
%TO.P,R10,1*%
%TO.N,/1_A2*%
X117042000Y-52070000D03*
%TO.P,R10,2*%
%TO.N,GND*%
X120142000Y-52070000D03*
%TD*%
D15*
%TO.P,J2,1,Pin_1*%
%TO.N,/P00*%
X108904000Y-65240000D03*
D16*
%TO.P,J2,2,Pin_2*%
%TO.N,/P01*%
X106364000Y-65240000D03*
%TO.P,J2,3,Pin_3*%
%TO.N,/P02*%
X103824000Y-65240000D03*
%TO.P,J2,4,Pin_4*%
%TO.N,/P03*%
X101284000Y-65240000D03*
%TO.P,J2,5,Pin_5*%
%TO.N,/P04*%
X98744000Y-65240000D03*
%TO.P,J2,6,Pin_6*%
%TO.N,/P05*%
X96204000Y-65240000D03*
%TO.P,J2,7,Pin_7*%
%TO.N,/P06*%
X93664000Y-65240000D03*
%TO.P,J2,8,Pin_8*%
%TO.N,/P07*%
X91124000Y-65240000D03*
%TD*%
D14*
%TO.P,R3,1*%
%TO.N,5V*%
X78968000Y-59182000D03*
%TO.P,R3,2*%
%TO.N,Net-(U1-~{INT})*%
X82068000Y-59182000D03*
%TD*%
%TO.P,R9,1*%
%TO.N,5V*%
X111988000Y-52070000D03*
%TO.P,R9,2*%
%TO.N,/1_A2*%
X115088000Y-52070000D03*
%TD*%
D17*
%TO.P,C1,1*%
%TO.N,GND*%
X91440000Y-45300500D03*
%TO.P,C1,2*%
%TO.N,5V*%
X91440000Y-48425500D03*
%TD*%
D15*
%TO.P,J3,1,Pin_1*%
%TO.N,/P10*%
X108904000Y-41364000D03*
D16*
%TO.P,J3,2,Pin_2*%
%TO.N,/P11*%
X106364000Y-41364000D03*
%TO.P,J3,3,Pin_3*%
%TO.N,/P12*%
X103824000Y-41364000D03*
%TO.P,J3,4,Pin_4*%
%TO.N,/P13*%
X101284000Y-41364000D03*
%TO.P,J3,5,Pin_5*%
%TO.N,/P14*%
X98744000Y-41364000D03*
%TO.P,J3,6,Pin_6*%
%TO.N,/P15*%
X96204000Y-41364000D03*
%TO.P,J3,7,Pin_7*%
%TO.N,/P16*%
X93664000Y-41364000D03*
%TO.P,J3,8,Pin_8*%
%TO.N,/P17*%
X91124000Y-41364000D03*
%TD*%
D14*
%TO.P,R8,1*%
%TO.N,5V*%
X112014000Y-44450000D03*
%TO.P,R8,2*%
%TO.N,/1_A0*%
X115114000Y-44450000D03*
%TD*%
%TO.P,R11,1*%
%TO.N,/1_A1*%
X117068000Y-48260000D03*
%TO.P,R11,2*%
%TO.N,GND*%
X120168000Y-48260000D03*
%TD*%
%TO.P,R2,1*%
%TO.N,5V*%
X78968000Y-56896000D03*
%TO.P,R2,2*%
%TO.N,/SDA*%
X82068000Y-56896000D03*
%TD*%
D18*
%TO.P,U1,1,A0*%
%TO.N,/1_A0*%
X103948100Y-49936400D03*
%TO.P,U1,2,A1*%
%TO.N,/1_A1*%
X103948100Y-51206400D03*
%TO.P,U1,3,A2*%
%TO.N,/1_A2*%
X103948100Y-52476400D03*
%TO.P,U1,4,P0*%
%TO.N,/P00*%
X103948100Y-53746400D03*
%TO.P,U1,5,P1*%
%TO.N,/P01*%
X103948100Y-55016400D03*
%TO.P,U1,6,P2*%
%TO.N,/P02*%
X103948100Y-56286400D03*
%TO.P,U1,7,P3*%
%TO.N,/P03*%
X103948100Y-57556400D03*
%TO.P,U1,8,VSS*%
%TO.N,GND*%
X103948100Y-58826400D03*
%TO.P,U1,9,P4*%
%TO.N,/P04*%
X94550100Y-58826400D03*
%TO.P,U1,10,P5*%
%TO.N,/P05*%
X94550100Y-57556400D03*
%TO.P,U1,11,P6*%
%TO.N,/P06*%
X94550100Y-56286400D03*
%TO.P,U1,12,P7*%
%TO.N,/P07*%
X94550100Y-55016400D03*
%TO.P,U1,13,~{INT}*%
%TO.N,Net-(U1-~{INT})*%
X94550100Y-53746400D03*
%TO.P,U1,14,SCL*%
%TO.N,/SCL*%
X94550100Y-52476400D03*
%TO.P,U1,15,SDA*%
%TO.N,/SDA*%
X94550100Y-51206400D03*
%TO.P,U1,16,VDD*%
%TO.N,5V*%
X94550100Y-49936400D03*
%TD*%
D14*
%TO.P,R12,1*%
%TO.N,/1_A0*%
X117068000Y-44450000D03*
%TO.P,R12,2*%
%TO.N,GND*%
X120168000Y-44450000D03*
%TD*%
D19*
%TO.N,GND*%
X87426800Y-42418000D03*
D20*
%TO.N,/P02*%
X101346000Y-58928000D03*
X100863400Y-56286400D03*
%TO.N,/P12*%
X101854000Y-46482000D03*
X100584000Y-50038000D03*
%TO.N,/SCL*%
X88773000Y-53467000D03*
%TO.N,5V*%
X110236000Y-62230000D03*
X110236000Y-58420000D03*
X110236000Y-54610000D03*
X97282000Y-56261000D03*
%TO.N,/1_A1*%
X108839000Y-48260000D03*
X114300000Y-46482000D03*
%TO.N,/1_A0*%
X108839000Y-46101000D03*
X113792000Y-42418000D03*
%TO.N,/1_A2*%
X113792000Y-50292000D03*
X108839000Y-50292000D03*
D19*
%TO.N,GND*%
X83439000Y-65151000D03*
X98552000Y-45593000D03*
X84582000Y-62738000D03*
X120142000Y-41910000D03*
X85725000Y-65151000D03*
X82296000Y-62738000D03*
X103886000Y-60960000D03*
X100584000Y-53086000D03*
X103886000Y-45720000D03*
%TD*%
D21*
%TO.N,5V*%
X84774000Y-49561200D02*
X81222800Y-49561200D01*
X78970000Y-51814000D02*
X81222800Y-49561200D01*
X78970000Y-65508000D02*
X78970000Y-51814000D01*
X84352000Y-70890000D02*
X78970000Y-65508000D01*
X86918800Y-70890000D02*
X84352000Y-70890000D01*
X86918800Y-70890000D02*
X110593000Y-70890000D01*
D22*
X106375200Y-35763200D02*
X106426000Y-35814000D01*
X106375200Y-35432400D02*
X106375200Y-35763200D01*
D21*
X106426000Y-35814000D02*
X108864400Y-35814000D01*
X87731600Y-35814000D02*
X106426000Y-35814000D01*
D22*
%TO.N,/P17*%
X91124000Y-38543600D02*
X91135200Y-38532400D01*
X91124000Y-41364000D02*
X91124000Y-38543600D01*
%TO.N,/P16*%
X93664000Y-38543600D02*
X93675200Y-38532400D01*
X93664000Y-41364000D02*
X93664000Y-38543600D01*
%TO.N,/P15*%
X96204000Y-38543600D02*
X96215200Y-38532400D01*
X96204000Y-41364000D02*
X96204000Y-38543600D01*
%TO.N,/P14*%
X98744000Y-38543600D02*
X98755200Y-38532400D01*
X98744000Y-41364000D02*
X98744000Y-38543600D01*
%TO.N,/P13*%
X101284000Y-38543600D02*
X101295200Y-38532400D01*
X101284000Y-41364000D02*
X101284000Y-38543600D01*
%TO.N,/P12*%
X103824000Y-38543600D02*
X103835200Y-38532400D01*
X103824000Y-41364000D02*
X103824000Y-38543600D01*
%TO.N,/P11*%
X106364000Y-38543600D02*
X106375200Y-38532400D01*
X106364000Y-41364000D02*
X106364000Y-38543600D01*
%TO.N,/P10*%
X108904000Y-38543600D02*
X108915200Y-38532400D01*
X108904000Y-41364000D02*
X108904000Y-38543600D01*
%TO.N,/P00*%
X108915200Y-66700400D02*
X108915200Y-65251200D01*
X108915200Y-68046000D02*
X108915200Y-66700400D01*
D21*
%TO.N,5V*%
X84785200Y-42655436D02*
X84785200Y-38760400D01*
X84785200Y-38760400D02*
X87731600Y-35814000D01*
X84774000Y-42666636D02*
X84785200Y-42655436D01*
X84774000Y-49561200D02*
X84774000Y-42666636D01*
%TO.N,GND*%
X87426800Y-44145200D02*
X87731600Y-44450000D01*
X87426800Y-42418000D02*
X87426800Y-44145200D01*
X91059000Y-44450000D02*
X87731600Y-44450000D01*
D22*
%TO.N,/P07*%
X91135200Y-65251200D02*
X91124000Y-65240000D01*
X91135200Y-68046000D02*
X91135200Y-65251200D01*
%TO.N,/P06*%
X93675200Y-65251200D02*
X93664000Y-65240000D01*
X93675200Y-68046000D02*
X93675200Y-65251200D01*
%TO.N,/P05*%
X96215200Y-68046000D02*
X96215200Y-65251200D01*
X96215200Y-65251200D02*
X96204000Y-65240000D01*
%TO.N,/P04*%
X98755200Y-65251200D02*
X98744000Y-65240000D01*
X98755200Y-68046000D02*
X98755200Y-65251200D01*
%TO.N,/P03*%
X101295200Y-65251200D02*
X101284000Y-65240000D01*
X101295200Y-68046000D02*
X101295200Y-65251200D01*
%TO.N,/P02*%
X103835200Y-65251200D02*
X103824000Y-65240000D01*
X103835200Y-68046000D02*
X103835200Y-65251200D01*
%TO.N,/P01*%
X106375200Y-65251200D02*
X106364000Y-65240000D01*
X106375200Y-68046000D02*
X106375200Y-65251200D01*
%TO.N,/P00*%
X108915200Y-65251200D02*
X108904000Y-65240000D01*
D21*
%TO.N,5V*%
X110236000Y-62484000D02*
X110236000Y-54610000D01*
X112268000Y-64516000D02*
X110236000Y-62484000D01*
X83439000Y-69977000D02*
X84352000Y-70890000D01*
X110593000Y-70890000D02*
X112268000Y-69215000D01*
X112268000Y-69215000D02*
X112268000Y-64516000D01*
D23*
%TO.N,/P07*%
X91124000Y-65240000D02*
X91059000Y-65175000D01*
X89027000Y-61595000D02*
X89027000Y-56896000D01*
X91059000Y-63627000D02*
X89027000Y-61595000D01*
X90906600Y-55016400D02*
X94550100Y-55016400D01*
X91059000Y-65175000D02*
X91059000Y-63627000D01*
X89027000Y-56896000D02*
X90906600Y-55016400D01*
%TO.N,/P05*%
X94550100Y-57556400D02*
X92811600Y-57556400D01*
X96204000Y-63819000D02*
X96204000Y-65240000D01*
X91948000Y-59563000D02*
X96204000Y-63819000D01*
X92811600Y-57556400D02*
X91948000Y-58420000D01*
X91948000Y-58420000D02*
X91948000Y-59563000D01*
%TO.N,/P02*%
X103824000Y-65240000D02*
X103824000Y-63565000D01*
X103948100Y-56286400D02*
X100863400Y-56286400D01*
X103824000Y-63565000D02*
X101346000Y-61087000D01*
X101346000Y-61087000D02*
X101346000Y-58928000D01*
%TO.N,/P04*%
X98744000Y-63020300D02*
X98744000Y-65240000D01*
X94550100Y-58826400D02*
X98744000Y-63020300D01*
%TO.N,/P06*%
X93664000Y-65240000D02*
X93726000Y-65178000D01*
X90297000Y-60325000D02*
X90297000Y-57531000D01*
X93726000Y-63754000D02*
X90297000Y-60325000D01*
X93726000Y-65178000D02*
X93726000Y-63754000D01*
X90297000Y-57531000D02*
X91541600Y-56286400D01*
X91541600Y-56286400D02*
X94550100Y-56286400D01*
%TO.N,/P00*%
X108204000Y-55397400D02*
X106553000Y-53746400D01*
X108904000Y-65240000D02*
X108904000Y-64327000D01*
X108204000Y-63627000D02*
X108204000Y-55397400D01*
X108904000Y-64327000D02*
X108204000Y-63627000D01*
X106553000Y-53746400D02*
X103948100Y-53746400D01*
%TO.N,/P03*%
X100558600Y-57556400D02*
X103948100Y-57556400D01*
X99441000Y-61595000D02*
X99441000Y-58674000D01*
X101284000Y-63438000D02*
X99441000Y-61595000D01*
X101284000Y-65240000D02*
X101284000Y-63438000D01*
X99441000Y-58674000D02*
X100558600Y-57556400D01*
%TO.N,/P01*%
X106364000Y-65240000D02*
X106364000Y-55716400D01*
X103948100Y-55016400D02*
X105664000Y-55016400D01*
X106364000Y-55716400D02*
X105664000Y-55016400D01*
%TO.N,/P12*%
X100584000Y-47752000D02*
X101854000Y-46482000D01*
X100584000Y-50038000D02*
X100584000Y-47752000D01*
D24*
%TO.N,/SCL*%
X81993200Y-54789200D02*
X82068000Y-54864000D01*
X92456000Y-52451000D02*
X92837000Y-52451000D01*
X88773000Y-53467000D02*
X89408000Y-52832000D01*
X84774000Y-54561200D02*
X85295200Y-54561200D01*
X89789000Y-52451000D02*
X92456000Y-52451000D01*
X82116800Y-54561200D02*
X82068000Y-54610000D01*
X89408000Y-52832000D02*
X89789000Y-52451000D01*
X84774000Y-54561200D02*
X82116800Y-54561200D01*
X92481400Y-52476400D02*
X94550100Y-52476400D01*
X92456000Y-52451000D02*
X92481400Y-52476400D01*
D23*
%TO.N,5V*%
X89027000Y-49911000D02*
X88677200Y-49561200D01*
D21*
X111988000Y-48260000D02*
X110236000Y-48260000D01*
X111988000Y-52070000D02*
X110236000Y-52070000D01*
D23*
X91440000Y-49911000D02*
X89027000Y-49911000D01*
X88677200Y-49561200D02*
X84774000Y-49561200D01*
D22*
X81222800Y-49561200D02*
X78968000Y-51816000D01*
D21*
X110998000Y-44450000D02*
X110236000Y-45212000D01*
D23*
X98044000Y-55499000D02*
X98044000Y-51181000D01*
X96799400Y-49936400D02*
X94550100Y-49936400D01*
X91440000Y-48425500D02*
X91440000Y-49530000D01*
D22*
X78968000Y-56896000D02*
X78968000Y-59182000D01*
D23*
X97282000Y-56261000D02*
X98044000Y-55499000D01*
X93599000Y-49911000D02*
X93218000Y-49911000D01*
D22*
X78968000Y-51816000D02*
X78968000Y-54610000D01*
D23*
X91440000Y-49530000D02*
X91821000Y-49911000D01*
D21*
X78968000Y-59182000D02*
X78968000Y-63728000D01*
D23*
X96187000Y-49911000D02*
X93599000Y-49911000D01*
D21*
X112014000Y-44450000D02*
X110998000Y-44450000D01*
X110236000Y-45212000D02*
X110236000Y-48260000D01*
X110236000Y-52070000D02*
X110236000Y-48260000D01*
D23*
X98044000Y-51181000D02*
X96799400Y-49936400D01*
D22*
X78968000Y-54610000D02*
X78968000Y-56896000D01*
D23*
X93218000Y-49911000D02*
X91821000Y-49911000D01*
X91821000Y-49911000D02*
X91440000Y-49911000D01*
D21*
X110236000Y-54610000D02*
X110236000Y-52070000D01*
D24*
%TO.N,/SDA*%
X88112600Y-51206400D02*
X94550100Y-51206400D01*
X82233200Y-57061200D02*
X82068000Y-56896000D01*
X86614000Y-56007000D02*
X86614000Y-52705000D01*
X86614000Y-52705000D02*
X88112600Y-51206400D01*
X84774000Y-57061200D02*
X85559800Y-57061200D01*
X84774000Y-57061200D02*
X82233200Y-57061200D01*
X85559800Y-57061200D02*
X86614000Y-56007000D01*
%TO.N,Net-(U1-~{INT})*%
X87757000Y-57023000D02*
X87757000Y-56159400D01*
X82068000Y-59182000D02*
X85598000Y-59182000D01*
X90170000Y-53746400D02*
X94550100Y-53746400D01*
X87757000Y-56159400D02*
X90170000Y-53746400D01*
X85598000Y-59182000D02*
X87757000Y-57023000D01*
%TO.N,/1_A1*%
X115088000Y-48260000D02*
X115088000Y-47270000D01*
X117068000Y-48260000D02*
X115088000Y-48260000D01*
X103948100Y-51206400D02*
X105892600Y-51206400D01*
X105892600Y-51206400D02*
X108839000Y-48260000D01*
X115088000Y-47270000D02*
X114300000Y-46482000D01*
%TO.N,/1_A0*%
X103948100Y-49936400D02*
X105003600Y-49936400D01*
X115114000Y-43232000D02*
X114300000Y-42418000D01*
X105003600Y-49936400D02*
X105029000Y-49911000D01*
X114300000Y-42418000D02*
X113792000Y-42418000D01*
X108839000Y-46228000D02*
X108839000Y-46101000D01*
X115114000Y-44450000D02*
X115114000Y-43232000D01*
X103948100Y-49936400D02*
X105130600Y-49936400D01*
X117068000Y-44450000D02*
X115114000Y-44450000D01*
X105130600Y-49936400D02*
X108839000Y-46228000D01*
%TO.N,/1_A2*%
X103948100Y-52476400D02*
X106654600Y-52476400D01*
X114300000Y-50292000D02*
X113792000Y-50292000D01*
X115088000Y-51080000D02*
X114300000Y-50292000D01*
X117042000Y-52070000D02*
X115088000Y-52070000D01*
X106654600Y-52476400D02*
X108839000Y-50292000D01*
X115088000Y-52070000D02*
X115088000Y-51080000D01*
D21*
%TO.N,GND*%
X120142000Y-41910000D02*
X120142000Y-45440000D01*
D23*
X103886000Y-58888500D02*
X103948100Y-58826400D01*
X93599000Y-44704000D02*
X93345000Y-44450000D01*
X103886000Y-60960000D02*
X103886000Y-58888500D01*
X91440000Y-44831000D02*
X91059000Y-44450000D01*
X91440000Y-45300500D02*
X91440000Y-44831000D01*
D21*
X103886000Y-45720000D02*
X102616000Y-44450000D01*
X102362000Y-44450000D02*
X101092000Y-44450000D01*
X120168000Y-52044000D02*
X120142000Y-52070000D01*
X120168000Y-44450000D02*
X120168000Y-45466000D01*
D22*
X98552000Y-45593000D02*
X98552000Y-44450000D01*
D21*
X120168000Y-48260000D02*
X120168000Y-52044000D01*
X101092000Y-44450000D02*
X98552000Y-44450000D01*
X98552000Y-44450000D02*
X93345000Y-44450000D01*
D22*
X102362000Y-44450000D02*
X102616000Y-44450000D01*
D21*
X120142000Y-45440000D02*
X120168000Y-45466000D01*
X120168000Y-45466000D02*
X120168000Y-48260000D01*
X102616000Y-44450000D02*
X101092000Y-44450000D01*
X93345000Y-44450000D02*
X91059000Y-44450000D01*
%TD*%
%TA.AperFunction,Conductor*%
%TO.N,GND*%
G36*
X116848703Y-34790879D02*
G01*
X117221733Y-34807166D01*
X117256399Y-34810199D01*
X117617950Y-34857799D01*
X117652222Y-34863841D01*
X118008257Y-34942773D01*
X118041867Y-34951778D01*
X118389681Y-35061444D01*
X118422366Y-35073340D01*
X118759300Y-35212902D01*
X118790808Y-35227594D01*
X119114313Y-35396001D01*
X119144432Y-35413390D01*
X119452001Y-35609333D01*
X119480513Y-35629298D01*
X119769821Y-35851291D01*
X119796486Y-35873665D01*
X120065351Y-36120034D01*
X120089965Y-36144648D01*
X120336334Y-36413513D01*
X120358708Y-36440178D01*
X120580701Y-36729486D01*
X120600666Y-36757998D01*
X120796601Y-37065554D01*
X120814002Y-37095693D01*
X120982400Y-37419182D01*
X120997101Y-37450709D01*
X121112142Y-37728444D01*
X121136654Y-37787621D01*
X121148559Y-37820329D01*
X121258218Y-38168123D01*
X121267227Y-38201746D01*
X121346157Y-38557776D01*
X121352201Y-38592055D01*
X121399799Y-38953595D01*
X121402833Y-38988270D01*
X121419120Y-39361295D01*
X121419500Y-39378700D01*
X121419500Y-67301299D01*
X121419120Y-67318704D01*
X121402833Y-67691729D01*
X121399799Y-67726404D01*
X121352201Y-68087944D01*
X121346157Y-68122223D01*
X121267227Y-68478253D01*
X121258218Y-68511876D01*
X121148559Y-68859670D01*
X121136654Y-68892378D01*
X120997104Y-69229284D01*
X120982396Y-69260826D01*
X120941441Y-69339500D01*
X120814005Y-69584301D01*
X120796601Y-69614445D01*
X120600666Y-69922001D01*
X120580701Y-69950513D01*
X120358708Y-70239821D01*
X120336334Y-70266486D01*
X120089965Y-70535351D01*
X120065351Y-70559965D01*
X119796486Y-70806334D01*
X119769821Y-70828708D01*
X119480513Y-71050701D01*
X119452001Y-71070666D01*
X119144445Y-71266601D01*
X119114301Y-71284005D01*
X119098770Y-71292090D01*
X118790826Y-71452396D01*
X118759284Y-71467104D01*
X118422378Y-71606654D01*
X118389670Y-71618559D01*
X118041876Y-71728218D01*
X118008253Y-71737227D01*
X117652223Y-71816157D01*
X117617944Y-71822201D01*
X117256404Y-71869799D01*
X117221729Y-71872833D01*
X116877125Y-71887879D01*
X116848702Y-71889120D01*
X116831300Y-71889500D01*
X112749510Y-71889500D01*
X112626212Y-71869972D01*
X112514984Y-71813298D01*
X112426712Y-71725026D01*
X112370038Y-71613798D01*
X112350510Y-71490500D01*
X112370038Y-71367202D01*
X112426712Y-71255974D01*
X112467374Y-71208365D01*
X113140387Y-70535351D01*
X113450655Y-70225083D01*
X113594106Y-70027639D01*
X113704904Y-69810185D01*
X113780321Y-69578076D01*
X113818500Y-69337027D01*
X113818500Y-69092973D01*
X113818500Y-67188712D01*
X114989500Y-67188712D01*
X114989500Y-67431288D01*
X114990656Y-67440066D01*
X115021161Y-67671789D01*
X115021162Y-67671791D01*
X115083943Y-67906093D01*
X115083946Y-67906100D01*
X115176776Y-68130212D01*
X115176777Y-68130215D01*
X115176779Y-68130218D01*
X115298064Y-68340290D01*
X115429727Y-68511876D01*
X115445735Y-68532738D01*
X115617262Y-68704265D01*
X115617266Y-68704268D01*
X115617267Y-68704269D01*
X115809709Y-68851935D01*
X115976681Y-68948336D01*
X116019788Y-68973224D01*
X116243900Y-69066054D01*
X116243903Y-69066054D01*
X116243906Y-69066056D01*
X116344362Y-69092973D01*
X116478208Y-69128837D01*
X116478210Y-69128838D01*
X116518294Y-69134115D01*
X116718712Y-69160500D01*
X116718717Y-69160500D01*
X116961283Y-69160500D01*
X116961288Y-69160500D01*
X117201789Y-69128838D01*
X117386583Y-69079321D01*
X117436093Y-69066056D01*
X117436093Y-69066055D01*
X117436100Y-69066054D01*
X117660212Y-68973224D01*
X117870289Y-68851936D01*
X118062738Y-68704265D01*
X118234265Y-68532738D01*
X118381936Y-68340289D01*
X118503224Y-68130212D01*
X118596054Y-67906100D01*
X118658838Y-67671789D01*
X118690500Y-67431288D01*
X118690500Y-67188712D01*
X118658838Y-66948211D01*
X118617442Y-66793719D01*
X118596056Y-66713906D01*
X118578044Y-66670421D01*
X118503224Y-66489788D01*
X118381936Y-66279711D01*
X118381935Y-66279709D01*
X118234269Y-66087267D01*
X118234268Y-66087266D01*
X118234265Y-66087262D01*
X118062738Y-65915735D01*
X118062733Y-65915731D01*
X118062732Y-65915730D01*
X117870290Y-65768064D01*
X117660218Y-65646779D01*
X117660215Y-65646777D01*
X117660212Y-65646776D01*
X117436100Y-65553946D01*
X117436093Y-65553943D01*
X117201791Y-65491162D01*
X117201789Y-65491161D01*
X117056753Y-65472067D01*
X116961288Y-65459500D01*
X116718712Y-65459500D01*
X116630268Y-65471143D01*
X116478210Y-65491161D01*
X116478208Y-65491162D01*
X116243906Y-65553943D01*
X116019781Y-65646779D01*
X115809709Y-65768064D01*
X115617267Y-65915730D01*
X115445730Y-66087267D01*
X115298064Y-66279709D01*
X115176779Y-66489781D01*
X115083943Y-66713906D01*
X115021162Y-66948208D01*
X115021161Y-66948210D01*
X115001143Y-67100268D01*
X114989500Y-67188712D01*
X113818500Y-67188712D01*
X113818500Y-64393973D01*
X113780321Y-64152924D01*
X113704904Y-63920815D01*
X113594106Y-63703361D01*
X113594104Y-63703358D01*
X113594103Y-63703356D01*
X113450664Y-63505928D01*
X113450654Y-63505916D01*
X113278083Y-63333344D01*
X113278083Y-63333345D01*
X111903364Y-61958626D01*
X111829988Y-61857632D01*
X111791412Y-61738907D01*
X111786500Y-61676490D01*
X111786500Y-54144500D01*
X111806028Y-54021202D01*
X111862702Y-53909974D01*
X111950974Y-53821702D01*
X112062202Y-53765028D01*
X112185500Y-53745500D01*
X112439603Y-53745500D01*
X112439608Y-53745500D01*
X112593934Y-53730300D01*
X112791954Y-53670232D01*
X112974450Y-53572685D01*
X113134410Y-53441410D01*
X113229568Y-53325459D01*
X113322882Y-53242536D01*
X113437254Y-53192508D01*
X113561487Y-53180272D01*
X113683422Y-53207025D01*
X113791121Y-53270148D01*
X113846432Y-53325459D01*
X113941582Y-53441401D01*
X113941585Y-53441404D01*
X113941590Y-53441410D01*
X114101550Y-53572685D01*
X114284046Y-53670232D01*
X114482066Y-53730300D01*
X114636392Y-53745500D01*
X114636397Y-53745500D01*
X115539603Y-53745500D01*
X115539608Y-53745500D01*
X115693934Y-53730300D01*
X115891954Y-53670232D01*
X115891960Y-53670229D01*
X115910063Y-53662731D01*
X115911528Y-53666268D01*
X115994854Y-53637372D01*
X116119665Y-53634920D01*
X116218978Y-53665045D01*
X116219937Y-53662731D01*
X116238039Y-53670229D01*
X116238042Y-53670229D01*
X116238046Y-53670232D01*
X116436066Y-53730300D01*
X116590392Y-53745500D01*
X116590397Y-53745500D01*
X117493603Y-53745500D01*
X117493608Y-53745500D01*
X117647934Y-53730300D01*
X117845954Y-53670232D01*
X118028450Y-53572685D01*
X118188410Y-53441410D01*
X118319685Y-53281450D01*
X118417232Y-53098954D01*
X118477300Y-52900934D01*
X118492500Y-52746608D01*
X118492500Y-51393392D01*
X118477300Y-51239066D01*
X118417232Y-51041046D01*
X118319685Y-50858550D01*
X118188410Y-50698590D01*
X118028450Y-50567315D01*
X117947101Y-50523833D01*
X117847570Y-50448489D01*
X117776192Y-50346074D01*
X117739955Y-50226614D01*
X117742406Y-50101804D01*
X117783306Y-49983859D01*
X117858651Y-49884326D01*
X117947100Y-49820065D01*
X118054450Y-49762685D01*
X118214410Y-49631410D01*
X118345685Y-49471450D01*
X118443232Y-49288954D01*
X118503300Y-49090934D01*
X118518500Y-48936608D01*
X118518500Y-47583392D01*
X118503300Y-47429066D01*
X118443232Y-47231046D01*
X118345685Y-47048550D01*
X118214410Y-46888590D01*
X118054450Y-46757315D01*
X118054449Y-46757314D01*
X118022181Y-46740067D01*
X117960100Y-46706883D01*
X117860572Y-46631542D01*
X117789193Y-46529127D01*
X117752955Y-46409668D01*
X117755406Y-46284858D01*
X117796305Y-46166913D01*
X117871650Y-46067380D01*
X117960100Y-46003116D01*
X118054450Y-45952685D01*
X118214410Y-45821410D01*
X118345685Y-45661450D01*
X118443232Y-45478954D01*
X118503300Y-45280934D01*
X118518500Y-45126608D01*
X118518500Y-43773392D01*
X118503300Y-43619066D01*
X118443232Y-43421046D01*
X118345685Y-43238550D01*
X118214410Y-43078590D01*
X118054450Y-42947315D01*
X118054446Y-42947313D01*
X118054445Y-42947312D01*
X117964995Y-42899500D01*
X117871954Y-42849768D01*
X117673934Y-42789700D01*
X117519608Y-42774500D01*
X116616392Y-42774500D01*
X116462066Y-42789700D01*
X116462064Y-42789700D01*
X116462058Y-42789701D01*
X116442842Y-42793524D01*
X116442035Y-42789470D01*
X116356154Y-42801201D01*
X116233301Y-42779047D01*
X116123307Y-42720013D01*
X116041869Y-42636819D01*
X115953414Y-42515072D01*
X115016927Y-41578585D01*
X114876789Y-41476768D01*
X114722445Y-41398127D01*
X114722443Y-41398126D01*
X114555961Y-41344032D01*
X114459842Y-41296109D01*
X114459823Y-41296144D01*
X114459259Y-41295818D01*
X114450411Y-41291407D01*
X114444737Y-41287434D01*
X114444735Y-41287433D01*
X114444736Y-41287433D01*
X114444734Y-41287432D01*
X114238496Y-41191261D01*
X114238494Y-41191260D01*
X114018696Y-41132366D01*
X114018694Y-41132365D01*
X114018692Y-41132365D01*
X113792000Y-41112532D01*
X113565308Y-41132365D01*
X113565303Y-41132366D01*
X113345503Y-41191260D01*
X113139268Y-41287430D01*
X113139263Y-41287433D01*
X112952865Y-41417949D01*
X112791949Y-41578865D01*
X112661433Y-41765263D01*
X112661430Y-41765268D01*
X112565260Y-41971503D01*
X112506366Y-42191303D01*
X112506365Y-42191308D01*
X112488756Y-42392586D01*
X112487208Y-42410276D01*
X112457007Y-42531403D01*
X112390854Y-42637268D01*
X112295225Y-42717510D01*
X112179481Y-42764274D01*
X112089726Y-42774500D01*
X111562392Y-42774500D01*
X111408065Y-42789700D01*
X111317561Y-42817154D01*
X111215298Y-42848175D01*
X111210043Y-42849769D01*
X111205146Y-42852387D01*
X111196407Y-42855417D01*
X111191937Y-42857269D01*
X111191827Y-42857005D01*
X111087201Y-42893287D01*
X111017060Y-42899500D01*
X110924151Y-42899500D01*
X110800853Y-42879972D01*
X110689625Y-42823298D01*
X110601353Y-42735026D01*
X110544679Y-42623798D01*
X110525151Y-42500500D01*
X110535154Y-42411717D01*
X110539364Y-42393265D01*
X110539368Y-42393255D01*
X110554500Y-42258954D01*
X110554500Y-40469046D01*
X110539368Y-40334745D01*
X110479789Y-40164478D01*
X110383816Y-40011738D01*
X110383814Y-40011736D01*
X110376054Y-39999386D01*
X110326991Y-39884597D01*
X110315801Y-39760265D01*
X110343579Y-39638560D01*
X110405470Y-39533978D01*
X110417879Y-39518857D01*
X110417885Y-39518850D01*
X110515432Y-39336354D01*
X110575500Y-39138334D01*
X110590700Y-38984008D01*
X110590700Y-38080792D01*
X110575500Y-37926466D01*
X110515432Y-37728446D01*
X110417885Y-37545950D01*
X110286610Y-37385990D01*
X110260424Y-37364500D01*
X110171560Y-37291571D01*
X110088638Y-37198256D01*
X110038611Y-37083884D01*
X110026375Y-36959651D01*
X110053128Y-36837716D01*
X110101876Y-36748626D01*
X110104549Y-36744947D01*
X110174227Y-36671038D01*
X110286610Y-36578810D01*
X110417885Y-36418850D01*
X110515432Y-36236354D01*
X110575500Y-36038334D01*
X110590700Y-35884008D01*
X110590700Y-35189500D01*
X110610228Y-35066202D01*
X110666902Y-34954974D01*
X110755174Y-34866702D01*
X110866402Y-34810028D01*
X110989700Y-34790500D01*
X116774108Y-34790500D01*
X116831300Y-34790500D01*
X116848703Y-34790879D01*
G37*
%TD.AperFunction*%
%TA.AperFunction,Conductor*%
G36*
X87608642Y-59117602D02*
G01*
X87709636Y-59190978D01*
X87783012Y-59291972D01*
X87821588Y-59410697D01*
X87826500Y-59473114D01*
X87826500Y-61500519D01*
X87826500Y-61689481D01*
X87850619Y-61841762D01*
X87856061Y-61876123D01*
X87914452Y-62055830D01*
X88000241Y-62224201D01*
X88103818Y-62366762D01*
X88111310Y-62377074D01*
X88954666Y-63220430D01*
X89644434Y-63910198D01*
X89717810Y-64011192D01*
X89756386Y-64129917D01*
X89756386Y-64254751D01*
X89717810Y-64373476D01*
X89702504Y-64400807D01*
X89648846Y-64488370D01*
X89549426Y-64728390D01*
X89488778Y-64981008D01*
X89468396Y-65239999D01*
X89468396Y-65240000D01*
X89488778Y-65498991D01*
X89549426Y-65751609D01*
X89648845Y-65991627D01*
X89648846Y-65991628D01*
X89775905Y-66198972D01*
X89823675Y-66314297D01*
X89834700Y-66407443D01*
X89834700Y-66670421D01*
X89815172Y-66793719D01*
X89758498Y-66904947D01*
X89744132Y-66923543D01*
X89632518Y-67059545D01*
X89632512Y-67059554D01*
X89534969Y-67242044D01*
X89477563Y-67431288D01*
X89474900Y-67440066D01*
X89459700Y-67594392D01*
X89459700Y-68497608D01*
X89474900Y-68651934D01*
X89527059Y-68823881D01*
X89527301Y-68824679D01*
X89544404Y-68948336D01*
X89522458Y-69071227D01*
X89463611Y-69181321D01*
X89373623Y-69267841D01*
X89261302Y-69322320D01*
X89145481Y-69339500D01*
X85159510Y-69339500D01*
X85036212Y-69319972D01*
X84924984Y-69263298D01*
X84877374Y-69222636D01*
X80637364Y-64982626D01*
X80563988Y-64881632D01*
X80525412Y-64762907D01*
X80520500Y-64700490D01*
X80520500Y-61050488D01*
X80540028Y-60927190D01*
X80596702Y-60815962D01*
X80684974Y-60727690D01*
X80796202Y-60671016D01*
X80919500Y-60651488D01*
X81042798Y-60671016D01*
X81107586Y-60698601D01*
X81264046Y-60782232D01*
X81462066Y-60842300D01*
X81616392Y-60857500D01*
X81616397Y-60857500D01*
X82519603Y-60857500D01*
X82519608Y-60857500D01*
X82673934Y-60842300D01*
X82871954Y-60782232D01*
X83054450Y-60684685D01*
X83214410Y-60553410D01*
X83317021Y-60428376D01*
X83410335Y-60345456D01*
X83524706Y-60295428D01*
X83625452Y-60282500D01*
X85684608Y-60282500D01*
X85684611Y-60282500D01*
X85855701Y-60255402D01*
X86020445Y-60201873D01*
X86174788Y-60123232D01*
X86314928Y-60021414D01*
X87145364Y-59190978D01*
X87246358Y-59117602D01*
X87365083Y-59079026D01*
X87489917Y-59079026D01*
X87608642Y-59117602D01*
G37*
%TD.AperFunction*%
%TA.AperFunction,Conductor*%
G36*
X104887798Y-58676428D02*
G01*
X104999026Y-58733102D01*
X105087298Y-58821374D01*
X105143972Y-58932602D01*
X105163500Y-59055900D01*
X105163500Y-62243464D01*
X105143972Y-62366762D01*
X105087298Y-62477990D01*
X104999026Y-62566262D01*
X104887798Y-62622936D01*
X104764500Y-62642464D01*
X104641202Y-62622936D01*
X104529974Y-62566262D01*
X104482364Y-62525600D01*
X102663364Y-60706600D01*
X102589988Y-60605606D01*
X102551412Y-60486881D01*
X102546500Y-60424464D01*
X102546500Y-59516942D01*
X102566028Y-59393644D01*
X102570564Y-59380472D01*
X102572739Y-59374495D01*
X102631635Y-59154692D01*
X102634572Y-59121120D01*
X102664772Y-58999998D01*
X102730924Y-58894133D01*
X102826553Y-58813890D01*
X102942297Y-58767126D01*
X103032053Y-58756900D01*
X104042578Y-58756900D01*
X104042581Y-58756900D01*
X104229218Y-58727340D01*
X104385905Y-58676429D01*
X104509202Y-58656900D01*
X104764500Y-58656900D01*
X104887798Y-58676428D01*
G37*
%TD.AperFunction*%
%TA.AperFunction,Conductor*%
G36*
X99766798Y-51074689D02*
G01*
X99872355Y-51127318D01*
X99931266Y-51168568D01*
X99931267Y-51168568D01*
X99931268Y-51168569D01*
X100137503Y-51264739D01*
X100200953Y-51281740D01*
X100357308Y-51323635D01*
X100584000Y-51343468D01*
X100810692Y-51323635D01*
X101030496Y-51264739D01*
X101236734Y-51168568D01*
X101273349Y-51142929D01*
X101385545Y-51088208D01*
X101509165Y-51070834D01*
X101632103Y-51092511D01*
X101742326Y-51151116D01*
X101829044Y-51240915D01*
X101883768Y-51353115D01*
X101899635Y-51434439D01*
X101907681Y-51524939D01*
X101907684Y-51524956D01*
X101966429Y-51730261D01*
X101962527Y-51731377D01*
X101981518Y-51815296D01*
X101970098Y-51939607D01*
X101965941Y-51952399D01*
X101966429Y-51952539D01*
X101907684Y-52157843D01*
X101907681Y-52157860D01*
X101897600Y-52271250D01*
X101897600Y-52681549D01*
X101907681Y-52794939D01*
X101907684Y-52794956D01*
X101966429Y-53000261D01*
X101962527Y-53001377D01*
X101981518Y-53085296D01*
X101970098Y-53209607D01*
X101965941Y-53222399D01*
X101966429Y-53222539D01*
X101907684Y-53427843D01*
X101907681Y-53427860D01*
X101897600Y-53541250D01*
X101897600Y-53951549D01*
X101907681Y-54064939D01*
X101907684Y-54064956D01*
X101966429Y-54270261D01*
X101962527Y-54271377D01*
X101981518Y-54355296D01*
X101970098Y-54479607D01*
X101965941Y-54492399D01*
X101966429Y-54492539D01*
X101907684Y-54697843D01*
X101907681Y-54697859D01*
X101905514Y-54722235D01*
X101875143Y-54843319D01*
X101808842Y-54949092D01*
X101713100Y-55029199D01*
X101597289Y-55075800D01*
X101508082Y-55085900D01*
X101452342Y-55085900D01*
X101329044Y-55066372D01*
X101315872Y-55061836D01*
X101309895Y-55059660D01*
X101090096Y-55000766D01*
X101090094Y-55000765D01*
X101090092Y-55000765D01*
X100863400Y-54980932D01*
X100636708Y-55000765D01*
X100636703Y-55000766D01*
X100416903Y-55059660D01*
X100210668Y-55155830D01*
X100210663Y-55155833D01*
X100024265Y-55286349D01*
X100024262Y-55286352D01*
X100024261Y-55286353D01*
X99925632Y-55384981D01*
X99824642Y-55458355D01*
X99705917Y-55496931D01*
X99581083Y-55496931D01*
X99462358Y-55458355D01*
X99361364Y-55384979D01*
X99287988Y-55283985D01*
X99249412Y-55165260D01*
X99244500Y-55102843D01*
X99244500Y-51454161D01*
X99264028Y-51330863D01*
X99320702Y-51219635D01*
X99408974Y-51131363D01*
X99520202Y-51074689D01*
X99643500Y-51055161D01*
X99766798Y-51074689D01*
G37*
%TD.AperFunction*%
%TA.AperFunction,Conductor*%
G36*
X83626282Y-51130754D02*
G01*
X83626287Y-51130741D01*
X83626387Y-51130771D01*
X83629270Y-51131228D01*
X83635641Y-51133578D01*
X83645041Y-51136429D01*
X83645046Y-51136432D01*
X83843066Y-51196500D01*
X83997392Y-51211700D01*
X83997397Y-51211700D01*
X85550603Y-51211700D01*
X85550608Y-51211700D01*
X85550612Y-51211699D01*
X85560397Y-51211219D01*
X85560450Y-51212304D01*
X85675063Y-51219051D01*
X85791316Y-51264538D01*
X85887823Y-51343722D01*
X85955137Y-51448853D01*
X85986670Y-51569639D01*
X85979334Y-51694258D01*
X85933847Y-51810511D01*
X85871732Y-51890924D01*
X85774588Y-51988068D01*
X85672768Y-52128210D01*
X85594127Y-52282554D01*
X85594124Y-52282563D01*
X85540598Y-52447296D01*
X85540597Y-52447298D01*
X85518893Y-52584335D01*
X85480317Y-52703059D01*
X85406941Y-52804053D01*
X85305947Y-52877428D01*
X85187222Y-52916004D01*
X85062397Y-52916005D01*
X85028899Y-52910700D01*
X85028897Y-52910700D01*
X84519103Y-52910700D01*
X84368833Y-52934500D01*
X84262505Y-52951340D01*
X84015427Y-53031621D01*
X84015424Y-53031622D01*
X83783950Y-53149565D01*
X83673688Y-53229675D01*
X83562460Y-53286348D01*
X83439162Y-53305876D01*
X83315864Y-53286347D01*
X83204636Y-53229673D01*
X83186041Y-53215308D01*
X83054454Y-53107318D01*
X83054445Y-53107312D01*
X82979087Y-53067032D01*
X82871954Y-53009768D01*
X82673934Y-52949700D01*
X82519608Y-52934500D01*
X81616392Y-52934500D01*
X81462065Y-52949700D01*
X81264043Y-53009769D01*
X81107588Y-53093397D01*
X80989643Y-53134297D01*
X80864833Y-53136748D01*
X80745373Y-53100511D01*
X80642959Y-53029132D01*
X80567614Y-52929599D01*
X80526714Y-52811654D01*
X80520500Y-52741511D01*
X80520500Y-52621510D01*
X80540028Y-52498212D01*
X80596702Y-52386984D01*
X80637364Y-52339374D01*
X81748174Y-51228564D01*
X81849168Y-51155188D01*
X81967893Y-51116612D01*
X82030310Y-51111700D01*
X83505972Y-51111700D01*
X83626282Y-51130754D01*
G37*
%TD.AperFunction*%
%TA.AperFunction,Conductor*%
G36*
X89230680Y-37384028D02*
G01*
X89341908Y-37440702D01*
X89430180Y-37528974D01*
X89486854Y-37640202D01*
X89506382Y-37763500D01*
X89489201Y-37879318D01*
X89481068Y-37906129D01*
X89474900Y-37926464D01*
X89459700Y-38080792D01*
X89459700Y-38984008D01*
X89474900Y-39138334D01*
X89534968Y-39336354D01*
X89632515Y-39518850D01*
X89732935Y-39641212D01*
X89796054Y-39748906D01*
X89822808Y-39870840D01*
X89823500Y-39894330D01*
X89823500Y-40214832D01*
X89803972Y-40338130D01*
X89764706Y-40423304D01*
X89691435Y-40542871D01*
X89648845Y-40612373D01*
X89549426Y-40852390D01*
X89488778Y-41105008D01*
X89468396Y-41363999D01*
X89468396Y-41364000D01*
X89488778Y-41622991D01*
X89549426Y-41875609D01*
X89648846Y-42115629D01*
X89784582Y-42337132D01*
X89784588Y-42337140D01*
X89953308Y-42534686D01*
X89953313Y-42534691D01*
X90014104Y-42586611D01*
X90150856Y-42703409D01*
X90150859Y-42703411D01*
X90150867Y-42703417D01*
X90336471Y-42817154D01*
X90372372Y-42839154D01*
X90612390Y-42938573D01*
X90865006Y-42999221D01*
X91037668Y-43012809D01*
X91123999Y-43019604D01*
X91124000Y-43019604D01*
X91124001Y-43019604D01*
X91206693Y-43013096D01*
X91382994Y-42999221D01*
X91635610Y-42938573D01*
X91875628Y-42839154D01*
X92052531Y-42730747D01*
X92097132Y-42703417D01*
X92097132Y-42703416D01*
X92097140Y-42703412D01*
X92134871Y-42671186D01*
X92241305Y-42605962D01*
X92362690Y-42576818D01*
X92487140Y-42586611D01*
X92602473Y-42634382D01*
X92653124Y-42671182D01*
X92690860Y-42703412D01*
X92690863Y-42703413D01*
X92690867Y-42703417D01*
X92876471Y-42817154D01*
X92912372Y-42839154D01*
X93152390Y-42938573D01*
X93405006Y-42999221D01*
X93577668Y-43012809D01*
X93663999Y-43019604D01*
X93664000Y-43019604D01*
X93664001Y-43019604D01*
X93746693Y-43013096D01*
X93922994Y-42999221D01*
X94175610Y-42938573D01*
X94415628Y-42839154D01*
X94592531Y-42730747D01*
X94637132Y-42703417D01*
X94637132Y-42703416D01*
X94637140Y-42703412D01*
X94674871Y-42671186D01*
X94781305Y-42605962D01*
X94902690Y-42576818D01*
X95027140Y-42586611D01*
X95142473Y-42634382D01*
X95193124Y-42671182D01*
X95230860Y-42703412D01*
X95230863Y-42703413D01*
X95230867Y-42703417D01*
X95416471Y-42817154D01*
X95452372Y-42839154D01*
X95692390Y-42938573D01*
X95945006Y-42999221D01*
X96117668Y-43012809D01*
X96203999Y-43019604D01*
X96204000Y-43019604D01*
X96204001Y-43019604D01*
X96286693Y-43013096D01*
X96462994Y-42999221D01*
X96715610Y-42938573D01*
X96955628Y-42839154D01*
X97132531Y-42730747D01*
X97177132Y-42703417D01*
X97177132Y-42703416D01*
X97177140Y-42703412D01*
X97214871Y-42671186D01*
X97321305Y-42605962D01*
X97442690Y-42576818D01*
X97567140Y-42586611D01*
X97682473Y-42634382D01*
X97733124Y-42671182D01*
X97770860Y-42703412D01*
X97770863Y-42703413D01*
X97770867Y-42703417D01*
X97956471Y-42817154D01*
X97992372Y-42839154D01*
X98232390Y-42938573D01*
X98485006Y-42999221D01*
X98657668Y-43012809D01*
X98743999Y-43019604D01*
X98744000Y-43019604D01*
X98744001Y-43019604D01*
X98826693Y-43013096D01*
X99002994Y-42999221D01*
X99255610Y-42938573D01*
X99495628Y-42839154D01*
X99672531Y-42730747D01*
X99717132Y-42703417D01*
X99717132Y-42703416D01*
X99717140Y-42703412D01*
X99754871Y-42671186D01*
X99861305Y-42605962D01*
X99982690Y-42576818D01*
X100107140Y-42586611D01*
X100222473Y-42634382D01*
X100273124Y-42671182D01*
X100310860Y-42703412D01*
X100310863Y-42703413D01*
X100310867Y-42703417D01*
X100496471Y-42817154D01*
X100532372Y-42839154D01*
X100772390Y-42938573D01*
X101025006Y-42999221D01*
X101197668Y-43012809D01*
X101283999Y-43019604D01*
X101284000Y-43019604D01*
X101284001Y-43019604D01*
X101366693Y-43013096D01*
X101542994Y-42999221D01*
X101795610Y-42938573D01*
X102035628Y-42839154D01*
X102212531Y-42730747D01*
X102257132Y-42703417D01*
X102257132Y-42703416D01*
X102257140Y-42703412D01*
X102294871Y-42671186D01*
X102401305Y-42605962D01*
X102522690Y-42576818D01*
X102647140Y-42586611D01*
X102762473Y-42634382D01*
X102813124Y-42671182D01*
X102850860Y-42703412D01*
X102850863Y-42703413D01*
X102850867Y-42703417D01*
X103036471Y-42817154D01*
X103072372Y-42839154D01*
X103312390Y-42938573D01*
X103565006Y-42999221D01*
X103737668Y-43012809D01*
X103823999Y-43019604D01*
X103824000Y-43019604D01*
X103824001Y-43019604D01*
X103906693Y-43013096D01*
X104082994Y-42999221D01*
X104335610Y-42938573D01*
X104575628Y-42839154D01*
X104752531Y-42730747D01*
X104797132Y-42703417D01*
X104797132Y-42703416D01*
X104797140Y-42703412D01*
X104834871Y-42671186D01*
X104941305Y-42605962D01*
X105062690Y-42576818D01*
X105187140Y-42586611D01*
X105302473Y-42634382D01*
X105353124Y-42671182D01*
X105390860Y-42703412D01*
X105390863Y-42703413D01*
X105390867Y-42703417D01*
X105576471Y-42817154D01*
X105612372Y-42839154D01*
X105852390Y-42938573D01*
X106105006Y-42999221D01*
X106277668Y-43012809D01*
X106363999Y-43019604D01*
X106364000Y-43019604D01*
X106364001Y-43019604D01*
X106446693Y-43013096D01*
X106622994Y-42999221D01*
X106875610Y-42938573D01*
X107115628Y-42839154D01*
X107121534Y-42835534D01*
X107127943Y-42832879D01*
X107129597Y-42832037D01*
X107129663Y-42832167D01*
X107236862Y-42787758D01*
X107361311Y-42777959D01*
X107482698Y-42807096D01*
X107542305Y-42837888D01*
X107551735Y-42843813D01*
X107551738Y-42843816D01*
X107704478Y-42939789D01*
X107874745Y-42999368D01*
X108009046Y-43014500D01*
X108009048Y-43014500D01*
X109277490Y-43014500D01*
X109400788Y-43034028D01*
X109512016Y-43090702D01*
X109600288Y-43178974D01*
X109656962Y-43290202D01*
X109676490Y-43413500D01*
X109656962Y-43536798D01*
X109600288Y-43648026D01*
X109559626Y-43695636D01*
X109225917Y-44029345D01*
X109225916Y-44029344D01*
X109053345Y-44201916D01*
X109053335Y-44201928D01*
X108909895Y-44399357D01*
X108909893Y-44399359D01*
X108792116Y-44630511D01*
X108718740Y-44731504D01*
X108617746Y-44804880D01*
X108539875Y-44834772D01*
X108392504Y-44874260D01*
X108186268Y-44970430D01*
X108186263Y-44970433D01*
X107999865Y-45100949D01*
X107838949Y-45261865D01*
X107708433Y-45448263D01*
X107708430Y-45448268D01*
X107612259Y-45654505D01*
X107550661Y-45884396D01*
X107499887Y-45998438D01*
X107447393Y-46063262D01*
X104791622Y-48719035D01*
X104690628Y-48792412D01*
X104571903Y-48830988D01*
X104509486Y-48835900D01*
X102792950Y-48835900D01*
X102679560Y-48845981D01*
X102679549Y-48845982D01*
X102679548Y-48845983D01*
X102679546Y-48845983D01*
X102679543Y-48845984D01*
X102493700Y-48899160D01*
X102493694Y-48899162D01*
X102493694Y-48899163D01*
X102368232Y-48964698D01*
X102249906Y-49004474D01*
X102125078Y-49005739D01*
X102005968Y-48968367D01*
X101904237Y-48896018D01*
X101829841Y-48795773D01*
X101790065Y-48677445D01*
X101784500Y-48611039D01*
X101784500Y-48414534D01*
X101804028Y-48291236D01*
X101860702Y-48180008D01*
X101901359Y-48132404D01*
X102296711Y-47737051D01*
X102397701Y-47663678D01*
X102410195Y-47657584D01*
X102506734Y-47612568D01*
X102693139Y-47482047D01*
X102854047Y-47321139D01*
X102984568Y-47134734D01*
X103080739Y-46928496D01*
X103139635Y-46708692D01*
X103159468Y-46482000D01*
X103139635Y-46255308D01*
X103088177Y-46063262D01*
X103080739Y-46035503D01*
X102984569Y-45829268D01*
X102984566Y-45829263D01*
X102854050Y-45642865D01*
X102854049Y-45642864D01*
X102854047Y-45642861D01*
X102693139Y-45481953D01*
X102693135Y-45481950D01*
X102693134Y-45481949D01*
X102506736Y-45351433D01*
X102506731Y-45351430D01*
X102300496Y-45255260D01*
X102080696Y-45196366D01*
X102080694Y-45196365D01*
X102080692Y-45196365D01*
X101854000Y-45176532D01*
X101627308Y-45196365D01*
X101627303Y-45196366D01*
X101407503Y-45255260D01*
X101201268Y-45351430D01*
X101201263Y-45351433D01*
X101014865Y-45481949D01*
X100853949Y-45642865D01*
X100723433Y-45829263D01*
X100723431Y-45829266D01*
X100678424Y-45925783D01*
X100608616Y-46029275D01*
X100598945Y-46039289D01*
X99668312Y-46969923D01*
X99668307Y-46969928D01*
X99590267Y-47077343D01*
X99557239Y-47122800D01*
X99471452Y-47291169D01*
X99413061Y-47470876D01*
X99413060Y-47470881D01*
X99413060Y-47470882D01*
X99390620Y-47612569D01*
X99383500Y-47657521D01*
X99383500Y-49449058D01*
X99363972Y-49572356D01*
X99359438Y-49585523D01*
X99357261Y-49591502D01*
X99339580Y-49657490D01*
X99298365Y-49811308D01*
X99298364Y-49811315D01*
X99295341Y-49828463D01*
X99294044Y-49828234D01*
X99268212Y-49931823D01*
X99202054Y-50037686D01*
X99106421Y-50117923D01*
X98990674Y-50164681D01*
X98866143Y-50173383D01*
X98745018Y-50143177D01*
X98639155Y-50077019D01*
X98618816Y-50058052D01*
X97581474Y-49020710D01*
X97581470Y-49020707D01*
X97581469Y-49020706D01*
X97428601Y-48909641D01*
X97260230Y-48823852D01*
X97080523Y-48765461D01*
X97080519Y-48765460D01*
X97080518Y-48765460D01*
X96893881Y-48735900D01*
X96893878Y-48735900D01*
X96473255Y-48735900D01*
X96410839Y-48730988D01*
X96335369Y-48719035D01*
X96281481Y-48710500D01*
X96281480Y-48710500D01*
X93539500Y-48710500D01*
X93416202Y-48690972D01*
X93304974Y-48634298D01*
X93216702Y-48546026D01*
X93160028Y-48434798D01*
X93140500Y-48311500D01*
X93140500Y-47961396D01*
X93140500Y-47961392D01*
X93125300Y-47807066D01*
X93065232Y-47609046D01*
X92967685Y-47426550D01*
X92836410Y-47266590D01*
X92676450Y-47135315D01*
X92676446Y-47135313D01*
X92676445Y-47135312D01*
X92601087Y-47095032D01*
X92493954Y-47037768D01*
X92295934Y-46977700D01*
X92141608Y-46962500D01*
X90738392Y-46962500D01*
X90584065Y-46977700D01*
X90497841Y-47003855D01*
X90386046Y-47037768D01*
X90386044Y-47037768D01*
X90386044Y-47037769D01*
X90203554Y-47135312D01*
X90203546Y-47135318D01*
X90043593Y-47266587D01*
X90043587Y-47266593D01*
X89912318Y-47426546D01*
X89912312Y-47426554D01*
X89828480Y-47583392D01*
X89814768Y-47609046D01*
X89800048Y-47657571D01*
X89754700Y-47807065D01*
X89739500Y-47961392D01*
X89739500Y-48104007D01*
X89719972Y-48227305D01*
X89663298Y-48338533D01*
X89575026Y-48426805D01*
X89463798Y-48483479D01*
X89340500Y-48503007D01*
X89217202Y-48483479D01*
X89159359Y-48459519D01*
X89138033Y-48448653D01*
X88958323Y-48390261D01*
X88958319Y-48390260D01*
X88958318Y-48390260D01*
X88771681Y-48360700D01*
X88771678Y-48360700D01*
X86723500Y-48360700D01*
X86600202Y-48341172D01*
X86488974Y-48284498D01*
X86400702Y-48196226D01*
X86344028Y-48084998D01*
X86324500Y-47961700D01*
X86324500Y-42879576D01*
X86329413Y-42817154D01*
X86333762Y-42789701D01*
X86335700Y-42777463D01*
X86335700Y-42533409D01*
X86335700Y-39567910D01*
X86355228Y-39444612D01*
X86411902Y-39333384D01*
X86452564Y-39285774D01*
X88256974Y-37481364D01*
X88357968Y-37407988D01*
X88476693Y-37369412D01*
X88539110Y-37364500D01*
X89107382Y-37364500D01*
X89230680Y-37384028D01*
G37*
%TD.AperFunction*%
%TD*%
M02*
