%TF.GenerationSoftware,KiCad,Pcbnew,8.0.5*%
%TF.CreationDate,2025-02-04T09:15:57+02:00*%
%TF.ProjectId,IOExpander_PCF8574,494f4578-7061-46e6-9465-725f50434638,rev?*%
%TF.SameCoordinates,Original*%
%TF.FileFunction,Copper,L2,Bot*%
%TF.FilePolarity,Positive*%
%FSLAX46Y46*%
G04 Gerber Fmt 4.6, Leading zero omitted, Abs format (unit mm)*
G04 Created by KiCad (PCBNEW 8.0.5) date 2025-02-04 09:15:57*
%MOMM*%
%LPD*%
G01*
G04 APERTURE LIST*
G04 Aperture macros list*
%AMRoundRect*
0 Rectangle with rounded corners*
0 $1 Rounding radius*
0 $2 $3 $4 $5 $6 $7 $8 $9 X,Y pos of 4 corners*
0 Add a 4 corners polygon primitive as box body*
4,1,4,$2,$3,$4,$5,$6,$7,$8,$9,$2,$3,0*
0 Add four circle primitives for the rounded corners*
1,1,$1+$1,$2,$3*
1,1,$1+$1,$4,$5*
1,1,$1+$1,$6,$7*
1,1,$1+$1,$8,$9*
0 Add four rect primitives between the rounded corners*
20,1,$1+$1,$2,$3,$4,$5,0*
20,1,$1+$1,$4,$5,$6,$7,0*
20,1,$1+$1,$6,$7,$8,$9,0*
20,1,$1+$1,$8,$9,$2,$3,0*%
G04 Aperture macros list end*
%TA.AperFunction,SMDPad,CuDef*%
%ADD10RoundRect,0.250000X-0.650000X0.412500X-0.650000X-0.412500X0.650000X-0.412500X0.650000X0.412500X0*%
%TD*%
%TA.AperFunction,ComponentPad*%
%ADD11O,1.950000X1.700000*%
%TD*%
%TA.AperFunction,ComponentPad*%
%ADD12RoundRect,0.250000X-0.725000X0.600000X-0.725000X-0.600000X0.725000X-0.600000X0.725000X0.600000X0*%
%TD*%
%TA.AperFunction,SMDPad,CuDef*%
%ADD13RoundRect,0.250000X-0.400000X-0.625000X0.400000X-0.625000X0.400000X0.625000X-0.400000X0.625000X0*%
%TD*%
%TA.AperFunction,ComponentPad*%
%ADD14O,1.700000X1.700000*%
%TD*%
%TA.AperFunction,ComponentPad*%
%ADD15R,1.700000X1.700000*%
%TD*%
%TA.AperFunction,SMDPad,CuDef*%
%ADD16RoundRect,0.162500X0.750000X0.162500X-0.750000X0.162500X-0.750000X-0.162500X0.750000X-0.162500X0*%
%TD*%
%TA.AperFunction,ViaPad*%
%ADD17C,1.500000*%
%TD*%
%TA.AperFunction,ViaPad*%
%ADD18C,1.000000*%
%TD*%
%TA.AperFunction,Conductor*%
%ADD19C,0.800000*%
%TD*%
%TA.AperFunction,Conductor*%
%ADD20C,1.500000*%
%TD*%
%TA.AperFunction,Conductor*%
%ADD21C,0.600000*%
%TD*%
%TA.AperFunction,Conductor*%
%ADD22C,2.000000*%
%TD*%
%TA.AperFunction,Conductor*%
%ADD23C,1.000000*%
%TD*%
G04 APERTURE END LIST*
D10*
%TO.P,C1,1*%
%TO.N,GND*%
X93599000Y-45300500D03*
%TO.P,C1,2*%
%TO.N,5V*%
X93599000Y-48425500D03*
%TD*%
D11*
%TO.P,J1,4,Pin_4*%
%TO.N,/SDA*%
X84774000Y-57061200D03*
%TO.P,J1,3,Pin_3*%
%TO.N,/SCL*%
X84774000Y-54561200D03*
%TO.P,J1,2,Pin_2*%
%TO.N,GND*%
X84774000Y-52061200D03*
D12*
%TO.P,J1,1,Pin_1*%
%TO.N,5V*%
X84774000Y-49561200D03*
%TD*%
D13*
%TO.P,R1,2*%
%TO.N,/SCL*%
X82068000Y-54610000D03*
%TO.P,R1,1*%
%TO.N,5V*%
X78968000Y-54610000D03*
%TD*%
%TO.P,R7,2*%
%TO.N,/1_A1*%
X115088000Y-48260000D03*
%TO.P,R7,1*%
%TO.N,5V*%
X111988000Y-48260000D03*
%TD*%
%TO.P,R10,2*%
%TO.N,GND*%
X120142000Y-52070000D03*
%TO.P,R10,1*%
%TO.N,/1_A2*%
X117042000Y-52070000D03*
%TD*%
%TO.P,R9,2*%
%TO.N,/1_A2*%
X115088000Y-52070000D03*
%TO.P,R9,1*%
%TO.N,5V*%
X111988000Y-52070000D03*
%TD*%
%TO.P,R8,2*%
%TO.N,/1_A0*%
X115114000Y-44450000D03*
%TO.P,R8,1*%
%TO.N,5V*%
X112014000Y-44450000D03*
%TD*%
%TO.P,R11,2*%
%TO.N,GND*%
X120168000Y-48260000D03*
%TO.P,R11,1*%
%TO.N,/1_A1*%
X117068000Y-48260000D03*
%TD*%
%TO.P,R2,2*%
%TO.N,/SDA*%
X82068000Y-56896000D03*
%TO.P,R2,1*%
%TO.N,5V*%
X78968000Y-56896000D03*
%TD*%
%TO.P,R12,2*%
%TO.N,GND*%
X120168000Y-44450000D03*
%TO.P,R12,1*%
%TO.N,/1_A0*%
X117068000Y-44450000D03*
%TD*%
D14*
%TO.P,J2,8,Pin_8*%
%TO.N,Net-(J2-Pin_8)*%
X91124000Y-65240000D03*
%TO.P,J2,7,Pin_7*%
%TO.N,Net-(J2-Pin_7)*%
X93664000Y-65240000D03*
%TO.P,J2,6,Pin_6*%
%TO.N,Net-(J2-Pin_6)*%
X96204000Y-65240000D03*
%TO.P,J2,5,Pin_5*%
%TO.N,Net-(J2-Pin_5)*%
X98744000Y-65240000D03*
%TO.P,J2,4,Pin_4*%
%TO.N,Net-(J2-Pin_4)*%
X101284000Y-65240000D03*
%TO.P,J2,3,Pin_3*%
%TO.N,Net-(J2-Pin_3)*%
X103824000Y-65240000D03*
%TO.P,J2,2,Pin_2*%
%TO.N,Net-(J2-Pin_2)*%
X106364000Y-65240000D03*
D15*
%TO.P,J2,1,Pin_1*%
%TO.N,Net-(J2-Pin_1)*%
X108904000Y-65240000D03*
%TD*%
D13*
%TO.P,R3,2*%
%TO.N,Net-(U1-~{INT})*%
X82068000Y-59182000D03*
%TO.P,R3,1*%
%TO.N,5V*%
X78968000Y-59182000D03*
%TD*%
D14*
%TO.P,J3,8,Pin_8*%
%TO.N,Net-(J3-Pin_8)*%
X91124000Y-41364000D03*
%TO.P,J3,7,Pin_7*%
%TO.N,Net-(J3-Pin_7)*%
X93664000Y-41364000D03*
%TO.P,J3,6,Pin_6*%
%TO.N,Net-(J3-Pin_6)*%
X96204000Y-41364000D03*
%TO.P,J3,5,Pin_5*%
%TO.N,Net-(J3-Pin_5)*%
X98744000Y-41364000D03*
%TO.P,J3,4,Pin_4*%
%TO.N,Net-(J3-Pin_4)*%
X101284000Y-41364000D03*
%TO.P,J3,3,Pin_3*%
%TO.N,Net-(J3-Pin_3)*%
X103824000Y-41364000D03*
%TO.P,J3,2,Pin_2*%
%TO.N,Net-(J3-Pin_2)*%
X106364000Y-41364000D03*
D15*
%TO.P,J3,1,Pin_1*%
%TO.N,Net-(J3-Pin_1)*%
X108904000Y-41364000D03*
%TD*%
D16*
%TO.P,U1,16,VDD*%
%TO.N,5V*%
X96187000Y-49911000D03*
%TO.P,U1,15,SDA*%
%TO.N,/SDA*%
X96187000Y-51181000D03*
%TO.P,U1,14,SCL*%
%TO.N,/SCL*%
X96187000Y-52451000D03*
%TO.P,U1,13,~{INT}*%
%TO.N,Net-(U1-~{INT})*%
X96187000Y-53721000D03*
%TO.P,U1,12,P7*%
%TO.N,Net-(J2-Pin_8)*%
X96187000Y-54991000D03*
%TO.P,U1,11,P6*%
%TO.N,Net-(J2-Pin_7)*%
X96187000Y-56261000D03*
%TO.P,U1,10,P5*%
%TO.N,Net-(J2-Pin_6)*%
X96187000Y-57531000D03*
%TO.P,U1,9,P4*%
%TO.N,Net-(J2-Pin_5)*%
X96187000Y-58801000D03*
%TO.P,U1,8,VSS*%
%TO.N,GND*%
X102362000Y-58801000D03*
%TO.P,U1,7,P3*%
%TO.N,Net-(J2-Pin_4)*%
X102362000Y-57531000D03*
%TO.P,U1,6,P2*%
%TO.N,Net-(J2-Pin_3)*%
X102362000Y-56261000D03*
%TO.P,U1,5,P1*%
%TO.N,Net-(J2-Pin_2)*%
X102362000Y-54991000D03*
%TO.P,U1,4,P0*%
%TO.N,Net-(J2-Pin_1)*%
X102362000Y-53721000D03*
%TO.P,U1,3,A2*%
%TO.N,/1_A2*%
X102362000Y-52451000D03*
%TO.P,U1,2,A1*%
%TO.N,/1_A1*%
X102362000Y-51181000D03*
%TO.P,U1,1,A0*%
%TO.N,/1_A0*%
X102362000Y-49911000D03*
%TD*%
D17*
%TO.N,GND*%
X83439000Y-65151000D03*
X85725000Y-65151000D03*
X84582000Y-62738000D03*
X82296000Y-62738000D03*
X98552000Y-47879000D03*
X102362000Y-60960000D03*
D18*
%TO.N,/SCL*%
X88773000Y-53467000D03*
D17*
%TO.N,GND*%
X80264000Y-44450000D03*
X102362000Y-44450000D03*
D18*
%TO.N,5V*%
X98044000Y-56261000D03*
%TO.N,/1_A0*%
X108458000Y-46482000D03*
%TO.N,/1_A1*%
X108458000Y-48260000D03*
D17*
%TO.N,GND*%
X120142000Y-41910000D03*
D18*
%TO.N,/1_A0*%
X113792000Y-42418000D03*
%TO.N,/1_A1*%
X114300000Y-46482000D03*
%TO.N,/1_A2*%
X108390684Y-50354228D03*
X113792000Y-50292000D03*
%TO.N,5V*%
X110236000Y-62230000D03*
X110236000Y-58420000D03*
X110236000Y-54610000D03*
%TD*%
D19*
%TO.N,5V*%
X93599000Y-48425500D02*
X93599000Y-49911000D01*
X96187000Y-49911000D02*
X93599000Y-49911000D01*
X93599000Y-49911000D02*
X93218000Y-49911000D01*
%TO.N,GND*%
X93599000Y-44704000D02*
X93345000Y-44450000D01*
X93599000Y-45300500D02*
X93599000Y-44704000D01*
D20*
X93345000Y-44450000D02*
X81153000Y-44450000D01*
X98552000Y-44450000D02*
X93345000Y-44450000D01*
D19*
%TO.N,5V*%
X93218000Y-49911000D02*
X89027000Y-49911000D01*
D21*
%TO.N,/SCL*%
X88773000Y-53467000D02*
X89408000Y-52832000D01*
X89408000Y-52832000D02*
X89789000Y-52451000D01*
D22*
%TO.N,5V*%
X78970000Y-65508000D02*
X78970000Y-61976000D01*
X83439000Y-69977000D02*
X78970000Y-65508000D01*
X110744000Y-69977000D02*
X83439000Y-69977000D01*
X112014000Y-64262000D02*
X112014000Y-68707000D01*
X112014000Y-68707000D02*
X110744000Y-69977000D01*
X110236000Y-62230000D02*
X110236000Y-53822000D01*
X84774000Y-49561200D02*
X81222800Y-49561200D01*
X78970000Y-51814000D02*
X81222800Y-49561200D01*
X78970000Y-63730000D02*
X78970000Y-51814000D01*
X112014000Y-64008000D02*
X110236000Y-62230000D01*
X112014000Y-67818000D02*
X112014000Y-64008000D01*
D20*
X112014000Y-67818000D02*
X112014000Y-65913000D01*
X112014000Y-65913000D02*
X112014000Y-64262000D01*
D23*
%TO.N,GND*%
X98552000Y-44450000D02*
X98552000Y-47879000D01*
D20*
X102362000Y-44450000D02*
X98552000Y-44450000D01*
D19*
X102362000Y-58801000D02*
X102362000Y-60960000D01*
%TO.N,5V*%
X99187000Y-56261000D02*
X100076000Y-55372000D01*
X98044000Y-56261000D02*
X99187000Y-56261000D01*
D22*
%TO.N,GND*%
X81026000Y-40767000D02*
X81026000Y-44323000D01*
X81026000Y-44323000D02*
X81153000Y-44450000D01*
X84836000Y-36957000D02*
X81026000Y-40767000D01*
X115189000Y-36957000D02*
X84836000Y-36957000D01*
X120142000Y-41910000D02*
X115189000Y-36957000D01*
D20*
X81153000Y-44450000D02*
X80010000Y-44450000D01*
D21*
%TO.N,/1_A2*%
X106293912Y-52451000D02*
X108390684Y-50354228D01*
X102362000Y-52451000D02*
X106293912Y-52451000D01*
%TO.N,/1_A1*%
X105537000Y-51181000D02*
X108458000Y-48260000D01*
X102362000Y-51181000D02*
X105537000Y-51181000D01*
%TO.N,/1_A0*%
X105029000Y-49911000D02*
X108458000Y-46482000D01*
X102362000Y-49911000D02*
X105029000Y-49911000D01*
D19*
%TO.N,Net-(J2-Pin_1)*%
X105791000Y-53721000D02*
X102362000Y-53721000D01*
X108204000Y-63627000D02*
X108204000Y-56134000D01*
X108904000Y-64327000D02*
X108204000Y-63627000D01*
X108204000Y-56134000D02*
X105791000Y-53721000D01*
X108904000Y-65240000D02*
X108904000Y-64327000D01*
%TO.N,Net-(J2-Pin_2)*%
X106364000Y-56707000D02*
X106364000Y-65240000D01*
X102362000Y-54991000D02*
X104648000Y-54991000D01*
X104648000Y-54991000D02*
X106364000Y-56707000D01*
%TO.N,Net-(J2-Pin_3)*%
X103759000Y-56261000D02*
X102362000Y-56261000D01*
X104902000Y-57404000D02*
X103759000Y-56261000D01*
X104902000Y-62103000D02*
X104902000Y-57404000D01*
X103824000Y-63181000D02*
X104902000Y-62103000D01*
X103824000Y-65240000D02*
X103824000Y-63181000D01*
%TO.N,Net-(J2-Pin_4)*%
X101284000Y-63438000D02*
X101284000Y-65240000D01*
X100203000Y-62357000D02*
X101284000Y-63438000D01*
X101092000Y-57531000D02*
X100203000Y-58420000D01*
X100203000Y-58420000D02*
X100203000Y-62357000D01*
X102362000Y-57531000D02*
X101092000Y-57531000D01*
%TO.N,Net-(J2-Pin_5)*%
X97663000Y-58801000D02*
X96187000Y-58801000D01*
X98744000Y-59882000D02*
X97663000Y-58801000D01*
X98744000Y-65240000D02*
X98744000Y-59882000D01*
%TO.N,Net-(J2-Pin_7)*%
X91948000Y-61341000D02*
X91948000Y-58674000D01*
X93587000Y-65163000D02*
X93587000Y-62980000D01*
X93664000Y-65240000D02*
X93587000Y-65163000D01*
X93587000Y-62980000D02*
X91948000Y-61341000D01*
X91948000Y-58674000D02*
X91948000Y-57658000D01*
X91948000Y-60579000D02*
X91948000Y-58674000D01*
%TO.N,Net-(J2-Pin_8)*%
X91124000Y-63057000D02*
X89789000Y-61722000D01*
X91124000Y-65240000D02*
X91124000Y-63057000D01*
X91821000Y-54991000D02*
X89789000Y-57023000D01*
X89789000Y-57023000D02*
X89789000Y-61722000D01*
X96187000Y-54991000D02*
X91821000Y-54991000D01*
%TO.N,Net-(J2-Pin_7)*%
X93345000Y-56261000D02*
X96187000Y-56261000D01*
X91948000Y-57658000D02*
X93345000Y-56261000D01*
%TO.N,Net-(J2-Pin_6)*%
X93853000Y-60071000D02*
X96204000Y-62422000D01*
X93853000Y-58293000D02*
X93853000Y-60071000D01*
X96204000Y-62422000D02*
X96204000Y-65240000D01*
X96187000Y-57531000D02*
X94615000Y-57531000D01*
X94615000Y-57531000D02*
X93853000Y-58293000D01*
D21*
%TO.N,Net-(U1-~{INT})*%
X87757000Y-58039000D02*
X86614000Y-59182000D01*
X90551000Y-53721000D02*
X87757000Y-56515000D01*
X87757000Y-56515000D02*
X87757000Y-58039000D01*
X96187000Y-53721000D02*
X90551000Y-53721000D01*
X86614000Y-59182000D02*
X82068000Y-59182000D01*
%TO.N,/SDA*%
X86741000Y-56299200D02*
X85979000Y-57061200D01*
X89154000Y-51181000D02*
X86741000Y-53594000D01*
X86741000Y-53594000D02*
X86741000Y-56299200D01*
X85979000Y-57061200D02*
X84774000Y-57061200D01*
X96187000Y-51181000D02*
X89154000Y-51181000D01*
%TO.N,/SCL*%
X89789000Y-52451000D02*
X92837000Y-52451000D01*
X92837000Y-52451000D02*
X96187000Y-52451000D01*
X84774000Y-54561200D02*
X85295200Y-54561200D01*
D19*
%TO.N,5V*%
X100076000Y-51054000D02*
X100076000Y-53086000D01*
X98933000Y-49911000D02*
X100076000Y-51054000D01*
X96187000Y-49911000D02*
X98933000Y-49911000D01*
X89027000Y-49911000D02*
X88677200Y-49561200D01*
D20*
%TO.N,GND*%
X80010000Y-44450000D02*
X80264000Y-44450000D01*
D19*
%TO.N,5V*%
X100076000Y-55372000D02*
X99314000Y-56134000D01*
X100076000Y-53086000D02*
X100076000Y-55372000D01*
X88677200Y-49561200D02*
X84774000Y-49561200D01*
D20*
%TO.N,GND*%
X120142000Y-45440000D02*
X120168000Y-45466000D01*
X120142000Y-41910000D02*
X120142000Y-45440000D01*
X120168000Y-44450000D02*
X120168000Y-45466000D01*
X120168000Y-45466000D02*
X120168000Y-48260000D01*
X120168000Y-52044000D02*
X120142000Y-52070000D01*
X120168000Y-48260000D02*
X120168000Y-52044000D01*
D21*
%TO.N,/1_A0*%
X114300000Y-42418000D02*
X113792000Y-42418000D01*
X115114000Y-43232000D02*
X114300000Y-42418000D01*
X115114000Y-44450000D02*
X115114000Y-43232000D01*
D20*
%TO.N,5V*%
X110998000Y-44450000D02*
X110236000Y-45212000D01*
X110236000Y-45212000D02*
X110236000Y-48260000D01*
X112014000Y-44450000D02*
X110998000Y-44450000D01*
D21*
%TO.N,/1_A1*%
X115088000Y-47270000D02*
X114300000Y-46482000D01*
X115088000Y-48260000D02*
X115088000Y-47270000D01*
%TO.N,/1_A2*%
X114300000Y-50292000D02*
X113792000Y-50292000D01*
X115088000Y-51080000D02*
X114300000Y-50292000D01*
X115088000Y-52070000D02*
X115088000Y-51080000D01*
%TO.N,/1_A0*%
X117068000Y-44450000D02*
X115114000Y-44450000D01*
%TO.N,/1_A1*%
X117068000Y-48260000D02*
X115088000Y-48260000D01*
%TO.N,/1_A2*%
X117042000Y-52070000D02*
X115088000Y-52070000D01*
D20*
%TO.N,5V*%
X110236000Y-62484000D02*
X110236000Y-54610000D01*
X110236000Y-54610000D02*
X110236000Y-52070000D01*
X111988000Y-52070000D02*
X110236000Y-52070000D01*
X110236000Y-52070000D02*
X110236000Y-48260000D01*
X111988000Y-48260000D02*
X110236000Y-48260000D01*
X112014000Y-64262000D02*
X110236000Y-62484000D01*
X78968000Y-59182000D02*
X78968000Y-63728000D01*
D23*
X78968000Y-56896000D02*
X78968000Y-59182000D01*
X78968000Y-54610000D02*
X78968000Y-56896000D01*
X78968000Y-51816000D02*
X78968000Y-54610000D01*
X81222800Y-49561200D02*
X78968000Y-51816000D01*
D21*
%TO.N,/SDA*%
X84774000Y-57061200D02*
X82233200Y-57061200D01*
X82233200Y-57061200D02*
X82068000Y-56896000D01*
%TO.N,/SCL*%
X82116800Y-54561200D02*
X82068000Y-54610000D01*
X84774000Y-54561200D02*
X82116800Y-54561200D01*
X81993200Y-54789200D02*
X82068000Y-54864000D01*
%TD*%
%TA.AperFunction,Conductor*%
%TO.N,GND*%
G36*
X116848703Y-34790879D02*
G01*
X117221733Y-34807166D01*
X117256399Y-34810199D01*
X117617950Y-34857799D01*
X117652222Y-34863841D01*
X118008257Y-34942773D01*
X118041867Y-34951778D01*
X118389681Y-35061444D01*
X118422366Y-35073340D01*
X118759300Y-35212902D01*
X118790808Y-35227594D01*
X119114313Y-35396001D01*
X119144432Y-35413390D01*
X119452001Y-35609333D01*
X119480513Y-35629298D01*
X119769821Y-35851291D01*
X119796486Y-35873665D01*
X120065351Y-36120034D01*
X120089965Y-36144648D01*
X120336334Y-36413513D01*
X120358708Y-36440178D01*
X120580701Y-36729486D01*
X120600666Y-36757998D01*
X120796601Y-37065554D01*
X120814002Y-37095693D01*
X120982400Y-37419182D01*
X120997104Y-37450715D01*
X121136654Y-37787621D01*
X121148559Y-37820329D01*
X121258218Y-38168123D01*
X121267227Y-38201746D01*
X121346157Y-38557776D01*
X121352201Y-38592055D01*
X121399799Y-38953595D01*
X121402833Y-38988270D01*
X121419120Y-39361295D01*
X121419500Y-39378700D01*
X121419500Y-67301299D01*
X121419120Y-67318704D01*
X121402833Y-67691729D01*
X121399799Y-67726404D01*
X121352201Y-68087944D01*
X121346157Y-68122223D01*
X121267227Y-68478253D01*
X121258218Y-68511876D01*
X121148559Y-68859670D01*
X121136654Y-68892378D01*
X120997104Y-69229284D01*
X120982396Y-69260826D01*
X120968779Y-69286985D01*
X120814005Y-69584301D01*
X120796601Y-69614445D01*
X120600666Y-69922001D01*
X120580701Y-69950513D01*
X120358708Y-70239821D01*
X120336334Y-70266486D01*
X120089965Y-70535351D01*
X120065351Y-70559965D01*
X119796486Y-70806334D01*
X119769821Y-70828708D01*
X119480513Y-71050701D01*
X119452001Y-71070666D01*
X119144445Y-71266601D01*
X119114301Y-71284005D01*
X119019046Y-71333592D01*
X118790826Y-71452396D01*
X118759284Y-71467104D01*
X118422378Y-71606654D01*
X118389670Y-71618559D01*
X118041876Y-71728218D01*
X118008253Y-71737227D01*
X117652223Y-71816157D01*
X117617944Y-71822201D01*
X117256404Y-71869799D01*
X117221729Y-71872833D01*
X116877125Y-71887879D01*
X116848702Y-71889120D01*
X116831300Y-71889500D01*
X112341062Y-71889500D01*
X112217764Y-71869972D01*
X112106536Y-71813298D01*
X112018264Y-71725026D01*
X111961590Y-71613798D01*
X111942062Y-71490500D01*
X111961590Y-71367202D01*
X112018264Y-71255974D01*
X112058927Y-71208364D01*
X112499771Y-70767520D01*
X113370592Y-69896700D01*
X113514273Y-69709451D01*
X113632284Y-69505050D01*
X113677037Y-69397006D01*
X113722606Y-69286993D01*
X113733757Y-69245380D01*
X113783691Y-69059020D01*
X113783693Y-69059014D01*
X113814500Y-68825011D01*
X113814500Y-64143989D01*
X113814500Y-63889989D01*
X113783693Y-63655986D01*
X113765099Y-63586592D01*
X113722606Y-63428006D01*
X113632284Y-63209950D01*
X113514274Y-63005550D01*
X113370592Y-62818301D01*
X112153364Y-61601073D01*
X112079988Y-61500079D01*
X112041412Y-61381354D01*
X112036500Y-61318937D01*
X112036500Y-54144500D01*
X112056028Y-54021202D01*
X112112702Y-53909974D01*
X112200974Y-53821702D01*
X112312202Y-53765028D01*
X112429850Y-53746394D01*
X112429830Y-53745980D01*
X112433655Y-53745792D01*
X112435500Y-53745500D01*
X112439603Y-53745500D01*
X112439608Y-53745500D01*
X112593934Y-53730300D01*
X112791954Y-53670232D01*
X112974450Y-53572685D01*
X113134410Y-53441410D01*
X113229568Y-53325459D01*
X113322882Y-53242536D01*
X113437254Y-53192508D01*
X113561487Y-53180272D01*
X113683422Y-53207025D01*
X113791121Y-53270148D01*
X113846432Y-53325459D01*
X113941582Y-53441401D01*
X113941585Y-53441404D01*
X113941590Y-53441410D01*
X114101550Y-53572685D01*
X114284046Y-53670232D01*
X114482066Y-53730300D01*
X114636392Y-53745500D01*
X114636397Y-53745500D01*
X115539603Y-53745500D01*
X115539608Y-53745500D01*
X115693934Y-53730300D01*
X115891954Y-53670232D01*
X115891960Y-53670229D01*
X115910063Y-53662731D01*
X115911528Y-53666268D01*
X115994854Y-53637372D01*
X116119665Y-53634920D01*
X116218978Y-53665045D01*
X116219937Y-53662731D01*
X116238039Y-53670229D01*
X116238042Y-53670229D01*
X116238046Y-53670232D01*
X116436066Y-53730300D01*
X116590392Y-53745500D01*
X116590397Y-53745500D01*
X117493603Y-53745500D01*
X117493608Y-53745500D01*
X117647934Y-53730300D01*
X117845954Y-53670232D01*
X118028450Y-53572685D01*
X118188410Y-53441410D01*
X118319685Y-53281450D01*
X118417232Y-53098954D01*
X118477300Y-52900934D01*
X118492500Y-52746608D01*
X118492500Y-51393392D01*
X118477300Y-51239066D01*
X118417232Y-51041046D01*
X118319685Y-50858550D01*
X118188410Y-50698590D01*
X118028450Y-50567315D01*
X117947101Y-50523833D01*
X117847570Y-50448489D01*
X117776192Y-50346074D01*
X117739955Y-50226614D01*
X117742406Y-50101804D01*
X117783306Y-49983859D01*
X117858651Y-49884326D01*
X117947100Y-49820065D01*
X118054450Y-49762685D01*
X118214410Y-49631410D01*
X118345685Y-49471450D01*
X118443232Y-49288954D01*
X118503300Y-49090934D01*
X118518500Y-48936608D01*
X118518500Y-47583392D01*
X118503300Y-47429066D01*
X118443232Y-47231046D01*
X118345685Y-47048550D01*
X118214410Y-46888590D01*
X118054450Y-46757315D01*
X118054449Y-46757314D01*
X118022181Y-46740067D01*
X117960100Y-46706883D01*
X117860572Y-46631542D01*
X117789193Y-46529127D01*
X117752955Y-46409668D01*
X117755406Y-46284858D01*
X117796305Y-46166913D01*
X117871650Y-46067380D01*
X117960100Y-46003116D01*
X118054450Y-45952685D01*
X118214410Y-45821410D01*
X118345685Y-45661450D01*
X118443232Y-45478954D01*
X118503300Y-45280934D01*
X118518500Y-45126608D01*
X118518500Y-43773392D01*
X118503300Y-43619066D01*
X118443232Y-43421046D01*
X118345685Y-43238550D01*
X118214410Y-43078590D01*
X118054450Y-42947315D01*
X118054446Y-42947313D01*
X118054445Y-42947312D01*
X117964995Y-42899500D01*
X117871954Y-42849768D01*
X117673934Y-42789700D01*
X117519608Y-42774500D01*
X116616392Y-42774500D01*
X116462066Y-42789700D01*
X116462064Y-42789700D01*
X116462058Y-42789701D01*
X116442842Y-42793524D01*
X116442035Y-42789470D01*
X116356154Y-42801201D01*
X116233301Y-42779047D01*
X116123307Y-42720013D01*
X116041869Y-42636819D01*
X115953414Y-42515072D01*
X115016927Y-41578585D01*
X114876789Y-41476768D01*
X114722445Y-41398127D01*
X114722443Y-41398126D01*
X114555961Y-41344032D01*
X114459842Y-41296109D01*
X114459823Y-41296144D01*
X114459259Y-41295818D01*
X114450411Y-41291407D01*
X114444737Y-41287434D01*
X114444735Y-41287433D01*
X114444736Y-41287433D01*
X114444734Y-41287432D01*
X114238496Y-41191261D01*
X114238494Y-41191260D01*
X114018696Y-41132366D01*
X114018694Y-41132365D01*
X114018692Y-41132365D01*
X113792000Y-41112532D01*
X113565308Y-41132365D01*
X113565303Y-41132366D01*
X113345503Y-41191260D01*
X113139268Y-41287430D01*
X113139263Y-41287433D01*
X112952865Y-41417949D01*
X112791949Y-41578865D01*
X112661433Y-41765263D01*
X112661430Y-41765268D01*
X112565260Y-41971503D01*
X112506366Y-42191303D01*
X112506365Y-42191308D01*
X112488756Y-42392586D01*
X112487208Y-42410276D01*
X112457007Y-42531403D01*
X112390854Y-42637268D01*
X112295225Y-42717510D01*
X112179481Y-42764274D01*
X112089726Y-42774500D01*
X111562392Y-42774500D01*
X111408065Y-42789700D01*
X111297307Y-42823298D01*
X111229668Y-42843816D01*
X111210043Y-42849769D01*
X111205146Y-42852387D01*
X111196407Y-42855417D01*
X111191937Y-42857269D01*
X111191827Y-42857005D01*
X111087201Y-42893287D01*
X111017060Y-42899500D01*
X110924151Y-42899500D01*
X110800853Y-42879972D01*
X110689625Y-42823298D01*
X110601353Y-42735026D01*
X110544679Y-42623798D01*
X110525151Y-42500500D01*
X110535154Y-42411717D01*
X110539364Y-42393265D01*
X110539368Y-42393255D01*
X110554500Y-42258954D01*
X110554500Y-40469046D01*
X110539368Y-40334745D01*
X110479789Y-40164478D01*
X110383816Y-40011738D01*
X110256262Y-39884184D01*
X110103522Y-39788211D01*
X109933255Y-39728632D01*
X109933253Y-39728631D01*
X109933251Y-39728631D01*
X109798962Y-39713500D01*
X109798954Y-39713500D01*
X108009046Y-39713500D01*
X108009037Y-39713500D01*
X107874748Y-39728631D01*
X107874745Y-39728632D01*
X107704478Y-39788211D01*
X107542304Y-39890112D01*
X107427515Y-39939175D01*
X107303182Y-39950365D01*
X107181478Y-39922587D01*
X107121544Y-39892471D01*
X107115629Y-39888846D01*
X106875609Y-39789426D01*
X106622991Y-39728778D01*
X106364001Y-39708396D01*
X106363999Y-39708396D01*
X106105008Y-39728778D01*
X105852390Y-39789426D01*
X105612370Y-39888846D01*
X105390867Y-40024582D01*
X105390853Y-40024593D01*
X105353126Y-40056815D01*
X105246687Y-40122040D01*
X105125301Y-40151180D01*
X105000851Y-40141385D01*
X104885519Y-40093611D01*
X104834874Y-40056815D01*
X104797146Y-40024593D01*
X104797132Y-40024582D01*
X104575629Y-39888846D01*
X104335609Y-39789426D01*
X104082991Y-39728778D01*
X103824001Y-39708396D01*
X103823999Y-39708396D01*
X103565008Y-39728778D01*
X103312390Y-39789426D01*
X103072370Y-39888846D01*
X102850867Y-40024582D01*
X102850853Y-40024593D01*
X102813126Y-40056815D01*
X102706687Y-40122040D01*
X102585301Y-40151180D01*
X102460851Y-40141385D01*
X102345519Y-40093611D01*
X102294874Y-40056815D01*
X102257146Y-40024593D01*
X102257132Y-40024582D01*
X102035629Y-39888846D01*
X101795609Y-39789426D01*
X101542991Y-39728778D01*
X101284001Y-39708396D01*
X101283999Y-39708396D01*
X101025008Y-39728778D01*
X100772390Y-39789426D01*
X100532370Y-39888846D01*
X100310867Y-40024582D01*
X100310853Y-40024593D01*
X100273126Y-40056815D01*
X100166687Y-40122040D01*
X100045301Y-40151180D01*
X99920851Y-40141385D01*
X99805519Y-40093611D01*
X99754874Y-40056815D01*
X99717146Y-40024593D01*
X99717132Y-40024582D01*
X99495629Y-39888846D01*
X99255609Y-39789426D01*
X99002991Y-39728778D01*
X98744001Y-39708396D01*
X98743999Y-39708396D01*
X98485008Y-39728778D01*
X98232390Y-39789426D01*
X97992370Y-39888846D01*
X97770867Y-40024582D01*
X97770853Y-40024593D01*
X97733126Y-40056815D01*
X97626687Y-40122040D01*
X97505301Y-40151180D01*
X97380851Y-40141385D01*
X97265519Y-40093611D01*
X97214874Y-40056815D01*
X97177146Y-40024593D01*
X97177132Y-40024582D01*
X96955629Y-39888846D01*
X96715609Y-39789426D01*
X96462991Y-39728778D01*
X96204001Y-39708396D01*
X96203999Y-39708396D01*
X95945008Y-39728778D01*
X95692390Y-39789426D01*
X95452370Y-39888846D01*
X95230867Y-40024582D01*
X95230853Y-40024593D01*
X95193126Y-40056815D01*
X95086687Y-40122040D01*
X94965301Y-40151180D01*
X94840851Y-40141385D01*
X94725519Y-40093611D01*
X94674874Y-40056815D01*
X94637146Y-40024593D01*
X94637132Y-40024582D01*
X94415629Y-39888846D01*
X94175609Y-39789426D01*
X93922991Y-39728778D01*
X93664001Y-39708396D01*
X93663999Y-39708396D01*
X93405008Y-39728778D01*
X93152390Y-39789426D01*
X92912370Y-39888846D01*
X92690867Y-40024582D01*
X92690853Y-40024593D01*
X92653126Y-40056815D01*
X92546687Y-40122040D01*
X92425301Y-40151180D01*
X92300851Y-40141385D01*
X92185519Y-40093611D01*
X92134874Y-40056815D01*
X92097146Y-40024593D01*
X92097132Y-40024582D01*
X91875629Y-39888846D01*
X91635609Y-39789426D01*
X91382991Y-39728778D01*
X91124001Y-39708396D01*
X91123999Y-39708396D01*
X90865008Y-39728778D01*
X90612390Y-39789426D01*
X90372370Y-39888846D01*
X90150867Y-40024582D01*
X90150859Y-40024588D01*
X89953313Y-40193308D01*
X89953308Y-40193313D01*
X89784588Y-40390859D01*
X89784582Y-40390867D01*
X89648846Y-40612370D01*
X89549426Y-40852390D01*
X89488778Y-41105008D01*
X89468396Y-41363999D01*
X89468396Y-41364000D01*
X89488778Y-41622991D01*
X89549426Y-41875609D01*
X89648846Y-42115629D01*
X89784582Y-42337132D01*
X89784588Y-42337140D01*
X89953308Y-42534686D01*
X89953313Y-42534691D01*
X90014104Y-42586611D01*
X90150856Y-42703409D01*
X90150859Y-42703411D01*
X90150867Y-42703417D01*
X90346497Y-42823298D01*
X90372372Y-42839154D01*
X90612390Y-42938573D01*
X90865006Y-42999221D01*
X91037668Y-43012809D01*
X91123999Y-43019604D01*
X91124000Y-43019604D01*
X91124001Y-43019604D01*
X91206693Y-43013096D01*
X91382994Y-42999221D01*
X91635610Y-42938573D01*
X91875628Y-42839154D01*
X92052531Y-42730747D01*
X92097132Y-42703417D01*
X92097132Y-42703416D01*
X92097140Y-42703412D01*
X92134871Y-42671186D01*
X92241305Y-42605962D01*
X92362690Y-42576818D01*
X92487140Y-42586611D01*
X92602473Y-42634382D01*
X92653124Y-42671182D01*
X92690860Y-42703412D01*
X92690863Y-42703413D01*
X92690867Y-42703417D01*
X92886497Y-42823298D01*
X92912372Y-42839154D01*
X93152390Y-42938573D01*
X93405006Y-42999221D01*
X93577668Y-43012809D01*
X93663999Y-43019604D01*
X93664000Y-43019604D01*
X93664001Y-43019604D01*
X93746693Y-43013096D01*
X93922994Y-42999221D01*
X94175610Y-42938573D01*
X94415628Y-42839154D01*
X94592531Y-42730747D01*
X94637132Y-42703417D01*
X94637132Y-42703416D01*
X94637140Y-42703412D01*
X94674871Y-42671186D01*
X94781305Y-42605962D01*
X94902690Y-42576818D01*
X95027140Y-42586611D01*
X95142473Y-42634382D01*
X95193124Y-42671182D01*
X95230860Y-42703412D01*
X95230863Y-42703413D01*
X95230867Y-42703417D01*
X95426497Y-42823298D01*
X95452372Y-42839154D01*
X95692390Y-42938573D01*
X95945006Y-42999221D01*
X96117668Y-43012809D01*
X96203999Y-43019604D01*
X96204000Y-43019604D01*
X96204001Y-43019604D01*
X96286693Y-43013096D01*
X96462994Y-42999221D01*
X96715610Y-42938573D01*
X96955628Y-42839154D01*
X97132531Y-42730747D01*
X97177132Y-42703417D01*
X97177132Y-42703416D01*
X97177140Y-42703412D01*
X97214871Y-42671186D01*
X97321305Y-42605962D01*
X97442690Y-42576818D01*
X97567140Y-42586611D01*
X97682473Y-42634382D01*
X97733124Y-42671182D01*
X97770860Y-42703412D01*
X97770863Y-42703413D01*
X97770867Y-42703417D01*
X97966497Y-42823298D01*
X97992372Y-42839154D01*
X98232390Y-42938573D01*
X98485006Y-42999221D01*
X98657668Y-43012809D01*
X98743999Y-43019604D01*
X98744000Y-43019604D01*
X98744001Y-43019604D01*
X98826693Y-43013096D01*
X99002994Y-42999221D01*
X99255610Y-42938573D01*
X99495628Y-42839154D01*
X99672531Y-42730747D01*
X99717132Y-42703417D01*
X99717132Y-42703416D01*
X99717140Y-42703412D01*
X99754871Y-42671186D01*
X99861305Y-42605962D01*
X99982690Y-42576818D01*
X100107140Y-42586611D01*
X100222473Y-42634382D01*
X100273124Y-42671182D01*
X100310860Y-42703412D01*
X100310863Y-42703413D01*
X100310867Y-42703417D01*
X100506497Y-42823298D01*
X100532372Y-42839154D01*
X100772390Y-42938573D01*
X101025006Y-42999221D01*
X101197668Y-43012809D01*
X101283999Y-43019604D01*
X101284000Y-43019604D01*
X101284001Y-43019604D01*
X101366693Y-43013096D01*
X101542994Y-42999221D01*
X101795610Y-42938573D01*
X102035628Y-42839154D01*
X102212531Y-42730747D01*
X102257132Y-42703417D01*
X102257132Y-42703416D01*
X102257140Y-42703412D01*
X102294871Y-42671186D01*
X102401305Y-42605962D01*
X102522690Y-42576818D01*
X102647140Y-42586611D01*
X102762473Y-42634382D01*
X102813124Y-42671182D01*
X102850860Y-42703412D01*
X102850863Y-42703413D01*
X102850867Y-42703417D01*
X103046497Y-42823298D01*
X103072372Y-42839154D01*
X103312390Y-42938573D01*
X103565006Y-42999221D01*
X103737668Y-43012809D01*
X103823999Y-43019604D01*
X103824000Y-43019604D01*
X103824001Y-43019604D01*
X103906693Y-43013096D01*
X104082994Y-42999221D01*
X104335610Y-42938573D01*
X104575628Y-42839154D01*
X104752531Y-42730747D01*
X104797132Y-42703417D01*
X104797132Y-42703416D01*
X104797140Y-42703412D01*
X104834871Y-42671186D01*
X104941305Y-42605962D01*
X105062690Y-42576818D01*
X105187140Y-42586611D01*
X105302473Y-42634382D01*
X105353124Y-42671182D01*
X105390860Y-42703412D01*
X105390863Y-42703413D01*
X105390867Y-42703417D01*
X105586497Y-42823298D01*
X105612372Y-42839154D01*
X105852390Y-42938573D01*
X106105006Y-42999221D01*
X106277668Y-43012809D01*
X106363999Y-43019604D01*
X106364000Y-43019604D01*
X106364001Y-43019604D01*
X106446693Y-43013096D01*
X106622994Y-42999221D01*
X106875610Y-42938573D01*
X107115628Y-42839154D01*
X107121534Y-42835534D01*
X107127943Y-42832879D01*
X107129597Y-42832037D01*
X107129663Y-42832167D01*
X107236862Y-42787758D01*
X107361311Y-42777959D01*
X107482698Y-42807096D01*
X107542305Y-42837888D01*
X107551735Y-42843813D01*
X107551738Y-42843816D01*
X107704478Y-42939789D01*
X107874745Y-42999368D01*
X108009046Y-43014500D01*
X108009048Y-43014500D01*
X109277490Y-43014500D01*
X109400788Y-43034028D01*
X109512016Y-43090702D01*
X109600288Y-43178974D01*
X109656962Y-43290202D01*
X109676490Y-43413500D01*
X109656962Y-43536798D01*
X109600288Y-43648026D01*
X109559626Y-43695636D01*
X109225917Y-44029345D01*
X109225916Y-44029344D01*
X109053345Y-44201916D01*
X109053335Y-44201928D01*
X108909896Y-44399356D01*
X108799096Y-44616814D01*
X108723678Y-44848923D01*
X108723559Y-44849679D01*
X108723322Y-44850407D01*
X108720020Y-44864163D01*
X108718936Y-44863902D01*
X108684980Y-44968403D01*
X108611601Y-45069395D01*
X108510606Y-45142768D01*
X108391880Y-45181341D01*
X108364251Y-45184733D01*
X108231318Y-45196363D01*
X108231303Y-45196366D01*
X108011503Y-45255260D01*
X107805268Y-45351430D01*
X107805263Y-45351433D01*
X107618865Y-45481949D01*
X107457949Y-45642865D01*
X107327433Y-45829263D01*
X107327430Y-45829268D01*
X107231263Y-46035498D01*
X107231258Y-46035510D01*
X107216145Y-46091914D01*
X107165370Y-46205956D01*
X107112878Y-46270777D01*
X104690022Y-48693635D01*
X104589028Y-48767012D01*
X104470304Y-48805588D01*
X104407886Y-48810500D01*
X103390395Y-48810500D01*
X103301635Y-48798051D01*
X103301425Y-48799183D01*
X103282771Y-48795718D01*
X103282768Y-48795717D01*
X103225311Y-48790608D01*
X103167856Y-48785500D01*
X103167854Y-48785500D01*
X101556146Y-48785500D01*
X101556144Y-48785500D01*
X101441231Y-48795717D01*
X101252932Y-48849595D01*
X101252929Y-48849596D01*
X101079333Y-48940277D01*
X100927549Y-49064040D01*
X100927540Y-49064049D01*
X100803777Y-49215833D01*
X100757458Y-49304505D01*
X100683062Y-49404749D01*
X100581329Y-49477097D01*
X100462219Y-49514466D01*
X100337391Y-49513200D01*
X100219063Y-49473422D01*
X100121667Y-49401902D01*
X99715078Y-48995314D01*
X99715069Y-48995306D01*
X99562201Y-48884241D01*
X99393830Y-48798452D01*
X99214123Y-48740061D01*
X99214119Y-48740060D01*
X99214118Y-48740060D01*
X99027481Y-48710500D01*
X99027478Y-48710500D01*
X95698500Y-48710500D01*
X95575202Y-48690972D01*
X95463974Y-48634298D01*
X95375702Y-48546026D01*
X95319028Y-48434798D01*
X95299500Y-48311500D01*
X95299500Y-47961396D01*
X95299500Y-47961392D01*
X95284300Y-47807066D01*
X95224232Y-47609046D01*
X95126685Y-47426550D01*
X94995410Y-47266590D01*
X94835450Y-47135315D01*
X94835446Y-47135313D01*
X94835445Y-47135312D01*
X94760087Y-47095032D01*
X94652954Y-47037768D01*
X94454934Y-46977700D01*
X94300608Y-46962500D01*
X92897392Y-46962500D01*
X92743065Y-46977700D01*
X92656841Y-47003855D01*
X92545046Y-47037768D01*
X92545044Y-47037768D01*
X92545044Y-47037769D01*
X92362554Y-47135312D01*
X92362546Y-47135318D01*
X92202593Y-47266587D01*
X92202587Y-47266593D01*
X92071318Y-47426546D01*
X92071312Y-47426554D01*
X91973769Y-47609044D01*
X91913700Y-47807065D01*
X91898500Y-47961392D01*
X91898500Y-48311500D01*
X91878972Y-48434798D01*
X91822298Y-48546026D01*
X91734026Y-48634298D01*
X91622798Y-48690972D01*
X91499500Y-48710500D01*
X89678368Y-48710500D01*
X89555070Y-48690972D01*
X89443842Y-48634298D01*
X89306400Y-48534440D01*
X89138030Y-48448652D01*
X88958323Y-48390261D01*
X88958319Y-48390260D01*
X88958318Y-48390260D01*
X88771681Y-48360700D01*
X88771678Y-48360700D01*
X86553868Y-48360700D01*
X86430570Y-48341172D01*
X86319342Y-48284498D01*
X86259669Y-48228241D01*
X86259265Y-48228646D01*
X86245533Y-48214913D01*
X86245437Y-48214823D01*
X86245410Y-48214790D01*
X86085450Y-48083515D01*
X86085447Y-48083513D01*
X86085445Y-48083512D01*
X86010087Y-48043232D01*
X85902954Y-47985968D01*
X85704934Y-47925900D01*
X85550608Y-47910700D01*
X85550606Y-47910700D01*
X85540859Y-47909740D01*
X85541043Y-47907866D01*
X85433615Y-47885388D01*
X85422731Y-47881066D01*
X85353991Y-47852593D01*
X85353976Y-47852588D01*
X85126020Y-47791508D01*
X85126015Y-47791507D01*
X85092585Y-47787106D01*
X84892011Y-47760700D01*
X81104789Y-47760700D01*
X80929286Y-47783805D01*
X80870784Y-47791507D01*
X80870779Y-47791508D01*
X80642823Y-47852588D01*
X80642814Y-47852591D01*
X80642807Y-47852594D01*
X80535785Y-47896924D01*
X80535783Y-47896925D01*
X80535783Y-47896924D01*
X80424769Y-47942906D01*
X80424744Y-47942919D01*
X80220347Y-48060927D01*
X80033105Y-48204603D01*
X78651636Y-49586072D01*
X78550642Y-49659448D01*
X78431917Y-49698024D01*
X78307083Y-49698024D01*
X78188358Y-49659448D01*
X78087364Y-49586072D01*
X78013988Y-49485078D01*
X77975412Y-49366353D01*
X77970500Y-49303936D01*
X77970500Y-39378700D01*
X77970880Y-39361297D01*
X77987166Y-38988272D01*
X77990200Y-38953595D01*
X78037799Y-38592045D01*
X78043842Y-38557776D01*
X78122772Y-38201746D01*
X78131777Y-38168137D01*
X78241446Y-37820310D01*
X78253337Y-37787640D01*
X78392906Y-37450690D01*
X78407589Y-37419200D01*
X78576006Y-37095675D01*
X78593384Y-37065576D01*
X78789342Y-36757985D01*
X78809298Y-36729486D01*
X79031291Y-36440178D01*
X79053658Y-36413520D01*
X79300041Y-36144640D01*
X79324640Y-36120041D01*
X79593520Y-35873658D01*
X79620171Y-35851296D01*
X79909488Y-35629295D01*
X79937985Y-35609342D01*
X80245576Y-35413384D01*
X80275675Y-35396006D01*
X80599200Y-35227589D01*
X80630690Y-35212906D01*
X80967640Y-35073337D01*
X81000310Y-35061446D01*
X81348137Y-34951777D01*
X81381737Y-34942774D01*
X81737781Y-34863840D01*
X81772045Y-34857799D01*
X82133602Y-34810199D01*
X82168266Y-34807166D01*
X82501537Y-34792615D01*
X82541297Y-34790880D01*
X82558700Y-34790500D01*
X82615892Y-34790500D01*
X116774108Y-34790500D01*
X116831300Y-34790500D01*
X116848703Y-34790879D01*
G37*
%TD.AperFunction*%
%TA.AperFunction,Conductor*%
G36*
X88370642Y-59371602D02*
G01*
X88471636Y-59444978D01*
X88545012Y-59545972D01*
X88583588Y-59664697D01*
X88588500Y-59727114D01*
X88588500Y-61627519D01*
X88588500Y-61816481D01*
X88595351Y-61859736D01*
X88618061Y-62003123D01*
X88676452Y-62182830D01*
X88762241Y-62351201D01*
X88873306Y-62504069D01*
X88873310Y-62504074D01*
X89806638Y-63437402D01*
X89880012Y-63538393D01*
X89918588Y-63657118D01*
X89923500Y-63719535D01*
X89923500Y-63957016D01*
X89903972Y-64080314D01*
X89847298Y-64191542D01*
X89827903Y-64216145D01*
X89784588Y-64266859D01*
X89784582Y-64266867D01*
X89648846Y-64488370D01*
X89549426Y-64728390D01*
X89488778Y-64981008D01*
X89468396Y-65239999D01*
X89468396Y-65240000D01*
X89488778Y-65498991D01*
X89549426Y-65751609D01*
X89648846Y-65991629D01*
X89784582Y-66213132D01*
X89784588Y-66213140D01*
X89953308Y-66410686D01*
X89953313Y-66410691D01*
X90014104Y-66462611D01*
X90150856Y-66579409D01*
X90150859Y-66579411D01*
X90150867Y-66579417D01*
X90360758Y-66708037D01*
X90372372Y-66715154D01*
X90612390Y-66814573D01*
X90865006Y-66875221D01*
X91037668Y-66888809D01*
X91123999Y-66895604D01*
X91124000Y-66895604D01*
X91124001Y-66895604D01*
X91188866Y-66890499D01*
X91382994Y-66875221D01*
X91635610Y-66814573D01*
X91875628Y-66715154D01*
X92097140Y-66579412D01*
X92134871Y-66547186D01*
X92241305Y-66481962D01*
X92362690Y-66452818D01*
X92487140Y-66462611D01*
X92602473Y-66510382D01*
X92653124Y-66547182D01*
X92690860Y-66579412D01*
X92690863Y-66579413D01*
X92690867Y-66579417D01*
X92900758Y-66708037D01*
X92912372Y-66715154D01*
X93152390Y-66814573D01*
X93405006Y-66875221D01*
X93577668Y-66888809D01*
X93663999Y-66895604D01*
X93664000Y-66895604D01*
X93664001Y-66895604D01*
X93728866Y-66890499D01*
X93922994Y-66875221D01*
X94175610Y-66814573D01*
X94415628Y-66715154D01*
X94637140Y-66579412D01*
X94674871Y-66547186D01*
X94781305Y-66481962D01*
X94902690Y-66452818D01*
X95027140Y-66462611D01*
X95142473Y-66510382D01*
X95193124Y-66547182D01*
X95230860Y-66579412D01*
X95230863Y-66579413D01*
X95230867Y-66579417D01*
X95440758Y-66708037D01*
X95452372Y-66715154D01*
X95692390Y-66814573D01*
X95945006Y-66875221D01*
X96117668Y-66888809D01*
X96203999Y-66895604D01*
X96204000Y-66895604D01*
X96204001Y-66895604D01*
X96268866Y-66890499D01*
X96462994Y-66875221D01*
X96715610Y-66814573D01*
X96955628Y-66715154D01*
X97177140Y-66579412D01*
X97214871Y-66547186D01*
X97321305Y-66481962D01*
X97442690Y-66452818D01*
X97567140Y-66462611D01*
X97682473Y-66510382D01*
X97733124Y-66547182D01*
X97770860Y-66579412D01*
X97770863Y-66579413D01*
X97770867Y-66579417D01*
X97980758Y-66708037D01*
X97992372Y-66715154D01*
X98232390Y-66814573D01*
X98485006Y-66875221D01*
X98657668Y-66888809D01*
X98743999Y-66895604D01*
X98744000Y-66895604D01*
X98744001Y-66895604D01*
X98808866Y-66890499D01*
X99002994Y-66875221D01*
X99255610Y-66814573D01*
X99495628Y-66715154D01*
X99717140Y-66579412D01*
X99754871Y-66547186D01*
X99861305Y-66481962D01*
X99982690Y-66452818D01*
X100107140Y-66462611D01*
X100222473Y-66510382D01*
X100273124Y-66547182D01*
X100310860Y-66579412D01*
X100310863Y-66579413D01*
X100310867Y-66579417D01*
X100520758Y-66708037D01*
X100532372Y-66715154D01*
X100772390Y-66814573D01*
X101025006Y-66875221D01*
X101197668Y-66888809D01*
X101283999Y-66895604D01*
X101284000Y-66895604D01*
X101284001Y-66895604D01*
X101348866Y-66890499D01*
X101542994Y-66875221D01*
X101795610Y-66814573D01*
X102035628Y-66715154D01*
X102257140Y-66579412D01*
X102294871Y-66547186D01*
X102401305Y-66481962D01*
X102522690Y-66452818D01*
X102647140Y-66462611D01*
X102762473Y-66510382D01*
X102813124Y-66547182D01*
X102850860Y-66579412D01*
X102850863Y-66579413D01*
X102850867Y-66579417D01*
X103060758Y-66708037D01*
X103072372Y-66715154D01*
X103312390Y-66814573D01*
X103565006Y-66875221D01*
X103737668Y-66888809D01*
X103823999Y-66895604D01*
X103824000Y-66895604D01*
X103824001Y-66895604D01*
X103888866Y-66890499D01*
X104082994Y-66875221D01*
X104335610Y-66814573D01*
X104575628Y-66715154D01*
X104797140Y-66579412D01*
X104834871Y-66547186D01*
X104941305Y-66481962D01*
X105062690Y-66452818D01*
X105187140Y-66462611D01*
X105302473Y-66510382D01*
X105353124Y-66547182D01*
X105390860Y-66579412D01*
X105390863Y-66579413D01*
X105390867Y-66579417D01*
X105600758Y-66708037D01*
X105612372Y-66715154D01*
X105852390Y-66814573D01*
X106105006Y-66875221D01*
X106277668Y-66888809D01*
X106363999Y-66895604D01*
X106364000Y-66895604D01*
X106364001Y-66895604D01*
X106428866Y-66890499D01*
X106622994Y-66875221D01*
X106875610Y-66814573D01*
X107115628Y-66715154D01*
X107121534Y-66711534D01*
X107127943Y-66708879D01*
X107129597Y-66708037D01*
X107129663Y-66708167D01*
X107236862Y-66663758D01*
X107361311Y-66653959D01*
X107482698Y-66683096D01*
X107542305Y-66713888D01*
X107551735Y-66719813D01*
X107551738Y-66719816D01*
X107704478Y-66815789D01*
X107874745Y-66875368D01*
X108009046Y-66890500D01*
X108009048Y-66890500D01*
X109810149Y-66890500D01*
X109810149Y-66892715D01*
X109916269Y-66903452D01*
X110030508Y-66953783D01*
X110123602Y-67036952D01*
X110186440Y-67144818D01*
X110212869Y-67266823D01*
X110213500Y-67289255D01*
X110213500Y-67777500D01*
X110193972Y-67900798D01*
X110137298Y-68012026D01*
X110049026Y-68100298D01*
X109937798Y-68156972D01*
X109814500Y-68176500D01*
X84350064Y-68176500D01*
X84226766Y-68156972D01*
X84115538Y-68100298D01*
X84067928Y-68059636D01*
X80887364Y-64879072D01*
X80813988Y-64778078D01*
X80775412Y-64659353D01*
X80770500Y-64596936D01*
X80770500Y-61170505D01*
X80790028Y-61047207D01*
X80846702Y-60935979D01*
X80934974Y-60847707D01*
X81046202Y-60791033D01*
X81169500Y-60771505D01*
X81285315Y-60788683D01*
X81462066Y-60842300D01*
X81616392Y-60857500D01*
X81616397Y-60857500D01*
X82519603Y-60857500D01*
X82519608Y-60857500D01*
X82673934Y-60842300D01*
X82871954Y-60782232D01*
X83054450Y-60684685D01*
X83214410Y-60553410D01*
X83317021Y-60428376D01*
X83410335Y-60345456D01*
X83524706Y-60295428D01*
X83625452Y-60282500D01*
X86700608Y-60282500D01*
X86700611Y-60282500D01*
X86871701Y-60255402D01*
X87036445Y-60201873D01*
X87190788Y-60123232D01*
X87330928Y-60021414D01*
X87907364Y-59444978D01*
X88008358Y-59371602D01*
X88127083Y-59333026D01*
X88251917Y-59333026D01*
X88370642Y-59371602D01*
G37*
%TD.AperFunction*%
%TA.AperFunction,Conductor*%
G36*
X103391704Y-58656202D02*
G01*
X103507515Y-58702801D01*
X103603258Y-58782908D01*
X103669560Y-58888680D01*
X103699932Y-59009763D01*
X103701500Y-59045102D01*
X103701500Y-61440464D01*
X103681972Y-61563762D01*
X103625298Y-61674990D01*
X103584636Y-61722599D01*
X102908314Y-62398921D01*
X102908306Y-62398930D01*
X102804722Y-62541502D01*
X102804722Y-62541503D01*
X102797238Y-62551802D01*
X102795084Y-62555319D01*
X102792405Y-62558455D01*
X102788023Y-62564487D01*
X102787548Y-62564142D01*
X102714011Y-62650244D01*
X102607572Y-62715471D01*
X102486187Y-62744614D01*
X102361737Y-62734820D01*
X102246404Y-62687049D01*
X102172743Y-62628980D01*
X102066073Y-62522310D01*
X102066073Y-62522309D01*
X102066072Y-62522309D01*
X101520364Y-61976600D01*
X101446988Y-61875607D01*
X101408412Y-61756882D01*
X101403500Y-61694465D01*
X101403500Y-59130500D01*
X101423028Y-59007202D01*
X101479702Y-58895974D01*
X101567974Y-58807702D01*
X101679202Y-58751028D01*
X101802500Y-58731500D01*
X102456478Y-58731500D01*
X102456481Y-58731500D01*
X102643118Y-58701940D01*
X102693378Y-58685609D01*
X102722864Y-58676029D01*
X102846161Y-58656500D01*
X103167855Y-58656500D01*
X103180347Y-58655389D01*
X103267164Y-58647670D01*
X103391704Y-58656202D01*
G37*
%TD.AperFunction*%
%TA.AperFunction,Conductor*%
G36*
X87176984Y-50781228D02*
G01*
X87288212Y-50837902D01*
X87376484Y-50926174D01*
X87433158Y-51037402D01*
X87452686Y-51160700D01*
X87433158Y-51283998D01*
X87376484Y-51395226D01*
X87335822Y-51442836D01*
X85901580Y-52877077D01*
X85891411Y-52888985D01*
X85888710Y-52886679D01*
X85821328Y-52953620D01*
X85709913Y-53009928D01*
X85586552Y-53029051D01*
X85464566Y-53009524D01*
X85285500Y-52951341D01*
X85237736Y-52943776D01*
X85028897Y-52910700D01*
X84519103Y-52910700D01*
X84368833Y-52934500D01*
X84262505Y-52951340D01*
X84015427Y-53031621D01*
X84015424Y-53031622D01*
X83783950Y-53149565D01*
X83673688Y-53229675D01*
X83562460Y-53286348D01*
X83439162Y-53305876D01*
X83315864Y-53286347D01*
X83204636Y-53229673D01*
X83186041Y-53215308D01*
X83054454Y-53107318D01*
X83054445Y-53107312D01*
X82979087Y-53067032D01*
X82871954Y-53009768D01*
X82673934Y-52949700D01*
X82519608Y-52934500D01*
X81616392Y-52934500D01*
X81462066Y-52949700D01*
X81462063Y-52949701D01*
X81433978Y-52958220D01*
X81310320Y-52975321D01*
X81187430Y-52953373D01*
X81077337Y-52894524D01*
X80990818Y-52804534D01*
X80936341Y-52692213D01*
X80919240Y-52568555D01*
X80941188Y-52445665D01*
X81000037Y-52335572D01*
X81036019Y-52294271D01*
X81851728Y-51478564D01*
X81952721Y-51405188D01*
X82071446Y-51366612D01*
X82133863Y-51361700D01*
X84892005Y-51361700D01*
X84892011Y-51361700D01*
X85126014Y-51330893D01*
X85232843Y-51302268D01*
X85353976Y-51269811D01*
X85353981Y-51269809D01*
X85353993Y-51269806D01*
X85422729Y-51241334D01*
X85540889Y-51212966D01*
X85540859Y-51212660D01*
X85543071Y-51212442D01*
X85544113Y-51212192D01*
X85548369Y-51211920D01*
X85550603Y-51211700D01*
X85550608Y-51211700D01*
X85704934Y-51196500D01*
X85902954Y-51136432D01*
X86085450Y-51038885D01*
X86245410Y-50907610D01*
X86245437Y-50907576D01*
X86245486Y-50907533D01*
X86259265Y-50893754D01*
X86260077Y-50894566D01*
X86338752Y-50824655D01*
X86453124Y-50774628D01*
X86553868Y-50761700D01*
X87053686Y-50761700D01*
X87176984Y-50781228D01*
G37*
%TD.AperFunction*%
%TD*%
M02*
