%TF.GenerationSoftware,KiCad,Pcbnew,8.0.5*%
%TF.CreationDate,2025-03-06T11:43:34+02:00*%
%TF.ProjectId,IOExpander_PCF8574,494f4578-7061-46e6-9465-725f50434638,rev?*%
%TF.SameCoordinates,Original*%
%TF.FileFunction,Soldermask,Bot*%
%TF.FilePolarity,Negative*%
%FSLAX46Y46*%
G04 Gerber Fmt 4.6, Leading zero omitted, Abs format (unit mm)*
G04 Created by KiCad (PCBNEW 8.0.5) date 2025-03-06 11:43:34*
%MOMM*%
%LPD*%
G01*
G04 APERTURE LIST*
G04 Aperture macros list*
%AMRoundRect*
0 Rectangle with rounded corners*
0 $1 Rounding radius*
0 $2 $3 $4 $5 $6 $7 $8 $9 X,Y pos of 4 corners*
0 Add a 4 corners polygon primitive as box body*
4,1,4,$2,$3,$4,$5,$6,$7,$8,$9,$2,$3,0*
0 Add four circle primitives for the rounded corners*
1,1,$1+$1,$2,$3*
1,1,$1+$1,$4,$5*
1,1,$1+$1,$6,$7*
1,1,$1+$1,$8,$9*
0 Add four rect primitives between the rounded corners*
20,1,$1+$1,$2,$3,$4,$5,0*
20,1,$1+$1,$4,$5,$6,$7,0*
20,1,$1+$1,$6,$7,$8,$9,0*
20,1,$1+$1,$8,$9,$2,$3,0*%
G04 Aperture macros list end*
%ADD10RoundRect,0.250000X0.625000X-0.400000X0.625000X0.400000X-0.625000X0.400000X-0.625000X-0.400000X0*%
%ADD11RoundRect,0.250000X-0.625000X0.400000X-0.625000X-0.400000X0.625000X-0.400000X0.625000X0.400000X0*%
%ADD12RoundRect,0.250000X-0.725000X0.600000X-0.725000X-0.600000X0.725000X-0.600000X0.725000X0.600000X0*%
%ADD13O,1.950000X1.700000*%
%ADD14C,3.200000*%
%ADD15RoundRect,0.250000X-0.400000X-0.625000X0.400000X-0.625000X0.400000X0.625000X-0.400000X0.625000X0*%
%ADD16R,1.700000X1.700000*%
%ADD17O,1.700000X1.700000*%
%ADD18RoundRect,0.250000X-0.650000X0.412500X-0.650000X-0.412500X0.650000X-0.412500X0.650000X0.412500X0*%
%ADD19RoundRect,0.150000X1.100000X0.150000X-1.100000X0.150000X-1.100000X-0.150000X1.100000X-0.150000X0*%
G04 APERTURE END LIST*
D10*
%TO.C,R32*%
X91135200Y-71146000D03*
X91135200Y-68046000D03*
%TD*%
%TO.C,R31*%
X93675200Y-71146000D03*
X93675200Y-68046000D03*
%TD*%
%TO.C,R30*%
X96215200Y-71146000D03*
X96215200Y-68046000D03*
%TD*%
%TO.C,R29*%
X98755200Y-71146000D03*
X98755200Y-68046000D03*
%TD*%
%TO.C,R28*%
X101295200Y-71146000D03*
X101295200Y-68046000D03*
%TD*%
%TO.C,R27*%
X103835200Y-71146000D03*
X103835200Y-68046000D03*
%TD*%
%TO.C,R26*%
X106375200Y-71146000D03*
X106375200Y-68046000D03*
%TD*%
%TO.C,R25*%
X108915200Y-71146000D03*
X108915200Y-68046000D03*
%TD*%
D11*
%TO.C,R24*%
X91135200Y-35432400D03*
X91135200Y-38532400D03*
%TD*%
%TO.C,R23*%
X93675200Y-35432400D03*
X93675200Y-38532400D03*
%TD*%
%TO.C,R22*%
X96215200Y-35432400D03*
X96215200Y-38532400D03*
%TD*%
%TO.C,R21*%
X98755200Y-35432400D03*
X98755200Y-38532400D03*
%TD*%
%TO.C,R20*%
X101295200Y-35432400D03*
X101295200Y-38532400D03*
%TD*%
%TO.C,R19*%
X103835200Y-35432400D03*
X103835200Y-38532400D03*
%TD*%
%TO.C,R5*%
X106375200Y-35432400D03*
X106375200Y-38532400D03*
%TD*%
%TO.C,R4*%
X108915200Y-35432400D03*
X108915200Y-38532400D03*
%TD*%
D12*
%TO.C,J1*%
X84774000Y-49561200D03*
D13*
X84774000Y-52061200D03*
X84774000Y-54561200D03*
X84774000Y-57061200D03*
%TD*%
D14*
%TO.C,REF\u002A\u002A*%
X116840000Y-67310000D03*
%TD*%
D15*
%TO.C,R1*%
X78968000Y-54610000D03*
X82068000Y-54610000D03*
%TD*%
%TO.C,R7*%
X111988000Y-48260000D03*
X115088000Y-48260000D03*
%TD*%
%TO.C,R10*%
X117042000Y-52070000D03*
X120142000Y-52070000D03*
%TD*%
D16*
%TO.C,J2*%
X108904000Y-65240000D03*
D17*
X106364000Y-65240000D03*
X103824000Y-65240000D03*
X101284000Y-65240000D03*
X98744000Y-65240000D03*
X96204000Y-65240000D03*
X93664000Y-65240000D03*
X91124000Y-65240000D03*
%TD*%
D15*
%TO.C,R3*%
X78968000Y-59182000D03*
X82068000Y-59182000D03*
%TD*%
%TO.C,R9*%
X111988000Y-52070000D03*
X115088000Y-52070000D03*
%TD*%
D18*
%TO.C,C1*%
X91440000Y-45300500D03*
X91440000Y-48425500D03*
%TD*%
D16*
%TO.C,J3*%
X108904000Y-41364000D03*
D17*
X106364000Y-41364000D03*
X103824000Y-41364000D03*
X101284000Y-41364000D03*
X98744000Y-41364000D03*
X96204000Y-41364000D03*
X93664000Y-41364000D03*
X91124000Y-41364000D03*
%TD*%
D15*
%TO.C,R8*%
X112014000Y-44450000D03*
X115114000Y-44450000D03*
%TD*%
%TO.C,R11*%
X117068000Y-48260000D03*
X120168000Y-48260000D03*
%TD*%
%TO.C,R2*%
X78968000Y-56896000D03*
X82068000Y-56896000D03*
%TD*%
D19*
%TO.C,U1*%
X103948100Y-49936400D03*
X103948100Y-51206400D03*
X103948100Y-52476400D03*
X103948100Y-53746400D03*
X103948100Y-55016400D03*
X103948100Y-56286400D03*
X103948100Y-57556400D03*
X103948100Y-58826400D03*
X94550100Y-58826400D03*
X94550100Y-57556400D03*
X94550100Y-56286400D03*
X94550100Y-55016400D03*
X94550100Y-53746400D03*
X94550100Y-52476400D03*
X94550100Y-51206400D03*
X94550100Y-49936400D03*
%TD*%
D15*
%TO.C,R12*%
X117068000Y-44450000D03*
X120168000Y-44450000D03*
%TD*%
M02*
