%TF.GenerationSoftware,KiCad,Pcbnew,8.0.5*%
%TF.CreationDate,2025-02-04T09:16:07+02:00*%
%TF.ProjectId,IOExpander_PCF8574,494f4578-7061-46e6-9465-725f50434638,rev?*%
%TF.SameCoordinates,Original*%
%TF.FileFunction,Plated,1,2,PTH,Drill*%
%TF.FilePolarity,Positive*%
%FSLAX46Y46*%
G04 Gerber Fmt 4.6, Leading zero omitted, Abs format (unit mm)*
G04 Created by KiCad (PCBNEW 8.0.5) date 2025-02-04 09:16:07*
%MOMM*%
%LPD*%
G01*
G04 APERTURE LIST*
%TA.AperFunction,ViaDrill*%
%ADD10C,0.500000*%
%TD*%
%TA.AperFunction,ComponentDrill*%
%ADD11C,0.950000*%
%TD*%
%TA.AperFunction,ViaDrill*%
%ADD12C,1.000000*%
%TD*%
%TA.AperFunction,ComponentDrill*%
%ADD13C,1.000000*%
%TD*%
G04 APERTURE END LIST*
D10*
X88773000Y-53467000D03*
X98044000Y-56261000D03*
X108390684Y-50354228D03*
X108458000Y-46482000D03*
X108458000Y-48260000D03*
X110236000Y-54610000D03*
X110236000Y-58420000D03*
X110236000Y-62230000D03*
X113792000Y-42418000D03*
X113792000Y-50292000D03*
X114300000Y-46482000D03*
D11*
%TO.C,J1*%
X84774000Y-49561200D03*
X84774000Y-52061200D03*
X84774000Y-54561200D03*
X84774000Y-57061200D03*
%TD*%
D12*
X80264000Y-44450000D03*
X82296000Y-62738000D03*
X83439000Y-65151000D03*
X84582000Y-62738000D03*
X85725000Y-65151000D03*
X98552000Y-47879000D03*
X102362000Y-44450000D03*
X102362000Y-60960000D03*
X120142000Y-41910000D03*
D13*
%TO.C,J3*%
X91124000Y-41364000D03*
%TO.C,J2*%
X91124000Y-65240000D03*
%TO.C,J3*%
X93664000Y-41364000D03*
%TO.C,J2*%
X93664000Y-65240000D03*
%TO.C,J3*%
X96204000Y-41364000D03*
%TO.C,J2*%
X96204000Y-65240000D03*
%TO.C,J3*%
X98744000Y-41364000D03*
%TO.C,J2*%
X98744000Y-65240000D03*
%TO.C,J3*%
X101284000Y-41364000D03*
%TO.C,J2*%
X101284000Y-65240000D03*
%TO.C,J3*%
X103824000Y-41364000D03*
%TO.C,J2*%
X103824000Y-65240000D03*
%TO.C,J3*%
X106364000Y-41364000D03*
%TO.C,J2*%
X106364000Y-65240000D03*
%TO.C,J3*%
X108904000Y-41364000D03*
%TO.C,J2*%
X108904000Y-65240000D03*
M02*
