%TF.GenerationSoftware,KiCad,Pcbnew,8.0.5*%
%TF.CreationDate,2025-03-06T11:43:34+02:00*%
%TF.ProjectId,IOExpander_PCF8574,494f4578-7061-46e6-9465-725f50434638,rev?*%
%TF.SameCoordinates,Original*%
%TF.FileFunction,Copper,L1,Top*%
%TF.FilePolarity,Positive*%
%FSLAX46Y46*%
G04 Gerber Fmt 4.6, Leading zero omitted, Abs format (unit mm)*
G04 Created by KiCad (PCBNEW 8.0.5) date 2025-03-06 11:43:34*
%MOMM*%
%LPD*%
G01*
G04 APERTURE LIST*
G04 Aperture macros list*
%AMRoundRect*
0 Rectangle with rounded corners*
0 $1 Rounding radius*
0 $2 $3 $4 $5 $6 $7 $8 $9 X,Y pos of 4 corners*
0 Add a 4 corners polygon primitive as box body*
4,1,4,$2,$3,$4,$5,$6,$7,$8,$9,$2,$3,0*
0 Add four circle primitives for the rounded corners*
1,1,$1+$1,$2,$3*
1,1,$1+$1,$4,$5*
1,1,$1+$1,$6,$7*
1,1,$1+$1,$8,$9*
0 Add four rect primitives between the rounded corners*
20,1,$1+$1,$2,$3,$4,$5,0*
20,1,$1+$1,$4,$5,$6,$7,0*
20,1,$1+$1,$6,$7,$8,$9,0*
20,1,$1+$1,$8,$9,$2,$3,0*%
G04 Aperture macros list end*
%TA.AperFunction,SMDPad,CuDef*%
%ADD10RoundRect,0.250000X0.650000X-0.412500X0.650000X0.412500X-0.650000X0.412500X-0.650000X-0.412500X0*%
%TD*%
%TA.AperFunction,ComponentPad*%
%ADD11RoundRect,0.250000X-0.725000X0.600000X-0.725000X-0.600000X0.725000X-0.600000X0.725000X0.600000X0*%
%TD*%
%TA.AperFunction,ComponentPad*%
%ADD12O,1.950000X1.700000*%
%TD*%
%TA.AperFunction,SMDPad,CuDef*%
%ADD13RoundRect,0.250000X-0.400000X-0.625000X0.400000X-0.625000X0.400000X0.625000X-0.400000X0.625000X0*%
%TD*%
%TA.AperFunction,SMDPad,CuDef*%
%ADD14RoundRect,0.150000X1.100000X0.150000X-1.100000X0.150000X-1.100000X-0.150000X1.100000X-0.150000X0*%
%TD*%
%TA.AperFunction,ComponentPad*%
%ADD15R,1.700000X1.700000*%
%TD*%
%TA.AperFunction,ComponentPad*%
%ADD16O,1.700000X1.700000*%
%TD*%
%TA.AperFunction,ViaPad*%
%ADD17C,1.500000*%
%TD*%
%TA.AperFunction,ViaPad*%
%ADD18C,1.000000*%
%TD*%
%TA.AperFunction,Conductor*%
%ADD19C,1.500000*%
%TD*%
%TA.AperFunction,Conductor*%
%ADD20C,2.000000*%
%TD*%
%TA.AperFunction,Conductor*%
%ADD21C,0.800000*%
%TD*%
%TA.AperFunction,Conductor*%
%ADD22C,0.600000*%
%TD*%
%TA.AperFunction,Conductor*%
%ADD23C,1.000000*%
%TD*%
G04 APERTURE END LIST*
D10*
%TO.P,C2,1*%
%TO.N,GND*%
X91948000Y-60617500D03*
%TO.P,C2,2*%
%TO.N,5V*%
X91948000Y-57492500D03*
%TD*%
D11*
%TO.P,J1,1,Pin_1*%
%TO.N,5V*%
X84774000Y-49561200D03*
D12*
%TO.P,J1,2,Pin_2*%
%TO.N,GND*%
X84774000Y-52061200D03*
%TO.P,J1,3,Pin_3*%
%TO.N,/SCL*%
X84774000Y-54561200D03*
%TO.P,J1,4,Pin_4*%
%TO.N,/SDA*%
X84774000Y-57061200D03*
%TD*%
D13*
%TO.P,R16,1*%
%TO.N,/2_A2*%
X117094000Y-54598000D03*
%TO.P,R16,2*%
%TO.N,GND*%
X120194000Y-54598000D03*
%TD*%
%TO.P,R15,1*%
%TO.N,5V*%
X111988000Y-62230000D03*
%TO.P,R15,2*%
%TO.N,/2_A0*%
X115088000Y-62230000D03*
%TD*%
%TO.P,R14,1*%
%TO.N,5V*%
X112014000Y-58420000D03*
%TO.P,R14,2*%
%TO.N,/2_A1*%
X115114000Y-58420000D03*
%TD*%
%TO.P,R13,1*%
%TO.N,5V*%
X112014000Y-54610000D03*
%TO.P,R13,2*%
%TO.N,/2_A2*%
X115114000Y-54610000D03*
%TD*%
D14*
%TO.P,U2,1,A0*%
%TO.N,/2_A0*%
X103987600Y-56337200D03*
%TO.P,U2,2,A1*%
%TO.N,/2_A1*%
X103987600Y-55067200D03*
%TO.P,U2,3,A2*%
%TO.N,/2_A2*%
X103987600Y-53797200D03*
%TO.P,U2,4,P0*%
%TO.N,/P10*%
X103987600Y-52527200D03*
%TO.P,U2,5,P1*%
%TO.N,/P11*%
X103987600Y-51257200D03*
%TO.P,U2,6,P2*%
%TO.N,/P12*%
X103987600Y-49987200D03*
%TO.P,U2,7,P3*%
%TO.N,/P13*%
X103987600Y-48717200D03*
%TO.P,U2,8,VSS*%
%TO.N,GND*%
X103987600Y-47447200D03*
%TO.P,U2,9,P4*%
%TO.N,/P14*%
X94589600Y-47396400D03*
%TO.P,U2,10,P5*%
%TO.N,/P15*%
X94589600Y-48666400D03*
%TO.P,U2,11,P6*%
%TO.N,/P16*%
X94589600Y-49936400D03*
%TO.P,U2,12,P7*%
%TO.N,/P17*%
X94589600Y-51206400D03*
%TO.P,U2,13,~{INT}*%
%TO.N,Net-(U2-~{INT})*%
X94589600Y-52476400D03*
%TO.P,U2,14,SCL*%
%TO.N,/SCL*%
X94589600Y-53746400D03*
%TO.P,U2,15,SDA*%
%TO.N,/SDA*%
X94589600Y-55016400D03*
%TO.P,U2,16,VDD*%
%TO.N,5V*%
X94589600Y-56286400D03*
%TD*%
D13*
%TO.P,R18,1*%
%TO.N,/2_A0*%
X117094000Y-62230000D03*
%TO.P,R18,2*%
%TO.N,GND*%
X120194000Y-62230000D03*
%TD*%
%TO.P,R6,1*%
%TO.N,5V*%
X82524000Y-44704000D03*
%TO.P,R6,2*%
%TO.N,Net-(U2-~{INT})*%
X85624000Y-44704000D03*
%TD*%
%TO.P,R17,1*%
%TO.N,/2_A1*%
X117094000Y-58432000D03*
%TO.P,R17,2*%
%TO.N,GND*%
X120194000Y-58432000D03*
%TD*%
D15*
%TO.P,J2,1,Pin_1*%
%TO.N,/P00*%
X108904000Y-65240000D03*
D16*
%TO.P,J2,2,Pin_2*%
%TO.N,/P01*%
X106364000Y-65240000D03*
%TO.P,J2,3,Pin_3*%
%TO.N,/P02*%
X103824000Y-65240000D03*
%TO.P,J2,4,Pin_4*%
%TO.N,/P03*%
X101284000Y-65240000D03*
%TO.P,J2,5,Pin_5*%
%TO.N,/P04*%
X98744000Y-65240000D03*
%TO.P,J2,6,Pin_6*%
%TO.N,/P05*%
X96204000Y-65240000D03*
%TO.P,J2,7,Pin_7*%
%TO.N,/P06*%
X93664000Y-65240000D03*
%TO.P,J2,8,Pin_8*%
%TO.N,/P07*%
X91124000Y-65240000D03*
%TD*%
D15*
%TO.P,J3,1,Pin_1*%
%TO.N,/P10*%
X108904000Y-41364000D03*
D16*
%TO.P,J3,2,Pin_2*%
%TO.N,/P11*%
X106364000Y-41364000D03*
%TO.P,J3,3,Pin_3*%
%TO.N,/P12*%
X103824000Y-41364000D03*
%TO.P,J3,4,Pin_4*%
%TO.N,/P13*%
X101284000Y-41364000D03*
%TO.P,J3,5,Pin_5*%
%TO.N,/P14*%
X98744000Y-41364000D03*
%TO.P,J3,6,Pin_6*%
%TO.N,/P15*%
X96204000Y-41364000D03*
%TO.P,J3,7,Pin_7*%
%TO.N,/P16*%
X93664000Y-41364000D03*
%TO.P,J3,8,Pin_8*%
%TO.N,/P17*%
X91124000Y-41364000D03*
%TD*%
D17*
%TO.N,GND*%
X87426800Y-42418000D03*
D18*
%TO.N,/P02*%
X101346000Y-58928000D03*
X100863400Y-56286400D03*
%TO.N,/P12*%
X101854000Y-46482000D03*
X100584000Y-50038000D03*
%TO.N,/SCL*%
X88773000Y-53467000D03*
%TO.N,5V*%
X110236000Y-62230000D03*
X110236000Y-58420000D03*
X110236000Y-54610000D03*
X97282000Y-56261000D03*
%TO.N,/1_A1*%
X108839000Y-48260000D03*
X114300000Y-46482000D03*
%TO.N,/1_A0*%
X108839000Y-46101000D03*
X113792000Y-42418000D03*
%TO.N,/1_A2*%
X113792000Y-50292000D03*
X108839000Y-50292000D03*
D17*
%TO.N,GND*%
X83439000Y-65151000D03*
X98552000Y-45593000D03*
X84582000Y-62738000D03*
X120142000Y-41910000D03*
X85725000Y-65151000D03*
X82296000Y-62738000D03*
X103886000Y-60960000D03*
X100584000Y-53086000D03*
X103886000Y-45720000D03*
%TD*%
D19*
%TO.N,GND*%
X87376000Y-42468800D02*
X87426800Y-42418000D01*
X80264000Y-42468800D02*
X87376000Y-42468800D01*
D20*
X80264000Y-42468800D02*
X80264000Y-44450000D01*
X80264000Y-41351200D02*
X80264000Y-42468800D01*
X115163600Y-36931600D02*
X84683600Y-36931600D01*
X120142000Y-41910000D02*
X115163600Y-36931600D01*
X84683600Y-36931600D02*
X80264000Y-41351200D01*
D21*
%TO.N,/P02*%
X100838000Y-56311800D02*
X100838000Y-58420000D01*
X100838000Y-58420000D02*
X101346000Y-58928000D01*
X100863400Y-56286400D02*
X100838000Y-56311800D01*
%TO.N,/P11*%
X105714800Y-51257200D02*
X103987600Y-51257200D01*
X106364000Y-50608000D02*
X105714800Y-51257200D01*
X106364000Y-41364000D02*
X106364000Y-50608000D01*
%TO.N,/P16*%
X93664000Y-42545000D02*
X93664000Y-41364000D01*
X94589600Y-49936400D02*
X91719400Y-49936400D01*
X91719400Y-49936400D02*
X90678000Y-48895000D01*
X93029000Y-43180000D02*
X93664000Y-42545000D01*
X90678000Y-48895000D02*
X90678000Y-44704000D01*
X90678000Y-44704000D02*
X92202000Y-43180000D01*
X92202000Y-43180000D02*
X93029000Y-43180000D01*
%TO.N,/P10*%
X106730800Y-52527200D02*
X107696000Y-51562000D01*
X103987600Y-52527200D02*
X106730800Y-52527200D01*
X107696000Y-51562000D02*
X107696000Y-44007000D01*
X108904000Y-42799000D02*
X108904000Y-41364000D01*
X107696000Y-44007000D02*
X108904000Y-42799000D01*
%TO.N,/P14*%
X98744000Y-43242000D02*
X98744000Y-41364000D01*
X94589600Y-47396400D02*
X98744000Y-43242000D01*
%TO.N,/P15*%
X94299000Y-45212000D02*
X96204000Y-43307000D01*
X92075000Y-47879000D02*
X92075000Y-46228000D01*
X96204000Y-43307000D02*
X96204000Y-41364000D01*
X92862400Y-48666400D02*
X92075000Y-47879000D01*
X94589600Y-48666400D02*
X92862400Y-48666400D01*
X93091000Y-45212000D02*
X94299000Y-45212000D01*
X92075000Y-46228000D02*
X93091000Y-45212000D01*
%TO.N,/P17*%
X89281000Y-43207000D02*
X91124000Y-41364000D01*
X90576400Y-51206400D02*
X89281000Y-49911000D01*
X94589600Y-51206400D02*
X90576400Y-51206400D01*
X89281000Y-49911000D02*
X89281000Y-43207000D01*
%TO.N,/P12*%
X101854000Y-46482000D02*
X101854000Y-45085000D01*
X103987600Y-49987200D02*
X101269800Y-49987200D01*
X101854000Y-45085000D02*
X103824000Y-43115000D01*
X103987600Y-49987200D02*
X100634800Y-49987200D01*
X103824000Y-43115000D02*
X103824000Y-41364000D01*
X100634800Y-49987200D02*
X100584000Y-50038000D01*
%TO.N,/P13*%
X100330000Y-44069000D02*
X100330000Y-48006000D01*
X101284000Y-41364000D02*
X101284000Y-43115000D01*
X100330000Y-48006000D02*
X101041200Y-48717200D01*
X101284000Y-43115000D02*
X100330000Y-44069000D01*
X101041200Y-48717200D02*
X103987600Y-48717200D01*
D22*
%TO.N,/SCL*%
X88773000Y-53467000D02*
X87678800Y-54561200D01*
X87678800Y-54561200D02*
X87424800Y-54561200D01*
X87424800Y-54561200D02*
X89075800Y-54561200D01*
X84774000Y-54561200D02*
X88978200Y-54561200D01*
X94589600Y-53746400D02*
X89890600Y-53746400D01*
X89890600Y-53746400D02*
X89075800Y-54561200D01*
X88978200Y-54561200D02*
X89075800Y-54561200D01*
X87424800Y-54561200D02*
X84774000Y-54561200D01*
D23*
%TO.N,5V*%
X112014000Y-54610000D02*
X110236000Y-54610000D01*
D21*
X97282000Y-56261000D02*
X94615000Y-56261000D01*
D22*
X84805200Y-49530000D02*
X84774000Y-49561200D01*
X94589600Y-56286400D02*
X93154100Y-56286400D01*
X82524000Y-44704000D02*
X82524000Y-48996000D01*
X82524000Y-48996000D02*
X83089200Y-49561200D01*
D21*
X97282000Y-56261000D02*
X96647000Y-56261000D01*
D22*
X93154100Y-56286400D02*
X91948000Y-57492500D01*
D23*
X112014000Y-58420000D02*
X110236000Y-58420000D01*
X111988000Y-62230000D02*
X110236000Y-62230000D01*
D22*
X96647000Y-56261000D02*
X94615000Y-56261000D01*
D21*
X94615000Y-56261000D02*
X94589600Y-56286400D01*
D22*
X83089200Y-49561200D02*
X84774000Y-49561200D01*
%TO.N,/SDA*%
X90906600Y-55016400D02*
X90233500Y-55689500D01*
X88861800Y-57061200D02*
X90233500Y-55689500D01*
X84774000Y-57061200D02*
X88861800Y-57061200D01*
X94589600Y-55016400D02*
X90906600Y-55016400D01*
%TO.N,Net-(U2-~{INT})*%
X88646000Y-52451000D02*
X87249000Y-51054000D01*
X94589600Y-52476400D02*
X94361000Y-52476400D01*
X87249000Y-46329000D02*
X85624000Y-44704000D01*
X94335600Y-52451000D02*
X88646000Y-52451000D01*
X94361000Y-52476400D02*
X94335600Y-52451000D01*
X87249000Y-51054000D02*
X87249000Y-46329000D01*
%TO.N,/1_A1*%
X110109000Y-48260000D02*
X111887000Y-46482000D01*
X111887000Y-46482000D02*
X114300000Y-46482000D01*
X108839000Y-48260000D02*
X110109000Y-48260000D01*
%TO.N,/1_A0*%
X108839000Y-46101000D02*
X112522000Y-42418000D01*
X112522000Y-42418000D02*
X113792000Y-42418000D01*
%TO.N,/1_A2*%
X108839000Y-50292000D02*
X113792000Y-50292000D01*
D19*
%TO.N,GND*%
X82033200Y-52061200D02*
X84774000Y-52061200D01*
X120194000Y-58432000D02*
X120194000Y-54598000D01*
D21*
X86233000Y-61087000D02*
X85661500Y-61658500D01*
D23*
X98552000Y-45593000D02*
X98552000Y-54864000D01*
X99244000Y-59112000D02*
X101092000Y-60960000D01*
D22*
X91948000Y-60617500D02*
X96558500Y-60617500D01*
D19*
X80264000Y-44450000D02*
X80264000Y-50292000D01*
D22*
X83439000Y-65151000D02*
X85725000Y-65151000D01*
X102362000Y-60960000D02*
X96901000Y-60960000D01*
D23*
X99244000Y-55556000D02*
X99244000Y-59112000D01*
D19*
X80264000Y-50292000D02*
X82033200Y-52061200D01*
D21*
X86702500Y-60617500D02*
X85661500Y-61658500D01*
D23*
X101092000Y-60960000D02*
X103886000Y-60960000D01*
D22*
X86702500Y-60617500D02*
X86233000Y-61087000D01*
D19*
X120194000Y-62230000D02*
X120194000Y-58432000D01*
D21*
X103987600Y-47447200D02*
X103987600Y-45821600D01*
D19*
X120194000Y-41962000D02*
X120142000Y-41910000D01*
D23*
X101092000Y-60960000D02*
X102362000Y-60960000D01*
D22*
X82296000Y-62738000D02*
X84582000Y-62738000D01*
D21*
X85661500Y-61658500D02*
X84582000Y-62738000D01*
D19*
X120194000Y-42216000D02*
X120194000Y-41962000D01*
D23*
X98552000Y-54864000D02*
X99244000Y-55556000D01*
D21*
X103987600Y-45821600D02*
X103886000Y-45720000D01*
D19*
X120194000Y-54598000D02*
X120194000Y-42216000D01*
D22*
X85725000Y-65151000D02*
X85725000Y-63881000D01*
X96558500Y-60617500D02*
X96901000Y-60960000D01*
D21*
X91948000Y-60617500D02*
X86702500Y-60617500D01*
D22*
X85725000Y-63881000D02*
X84582000Y-62738000D01*
%TO.N,/2_A2*%
X114554000Y-52832000D02*
X115062000Y-53340000D01*
X103987600Y-53797200D02*
X108000800Y-53797200D01*
X108966000Y-52832000D02*
X114554000Y-52832000D01*
X115062000Y-53340000D02*
X115062000Y-54558000D01*
X115062000Y-54558000D02*
X115114000Y-54610000D01*
X117094000Y-54598000D02*
X115126000Y-54598000D01*
X115126000Y-54598000D02*
X115114000Y-54610000D01*
X108000800Y-53797200D02*
X108966000Y-52832000D01*
%TO.N,/2_A1*%
X108026200Y-55067200D02*
X109601000Y-56642000D01*
X115126000Y-58432000D02*
X115114000Y-58420000D01*
X117094000Y-58432000D02*
X115126000Y-58432000D01*
X109601000Y-56642000D02*
X114352000Y-56642000D01*
X103987600Y-55067200D02*
X108026200Y-55067200D01*
X115114000Y-57404000D02*
X115114000Y-58420000D01*
X114352000Y-56642000D02*
X115114000Y-57404000D01*
%TO.N,/2_A0*%
X117094000Y-62230000D02*
X115088000Y-62230000D01*
X105105200Y-56337200D02*
X109220000Y-60452000D01*
X115088000Y-61188000D02*
X115088000Y-62230000D01*
X103987600Y-56337200D02*
X105105200Y-56337200D01*
X109220000Y-60452000D02*
X114352000Y-60452000D01*
X114352000Y-60452000D02*
X115088000Y-61188000D01*
%TD*%
%TA.AperFunction,Conductor*%
%TO.N,GND*%
G36*
X104945642Y-44081023D02*
G01*
X105046636Y-44154399D01*
X105120012Y-44255393D01*
X105158588Y-44374118D01*
X105163500Y-44436535D01*
X105163500Y-47217700D01*
X105143972Y-47340998D01*
X105087298Y-47452226D01*
X104999026Y-47540498D01*
X104887798Y-47597172D01*
X104764500Y-47616700D01*
X104548704Y-47616700D01*
X104425409Y-47597172D01*
X104380253Y-47582500D01*
X104268723Y-47546261D01*
X104268719Y-47546260D01*
X104268718Y-47546260D01*
X104082081Y-47516700D01*
X104082078Y-47516700D01*
X103432760Y-47516700D01*
X103309462Y-47497172D01*
X103198234Y-47440498D01*
X103109962Y-47352226D01*
X103053288Y-47240998D01*
X103033760Y-47117700D01*
X103053288Y-46994402D01*
X103071142Y-46949077D01*
X103072409Y-46946358D01*
X103080739Y-46928496D01*
X103139635Y-46708692D01*
X103159468Y-46482000D01*
X103139635Y-46255308D01*
X103080739Y-46035504D01*
X103080737Y-46035501D01*
X103078562Y-46029523D01*
X103077045Y-46021719D01*
X103076230Y-46018677D01*
X103076442Y-46018619D01*
X103054743Y-45906981D01*
X103054500Y-45893058D01*
X103054500Y-45747535D01*
X103074028Y-45624237D01*
X103130702Y-45513009D01*
X103171364Y-45465399D01*
X104482364Y-44154399D01*
X104583358Y-44081023D01*
X104702083Y-44042447D01*
X104826917Y-44042447D01*
X104945642Y-44081023D01*
G37*
%TD.AperFunction*%
%TA.AperFunction,Conductor*%
G36*
X116848703Y-34790879D02*
G01*
X117221733Y-34807166D01*
X117256399Y-34810199D01*
X117617950Y-34857799D01*
X117652222Y-34863841D01*
X118008257Y-34942773D01*
X118041867Y-34951778D01*
X118389681Y-35061444D01*
X118422366Y-35073340D01*
X118759300Y-35212902D01*
X118790808Y-35227594D01*
X119114313Y-35396001D01*
X119144432Y-35413390D01*
X119452001Y-35609333D01*
X119480513Y-35629298D01*
X119769821Y-35851291D01*
X119796486Y-35873665D01*
X120065351Y-36120034D01*
X120089965Y-36144648D01*
X120336334Y-36413513D01*
X120358708Y-36440178D01*
X120580701Y-36729486D01*
X120600666Y-36757998D01*
X120796601Y-37065554D01*
X120814002Y-37095693D01*
X120982400Y-37419182D01*
X120997104Y-37450715D01*
X121136654Y-37787621D01*
X121148559Y-37820329D01*
X121258218Y-38168123D01*
X121267227Y-38201746D01*
X121346157Y-38557776D01*
X121352201Y-38592055D01*
X121399799Y-38953595D01*
X121402833Y-38988270D01*
X121419120Y-39361295D01*
X121419500Y-39378700D01*
X121419500Y-67301299D01*
X121419120Y-67318704D01*
X121402833Y-67691729D01*
X121399799Y-67726404D01*
X121352201Y-68087944D01*
X121346157Y-68122223D01*
X121267227Y-68478253D01*
X121258218Y-68511876D01*
X121148559Y-68859670D01*
X121136654Y-68892378D01*
X120997104Y-69229284D01*
X120982393Y-69260833D01*
X120814005Y-69584301D01*
X120796601Y-69614445D01*
X120600666Y-69922001D01*
X120580701Y-69950513D01*
X120358708Y-70239821D01*
X120336334Y-70266486D01*
X120089965Y-70535351D01*
X120065351Y-70559965D01*
X119796486Y-70806334D01*
X119769821Y-70828708D01*
X119480513Y-71050701D01*
X119452001Y-71070666D01*
X119144445Y-71266601D01*
X119114301Y-71284005D01*
X118974027Y-71357027D01*
X118790826Y-71452396D01*
X118759284Y-71467104D01*
X118422378Y-71606654D01*
X118389670Y-71618559D01*
X118041876Y-71728218D01*
X118008253Y-71737227D01*
X117652223Y-71816157D01*
X117617944Y-71822201D01*
X117256404Y-71869799D01*
X117221729Y-71872833D01*
X116877125Y-71887879D01*
X116848702Y-71889120D01*
X116831300Y-71889500D01*
X82558700Y-71889500D01*
X82541297Y-71889120D01*
X82511205Y-71887806D01*
X82168270Y-71872833D01*
X82133595Y-71869799D01*
X81772055Y-71822201D01*
X81737776Y-71816157D01*
X81381746Y-71737227D01*
X81348123Y-71728218D01*
X81000329Y-71618559D01*
X80967621Y-71606654D01*
X80938388Y-71594545D01*
X80630709Y-71467101D01*
X80599182Y-71452400D01*
X80275693Y-71284002D01*
X80245560Y-71266604D01*
X79937998Y-71070666D01*
X79909486Y-71050701D01*
X79620178Y-70828708D01*
X79593513Y-70806334D01*
X79324648Y-70559965D01*
X79300034Y-70535351D01*
X79053665Y-70266486D01*
X79031291Y-70239821D01*
X78809298Y-69950513D01*
X78789333Y-69922001D01*
X78614860Y-69648133D01*
X78593390Y-69614432D01*
X78576001Y-69584313D01*
X78407594Y-69260808D01*
X78392902Y-69229300D01*
X78253340Y-68892366D01*
X78241444Y-68859681D01*
X78131778Y-68511867D01*
X78122772Y-68478253D01*
X78043842Y-68122223D01*
X78037798Y-68087944D01*
X78021799Y-67966424D01*
X77990199Y-67726399D01*
X77987166Y-67691727D01*
X77970880Y-67318702D01*
X77970500Y-67301299D01*
X77970500Y-67188712D01*
X114989500Y-67188712D01*
X114989500Y-67431288D01*
X115002398Y-67529258D01*
X115021161Y-67671789D01*
X115021162Y-67671791D01*
X115083943Y-67906093D01*
X115083946Y-67906100D01*
X115176776Y-68130212D01*
X115176777Y-68130215D01*
X115176779Y-68130218D01*
X115298064Y-68340290D01*
X115429727Y-68511876D01*
X115445735Y-68532738D01*
X115617262Y-68704265D01*
X115617266Y-68704268D01*
X115617267Y-68704269D01*
X115809709Y-68851935D01*
X116019781Y-68973220D01*
X116019788Y-68973224D01*
X116243900Y-69066054D01*
X116243903Y-69066054D01*
X116243906Y-69066056D01*
X116400107Y-69107910D01*
X116478208Y-69128837D01*
X116478210Y-69128838D01*
X116518294Y-69134115D01*
X116718712Y-69160500D01*
X116718717Y-69160500D01*
X116961283Y-69160500D01*
X116961288Y-69160500D01*
X117201789Y-69128838D01*
X117436100Y-69066054D01*
X117660212Y-68973224D01*
X117870289Y-68851936D01*
X118062738Y-68704265D01*
X118234265Y-68532738D01*
X118381936Y-68340289D01*
X118503224Y-68130212D01*
X118596054Y-67906100D01*
X118658838Y-67671789D01*
X118690500Y-67431288D01*
X118690500Y-67188712D01*
X118658838Y-66948211D01*
X118623355Y-66815788D01*
X118596056Y-66713906D01*
X118596049Y-66713888D01*
X118503224Y-66489788D01*
X118457556Y-66410689D01*
X118381935Y-66279709D01*
X118234269Y-66087267D01*
X118234268Y-66087266D01*
X118234265Y-66087262D01*
X118062738Y-65915735D01*
X118062733Y-65915731D01*
X118062732Y-65915730D01*
X117870290Y-65768064D01*
X117660218Y-65646779D01*
X117660215Y-65646777D01*
X117660212Y-65646776D01*
X117436100Y-65553946D01*
X117436093Y-65553943D01*
X117201791Y-65491162D01*
X117201789Y-65491161D01*
X117056753Y-65472067D01*
X116961288Y-65459500D01*
X116718712Y-65459500D01*
X116630268Y-65471143D01*
X116478210Y-65491161D01*
X116478208Y-65491162D01*
X116243906Y-65553943D01*
X116019781Y-65646779D01*
X115809709Y-65768064D01*
X115617267Y-65915730D01*
X115445730Y-66087267D01*
X115298064Y-66279709D01*
X115176779Y-66489781D01*
X115083943Y-66713906D01*
X115021162Y-66948208D01*
X115021161Y-66948210D01*
X115001143Y-67100268D01*
X114989500Y-67188712D01*
X77970500Y-67188712D01*
X77970500Y-44027392D01*
X81073500Y-44027392D01*
X81073500Y-45380608D01*
X81088700Y-45534934D01*
X81148768Y-45732954D01*
X81246315Y-45915450D01*
X81332932Y-46020993D01*
X81396055Y-46128691D01*
X81422808Y-46250625D01*
X81423500Y-46274115D01*
X81423500Y-48909389D01*
X81423500Y-49082611D01*
X81441912Y-49198861D01*
X81450599Y-49253707D01*
X81504124Y-49418436D01*
X81504127Y-49418445D01*
X81582768Y-49572789D01*
X81684585Y-49712927D01*
X82372272Y-50400614D01*
X82512404Y-50502427D01*
X82512408Y-50502429D01*
X82512412Y-50502432D01*
X82635512Y-50565154D01*
X82635515Y-50565156D01*
X82666746Y-50581069D01*
X82666752Y-50581071D01*
X82666755Y-50581073D01*
X82831500Y-50634603D01*
X82965649Y-50655849D01*
X83084368Y-50694422D01*
X83185363Y-50767796D01*
X83211658Y-50796809D01*
X83302590Y-50907610D01*
X83462550Y-51038885D01*
X83645046Y-51136432D01*
X83843066Y-51196500D01*
X83997392Y-51211700D01*
X83997397Y-51211700D01*
X85550603Y-51211700D01*
X85550608Y-51211700D01*
X85704934Y-51196500D01*
X85724902Y-51190442D01*
X85848557Y-51173338D01*
X85971448Y-51195282D01*
X86081543Y-51254128D01*
X86168065Y-51344115D01*
X86220196Y-51448960D01*
X86224889Y-51463402D01*
X86229127Y-51476444D01*
X86229127Y-51476445D01*
X86307768Y-51630789D01*
X86409585Y-51770927D01*
X87379022Y-52740364D01*
X87452398Y-52841358D01*
X87490974Y-52960083D01*
X87490974Y-53084917D01*
X87452398Y-53203642D01*
X87379025Y-53304632D01*
X87339826Y-53343832D01*
X87238834Y-53417209D01*
X87120109Y-53455787D01*
X87057687Y-53460700D01*
X86297931Y-53460700D01*
X86174633Y-53441172D01*
X86063405Y-53384498D01*
X86015801Y-53343841D01*
X85974229Y-53302269D01*
X85870066Y-53226590D01*
X85764050Y-53149565D01*
X85532575Y-53031622D01*
X85532572Y-53031621D01*
X85285494Y-52951340D01*
X85199378Y-52937701D01*
X85028897Y-52910700D01*
X84519103Y-52910700D01*
X84365145Y-52935084D01*
X84262505Y-52951340D01*
X84015427Y-53031621D01*
X84015424Y-53031622D01*
X83783949Y-53149565D01*
X83573773Y-53302267D01*
X83390067Y-53485973D01*
X83237365Y-53696149D01*
X83119422Y-53927624D01*
X83119421Y-53927627D01*
X83039140Y-54174705D01*
X83019042Y-54301606D01*
X82998500Y-54431303D01*
X82998500Y-54691097D01*
X83007615Y-54748648D01*
X83039140Y-54947694D01*
X83119421Y-55194772D01*
X83119422Y-55194775D01*
X83237367Y-55426253D01*
X83237368Y-55426255D01*
X83346654Y-55576675D01*
X83403328Y-55687903D01*
X83422856Y-55811201D01*
X83403327Y-55934499D01*
X83346654Y-56045725D01*
X83237368Y-56196144D01*
X83237367Y-56196146D01*
X83119422Y-56427624D01*
X83119421Y-56427627D01*
X83039140Y-56674705D01*
X83018820Y-56803005D01*
X82998500Y-56931303D01*
X82998500Y-57191097D01*
X83013362Y-57284934D01*
X83039140Y-57447694D01*
X83119421Y-57694772D01*
X83119422Y-57694775D01*
X83237365Y-57926250D01*
X83271697Y-57973504D01*
X83390069Y-58136429D01*
X83573771Y-58320131D01*
X83783949Y-58472834D01*
X84015428Y-58590779D01*
X84262507Y-58671060D01*
X84519103Y-58711700D01*
X84519106Y-58711700D01*
X85028894Y-58711700D01*
X85028897Y-58711700D01*
X85285493Y-58671060D01*
X85532572Y-58590779D01*
X85764051Y-58472834D01*
X85974229Y-58320131D01*
X86015798Y-58278561D01*
X86116789Y-58205188D01*
X86235514Y-58166612D01*
X86297931Y-58161700D01*
X88948408Y-58161700D01*
X88948411Y-58161700D01*
X89119501Y-58134602D01*
X89284245Y-58081073D01*
X89438588Y-58002432D01*
X89578728Y-57900614D01*
X89586481Y-57892861D01*
X89687472Y-57819482D01*
X89806196Y-57780903D01*
X89931031Y-57780900D01*
X90049757Y-57819473D01*
X90150752Y-57892846D01*
X90224131Y-57993837D01*
X90259955Y-58097138D01*
X90262697Y-58110922D01*
X90262699Y-58110930D01*
X90262700Y-58110934D01*
X90322768Y-58308954D01*
X90380032Y-58416087D01*
X90414998Y-58481504D01*
X90420315Y-58491450D01*
X90551590Y-58651410D01*
X90711550Y-58782685D01*
X90894046Y-58880232D01*
X91092066Y-58940300D01*
X91246392Y-58955500D01*
X91246397Y-58955500D01*
X92649603Y-58955500D01*
X92649608Y-58955500D01*
X92803934Y-58940300D01*
X93001954Y-58880232D01*
X93184450Y-58782685D01*
X93344410Y-58651410D01*
X93475685Y-58491450D01*
X93573232Y-58308954D01*
X93633300Y-58110934D01*
X93648500Y-57956608D01*
X93648500Y-57792074D01*
X93668028Y-57668776D01*
X93724702Y-57557548D01*
X93812974Y-57469276D01*
X93924202Y-57412602D01*
X94047500Y-57393074D01*
X94170789Y-57412600D01*
X94208086Y-57424719D01*
X94308474Y-57457338D01*
X94308477Y-57457338D01*
X94308482Y-57457340D01*
X94495119Y-57486900D01*
X94495122Y-57486900D01*
X94684079Y-57486900D01*
X94684081Y-57486900D01*
X94813439Y-57466412D01*
X94875855Y-57461500D01*
X96552519Y-57461500D01*
X96693058Y-57461500D01*
X96816356Y-57481028D01*
X96829528Y-57485564D01*
X96835504Y-57487739D01*
X97055308Y-57546635D01*
X97282000Y-57566468D01*
X97508692Y-57546635D01*
X97728496Y-57487739D01*
X97934734Y-57391568D01*
X98121139Y-57261047D01*
X98282047Y-57100139D01*
X98412568Y-56913734D01*
X98508739Y-56707496D01*
X98567635Y-56487692D01*
X98587468Y-56261000D01*
X98567635Y-56034308D01*
X98508739Y-55814504D01*
X98507198Y-55811200D01*
X98412569Y-55608268D01*
X98412566Y-55608263D01*
X98282050Y-55421865D01*
X98282049Y-55421864D01*
X98282047Y-55421861D01*
X98121139Y-55260953D01*
X98121135Y-55260950D01*
X98121134Y-55260949D01*
X97934736Y-55130433D01*
X97934731Y-55130430D01*
X97728496Y-55034260D01*
X97508696Y-54975366D01*
X97508694Y-54975365D01*
X97508692Y-54975365D01*
X97282000Y-54955532D01*
X97281999Y-54955532D01*
X97045718Y-54976204D01*
X96921187Y-54967496D01*
X96805442Y-54920732D01*
X96709814Y-54840489D01*
X96643661Y-54734623D01*
X96627338Y-54688487D01*
X96576837Y-54511994D01*
X96576835Y-54511990D01*
X96571270Y-54492541D01*
X96575185Y-54491420D01*
X96556196Y-54407753D01*
X96567538Y-54283435D01*
X96571772Y-54270403D01*
X96571270Y-54270260D01*
X96576835Y-54250808D01*
X96576837Y-54250806D01*
X96630017Y-54064952D01*
X96640100Y-53951538D01*
X96640100Y-53541262D01*
X96630017Y-53427848D01*
X96576837Y-53241994D01*
X96576835Y-53241991D01*
X96571270Y-53222540D01*
X96575185Y-53221419D01*
X96556196Y-53137753D01*
X96567538Y-53013435D01*
X96571772Y-53000403D01*
X96571270Y-53000260D01*
X96576835Y-52980808D01*
X96576837Y-52980806D01*
X96630017Y-52794952D01*
X96640100Y-52681538D01*
X96640100Y-52271262D01*
X96630017Y-52157848D01*
X96576837Y-51971994D01*
X96576835Y-51971991D01*
X96571270Y-51952540D01*
X96575185Y-51951419D01*
X96556196Y-51867753D01*
X96567538Y-51743435D01*
X96571772Y-51730403D01*
X96571270Y-51730260D01*
X96576835Y-51710808D01*
X96576837Y-51710806D01*
X96630017Y-51524952D01*
X96640100Y-51411538D01*
X96640100Y-51001262D01*
X96630017Y-50887848D01*
X96576837Y-50701994D01*
X96576835Y-50701991D01*
X96571270Y-50682540D01*
X96575185Y-50681419D01*
X96556196Y-50597753D01*
X96567538Y-50473435D01*
X96571772Y-50460403D01*
X96571270Y-50460260D01*
X96576835Y-50440808D01*
X96576837Y-50440806D01*
X96630017Y-50254952D01*
X96640100Y-50141538D01*
X96640100Y-49731262D01*
X96630017Y-49617848D01*
X96576837Y-49431994D01*
X96576835Y-49431991D01*
X96571270Y-49412540D01*
X96575185Y-49411419D01*
X96556196Y-49327753D01*
X96567538Y-49203435D01*
X96571772Y-49190403D01*
X96571270Y-49190260D01*
X96576835Y-49170808D01*
X96576837Y-49170806D01*
X96630017Y-48984952D01*
X96640100Y-48871538D01*
X96640100Y-48461262D01*
X96630017Y-48347848D01*
X96576837Y-48161994D01*
X96576835Y-48161991D01*
X96571270Y-48142540D01*
X96575185Y-48141419D01*
X96556196Y-48057753D01*
X96567538Y-47933435D01*
X96571772Y-47920403D01*
X96571270Y-47920260D01*
X96576835Y-47900808D01*
X96576837Y-47900806D01*
X96630017Y-47714952D01*
X96640100Y-47601538D01*
X96640100Y-47208934D01*
X96659628Y-47085636D01*
X96716302Y-46974408D01*
X96756964Y-46926798D01*
X97869490Y-45814272D01*
X98448366Y-45235396D01*
X98549358Y-45162022D01*
X98668083Y-45123446D01*
X98792917Y-45123446D01*
X98911642Y-45162022D01*
X99012636Y-45235398D01*
X99086012Y-45336392D01*
X99124588Y-45455117D01*
X99129500Y-45517534D01*
X99129500Y-47911519D01*
X99129500Y-48100481D01*
X99139243Y-48161994D01*
X99159061Y-48287123D01*
X99217452Y-48466830D01*
X99303241Y-48635201D01*
X99414306Y-48788069D01*
X99414310Y-48788074D01*
X99446524Y-48820288D01*
X99519900Y-48921278D01*
X99558477Y-49040002D01*
X99558478Y-49164837D01*
X99519904Y-49283562D01*
X99491235Y-49331277D01*
X99453430Y-49385269D01*
X99357260Y-49591503D01*
X99298366Y-49811303D01*
X99298365Y-49811308D01*
X99278532Y-50038000D01*
X99298365Y-50264691D01*
X99298366Y-50264696D01*
X99357260Y-50484496D01*
X99453430Y-50690731D01*
X99453433Y-50690736D01*
X99507390Y-50767796D01*
X99583953Y-50877139D01*
X99744861Y-51038047D01*
X99744864Y-51038049D01*
X99744865Y-51038050D01*
X99931263Y-51168566D01*
X99931268Y-51168569D01*
X100137503Y-51264739D01*
X100200953Y-51281740D01*
X100357308Y-51323635D01*
X100584000Y-51343468D01*
X100810692Y-51323635D01*
X101030496Y-51264739D01*
X101091727Y-51236186D01*
X101115539Y-51225083D01*
X101235538Y-51190674D01*
X101284163Y-51187700D01*
X101547582Y-51187700D01*
X101670880Y-51207228D01*
X101782108Y-51263902D01*
X101870380Y-51352174D01*
X101927054Y-51463402D01*
X101945014Y-51551365D01*
X101947181Y-51575740D01*
X101947184Y-51575756D01*
X102005929Y-51781061D01*
X102002027Y-51782177D01*
X102021018Y-51866096D01*
X102009598Y-51990407D01*
X102005441Y-52003199D01*
X102005929Y-52003339D01*
X101947184Y-52208643D01*
X101947181Y-52208660D01*
X101937100Y-52322050D01*
X101937100Y-52732349D01*
X101947181Y-52845739D01*
X101947184Y-52845756D01*
X102005929Y-53051061D01*
X102002027Y-53052177D01*
X102021018Y-53136096D01*
X102009598Y-53260407D01*
X102005441Y-53273199D01*
X102005929Y-53273339D01*
X101947184Y-53478643D01*
X101947181Y-53478660D01*
X101937100Y-53592050D01*
X101937100Y-54002349D01*
X101947181Y-54115739D01*
X101947184Y-54115756D01*
X102005929Y-54321061D01*
X102002027Y-54322177D01*
X102021018Y-54406096D01*
X102009598Y-54530407D01*
X102005441Y-54543199D01*
X102005929Y-54543339D01*
X101947184Y-54748643D01*
X101947181Y-54748658D01*
X101945650Y-54765882D01*
X101915278Y-54886966D01*
X101848976Y-54992738D01*
X101753234Y-55072844D01*
X101637423Y-55119444D01*
X101512880Y-55127976D01*
X101391796Y-55097604D01*
X101379594Y-55092161D01*
X101309897Y-55059661D01*
X101090096Y-55000766D01*
X101090094Y-55000765D01*
X101090092Y-55000765D01*
X100863400Y-54980932D01*
X100636708Y-55000765D01*
X100636703Y-55000766D01*
X100416903Y-55059660D01*
X100210668Y-55155830D01*
X100210663Y-55155833D01*
X100024265Y-55286349D01*
X99863349Y-55447265D01*
X99732833Y-55633663D01*
X99732830Y-55633668D01*
X99636660Y-55839903D01*
X99577766Y-56059703D01*
X99577765Y-56059708D01*
X99557932Y-56286400D01*
X99577765Y-56513092D01*
X99623905Y-56685292D01*
X99637500Y-56788555D01*
X99637500Y-58325519D01*
X99637500Y-58514481D01*
X99667060Y-58701118D01*
X99667061Y-58701123D01*
X99725452Y-58880830D01*
X99811241Y-59049201D01*
X99922306Y-59202069D01*
X99922314Y-59202078D01*
X100090946Y-59370711D01*
X100164322Y-59471705D01*
X100170426Y-59484219D01*
X100215432Y-59580735D01*
X100215433Y-59580736D01*
X100259347Y-59643453D01*
X100345953Y-59767139D01*
X100506861Y-59928047D01*
X100506864Y-59928049D01*
X100506865Y-59928050D01*
X100693263Y-60058566D01*
X100693268Y-60058569D01*
X100899503Y-60154739D01*
X100962953Y-60171740D01*
X101119308Y-60213635D01*
X101346000Y-60233468D01*
X101572692Y-60213635D01*
X101792496Y-60154739D01*
X101998734Y-60058568D01*
X102185139Y-59928047D01*
X102346047Y-59767139D01*
X102476568Y-59580734D01*
X102572739Y-59374496D01*
X102631635Y-59154692D01*
X102651468Y-58928000D01*
X102631635Y-58701308D01*
X102572739Y-58481504D01*
X102568696Y-58472834D01*
X102476569Y-58275268D01*
X102476566Y-58275263D01*
X102346050Y-58088865D01*
X102334847Y-58075514D01*
X102337832Y-58073008D01*
X102284752Y-57999949D01*
X102246176Y-57881224D01*
X102246176Y-57756390D01*
X102284752Y-57637665D01*
X102358128Y-57536671D01*
X102459122Y-57463295D01*
X102577847Y-57424719D01*
X102702681Y-57424719D01*
X102713158Y-57426522D01*
X102719043Y-57427615D01*
X102719048Y-57427617D01*
X102719052Y-57427617D01*
X102719061Y-57427619D01*
X102832450Y-57437699D01*
X102832458Y-57437700D01*
X102832462Y-57437700D01*
X103900989Y-57437700D01*
X104484086Y-57437700D01*
X104607384Y-57457228D01*
X104718612Y-57513902D01*
X104766222Y-57554564D01*
X108380586Y-61168928D01*
X108503072Y-61291414D01*
X108643212Y-61393232D01*
X108766190Y-61455892D01*
X108867183Y-61529266D01*
X108940560Y-61630259D01*
X108979137Y-61748983D01*
X108979138Y-61873818D01*
X108970442Y-61910047D01*
X108971182Y-61910225D01*
X108967522Y-61925466D01*
X108965444Y-61938589D01*
X108956765Y-61979422D01*
X108950364Y-62003309D01*
X108945619Y-62057544D01*
X108942227Y-62085174D01*
X108935500Y-62127650D01*
X108935500Y-62155791D01*
X108933982Y-62190563D01*
X108930532Y-62229999D01*
X108933982Y-62269433D01*
X108935500Y-62304207D01*
X108935500Y-62332350D01*
X108942227Y-62374827D01*
X108945619Y-62402456D01*
X108950365Y-62456694D01*
X108956765Y-62480580D01*
X108965443Y-62521406D01*
X108966829Y-62530156D01*
X108967523Y-62534536D01*
X108967525Y-62534540D01*
X108985393Y-62589533D01*
X108991325Y-62609561D01*
X109009258Y-62676489D01*
X109009260Y-62676495D01*
X109013423Y-62685422D01*
X109028651Y-62724079D01*
X109030777Y-62729213D01*
X109063766Y-62793958D01*
X109069868Y-62806469D01*
X109105434Y-62882738D01*
X109106513Y-62884607D01*
X109116486Y-62899817D01*
X109123712Y-62911608D01*
X109155946Y-62955975D01*
X109212619Y-63067204D01*
X109232147Y-63190502D01*
X109212618Y-63313799D01*
X109155944Y-63425028D01*
X109067672Y-63513299D01*
X108956443Y-63569972D01*
X108833147Y-63589500D01*
X108009037Y-63589500D01*
X107874748Y-63604631D01*
X107874745Y-63604632D01*
X107704478Y-63664211D01*
X107555100Y-63758072D01*
X107542304Y-63766112D01*
X107427515Y-63815175D01*
X107303182Y-63826365D01*
X107181478Y-63798587D01*
X107121544Y-63768471D01*
X107115629Y-63764846D01*
X106875609Y-63665426D01*
X106622991Y-63604778D01*
X106364001Y-63584396D01*
X106363999Y-63584396D01*
X106105008Y-63604778D01*
X105852390Y-63665426D01*
X105612370Y-63764846D01*
X105390867Y-63900582D01*
X105390853Y-63900593D01*
X105353126Y-63932815D01*
X105246687Y-63998040D01*
X105125301Y-64027180D01*
X105000851Y-64017385D01*
X104885519Y-63969611D01*
X104834874Y-63932815D01*
X104797146Y-63900593D01*
X104797132Y-63900582D01*
X104575629Y-63764846D01*
X104335609Y-63665426D01*
X104082991Y-63604778D01*
X103824001Y-63584396D01*
X103823999Y-63584396D01*
X103565008Y-63604778D01*
X103312390Y-63665426D01*
X103072370Y-63764846D01*
X102850867Y-63900582D01*
X102850853Y-63900593D01*
X102813126Y-63932815D01*
X102706687Y-63998040D01*
X102585301Y-64027180D01*
X102460851Y-64017385D01*
X102345519Y-63969611D01*
X102294874Y-63932815D01*
X102257146Y-63900593D01*
X102257132Y-63900582D01*
X102035629Y-63764846D01*
X101795609Y-63665426D01*
X101542991Y-63604778D01*
X101284001Y-63584396D01*
X101283999Y-63584396D01*
X101025008Y-63604778D01*
X100772390Y-63665426D01*
X100532370Y-63764846D01*
X100310867Y-63900582D01*
X100310853Y-63900593D01*
X100273126Y-63932815D01*
X100166687Y-63998040D01*
X100045301Y-64027180D01*
X99920851Y-64017385D01*
X99805519Y-63969611D01*
X99754874Y-63932815D01*
X99717146Y-63900593D01*
X99717132Y-63900582D01*
X99495629Y-63764846D01*
X99255609Y-63665426D01*
X99002991Y-63604778D01*
X98744001Y-63584396D01*
X98743999Y-63584396D01*
X98485008Y-63604778D01*
X98232390Y-63665426D01*
X97992370Y-63764846D01*
X97770867Y-63900582D01*
X97770853Y-63900593D01*
X97733126Y-63932815D01*
X97626687Y-63998040D01*
X97505301Y-64027180D01*
X97380851Y-64017385D01*
X97265519Y-63969611D01*
X97214874Y-63932815D01*
X97177146Y-63900593D01*
X97177132Y-63900582D01*
X96955629Y-63764846D01*
X96715609Y-63665426D01*
X96462991Y-63604778D01*
X96204001Y-63584396D01*
X96203999Y-63584396D01*
X95945008Y-63604778D01*
X95692390Y-63665426D01*
X95452370Y-63764846D01*
X95230867Y-63900582D01*
X95230853Y-63900593D01*
X95193126Y-63932815D01*
X95086687Y-63998040D01*
X94965301Y-64027180D01*
X94840851Y-64017385D01*
X94725519Y-63969611D01*
X94674874Y-63932815D01*
X94637146Y-63900593D01*
X94637132Y-63900582D01*
X94415629Y-63764846D01*
X94175609Y-63665426D01*
X93922991Y-63604778D01*
X93664001Y-63584396D01*
X93663999Y-63584396D01*
X93405008Y-63604778D01*
X93152390Y-63665426D01*
X92912370Y-63764846D01*
X92690867Y-63900582D01*
X92690853Y-63900593D01*
X92653126Y-63932815D01*
X92546687Y-63998040D01*
X92425301Y-64027180D01*
X92300851Y-64017385D01*
X92185519Y-63969611D01*
X92134874Y-63932815D01*
X92097146Y-63900593D01*
X92097132Y-63900582D01*
X91875629Y-63764846D01*
X91635609Y-63665426D01*
X91382991Y-63604778D01*
X91124001Y-63584396D01*
X91123999Y-63584396D01*
X90865008Y-63604778D01*
X90612390Y-63665426D01*
X90372370Y-63764846D01*
X90150867Y-63900582D01*
X90150859Y-63900588D01*
X89953313Y-64069308D01*
X89953308Y-64069313D01*
X89784588Y-64266859D01*
X89784582Y-64266867D01*
X89648846Y-64488370D01*
X89549426Y-64728390D01*
X89488778Y-64981008D01*
X89468396Y-65239999D01*
X89468396Y-65240000D01*
X89488778Y-65498991D01*
X89549426Y-65751609D01*
X89648846Y-65991629D01*
X89784582Y-66213132D01*
X89784588Y-66213140D01*
X89953308Y-66410686D01*
X89953313Y-66410691D01*
X90014104Y-66462611D01*
X90150856Y-66579409D01*
X90150859Y-66579411D01*
X90150867Y-66579417D01*
X90370335Y-66713906D01*
X90372372Y-66715154D01*
X90612390Y-66814573D01*
X90865006Y-66875221D01*
X91037668Y-66888809D01*
X91123999Y-66895604D01*
X91124000Y-66895604D01*
X91124001Y-66895604D01*
X91188866Y-66890499D01*
X91382994Y-66875221D01*
X91635610Y-66814573D01*
X91875628Y-66715154D01*
X92097140Y-66579412D01*
X92134871Y-66547186D01*
X92241305Y-66481962D01*
X92362690Y-66452818D01*
X92487140Y-66462611D01*
X92602473Y-66510382D01*
X92653124Y-66547182D01*
X92690860Y-66579412D01*
X92690863Y-66579413D01*
X92690867Y-66579417D01*
X92910335Y-66713906D01*
X92912372Y-66715154D01*
X93152390Y-66814573D01*
X93405006Y-66875221D01*
X93577668Y-66888809D01*
X93663999Y-66895604D01*
X93664000Y-66895604D01*
X93664001Y-66895604D01*
X93728866Y-66890499D01*
X93922994Y-66875221D01*
X94175610Y-66814573D01*
X94415628Y-66715154D01*
X94637140Y-66579412D01*
X94674871Y-66547186D01*
X94781305Y-66481962D01*
X94902690Y-66452818D01*
X95027140Y-66462611D01*
X95142473Y-66510382D01*
X95193124Y-66547182D01*
X95230860Y-66579412D01*
X95230863Y-66579413D01*
X95230867Y-66579417D01*
X95450335Y-66713906D01*
X95452372Y-66715154D01*
X95692390Y-66814573D01*
X95945006Y-66875221D01*
X96117668Y-66888809D01*
X96203999Y-66895604D01*
X96204000Y-66895604D01*
X96204001Y-66895604D01*
X96268866Y-66890499D01*
X96462994Y-66875221D01*
X96715610Y-66814573D01*
X96955628Y-66715154D01*
X97177140Y-66579412D01*
X97214871Y-66547186D01*
X97321305Y-66481962D01*
X97442690Y-66452818D01*
X97567140Y-66462611D01*
X97682473Y-66510382D01*
X97733124Y-66547182D01*
X97770860Y-66579412D01*
X97770863Y-66579413D01*
X97770867Y-66579417D01*
X97990335Y-66713906D01*
X97992372Y-66715154D01*
X98232390Y-66814573D01*
X98485006Y-66875221D01*
X98657668Y-66888809D01*
X98743999Y-66895604D01*
X98744000Y-66895604D01*
X98744001Y-66895604D01*
X98808866Y-66890499D01*
X99002994Y-66875221D01*
X99255610Y-66814573D01*
X99495628Y-66715154D01*
X99717140Y-66579412D01*
X99754871Y-66547186D01*
X99861305Y-66481962D01*
X99982690Y-66452818D01*
X100107140Y-66462611D01*
X100222473Y-66510382D01*
X100273124Y-66547182D01*
X100310860Y-66579412D01*
X100310863Y-66579413D01*
X100310867Y-66579417D01*
X100530335Y-66713906D01*
X100532372Y-66715154D01*
X100772390Y-66814573D01*
X101025006Y-66875221D01*
X101197668Y-66888809D01*
X101283999Y-66895604D01*
X101284000Y-66895604D01*
X101284001Y-66895604D01*
X101348866Y-66890499D01*
X101542994Y-66875221D01*
X101795610Y-66814573D01*
X102035628Y-66715154D01*
X102257140Y-66579412D01*
X102294871Y-66547186D01*
X102401305Y-66481962D01*
X102522690Y-66452818D01*
X102647140Y-66462611D01*
X102762473Y-66510382D01*
X102813124Y-66547182D01*
X102850860Y-66579412D01*
X102850863Y-66579413D01*
X102850867Y-66579417D01*
X103070335Y-66713906D01*
X103072372Y-66715154D01*
X103312390Y-66814573D01*
X103565006Y-66875221D01*
X103737668Y-66888809D01*
X103823999Y-66895604D01*
X103824000Y-66895604D01*
X103824001Y-66895604D01*
X103888866Y-66890499D01*
X104082994Y-66875221D01*
X104335610Y-66814573D01*
X104575628Y-66715154D01*
X104797140Y-66579412D01*
X104834871Y-66547186D01*
X104941305Y-66481962D01*
X105062690Y-66452818D01*
X105187140Y-66462611D01*
X105302473Y-66510382D01*
X105353124Y-66547182D01*
X105390860Y-66579412D01*
X105390863Y-66579413D01*
X105390867Y-66579417D01*
X105610335Y-66713906D01*
X105612372Y-66715154D01*
X105852390Y-66814573D01*
X106105006Y-66875221D01*
X106277668Y-66888809D01*
X106363999Y-66895604D01*
X106364000Y-66895604D01*
X106364001Y-66895604D01*
X106428866Y-66890499D01*
X106622994Y-66875221D01*
X106875610Y-66814573D01*
X107115628Y-66715154D01*
X107121534Y-66711534D01*
X107127943Y-66708879D01*
X107129597Y-66708037D01*
X107129663Y-66708167D01*
X107236862Y-66663758D01*
X107361311Y-66653959D01*
X107482698Y-66683096D01*
X107542305Y-66713888D01*
X107551735Y-66719813D01*
X107551738Y-66719816D01*
X107704478Y-66815789D01*
X107874745Y-66875368D01*
X108009046Y-66890500D01*
X108009048Y-66890500D01*
X109798952Y-66890500D01*
X109798954Y-66890500D01*
X109933255Y-66875368D01*
X110103522Y-66815789D01*
X110256262Y-66719816D01*
X110383816Y-66592262D01*
X110479789Y-66439522D01*
X110539368Y-66269255D01*
X110554500Y-66134954D01*
X110554500Y-64345046D01*
X110539368Y-64210745D01*
X110539367Y-64210742D01*
X110537440Y-64193639D01*
X110543040Y-64068930D01*
X110586903Y-63952055D01*
X110664736Y-63854455D01*
X110768919Y-63785683D01*
X110889255Y-63752472D01*
X111013964Y-63758072D01*
X111122017Y-63797076D01*
X111184046Y-63830232D01*
X111382066Y-63890300D01*
X111536392Y-63905500D01*
X111536397Y-63905500D01*
X112439603Y-63905500D01*
X112439608Y-63905500D01*
X112593934Y-63890300D01*
X112791954Y-63830232D01*
X112974450Y-63732685D01*
X113134410Y-63601410D01*
X113229568Y-63485459D01*
X113322882Y-63402536D01*
X113437254Y-63352508D01*
X113561487Y-63340272D01*
X113683422Y-63367025D01*
X113791121Y-63430148D01*
X113846432Y-63485459D01*
X113941582Y-63601401D01*
X113941585Y-63601404D01*
X113941590Y-63601410D01*
X114101550Y-63732685D01*
X114284046Y-63830232D01*
X114482066Y-63890300D01*
X114636392Y-63905500D01*
X114636397Y-63905500D01*
X115539603Y-63905500D01*
X115539608Y-63905500D01*
X115693934Y-63890300D01*
X115891954Y-63830232D01*
X115902911Y-63824375D01*
X116020849Y-63783475D01*
X116145660Y-63781022D01*
X116265120Y-63817257D01*
X116279054Y-63824356D01*
X116290046Y-63830232D01*
X116488066Y-63890300D01*
X116642392Y-63905500D01*
X116642397Y-63905500D01*
X117545603Y-63905500D01*
X117545608Y-63905500D01*
X117699934Y-63890300D01*
X117897954Y-63830232D01*
X118080450Y-63732685D01*
X118240410Y-63601410D01*
X118371685Y-63441450D01*
X118469232Y-63258954D01*
X118529300Y-63060934D01*
X118544500Y-62906608D01*
X118544500Y-61553392D01*
X118529300Y-61399066D01*
X118469232Y-61201046D01*
X118371685Y-61018550D01*
X118240410Y-60858590D01*
X118080450Y-60727315D01*
X117997325Y-60682883D01*
X117897797Y-60607542D01*
X117826418Y-60505128D01*
X117790180Y-60385669D01*
X117792631Y-60260858D01*
X117833530Y-60142913D01*
X117908875Y-60043380D01*
X117997325Y-59979116D01*
X118080450Y-59934685D01*
X118240410Y-59803410D01*
X118371685Y-59643450D01*
X118469232Y-59460954D01*
X118529300Y-59262934D01*
X118544500Y-59108608D01*
X118544500Y-57755392D01*
X118529300Y-57601066D01*
X118469232Y-57403046D01*
X118371685Y-57220550D01*
X118240410Y-57060590D01*
X118080450Y-56929315D01*
X118080446Y-56929313D01*
X118080445Y-56929312D01*
X118020481Y-56897260D01*
X117963652Y-56866884D01*
X117864121Y-56791542D01*
X117792742Y-56689127D01*
X117756505Y-56569668D01*
X117758956Y-56444857D01*
X117799856Y-56326912D01*
X117875200Y-56227379D01*
X117963652Y-56163115D01*
X118080450Y-56100685D01*
X118240410Y-55969410D01*
X118371685Y-55809450D01*
X118469232Y-55626954D01*
X118529300Y-55428934D01*
X118544500Y-55274608D01*
X118544500Y-53921392D01*
X118529300Y-53767066D01*
X118469232Y-53569046D01*
X118371685Y-53386550D01*
X118240410Y-53226590D01*
X118080450Y-53095315D01*
X118080446Y-53095313D01*
X118080445Y-53095312D01*
X117997657Y-53051061D01*
X117897954Y-52997768D01*
X117699934Y-52937700D01*
X117545608Y-52922500D01*
X116642392Y-52922500D01*
X116488066Y-52937700D01*
X116488063Y-52937700D01*
X116488062Y-52937701D01*
X116464363Y-52944890D01*
X116340705Y-52961993D01*
X116217815Y-52940046D01*
X116107721Y-52881198D01*
X116021200Y-52791210D01*
X116008340Y-52771547D01*
X116003232Y-52763212D01*
X115901414Y-52623072D01*
X115270927Y-51992585D01*
X115130789Y-51890768D01*
X114976445Y-51812127D01*
X114942523Y-51801104D01*
X114831297Y-51744432D01*
X114743025Y-51656161D01*
X114686351Y-51544933D01*
X114666822Y-51421635D01*
X114686350Y-51298337D01*
X114743024Y-51187109D01*
X114783687Y-51139498D01*
X114792047Y-51131139D01*
X114922568Y-50944734D01*
X115018739Y-50738496D01*
X115077635Y-50518692D01*
X115097468Y-50292000D01*
X115077635Y-50065308D01*
X115018739Y-49845504D01*
X114956917Y-49712928D01*
X114922569Y-49639268D01*
X114922566Y-49639263D01*
X114792050Y-49452865D01*
X114792049Y-49452864D01*
X114792047Y-49452861D01*
X114631139Y-49291953D01*
X114631135Y-49291950D01*
X114631134Y-49291949D01*
X114444736Y-49161433D01*
X114444731Y-49161430D01*
X114238496Y-49065260D01*
X114018696Y-49006366D01*
X114018694Y-49006365D01*
X114018692Y-49006365D01*
X113792000Y-48986532D01*
X113565308Y-49006365D01*
X113565303Y-49006366D01*
X113345505Y-49065260D01*
X113308303Y-49082608D01*
X113154952Y-49154117D01*
X113034958Y-49188526D01*
X112986330Y-49191500D01*
X111697114Y-49191500D01*
X111573816Y-49171972D01*
X111462588Y-49115298D01*
X111374316Y-49027026D01*
X111317642Y-48915798D01*
X111298114Y-48792500D01*
X111317642Y-48669202D01*
X111374316Y-48557974D01*
X111414978Y-48510364D01*
X112225978Y-47699364D01*
X112326972Y-47625988D01*
X112445697Y-47587412D01*
X112508114Y-47582500D01*
X113494330Y-47582500D01*
X113617628Y-47602028D01*
X113662944Y-47619879D01*
X113853504Y-47708739D01*
X114073308Y-47767635D01*
X114300000Y-47787468D01*
X114526692Y-47767635D01*
X114746496Y-47708739D01*
X114952734Y-47612568D01*
X115139139Y-47482047D01*
X115300047Y-47321139D01*
X115430568Y-47134734D01*
X115526739Y-46928496D01*
X115585635Y-46708692D01*
X115605468Y-46482000D01*
X115585635Y-46255308D01*
X115526739Y-46035504D01*
X115526738Y-46035502D01*
X115430569Y-45829268D01*
X115430566Y-45829263D01*
X115300050Y-45642865D01*
X115300049Y-45642864D01*
X115300047Y-45642861D01*
X115139139Y-45481953D01*
X115139135Y-45481950D01*
X115139134Y-45481949D01*
X114952736Y-45351433D01*
X114952731Y-45351430D01*
X114746496Y-45255260D01*
X114526696Y-45196366D01*
X114526694Y-45196365D01*
X114526692Y-45196365D01*
X114300000Y-45176532D01*
X114073308Y-45196365D01*
X114073303Y-45196366D01*
X113853505Y-45255260D01*
X113781684Y-45288751D01*
X113662952Y-45344117D01*
X113542958Y-45378526D01*
X113494330Y-45381500D01*
X112078114Y-45381500D01*
X111954816Y-45361972D01*
X111843588Y-45305298D01*
X111755316Y-45217026D01*
X111698642Y-45105798D01*
X111679114Y-44982500D01*
X111698642Y-44859202D01*
X111755316Y-44747974D01*
X111795978Y-44700365D01*
X112811117Y-43685225D01*
X112912111Y-43611848D01*
X113030835Y-43573272D01*
X113155670Y-43573272D01*
X113261879Y-43605744D01*
X113345503Y-43644739D01*
X113408953Y-43661740D01*
X113565308Y-43703635D01*
X113792000Y-43723468D01*
X114018692Y-43703635D01*
X114238496Y-43644739D01*
X114444734Y-43548568D01*
X114631139Y-43418047D01*
X114792047Y-43257139D01*
X114922568Y-43070734D01*
X115018739Y-42864496D01*
X115077635Y-42644692D01*
X115097468Y-42418000D01*
X115077635Y-42191308D01*
X115018739Y-41971504D01*
X114922568Y-41765266D01*
X114792047Y-41578861D01*
X114631139Y-41417953D01*
X114631135Y-41417950D01*
X114631134Y-41417949D01*
X114444736Y-41287433D01*
X114444731Y-41287430D01*
X114238496Y-41191260D01*
X114018696Y-41132366D01*
X114018694Y-41132365D01*
X114018692Y-41132365D01*
X113792000Y-41112532D01*
X113565308Y-41132365D01*
X113565303Y-41132366D01*
X113345505Y-41191260D01*
X113273684Y-41224751D01*
X113154952Y-41280117D01*
X113034958Y-41314526D01*
X112986330Y-41317500D01*
X112435389Y-41317500D01*
X112431237Y-41318157D01*
X112412004Y-41321202D01*
X112411996Y-41321204D01*
X112342225Y-41332254D01*
X112264296Y-41344597D01*
X112264291Y-41344599D01*
X112099555Y-41398126D01*
X112099549Y-41398129D01*
X111945213Y-41476766D01*
X111888132Y-41518239D01*
X111888131Y-41518240D01*
X111805073Y-41578585D01*
X111805069Y-41578588D01*
X111235635Y-42148022D01*
X111134642Y-42221398D01*
X111015917Y-42259974D01*
X110891082Y-42259974D01*
X110772357Y-42221397D01*
X110671364Y-42148021D01*
X110597988Y-42047028D01*
X110559412Y-41928303D01*
X110554500Y-41865886D01*
X110554500Y-40469047D01*
X110554499Y-40469037D01*
X110545691Y-40390867D01*
X110539368Y-40334745D01*
X110479789Y-40164478D01*
X110383816Y-40011738D01*
X110256262Y-39884184D01*
X110103522Y-39788211D01*
X109933255Y-39728632D01*
X109933253Y-39728631D01*
X109933251Y-39728631D01*
X109798962Y-39713500D01*
X109798954Y-39713500D01*
X108009046Y-39713500D01*
X108009037Y-39713500D01*
X107874748Y-39728631D01*
X107874745Y-39728632D01*
X107704478Y-39788211D01*
X107542304Y-39890112D01*
X107427515Y-39939175D01*
X107303182Y-39950365D01*
X107181478Y-39922587D01*
X107121544Y-39892471D01*
X107115629Y-39888846D01*
X106875609Y-39789426D01*
X106622991Y-39728778D01*
X106364001Y-39708396D01*
X106363999Y-39708396D01*
X106105008Y-39728778D01*
X105852390Y-39789426D01*
X105612370Y-39888846D01*
X105390867Y-40024582D01*
X105390853Y-40024593D01*
X105353126Y-40056815D01*
X105246687Y-40122040D01*
X105125301Y-40151180D01*
X105000851Y-40141385D01*
X104885519Y-40093611D01*
X104834874Y-40056815D01*
X104797146Y-40024593D01*
X104797132Y-40024582D01*
X104575629Y-39888846D01*
X104335609Y-39789426D01*
X104082991Y-39728778D01*
X103824001Y-39708396D01*
X103823999Y-39708396D01*
X103565008Y-39728778D01*
X103312390Y-39789426D01*
X103072370Y-39888846D01*
X102850867Y-40024582D01*
X102850853Y-40024593D01*
X102813126Y-40056815D01*
X102706687Y-40122040D01*
X102585301Y-40151180D01*
X102460851Y-40141385D01*
X102345519Y-40093611D01*
X102294874Y-40056815D01*
X102257146Y-40024593D01*
X102257132Y-40024582D01*
X102035629Y-39888846D01*
X101795609Y-39789426D01*
X101542991Y-39728778D01*
X101284001Y-39708396D01*
X101283999Y-39708396D01*
X101025008Y-39728778D01*
X100772390Y-39789426D01*
X100532370Y-39888846D01*
X100310867Y-40024582D01*
X100310853Y-40024593D01*
X100273126Y-40056815D01*
X100166687Y-40122040D01*
X100045301Y-40151180D01*
X99920851Y-40141385D01*
X99805519Y-40093611D01*
X99754874Y-40056815D01*
X99717146Y-40024593D01*
X99717132Y-40024582D01*
X99495629Y-39888846D01*
X99255609Y-39789426D01*
X99002991Y-39728778D01*
X98744001Y-39708396D01*
X98743999Y-39708396D01*
X98485008Y-39728778D01*
X98232390Y-39789426D01*
X97992370Y-39888846D01*
X97770867Y-40024582D01*
X97770853Y-40024593D01*
X97733126Y-40056815D01*
X97626687Y-40122040D01*
X97505301Y-40151180D01*
X97380851Y-40141385D01*
X97265519Y-40093611D01*
X97214874Y-40056815D01*
X97177146Y-40024593D01*
X97177132Y-40024582D01*
X96955629Y-39888846D01*
X96715609Y-39789426D01*
X96462991Y-39728778D01*
X96204001Y-39708396D01*
X96203999Y-39708396D01*
X95945008Y-39728778D01*
X95692390Y-39789426D01*
X95452370Y-39888846D01*
X95230867Y-40024582D01*
X95230853Y-40024593D01*
X95193126Y-40056815D01*
X95086687Y-40122040D01*
X94965301Y-40151180D01*
X94840851Y-40141385D01*
X94725519Y-40093611D01*
X94674874Y-40056815D01*
X94637146Y-40024593D01*
X94637132Y-40024582D01*
X94415629Y-39888846D01*
X94175609Y-39789426D01*
X93922991Y-39728778D01*
X93664001Y-39708396D01*
X93663999Y-39708396D01*
X93405008Y-39728778D01*
X93152390Y-39789426D01*
X92912370Y-39888846D01*
X92690867Y-40024582D01*
X92690853Y-40024593D01*
X92653126Y-40056815D01*
X92546687Y-40122040D01*
X92425301Y-40151180D01*
X92300851Y-40141385D01*
X92185519Y-40093611D01*
X92134874Y-40056815D01*
X92097146Y-40024593D01*
X92097132Y-40024582D01*
X91875629Y-39888846D01*
X91635609Y-39789426D01*
X91382991Y-39728778D01*
X91124001Y-39708396D01*
X91123999Y-39708396D01*
X90865008Y-39728778D01*
X90612390Y-39789426D01*
X90372370Y-39888846D01*
X90150867Y-40024582D01*
X90150859Y-40024588D01*
X89953313Y-40193308D01*
X89953308Y-40193313D01*
X89784588Y-40390859D01*
X89784582Y-40390867D01*
X89648846Y-40612370D01*
X89549426Y-40852390D01*
X89488778Y-41105008D01*
X89483546Y-41171494D01*
X89454403Y-41292880D01*
X89389177Y-41399318D01*
X89367912Y-41422322D01*
X88365312Y-42424923D01*
X88365308Y-42424928D01*
X88307415Y-42504612D01*
X88254239Y-42577801D01*
X88168452Y-42746169D01*
X88110061Y-42925876D01*
X88110060Y-42925881D01*
X88110060Y-42925882D01*
X88087119Y-43070731D01*
X88080500Y-43112521D01*
X88080500Y-44640886D01*
X88060972Y-44764184D01*
X88004298Y-44875412D01*
X87916026Y-44963684D01*
X87804798Y-45020358D01*
X87681500Y-45039886D01*
X87558202Y-45020358D01*
X87446974Y-44963684D01*
X87399364Y-44923022D01*
X87191364Y-44715022D01*
X87117988Y-44614028D01*
X87079412Y-44495303D01*
X87074500Y-44432886D01*
X87074500Y-44027396D01*
X87074500Y-44027392D01*
X87059300Y-43873066D01*
X86999232Y-43675046D01*
X86901685Y-43492550D01*
X86770410Y-43332590D01*
X86610450Y-43201315D01*
X86610446Y-43201313D01*
X86610445Y-43201312D01*
X86535087Y-43161032D01*
X86427954Y-43103768D01*
X86229934Y-43043700D01*
X86075608Y-43028500D01*
X85172392Y-43028500D01*
X85018065Y-43043700D01*
X84935503Y-43068745D01*
X84820046Y-43103768D01*
X84820044Y-43103768D01*
X84820044Y-43103769D01*
X84637554Y-43201312D01*
X84637546Y-43201318D01*
X84477593Y-43332587D01*
X84477586Y-43332594D01*
X84382431Y-43448542D01*
X84289117Y-43531463D01*
X84174745Y-43581491D01*
X84050511Y-43593727D01*
X83928577Y-43566974D01*
X83820877Y-43503850D01*
X83765569Y-43448542D01*
X83670413Y-43332594D01*
X83670412Y-43332593D01*
X83670410Y-43332590D01*
X83510450Y-43201315D01*
X83510446Y-43201313D01*
X83510445Y-43201312D01*
X83435087Y-43161032D01*
X83327954Y-43103768D01*
X83129934Y-43043700D01*
X82975608Y-43028500D01*
X82072392Y-43028500D01*
X81918065Y-43043700D01*
X81835503Y-43068745D01*
X81720046Y-43103768D01*
X81720044Y-43103768D01*
X81720044Y-43103769D01*
X81537554Y-43201312D01*
X81537546Y-43201318D01*
X81377593Y-43332587D01*
X81377587Y-43332593D01*
X81246318Y-43492546D01*
X81246312Y-43492554D01*
X81148769Y-43675044D01*
X81148768Y-43675046D01*
X81088700Y-43873066D01*
X81073500Y-44027392D01*
X77970500Y-44027392D01*
X77970500Y-39378700D01*
X77970880Y-39361297D01*
X77987166Y-38988272D01*
X77990200Y-38953595D01*
X78037799Y-38592045D01*
X78043842Y-38557776D01*
X78122772Y-38201746D01*
X78131777Y-38168137D01*
X78241446Y-37820310D01*
X78253337Y-37787640D01*
X78392906Y-37450690D01*
X78407589Y-37419200D01*
X78576006Y-37095675D01*
X78593384Y-37065576D01*
X78789342Y-36757985D01*
X78809298Y-36729486D01*
X79031291Y-36440178D01*
X79053658Y-36413520D01*
X79300041Y-36144640D01*
X79324640Y-36120041D01*
X79593520Y-35873658D01*
X79620171Y-35851296D01*
X79909488Y-35629295D01*
X79937985Y-35609342D01*
X80245576Y-35413384D01*
X80275675Y-35396006D01*
X80599200Y-35227589D01*
X80630690Y-35212906D01*
X80967640Y-35073337D01*
X81000310Y-35061446D01*
X81348137Y-34951777D01*
X81381737Y-34942774D01*
X81737781Y-34863840D01*
X81772045Y-34857799D01*
X82133602Y-34810199D01*
X82168266Y-34807166D01*
X82501537Y-34792615D01*
X82541297Y-34790880D01*
X82558700Y-34790500D01*
X82615892Y-34790500D01*
X116774108Y-34790500D01*
X116831300Y-34790500D01*
X116848703Y-34790879D01*
G37*
%TD.AperFunction*%
%TD*%
M02*
