%TF.GenerationSoftware,KiCad,Pcbnew,8.0.5*%
%TF.CreationDate,2025-02-12T18:39:00+02:00*%
%TF.ProjectId,IOExpander_PCF8574,494f4578-7061-46e6-9465-725f50434638,rev?*%
%TF.SameCoordinates,Original*%
%TF.FileFunction,Legend,Top*%
%TF.FilePolarity,Positive*%
%FSLAX46Y46*%
G04 Gerber Fmt 4.6, Leading zero omitted, Abs format (unit mm)*
G04 Created by KiCad (PCBNEW 8.0.5) date 2025-02-12 18:39:00*
%MOMM*%
%LPD*%
G01*
G04 APERTURE LIST*
%ADD10C,0.100000*%
%ADD11C,0.150000*%
%ADD12C,0.200000*%
%ADD13C,0.300000*%
%ADD14C,0.250000*%
%ADD15C,0.240000*%
%ADD16C,0.120000*%
G04 APERTURE END LIST*
D10*
X110236000Y-34925000D02*
X89789000Y-34925000D01*
X110871000Y-47117000D02*
X121285000Y-47117000D01*
X110236000Y-71628000D02*
X89789000Y-71628000D01*
X110236000Y-40005000D02*
X89789000Y-40005000D01*
X110871000Y-63754000D02*
X110871000Y-47117000D01*
X89789000Y-34925000D02*
X89789000Y-40005000D01*
X110236000Y-66548000D02*
X89789000Y-66548000D01*
X89789000Y-66548000D02*
X89789000Y-71628000D01*
X110236000Y-40005000D02*
X110236000Y-34925000D01*
X110236000Y-71628000D02*
X110236000Y-66548000D01*
X121285000Y-63754000D02*
X110871000Y-63754000D01*
X121285000Y-47117000D02*
X121285000Y-63754000D01*
D11*
X115363714Y-56861104D02*
X115839904Y-56861104D01*
X115268476Y-57146819D02*
X115601809Y-56146819D01*
X115601809Y-56146819D02*
X115935142Y-57146819D01*
X116792285Y-57146819D02*
X116220857Y-57146819D01*
X116506571Y-57146819D02*
X116506571Y-56146819D01*
X116506571Y-56146819D02*
X116411333Y-56289676D01*
X116411333Y-56289676D02*
X116316095Y-56384914D01*
X116316095Y-56384914D02*
X116220857Y-56432533D01*
D12*
X96551714Y-38266742D02*
X95980286Y-38266742D01*
X95980286Y-38266742D02*
X95923143Y-38838171D01*
X95923143Y-38838171D02*
X95980286Y-38781028D01*
X95980286Y-38781028D02*
X96094572Y-38723885D01*
X96094572Y-38723885D02*
X96380286Y-38723885D01*
X96380286Y-38723885D02*
X96494572Y-38781028D01*
X96494572Y-38781028D02*
X96551714Y-38838171D01*
X96551714Y-38838171D02*
X96608857Y-38952457D01*
X96608857Y-38952457D02*
X96608857Y-39238171D01*
X96608857Y-39238171D02*
X96551714Y-39352457D01*
X96551714Y-39352457D02*
X96494572Y-39409600D01*
X96494572Y-39409600D02*
X96380286Y-39466742D01*
X96380286Y-39466742D02*
X96094572Y-39466742D01*
X96094572Y-39466742D02*
X95980286Y-39409600D01*
X95980286Y-39409600D02*
X95923143Y-39352457D01*
X96551714Y-67222742D02*
X95980286Y-67222742D01*
X95980286Y-67222742D02*
X95923143Y-67794171D01*
X95923143Y-67794171D02*
X95980286Y-67737028D01*
X95980286Y-67737028D02*
X96094572Y-67679885D01*
X96094572Y-67679885D02*
X96380286Y-67679885D01*
X96380286Y-67679885D02*
X96494572Y-67737028D01*
X96494572Y-67737028D02*
X96551714Y-67794171D01*
X96551714Y-67794171D02*
X96608857Y-67908457D01*
X96608857Y-67908457D02*
X96608857Y-68194171D01*
X96608857Y-68194171D02*
X96551714Y-68308457D01*
X96551714Y-68308457D02*
X96494572Y-68365600D01*
X96494572Y-68365600D02*
X96380286Y-68422742D01*
X96380286Y-68422742D02*
X96094572Y-68422742D01*
X96094572Y-68422742D02*
X95980286Y-68365600D01*
X95980286Y-68365600D02*
X95923143Y-68308457D01*
X90786000Y-38266742D02*
X91586000Y-38266742D01*
X91586000Y-38266742D02*
X91071714Y-39466742D01*
X103543143Y-38381028D02*
X103600286Y-38323885D01*
X103600286Y-38323885D02*
X103714572Y-38266742D01*
X103714572Y-38266742D02*
X104000286Y-38266742D01*
X104000286Y-38266742D02*
X104114572Y-38323885D01*
X104114572Y-38323885D02*
X104171714Y-38381028D01*
X104171714Y-38381028D02*
X104228857Y-38495314D01*
X104228857Y-38495314D02*
X104228857Y-38609600D01*
X104228857Y-38609600D02*
X104171714Y-38781028D01*
X104171714Y-38781028D02*
X103486000Y-39466742D01*
X103486000Y-39466742D02*
X104228857Y-39466742D01*
X93954572Y-67222742D02*
X93726000Y-67222742D01*
X93726000Y-67222742D02*
X93611714Y-67279885D01*
X93611714Y-67279885D02*
X93554572Y-67337028D01*
X93554572Y-67337028D02*
X93440286Y-67508457D01*
X93440286Y-67508457D02*
X93383143Y-67737028D01*
X93383143Y-67737028D02*
X93383143Y-68194171D01*
X93383143Y-68194171D02*
X93440286Y-68308457D01*
X93440286Y-68308457D02*
X93497429Y-68365600D01*
X93497429Y-68365600D02*
X93611714Y-68422742D01*
X93611714Y-68422742D02*
X93840286Y-68422742D01*
X93840286Y-68422742D02*
X93954572Y-68365600D01*
X93954572Y-68365600D02*
X94011714Y-68308457D01*
X94011714Y-68308457D02*
X94068857Y-68194171D01*
X94068857Y-68194171D02*
X94068857Y-67908457D01*
X94068857Y-67908457D02*
X94011714Y-67794171D01*
X94011714Y-67794171D02*
X93954572Y-67737028D01*
X93954572Y-67737028D02*
X93840286Y-67679885D01*
X93840286Y-67679885D02*
X93611714Y-67679885D01*
X93611714Y-67679885D02*
X93497429Y-67737028D01*
X93497429Y-67737028D02*
X93440286Y-67794171D01*
X93440286Y-67794171D02*
X93383143Y-67908457D01*
X93954572Y-38266742D02*
X93726000Y-38266742D01*
X93726000Y-38266742D02*
X93611714Y-38323885D01*
X93611714Y-38323885D02*
X93554572Y-38381028D01*
X93554572Y-38381028D02*
X93440286Y-38552457D01*
X93440286Y-38552457D02*
X93383143Y-38781028D01*
X93383143Y-38781028D02*
X93383143Y-39238171D01*
X93383143Y-39238171D02*
X93440286Y-39352457D01*
X93440286Y-39352457D02*
X93497429Y-39409600D01*
X93497429Y-39409600D02*
X93611714Y-39466742D01*
X93611714Y-39466742D02*
X93840286Y-39466742D01*
X93840286Y-39466742D02*
X93954572Y-39409600D01*
X93954572Y-39409600D02*
X94011714Y-39352457D01*
X94011714Y-39352457D02*
X94068857Y-39238171D01*
X94068857Y-39238171D02*
X94068857Y-38952457D01*
X94068857Y-38952457D02*
X94011714Y-38838171D01*
X94011714Y-38838171D02*
X93954572Y-38781028D01*
X93954572Y-38781028D02*
X93840286Y-38723885D01*
X93840286Y-38723885D02*
X93611714Y-38723885D01*
X93611714Y-38723885D02*
X93497429Y-38781028D01*
X93497429Y-38781028D02*
X93440286Y-38838171D01*
X93440286Y-38838171D02*
X93383143Y-38952457D01*
X106768857Y-39466742D02*
X106083143Y-39466742D01*
X106426000Y-39466742D02*
X106426000Y-38266742D01*
X106426000Y-38266742D02*
X106311714Y-38438171D01*
X106311714Y-38438171D02*
X106197429Y-38552457D01*
X106197429Y-38552457D02*
X106083143Y-38609600D01*
D11*
G36*
X112882045Y-53395930D02*
G01*
X110986953Y-53395930D01*
X110986953Y-52693249D01*
X111098064Y-52693249D01*
X111099155Y-52696864D01*
X111099155Y-52700640D01*
X111103349Y-52710765D01*
X111106517Y-52721265D01*
X111108908Y-52724188D01*
X111110354Y-52727677D01*
X111118107Y-52735430D01*
X111125048Y-52743913D01*
X111128374Y-52745697D01*
X111131046Y-52748369D01*
X111141173Y-52752564D01*
X111150835Y-52757747D01*
X111154594Y-52758122D01*
X111158083Y-52759568D01*
X111169044Y-52759568D01*
X111179954Y-52760659D01*
X111183570Y-52759568D01*
X111187345Y-52759568D01*
X111197470Y-52755373D01*
X111207970Y-52752206D01*
X111210893Y-52749814D01*
X111214382Y-52748369D01*
X111225747Y-52739042D01*
X111264760Y-52700029D01*
X111333276Y-52665771D01*
X111535961Y-52665771D01*
X111604477Y-52700029D01*
X111634884Y-52730436D01*
X111669142Y-52798952D01*
X111669142Y-53001637D01*
X111634883Y-53070153D01*
X111604476Y-53100561D01*
X111535961Y-53134819D01*
X111333276Y-53134819D01*
X111264760Y-53100561D01*
X111225748Y-53061548D01*
X111214382Y-53052220D01*
X111187346Y-53041021D01*
X111158083Y-53041021D01*
X111131047Y-53052219D01*
X111110354Y-53072912D01*
X111099155Y-53099948D01*
X111099155Y-53129211D01*
X111110353Y-53156247D01*
X111119680Y-53167612D01*
X111167299Y-53215232D01*
X111173048Y-53219950D01*
X111174349Y-53221450D01*
X111176608Y-53222872D01*
X111178665Y-53224560D01*
X111180492Y-53225317D01*
X111186792Y-53229282D01*
X111282030Y-53276901D01*
X111295761Y-53282156D01*
X111298450Y-53282347D01*
X111300939Y-53283378D01*
X111315571Y-53284819D01*
X111553666Y-53284819D01*
X111568298Y-53283378D01*
X111570787Y-53282346D01*
X111573475Y-53282156D01*
X111587207Y-53276901D01*
X111682445Y-53229282D01*
X111688744Y-53225317D01*
X111690572Y-53224560D01*
X111692628Y-53222872D01*
X111694888Y-53221450D01*
X111696188Y-53219950D01*
X111701938Y-53215232D01*
X111749556Y-53167613D01*
X111754274Y-53161863D01*
X111755773Y-53160564D01*
X111757194Y-53158305D01*
X111758884Y-53156247D01*
X111759641Y-53154417D01*
X111763605Y-53148121D01*
X111811224Y-53052883D01*
X111816479Y-53039152D01*
X111816670Y-53036462D01*
X111817701Y-53033974D01*
X111819142Y-53019342D01*
X111819142Y-52781247D01*
X111817701Y-52766615D01*
X111816670Y-52764126D01*
X111816479Y-52761437D01*
X111811224Y-52747706D01*
X111763605Y-52652468D01*
X111759640Y-52646168D01*
X111758883Y-52644341D01*
X111757194Y-52642284D01*
X111755773Y-52640025D01*
X111754274Y-52638725D01*
X111749556Y-52632976D01*
X111701937Y-52585357D01*
X111696187Y-52580638D01*
X111694888Y-52579140D01*
X111692628Y-52577718D01*
X111690572Y-52576030D01*
X111688744Y-52575272D01*
X111682445Y-52571308D01*
X111587207Y-52523689D01*
X111573475Y-52518434D01*
X111570787Y-52518243D01*
X111568298Y-52517212D01*
X111553666Y-52515771D01*
X111315571Y-52515771D01*
X111300939Y-52517212D01*
X111298450Y-52518242D01*
X111295761Y-52518434D01*
X111282030Y-52523689D01*
X111263388Y-52533009D01*
X111288207Y-52284819D01*
X111696523Y-52284819D01*
X111711155Y-52283378D01*
X111738191Y-52272179D01*
X111758883Y-52251487D01*
X111770082Y-52224451D01*
X111770082Y-52219199D01*
X111955446Y-52219199D01*
X111958706Y-52233536D01*
X112292039Y-53233536D01*
X112298033Y-53246961D01*
X112301543Y-53251008D01*
X112303940Y-53255802D01*
X112311048Y-53261967D01*
X112317207Y-53269068D01*
X112321996Y-53271462D01*
X112326047Y-53274976D01*
X112334972Y-53277950D01*
X112343380Y-53282155D01*
X112348724Y-53282534D01*
X112353810Y-53284230D01*
X112363190Y-53283563D01*
X112372570Y-53284230D01*
X112377655Y-53282534D01*
X112383000Y-53282155D01*
X112391410Y-53277949D01*
X112400332Y-53274976D01*
X112404379Y-53271465D01*
X112409173Y-53269069D01*
X112415336Y-53261963D01*
X112422440Y-53255802D01*
X112424835Y-53251010D01*
X112428347Y-53246962D01*
X112434341Y-53233536D01*
X112767674Y-52233536D01*
X112770934Y-52219200D01*
X112768859Y-52190010D01*
X112755773Y-52163836D01*
X112733665Y-52144662D01*
X112705903Y-52135408D01*
X112676713Y-52137483D01*
X112650540Y-52150570D01*
X112631366Y-52172677D01*
X112625372Y-52186102D01*
X112363190Y-52972648D01*
X112101008Y-52186102D01*
X112095014Y-52172676D01*
X112075840Y-52150569D01*
X112049667Y-52137483D01*
X112020477Y-52135408D01*
X111992714Y-52144662D01*
X111970607Y-52163836D01*
X111957521Y-52190009D01*
X111955446Y-52219199D01*
X111770082Y-52219199D01*
X111770082Y-52195187D01*
X111758883Y-52168151D01*
X111738191Y-52147459D01*
X111711155Y-52136260D01*
X111696523Y-52134819D01*
X111220333Y-52134819D01*
X111214921Y-52135351D01*
X111213093Y-52135169D01*
X111211306Y-52135707D01*
X111205701Y-52136260D01*
X111195574Y-52140454D01*
X111185077Y-52143622D01*
X111182153Y-52146013D01*
X111178665Y-52147459D01*
X111170911Y-52155212D01*
X111162429Y-52162153D01*
X111160644Y-52165479D01*
X111157973Y-52168151D01*
X111153777Y-52178280D01*
X111148595Y-52187940D01*
X111147487Y-52193464D01*
X111146774Y-52195187D01*
X111146774Y-52197023D01*
X111145705Y-52202356D01*
X111098086Y-52678546D01*
X111098064Y-52693249D01*
X110986953Y-52693249D01*
X110986953Y-52023708D01*
X112882045Y-52023708D01*
X112882045Y-53395930D01*
G37*
D13*
X96226785Y-37011828D02*
X96226785Y-35511828D01*
X96226785Y-35511828D02*
X96798214Y-35511828D01*
X96798214Y-35511828D02*
X96941071Y-35583257D01*
X96941071Y-35583257D02*
X97012500Y-35654685D01*
X97012500Y-35654685D02*
X97083928Y-35797542D01*
X97083928Y-35797542D02*
X97083928Y-36011828D01*
X97083928Y-36011828D02*
X97012500Y-36154685D01*
X97012500Y-36154685D02*
X96941071Y-36226114D01*
X96941071Y-36226114D02*
X96798214Y-36297542D01*
X96798214Y-36297542D02*
X96226785Y-36297542D01*
X98012500Y-35511828D02*
X98298214Y-35511828D01*
X98298214Y-35511828D02*
X98441071Y-35583257D01*
X98441071Y-35583257D02*
X98583928Y-35726114D01*
X98583928Y-35726114D02*
X98655357Y-36011828D01*
X98655357Y-36011828D02*
X98655357Y-36511828D01*
X98655357Y-36511828D02*
X98583928Y-36797542D01*
X98583928Y-36797542D02*
X98441071Y-36940400D01*
X98441071Y-36940400D02*
X98298214Y-37011828D01*
X98298214Y-37011828D02*
X98012500Y-37011828D01*
X98012500Y-37011828D02*
X97869643Y-36940400D01*
X97869643Y-36940400D02*
X97726785Y-36797542D01*
X97726785Y-36797542D02*
X97655357Y-36511828D01*
X97655357Y-36511828D02*
X97655357Y-36011828D01*
X97655357Y-36011828D02*
X97726785Y-35726114D01*
X97726785Y-35726114D02*
X97869643Y-35583257D01*
X97869643Y-35583257D02*
X98012500Y-35511828D01*
X100155357Y-37011828D02*
X99655357Y-36297542D01*
X99298214Y-37011828D02*
X99298214Y-35511828D01*
X99298214Y-35511828D02*
X99869643Y-35511828D01*
X99869643Y-35511828D02*
X100012500Y-35583257D01*
X100012500Y-35583257D02*
X100083929Y-35654685D01*
X100083929Y-35654685D02*
X100155357Y-35797542D01*
X100155357Y-35797542D02*
X100155357Y-36011828D01*
X100155357Y-36011828D02*
X100083929Y-36154685D01*
X100083929Y-36154685D02*
X100012500Y-36226114D01*
X100012500Y-36226114D02*
X99869643Y-36297542D01*
X99869643Y-36297542D02*
X99298214Y-36297542D01*
X100583929Y-35511828D02*
X101441072Y-35511828D01*
X101012500Y-37011828D02*
X101012500Y-35511828D01*
X103012500Y-35654685D02*
X103083928Y-35583257D01*
X103083928Y-35583257D02*
X103226786Y-35511828D01*
X103226786Y-35511828D02*
X103583928Y-35511828D01*
X103583928Y-35511828D02*
X103726786Y-35583257D01*
X103726786Y-35583257D02*
X103798214Y-35654685D01*
X103798214Y-35654685D02*
X103869643Y-35797542D01*
X103869643Y-35797542D02*
X103869643Y-35940400D01*
X103869643Y-35940400D02*
X103798214Y-36154685D01*
X103798214Y-36154685D02*
X102941071Y-37011828D01*
X102941071Y-37011828D02*
X103869643Y-37011828D01*
D11*
X115363714Y-53051104D02*
X115839904Y-53051104D01*
X115268476Y-53336819D02*
X115601809Y-52336819D01*
X115601809Y-52336819D02*
X115935142Y-53336819D01*
X116220857Y-52432057D02*
X116268476Y-52384438D01*
X116268476Y-52384438D02*
X116363714Y-52336819D01*
X116363714Y-52336819D02*
X116601809Y-52336819D01*
X116601809Y-52336819D02*
X116697047Y-52384438D01*
X116697047Y-52384438D02*
X116744666Y-52432057D01*
X116744666Y-52432057D02*
X116792285Y-52527295D01*
X116792285Y-52527295D02*
X116792285Y-52622533D01*
X116792285Y-52622533D02*
X116744666Y-52765390D01*
X116744666Y-52765390D02*
X116173238Y-53336819D01*
X116173238Y-53336819D02*
X116792285Y-53336819D01*
D12*
X87061857Y-57443600D02*
X87233286Y-57500742D01*
X87233286Y-57500742D02*
X87519000Y-57500742D01*
X87519000Y-57500742D02*
X87633286Y-57443600D01*
X87633286Y-57443600D02*
X87690428Y-57386457D01*
X87690428Y-57386457D02*
X87747571Y-57272171D01*
X87747571Y-57272171D02*
X87747571Y-57157885D01*
X87747571Y-57157885D02*
X87690428Y-57043600D01*
X87690428Y-57043600D02*
X87633286Y-56986457D01*
X87633286Y-56986457D02*
X87519000Y-56929314D01*
X87519000Y-56929314D02*
X87290428Y-56872171D01*
X87290428Y-56872171D02*
X87176143Y-56815028D01*
X87176143Y-56815028D02*
X87119000Y-56757885D01*
X87119000Y-56757885D02*
X87061857Y-56643600D01*
X87061857Y-56643600D02*
X87061857Y-56529314D01*
X87061857Y-56529314D02*
X87119000Y-56415028D01*
X87119000Y-56415028D02*
X87176143Y-56357885D01*
X87176143Y-56357885D02*
X87290428Y-56300742D01*
X87290428Y-56300742D02*
X87576143Y-56300742D01*
X87576143Y-56300742D02*
X87747571Y-56357885D01*
X88261857Y-57500742D02*
X88261857Y-56300742D01*
X88261857Y-56300742D02*
X88547571Y-56300742D01*
X88547571Y-56300742D02*
X88719000Y-56357885D01*
X88719000Y-56357885D02*
X88833285Y-56472171D01*
X88833285Y-56472171D02*
X88890428Y-56586457D01*
X88890428Y-56586457D02*
X88947571Y-56815028D01*
X88947571Y-56815028D02*
X88947571Y-56986457D01*
X88947571Y-56986457D02*
X88890428Y-57215028D01*
X88890428Y-57215028D02*
X88833285Y-57329314D01*
X88833285Y-57329314D02*
X88719000Y-57443600D01*
X88719000Y-57443600D02*
X88547571Y-57500742D01*
X88547571Y-57500742D02*
X88261857Y-57500742D01*
X89404714Y-57157885D02*
X89976143Y-57157885D01*
X89290428Y-57500742D02*
X89690428Y-56300742D01*
X89690428Y-56300742D02*
X90090428Y-57500742D01*
D11*
X115363714Y-60671104D02*
X115839904Y-60671104D01*
X115268476Y-60956819D02*
X115601809Y-59956819D01*
X115601809Y-59956819D02*
X115935142Y-60956819D01*
X116458952Y-59956819D02*
X116554190Y-59956819D01*
X116554190Y-59956819D02*
X116649428Y-60004438D01*
X116649428Y-60004438D02*
X116697047Y-60052057D01*
X116697047Y-60052057D02*
X116744666Y-60147295D01*
X116744666Y-60147295D02*
X116792285Y-60337771D01*
X116792285Y-60337771D02*
X116792285Y-60575866D01*
X116792285Y-60575866D02*
X116744666Y-60766342D01*
X116744666Y-60766342D02*
X116697047Y-60861580D01*
X116697047Y-60861580D02*
X116649428Y-60909200D01*
X116649428Y-60909200D02*
X116554190Y-60956819D01*
X116554190Y-60956819D02*
X116458952Y-60956819D01*
X116458952Y-60956819D02*
X116363714Y-60909200D01*
X116363714Y-60909200D02*
X116316095Y-60861580D01*
X116316095Y-60861580D02*
X116268476Y-60766342D01*
X116268476Y-60766342D02*
X116220857Y-60575866D01*
X116220857Y-60575866D02*
X116220857Y-60337771D01*
X116220857Y-60337771D02*
X116268476Y-60147295D01*
X116268476Y-60147295D02*
X116316095Y-60052057D01*
X116316095Y-60052057D02*
X116363714Y-60004438D01*
X116363714Y-60004438D02*
X116458952Y-59956819D01*
G36*
X120736343Y-52322990D02*
G01*
X120810456Y-52397103D01*
X120848949Y-52474090D01*
X120892333Y-52647624D01*
X120892333Y-52772013D01*
X120848949Y-52945547D01*
X120810455Y-53022534D01*
X120736343Y-53096647D01*
X120621830Y-53134819D01*
X120470905Y-53134819D01*
X120470905Y-52284819D01*
X120621830Y-52284819D01*
X120736343Y-52322990D01*
G37*
G36*
X121153444Y-53395930D02*
G01*
X118114556Y-53395930D01*
X118114556Y-52638390D01*
X118225667Y-52638390D01*
X118225667Y-52781247D01*
X118225918Y-52783800D01*
X118225756Y-52784893D01*
X118226565Y-52790366D01*
X118227108Y-52795879D01*
X118227530Y-52796900D01*
X118227906Y-52799437D01*
X118275525Y-52989913D01*
X118275910Y-52990992D01*
X118275949Y-52991532D01*
X118278276Y-52997613D01*
X118280472Y-53003759D01*
X118280794Y-53004194D01*
X118281204Y-53005264D01*
X118328823Y-53100502D01*
X118332786Y-53106798D01*
X118333544Y-53108628D01*
X118335233Y-53110686D01*
X118336655Y-53112945D01*
X118338153Y-53114244D01*
X118342872Y-53119994D01*
X118438110Y-53215233D01*
X118449475Y-53224561D01*
X118451965Y-53225592D01*
X118454000Y-53227357D01*
X118467426Y-53233351D01*
X118610282Y-53280970D01*
X118617537Y-53282619D01*
X118619368Y-53283378D01*
X118622021Y-53283639D01*
X118624619Y-53284230D01*
X118626593Y-53284089D01*
X118634000Y-53284819D01*
X118729238Y-53284819D01*
X118736643Y-53284089D01*
X118738618Y-53284230D01*
X118741215Y-53283639D01*
X118743870Y-53283378D01*
X118745701Y-53282619D01*
X118752955Y-53280970D01*
X118895812Y-53233351D01*
X118909237Y-53227357D01*
X118911272Y-53225591D01*
X118913763Y-53224560D01*
X118925129Y-53215232D01*
X118972747Y-53167613D01*
X118982075Y-53156247D01*
X118989356Y-53138668D01*
X118993273Y-53129212D01*
X118994714Y-53114580D01*
X118994714Y-52781247D01*
X118993273Y-52766615D01*
X118982074Y-52739579D01*
X118961382Y-52718887D01*
X118934346Y-52707688D01*
X118919714Y-52706247D01*
X118729238Y-52706247D01*
X118714606Y-52707688D01*
X118687570Y-52718887D01*
X118666878Y-52739579D01*
X118655679Y-52766615D01*
X118655679Y-52795879D01*
X118666878Y-52822915D01*
X118687570Y-52843607D01*
X118714606Y-52854806D01*
X118729238Y-52856247D01*
X118844714Y-52856247D01*
X118844714Y-53083514D01*
X118831581Y-53096647D01*
X118717068Y-53134819D01*
X118646170Y-53134819D01*
X118531657Y-53096648D01*
X118457544Y-53022534D01*
X118419050Y-52945547D01*
X118375667Y-52772013D01*
X118375667Y-52647624D01*
X118419050Y-52474090D01*
X118457544Y-52397103D01*
X118531657Y-52322990D01*
X118646170Y-52284819D01*
X118759152Y-52284819D01*
X118838554Y-52324520D01*
X118852285Y-52329775D01*
X118881475Y-52331849D01*
X118909237Y-52322595D01*
X118931344Y-52303422D01*
X118944432Y-52277247D01*
X118946506Y-52248057D01*
X118937252Y-52220296D01*
X118928166Y-52209819D01*
X119273286Y-52209819D01*
X119273286Y-53209819D01*
X119274727Y-53224451D01*
X119285926Y-53251487D01*
X119306618Y-53272179D01*
X119333654Y-53283378D01*
X119362918Y-53283378D01*
X119389954Y-53272179D01*
X119410646Y-53251487D01*
X119421845Y-53224451D01*
X119423286Y-53209819D01*
X119423286Y-52492235D01*
X119854596Y-53247030D01*
X119856785Y-53250114D01*
X119857354Y-53251487D01*
X119858751Y-53252884D01*
X119863106Y-53259019D01*
X119870994Y-53265127D01*
X119878046Y-53272179D01*
X119882464Y-53274009D01*
X119886244Y-53276936D01*
X119895865Y-53279560D01*
X119905082Y-53283378D01*
X119909863Y-53283378D01*
X119914475Y-53284636D01*
X119924372Y-53283378D01*
X119934346Y-53283378D01*
X119938761Y-53281548D01*
X119943505Y-53280946D01*
X119952169Y-53275995D01*
X119961382Y-53272179D01*
X119964760Y-53268800D01*
X119968914Y-53266427D01*
X119975023Y-53258537D01*
X119982074Y-53251487D01*
X119983903Y-53247070D01*
X119986831Y-53243290D01*
X119989455Y-53233666D01*
X119993273Y-53224451D01*
X119994009Y-53216968D01*
X119994531Y-53215058D01*
X119994343Y-53213582D01*
X119994714Y-53209819D01*
X119994714Y-52209819D01*
X120320905Y-52209819D01*
X120320905Y-53209819D01*
X120322346Y-53224451D01*
X120333545Y-53251487D01*
X120354237Y-53272179D01*
X120381273Y-53283378D01*
X120395905Y-53284819D01*
X120634000Y-53284819D01*
X120641405Y-53284089D01*
X120643380Y-53284230D01*
X120645977Y-53283639D01*
X120648632Y-53283378D01*
X120650463Y-53282619D01*
X120657717Y-53280970D01*
X120800574Y-53233351D01*
X120813999Y-53227357D01*
X120816034Y-53225591D01*
X120818525Y-53224560D01*
X120829890Y-53215233D01*
X120925129Y-53119993D01*
X120929846Y-53114244D01*
X120931345Y-53112945D01*
X120932766Y-53110686D01*
X120934456Y-53108628D01*
X120935213Y-53106798D01*
X120939177Y-53100502D01*
X120986796Y-53005264D01*
X120987205Y-53004194D01*
X120987528Y-53003759D01*
X120989720Y-52997622D01*
X120992051Y-52991533D01*
X120992089Y-52990992D01*
X120992475Y-52989913D01*
X121040094Y-52799437D01*
X121040469Y-52796900D01*
X121040892Y-52795879D01*
X121041434Y-52790366D01*
X121042244Y-52784893D01*
X121042081Y-52783800D01*
X121042333Y-52781247D01*
X121042333Y-52638390D01*
X121042081Y-52635836D01*
X121042244Y-52634744D01*
X121041434Y-52629270D01*
X121040892Y-52623758D01*
X121040469Y-52622736D01*
X121040094Y-52620200D01*
X120992475Y-52429724D01*
X120992089Y-52428644D01*
X120992051Y-52428104D01*
X120989720Y-52422014D01*
X120987528Y-52415878D01*
X120987205Y-52415442D01*
X120986796Y-52414373D01*
X120939177Y-52319135D01*
X120935214Y-52312840D01*
X120934456Y-52311008D01*
X120932764Y-52308946D01*
X120931345Y-52306692D01*
X120929848Y-52305393D01*
X120925128Y-52299643D01*
X120829890Y-52204405D01*
X120818525Y-52195078D01*
X120816034Y-52194046D01*
X120813999Y-52192281D01*
X120800574Y-52186287D01*
X120657717Y-52138668D01*
X120650463Y-52137018D01*
X120648632Y-52136260D01*
X120645977Y-52135998D01*
X120643380Y-52135408D01*
X120641405Y-52135548D01*
X120634000Y-52134819D01*
X120395905Y-52134819D01*
X120381273Y-52136260D01*
X120354237Y-52147459D01*
X120333545Y-52168151D01*
X120322346Y-52195187D01*
X120320905Y-52209819D01*
X119994714Y-52209819D01*
X119993273Y-52195187D01*
X119982074Y-52168151D01*
X119961382Y-52147459D01*
X119934346Y-52136260D01*
X119905082Y-52136260D01*
X119878046Y-52147459D01*
X119857354Y-52168151D01*
X119846155Y-52195187D01*
X119844714Y-52209819D01*
X119844714Y-52927402D01*
X119413404Y-52172609D01*
X119411215Y-52169525D01*
X119410646Y-52168151D01*
X119409246Y-52166751D01*
X119404894Y-52160619D01*
X119397004Y-52154509D01*
X119389954Y-52147459D01*
X119385537Y-52145629D01*
X119381757Y-52142702D01*
X119372133Y-52140077D01*
X119362918Y-52136260D01*
X119358137Y-52136260D01*
X119353525Y-52135002D01*
X119343628Y-52136260D01*
X119333654Y-52136260D01*
X119329238Y-52138089D01*
X119324495Y-52138692D01*
X119315830Y-52143642D01*
X119306618Y-52147459D01*
X119303239Y-52150837D01*
X119299086Y-52153211D01*
X119292976Y-52161100D01*
X119285926Y-52168151D01*
X119284096Y-52172567D01*
X119281169Y-52176348D01*
X119278544Y-52185971D01*
X119274727Y-52195187D01*
X119273990Y-52202669D01*
X119273469Y-52204580D01*
X119273656Y-52206055D01*
X119273286Y-52209819D01*
X118928166Y-52209819D01*
X118918079Y-52198188D01*
X118905636Y-52190356D01*
X118810398Y-52142737D01*
X118796666Y-52137482D01*
X118793978Y-52137291D01*
X118791489Y-52136260D01*
X118776857Y-52134819D01*
X118634000Y-52134819D01*
X118626593Y-52135548D01*
X118624619Y-52135408D01*
X118622021Y-52135998D01*
X118619368Y-52136260D01*
X118617537Y-52137018D01*
X118610282Y-52138668D01*
X118467426Y-52186287D01*
X118454000Y-52192281D01*
X118451965Y-52194045D01*
X118449475Y-52195077D01*
X118438110Y-52204405D01*
X118342872Y-52299643D01*
X118338153Y-52305392D01*
X118336655Y-52306692D01*
X118335233Y-52308951D01*
X118333545Y-52311008D01*
X118332787Y-52312835D01*
X118328823Y-52319135D01*
X118281204Y-52414373D01*
X118280794Y-52415442D01*
X118280472Y-52415878D01*
X118278276Y-52422023D01*
X118275949Y-52428105D01*
X118275910Y-52428644D01*
X118275525Y-52429724D01*
X118227906Y-52620200D01*
X118227530Y-52622736D01*
X118227108Y-52623758D01*
X118226565Y-52629270D01*
X118225756Y-52634744D01*
X118225918Y-52635836D01*
X118225667Y-52638390D01*
X118114556Y-52638390D01*
X118114556Y-52023708D01*
X121153444Y-52023708D01*
X121153444Y-53395930D01*
G37*
D12*
G36*
X89963410Y-51619287D02*
G01*
X90049527Y-51705405D01*
X90094505Y-51795362D01*
X90146000Y-52001338D01*
X90146000Y-52148146D01*
X90094505Y-52354122D01*
X90049527Y-52444079D01*
X89963411Y-52530196D01*
X89829774Y-52574742D01*
X89660286Y-52574742D01*
X89660286Y-51574742D01*
X89829773Y-51574742D01*
X89963410Y-51619287D01*
G37*
G36*
X90479333Y-52908075D02*
G01*
X86812667Y-52908075D01*
X86812667Y-51989028D01*
X86946000Y-51989028D01*
X86946000Y-52160457D01*
X86946335Y-52163859D01*
X86946118Y-52165318D01*
X86947197Y-52172615D01*
X86947921Y-52179966D01*
X86948485Y-52181329D01*
X86948986Y-52184711D01*
X87006129Y-52413282D01*
X87006642Y-52414720D01*
X87006694Y-52415441D01*
X87009797Y-52423551D01*
X87012724Y-52431743D01*
X87013154Y-52432324D01*
X87013700Y-52433749D01*
X87070843Y-52548036D01*
X87076127Y-52556430D01*
X87077138Y-52558871D01*
X87079392Y-52561617D01*
X87081286Y-52564626D01*
X87083282Y-52566357D01*
X87089575Y-52574024D01*
X87203860Y-52688310D01*
X87219013Y-52700747D01*
X87222332Y-52702122D01*
X87225048Y-52704477D01*
X87242949Y-52712468D01*
X87414378Y-52769611D01*
X87424050Y-52771810D01*
X87426491Y-52772821D01*
X87430028Y-52773169D01*
X87433493Y-52773957D01*
X87436126Y-52773769D01*
X87446000Y-52774742D01*
X87560286Y-52774742D01*
X87570159Y-52773769D01*
X87572793Y-52773957D01*
X87576255Y-52773169D01*
X87579795Y-52772821D01*
X87582237Y-52771809D01*
X87591908Y-52769610D01*
X87763337Y-52712468D01*
X87781237Y-52704477D01*
X87783952Y-52702121D01*
X87787271Y-52700747D01*
X87802425Y-52688311D01*
X87859567Y-52631168D01*
X87872004Y-52616015D01*
X87878735Y-52599764D01*
X87886936Y-52579966D01*
X87888857Y-52560457D01*
X87888857Y-52160457D01*
X87886936Y-52140948D01*
X87872004Y-52104900D01*
X87844414Y-52077310D01*
X87808366Y-52062378D01*
X87788857Y-52060457D01*
X87560286Y-52060457D01*
X87540777Y-52062378D01*
X87504729Y-52077310D01*
X87477139Y-52104900D01*
X87462207Y-52140948D01*
X87462207Y-52179966D01*
X87477139Y-52216014D01*
X87504729Y-52243604D01*
X87540777Y-52258536D01*
X87560286Y-52260457D01*
X87688857Y-52260457D01*
X87688857Y-52519035D01*
X87677695Y-52530196D01*
X87544060Y-52574742D01*
X87462227Y-52574742D01*
X87328589Y-52530197D01*
X87242472Y-52444079D01*
X87197494Y-52354123D01*
X87146000Y-52148147D01*
X87146000Y-52001338D01*
X87197494Y-51795362D01*
X87242472Y-51705405D01*
X87328589Y-51619287D01*
X87462227Y-51574742D01*
X87593821Y-51574742D01*
X87686993Y-51621328D01*
X87705301Y-51628334D01*
X87744221Y-51631100D01*
X87781237Y-51618761D01*
X87810714Y-51593197D01*
X87828163Y-51558298D01*
X87830929Y-51519378D01*
X87818591Y-51482362D01*
X87811982Y-51474742D01*
X88203143Y-51474742D01*
X88203143Y-52674742D01*
X88205064Y-52694251D01*
X88219996Y-52730299D01*
X88247586Y-52757889D01*
X88283634Y-52772821D01*
X88322652Y-52772821D01*
X88358700Y-52757889D01*
X88386290Y-52730299D01*
X88401222Y-52694251D01*
X88403143Y-52674742D01*
X88403143Y-51851298D01*
X88902033Y-52724356D01*
X88904951Y-52728466D01*
X88905710Y-52730299D01*
X88907576Y-52732165D01*
X88913380Y-52740341D01*
X88923894Y-52748483D01*
X88933300Y-52757889D01*
X88939190Y-52760328D01*
X88944229Y-52764231D01*
X88957057Y-52767729D01*
X88969348Y-52772821D01*
X88975723Y-52772821D01*
X88981872Y-52774498D01*
X88995063Y-52772821D01*
X89008366Y-52772821D01*
X89014257Y-52770380D01*
X89020579Y-52769577D01*
X89032124Y-52762979D01*
X89044414Y-52757889D01*
X89048921Y-52753381D01*
X89054456Y-52750219D01*
X89062598Y-52739704D01*
X89072004Y-52730299D01*
X89074443Y-52724408D01*
X89078346Y-52719370D01*
X89081844Y-52706542D01*
X89086936Y-52694251D01*
X89087918Y-52684271D01*
X89088613Y-52681726D01*
X89088362Y-52679759D01*
X89088857Y-52674742D01*
X89088857Y-51474742D01*
X89460286Y-51474742D01*
X89460286Y-52674742D01*
X89462207Y-52694251D01*
X89477139Y-52730299D01*
X89504729Y-52757889D01*
X89540777Y-52772821D01*
X89560286Y-52774742D01*
X89846000Y-52774742D01*
X89855873Y-52773769D01*
X89858507Y-52773957D01*
X89861969Y-52773169D01*
X89865509Y-52772821D01*
X89867951Y-52771809D01*
X89877622Y-52769610D01*
X90049052Y-52712468D01*
X90066952Y-52704477D01*
X90069667Y-52702122D01*
X90072987Y-52700747D01*
X90088140Y-52688310D01*
X90202425Y-52574024D01*
X90208715Y-52566359D01*
X90210714Y-52564626D01*
X90212609Y-52561613D01*
X90214861Y-52558871D01*
X90215870Y-52556433D01*
X90221157Y-52548035D01*
X90278300Y-52433749D01*
X90278845Y-52432322D01*
X90279276Y-52431742D01*
X90282199Y-52423559D01*
X90285306Y-52415441D01*
X90285357Y-52414720D01*
X90285871Y-52413282D01*
X90343014Y-52184710D01*
X90343513Y-52181330D01*
X90344079Y-52179966D01*
X90344802Y-52172614D01*
X90345882Y-52165318D01*
X90345664Y-52163859D01*
X90346000Y-52160457D01*
X90346000Y-51989028D01*
X90345664Y-51985625D01*
X90345882Y-51984167D01*
X90344802Y-51976870D01*
X90344079Y-51969519D01*
X90343513Y-51968154D01*
X90343014Y-51964775D01*
X90285871Y-51736203D01*
X90285357Y-51734764D01*
X90285306Y-51734044D01*
X90282199Y-51725925D01*
X90279276Y-51717743D01*
X90278845Y-51717162D01*
X90278300Y-51715736D01*
X90221157Y-51601450D01*
X90215870Y-51593051D01*
X90214861Y-51590614D01*
X90212609Y-51587871D01*
X90210714Y-51584859D01*
X90208715Y-51583125D01*
X90202425Y-51575461D01*
X90088140Y-51461175D01*
X90072987Y-51448738D01*
X90069667Y-51447362D01*
X90066952Y-51445008D01*
X90049052Y-51437017D01*
X89877623Y-51379874D01*
X89867951Y-51377674D01*
X89865509Y-51376663D01*
X89861970Y-51376314D01*
X89858507Y-51375527D01*
X89855873Y-51375714D01*
X89846000Y-51374742D01*
X89560286Y-51374742D01*
X89540777Y-51376663D01*
X89504729Y-51391595D01*
X89477139Y-51419185D01*
X89462207Y-51455233D01*
X89460286Y-51474742D01*
X89088857Y-51474742D01*
X89086936Y-51455233D01*
X89072004Y-51419185D01*
X89044414Y-51391595D01*
X89008366Y-51376663D01*
X88969348Y-51376663D01*
X88933300Y-51391595D01*
X88905710Y-51419185D01*
X88890778Y-51455233D01*
X88888857Y-51474742D01*
X88888857Y-52298185D01*
X88389967Y-51425128D01*
X88387048Y-51421017D01*
X88386290Y-51419185D01*
X88384423Y-51417318D01*
X88378620Y-51409143D01*
X88368105Y-51401000D01*
X88358700Y-51391595D01*
X88352809Y-51389155D01*
X88347771Y-51385253D01*
X88334942Y-51381754D01*
X88322652Y-51376663D01*
X88316277Y-51376663D01*
X88310128Y-51374986D01*
X88296935Y-51376663D01*
X88283634Y-51376663D01*
X88277745Y-51379102D01*
X88271421Y-51379906D01*
X88259871Y-51386506D01*
X88247586Y-51391595D01*
X88243078Y-51396102D01*
X88237544Y-51399265D01*
X88229401Y-51409779D01*
X88219996Y-51419185D01*
X88217556Y-51425075D01*
X88213654Y-51430114D01*
X88210155Y-51442942D01*
X88205064Y-51455233D01*
X88204081Y-51465210D01*
X88203387Y-51467757D01*
X88203637Y-51469724D01*
X88203143Y-51474742D01*
X87811982Y-51474742D01*
X87793026Y-51452885D01*
X87776436Y-51442443D01*
X87662151Y-51385299D01*
X87643842Y-51378293D01*
X87640258Y-51378038D01*
X87636938Y-51376663D01*
X87617429Y-51374742D01*
X87446000Y-51374742D01*
X87436126Y-51375714D01*
X87433493Y-51375527D01*
X87430029Y-51376314D01*
X87426491Y-51376663D01*
X87424048Y-51377674D01*
X87414377Y-51379874D01*
X87242948Y-51437017D01*
X87225048Y-51445008D01*
X87222332Y-51447362D01*
X87219013Y-51448738D01*
X87203860Y-51461175D01*
X87089575Y-51575461D01*
X87083282Y-51583127D01*
X87081286Y-51584859D01*
X87079392Y-51587867D01*
X87077138Y-51590614D01*
X87076127Y-51593054D01*
X87070843Y-51601449D01*
X87013700Y-51715736D01*
X87013154Y-51717160D01*
X87012724Y-51717742D01*
X87009797Y-51725933D01*
X87006694Y-51734044D01*
X87006642Y-51734764D01*
X87006129Y-51736203D01*
X86948986Y-51964774D01*
X86948485Y-51968155D01*
X86947921Y-51969519D01*
X86947197Y-51976869D01*
X86946118Y-51984167D01*
X86946335Y-51985625D01*
X86946000Y-51989028D01*
X86812667Y-51989028D01*
X86812667Y-51241409D01*
X90479333Y-51241409D01*
X90479333Y-52908075D01*
G37*
G36*
X89087976Y-50368075D02*
G01*
X86793991Y-50368075D01*
X86793991Y-49515824D01*
X86927324Y-49515824D01*
X86928778Y-49520642D01*
X86928778Y-49525680D01*
X86934374Y-49539189D01*
X86938595Y-49553179D01*
X86941782Y-49557075D01*
X86943710Y-49561728D01*
X86954046Y-49572064D01*
X86963302Y-49583377D01*
X86967739Y-49585757D01*
X86971300Y-49589318D01*
X86984805Y-49594912D01*
X86997686Y-49601822D01*
X87002695Y-49602322D01*
X87007348Y-49604250D01*
X87021969Y-49604250D01*
X87036510Y-49605704D01*
X87041329Y-49604250D01*
X87046366Y-49604250D01*
X87059875Y-49598653D01*
X87073865Y-49594433D01*
X87077761Y-49591245D01*
X87082414Y-49589318D01*
X87097568Y-49576882D01*
X87143235Y-49531213D01*
X87221894Y-49491885D01*
X87460393Y-49491885D01*
X87539050Y-49531213D01*
X87573241Y-49565405D01*
X87612571Y-49644064D01*
X87612571Y-49882563D01*
X87573241Y-49961222D01*
X87539050Y-49995413D01*
X87460393Y-50034742D01*
X87221893Y-50034742D01*
X87143235Y-49995413D01*
X87097568Y-49949746D01*
X87082414Y-49937310D01*
X87046366Y-49922378D01*
X87007348Y-49922378D01*
X86971300Y-49937310D01*
X86943710Y-49964900D01*
X86928778Y-50000948D01*
X86928778Y-50039966D01*
X86943710Y-50076014D01*
X86956146Y-50091168D01*
X87013289Y-50148310D01*
X87020958Y-50154604D01*
X87022689Y-50156600D01*
X87025694Y-50158491D01*
X87028442Y-50160747D01*
X87030883Y-50161758D01*
X87039279Y-50167043D01*
X87153565Y-50224185D01*
X87171874Y-50231191D01*
X87175456Y-50231445D01*
X87178777Y-50232821D01*
X87198286Y-50234742D01*
X87484000Y-50234742D01*
X87503509Y-50232821D01*
X87506829Y-50231445D01*
X87510412Y-50231191D01*
X87528721Y-50224185D01*
X87643007Y-50167043D01*
X87651402Y-50161758D01*
X87653844Y-50160747D01*
X87656591Y-50158491D01*
X87659597Y-50156600D01*
X87661327Y-50154604D01*
X87668997Y-50148310D01*
X87726140Y-50091167D01*
X87732431Y-50083500D01*
X87734428Y-50081769D01*
X87736322Y-50078758D01*
X87738576Y-50076013D01*
X87739586Y-50073574D01*
X87744871Y-50065178D01*
X87802014Y-49950892D01*
X87809020Y-49932584D01*
X87809274Y-49929000D01*
X87810650Y-49925680D01*
X87812571Y-49906171D01*
X87812571Y-49620457D01*
X87810650Y-49600948D01*
X87809274Y-49597627D01*
X87809020Y-49594044D01*
X87802014Y-49575736D01*
X87744871Y-49461450D01*
X87739586Y-49453053D01*
X87738576Y-49450615D01*
X87736322Y-49447869D01*
X87734428Y-49444859D01*
X87732431Y-49443127D01*
X87726140Y-49435461D01*
X87668997Y-49378318D01*
X87661330Y-49372025D01*
X87659598Y-49370028D01*
X87656588Y-49368133D01*
X87653844Y-49365881D01*
X87651405Y-49364870D01*
X87643008Y-49359585D01*
X87528721Y-49302442D01*
X87510413Y-49295436D01*
X87506829Y-49295181D01*
X87503509Y-49293806D01*
X87484000Y-49291885D01*
X87198286Y-49291885D01*
X87178777Y-49293806D01*
X87175456Y-49295181D01*
X87171873Y-49295436D01*
X87153565Y-49302442D01*
X87147421Y-49305513D01*
X87174499Y-49034742D01*
X87655428Y-49034742D01*
X87674937Y-49032821D01*
X87710985Y-49017889D01*
X87738575Y-48990299D01*
X87753507Y-48954251D01*
X87753507Y-48947249D01*
X87956213Y-48947249D01*
X87960560Y-48966365D01*
X88360560Y-50166365D01*
X88368551Y-50184265D01*
X88373234Y-50189664D01*
X88376429Y-50196054D01*
X88385900Y-50204269D01*
X88394116Y-50213741D01*
X88400505Y-50216935D01*
X88405905Y-50221619D01*
X88417802Y-50225584D01*
X88429015Y-50231191D01*
X88436142Y-50231697D01*
X88442921Y-50233957D01*
X88455428Y-50233068D01*
X88467935Y-50233957D01*
X88474713Y-50231697D01*
X88481841Y-50231191D01*
X88493053Y-50225584D01*
X88504951Y-50221619D01*
X88510350Y-50216935D01*
X88516740Y-50213741D01*
X88524957Y-50204266D01*
X88534427Y-50196053D01*
X88537620Y-50189665D01*
X88542305Y-50184265D01*
X88550296Y-50166365D01*
X88950296Y-48966365D01*
X88954643Y-48947250D01*
X88951877Y-48908329D01*
X88934427Y-48873431D01*
X88904951Y-48847865D01*
X88867935Y-48835527D01*
X88829015Y-48838293D01*
X88794116Y-48855743D01*
X88768551Y-48885219D01*
X88760560Y-48903119D01*
X88455428Y-49818515D01*
X88150296Y-48903119D01*
X88142305Y-48885219D01*
X88116740Y-48855743D01*
X88081841Y-48838293D01*
X88042921Y-48835527D01*
X88005905Y-48847865D01*
X87976429Y-48873430D01*
X87958979Y-48908329D01*
X87956213Y-48947249D01*
X87753507Y-48947249D01*
X87753507Y-48915233D01*
X87738575Y-48879185D01*
X87710985Y-48851595D01*
X87674937Y-48836663D01*
X87655428Y-48834742D01*
X87084000Y-48834742D01*
X87076783Y-48835452D01*
X87074347Y-48835209D01*
X87071968Y-48835926D01*
X87064491Y-48836663D01*
X87050981Y-48842259D01*
X87036992Y-48846480D01*
X87033095Y-48849667D01*
X87028443Y-48851595D01*
X87018106Y-48861931D01*
X87006794Y-48871187D01*
X87004413Y-48875624D01*
X87000853Y-48879185D01*
X86995258Y-48892690D01*
X86988349Y-48905571D01*
X86986872Y-48912935D01*
X86985921Y-48915233D01*
X86985921Y-48917683D01*
X86984496Y-48924792D01*
X86927353Y-49496221D01*
X86927324Y-49515824D01*
X86793991Y-49515824D01*
X86793991Y-48701409D01*
X89087976Y-48701409D01*
X89087976Y-50368075D01*
G37*
X100946000Y-38266742D02*
X101688857Y-38266742D01*
X101688857Y-38266742D02*
X101288857Y-38723885D01*
X101288857Y-38723885D02*
X101460286Y-38723885D01*
X101460286Y-38723885D02*
X101574572Y-38781028D01*
X101574572Y-38781028D02*
X101631714Y-38838171D01*
X101631714Y-38838171D02*
X101688857Y-38952457D01*
X101688857Y-38952457D02*
X101688857Y-39238171D01*
X101688857Y-39238171D02*
X101631714Y-39352457D01*
X101631714Y-39352457D02*
X101574572Y-39409600D01*
X101574572Y-39409600D02*
X101460286Y-39466742D01*
X101460286Y-39466742D02*
X101117429Y-39466742D01*
X101117429Y-39466742D02*
X101003143Y-39409600D01*
X101003143Y-39409600D02*
X100946000Y-39352457D01*
D14*
X112105857Y-48775941D02*
X112820143Y-48775941D01*
X111963000Y-49204512D02*
X112463000Y-47704512D01*
X112463000Y-47704512D02*
X112963000Y-49204512D01*
X114105857Y-49204512D02*
X114105857Y-47704512D01*
X114105857Y-49133084D02*
X113962999Y-49204512D01*
X113962999Y-49204512D02*
X113677285Y-49204512D01*
X113677285Y-49204512D02*
X113534428Y-49133084D01*
X113534428Y-49133084D02*
X113462999Y-49061655D01*
X113462999Y-49061655D02*
X113391571Y-48918798D01*
X113391571Y-48918798D02*
X113391571Y-48490226D01*
X113391571Y-48490226D02*
X113462999Y-48347369D01*
X113462999Y-48347369D02*
X113534428Y-48275941D01*
X113534428Y-48275941D02*
X113677285Y-48204512D01*
X113677285Y-48204512D02*
X113962999Y-48204512D01*
X113962999Y-48204512D02*
X114105857Y-48275941D01*
X115463000Y-49204512D02*
X115463000Y-47704512D01*
X115463000Y-49133084D02*
X115320142Y-49204512D01*
X115320142Y-49204512D02*
X115034428Y-49204512D01*
X115034428Y-49204512D02*
X114891571Y-49133084D01*
X114891571Y-49133084D02*
X114820142Y-49061655D01*
X114820142Y-49061655D02*
X114748714Y-48918798D01*
X114748714Y-48918798D02*
X114748714Y-48490226D01*
X114748714Y-48490226D02*
X114820142Y-48347369D01*
X114820142Y-48347369D02*
X114891571Y-48275941D01*
X114891571Y-48275941D02*
X115034428Y-48204512D01*
X115034428Y-48204512D02*
X115320142Y-48204512D01*
X115320142Y-48204512D02*
X115463000Y-48275941D01*
X116177285Y-49204512D02*
X116177285Y-48204512D01*
X116177285Y-48490226D02*
X116248714Y-48347369D01*
X116248714Y-48347369D02*
X116320143Y-48275941D01*
X116320143Y-48275941D02*
X116463000Y-48204512D01*
X116463000Y-48204512D02*
X116605857Y-48204512D01*
X117677285Y-49133084D02*
X117534428Y-49204512D01*
X117534428Y-49204512D02*
X117248714Y-49204512D01*
X117248714Y-49204512D02*
X117105856Y-49133084D01*
X117105856Y-49133084D02*
X117034428Y-48990226D01*
X117034428Y-48990226D02*
X117034428Y-48418798D01*
X117034428Y-48418798D02*
X117105856Y-48275941D01*
X117105856Y-48275941D02*
X117248714Y-48204512D01*
X117248714Y-48204512D02*
X117534428Y-48204512D01*
X117534428Y-48204512D02*
X117677285Y-48275941D01*
X117677285Y-48275941D02*
X117748714Y-48418798D01*
X117748714Y-48418798D02*
X117748714Y-48561655D01*
X117748714Y-48561655D02*
X117034428Y-48704512D01*
X118320142Y-49133084D02*
X118462999Y-49204512D01*
X118462999Y-49204512D02*
X118748713Y-49204512D01*
X118748713Y-49204512D02*
X118891570Y-49133084D01*
X118891570Y-49133084D02*
X118962999Y-48990226D01*
X118962999Y-48990226D02*
X118962999Y-48918798D01*
X118962999Y-48918798D02*
X118891570Y-48775941D01*
X118891570Y-48775941D02*
X118748713Y-48704512D01*
X118748713Y-48704512D02*
X118534428Y-48704512D01*
X118534428Y-48704512D02*
X118391570Y-48633084D01*
X118391570Y-48633084D02*
X118320142Y-48490226D01*
X118320142Y-48490226D02*
X118320142Y-48418798D01*
X118320142Y-48418798D02*
X118391570Y-48275941D01*
X118391570Y-48275941D02*
X118534428Y-48204512D01*
X118534428Y-48204512D02*
X118748713Y-48204512D01*
X118748713Y-48204512D02*
X118891570Y-48275941D01*
X119534428Y-49133084D02*
X119677285Y-49204512D01*
X119677285Y-49204512D02*
X119962999Y-49204512D01*
X119962999Y-49204512D02*
X120105856Y-49133084D01*
X120105856Y-49133084D02*
X120177285Y-48990226D01*
X120177285Y-48990226D02*
X120177285Y-48918798D01*
X120177285Y-48918798D02*
X120105856Y-48775941D01*
X120105856Y-48775941D02*
X119962999Y-48704512D01*
X119962999Y-48704512D02*
X119748714Y-48704512D01*
X119748714Y-48704512D02*
X119605856Y-48633084D01*
X119605856Y-48633084D02*
X119534428Y-48490226D01*
X119534428Y-48490226D02*
X119534428Y-48418798D01*
X119534428Y-48418798D02*
X119605856Y-48275941D01*
X119605856Y-48275941D02*
X119748714Y-48204512D01*
X119748714Y-48204512D02*
X119962999Y-48204512D01*
X119962999Y-48204512D02*
X120105856Y-48275941D01*
X114105857Y-51619428D02*
X113963000Y-51548000D01*
X113963000Y-51548000D02*
X113891571Y-51476571D01*
X113891571Y-51476571D02*
X113820143Y-51333714D01*
X113820143Y-51333714D02*
X113820143Y-50905142D01*
X113820143Y-50905142D02*
X113891571Y-50762285D01*
X113891571Y-50762285D02*
X113963000Y-50690857D01*
X113963000Y-50690857D02*
X114105857Y-50619428D01*
X114105857Y-50619428D02*
X114320143Y-50619428D01*
X114320143Y-50619428D02*
X114463000Y-50690857D01*
X114463000Y-50690857D02*
X114534429Y-50762285D01*
X114534429Y-50762285D02*
X114605857Y-50905142D01*
X114605857Y-50905142D02*
X114605857Y-51333714D01*
X114605857Y-51333714D02*
X114534429Y-51476571D01*
X114534429Y-51476571D02*
X114463000Y-51548000D01*
X114463000Y-51548000D02*
X114320143Y-51619428D01*
X114320143Y-51619428D02*
X114105857Y-51619428D01*
X115034429Y-50619428D02*
X115605857Y-50619428D01*
X115248714Y-51619428D02*
X115248714Y-50333714D01*
X115248714Y-50333714D02*
X115320143Y-50190857D01*
X115320143Y-50190857D02*
X115463000Y-50119428D01*
X115463000Y-50119428D02*
X115605857Y-50119428D01*
X117248714Y-50119428D02*
X117248714Y-51333714D01*
X117248714Y-51333714D02*
X117320143Y-51476571D01*
X117320143Y-51476571D02*
X117391572Y-51548000D01*
X117391572Y-51548000D02*
X117534429Y-51619428D01*
X117534429Y-51619428D02*
X117820143Y-51619428D01*
X117820143Y-51619428D02*
X117963000Y-51548000D01*
X117963000Y-51548000D02*
X118034429Y-51476571D01*
X118034429Y-51476571D02*
X118105857Y-51333714D01*
X118105857Y-51333714D02*
X118105857Y-50119428D01*
X118748715Y-50262285D02*
X118820143Y-50190857D01*
X118820143Y-50190857D02*
X118963001Y-50119428D01*
X118963001Y-50119428D02*
X119320143Y-50119428D01*
X119320143Y-50119428D02*
X119463001Y-50190857D01*
X119463001Y-50190857D02*
X119534429Y-50262285D01*
X119534429Y-50262285D02*
X119605858Y-50405142D01*
X119605858Y-50405142D02*
X119605858Y-50548000D01*
X119605858Y-50548000D02*
X119534429Y-50762285D01*
X119534429Y-50762285D02*
X118677286Y-51619428D01*
X118677286Y-51619428D02*
X119605858Y-51619428D01*
D12*
X90786000Y-67222742D02*
X91586000Y-67222742D01*
X91586000Y-67222742D02*
X91071714Y-68422742D01*
X106768857Y-68422742D02*
X106083143Y-68422742D01*
X106426000Y-68422742D02*
X106426000Y-67222742D01*
X106426000Y-67222742D02*
X106311714Y-67394171D01*
X106311714Y-67394171D02*
X106197429Y-67508457D01*
X106197429Y-67508457D02*
X106083143Y-67565600D01*
X108908857Y-38266742D02*
X109023143Y-38266742D01*
X109023143Y-38266742D02*
X109137429Y-38323885D01*
X109137429Y-38323885D02*
X109194572Y-38381028D01*
X109194572Y-38381028D02*
X109251714Y-38495314D01*
X109251714Y-38495314D02*
X109308857Y-38723885D01*
X109308857Y-38723885D02*
X109308857Y-39009600D01*
X109308857Y-39009600D02*
X109251714Y-39238171D01*
X109251714Y-39238171D02*
X109194572Y-39352457D01*
X109194572Y-39352457D02*
X109137429Y-39409600D01*
X109137429Y-39409600D02*
X109023143Y-39466742D01*
X109023143Y-39466742D02*
X108908857Y-39466742D01*
X108908857Y-39466742D02*
X108794572Y-39409600D01*
X108794572Y-39409600D02*
X108737429Y-39352457D01*
X108737429Y-39352457D02*
X108680286Y-39238171D01*
X108680286Y-39238171D02*
X108623143Y-39009600D01*
X108623143Y-39009600D02*
X108623143Y-38723885D01*
X108623143Y-38723885D02*
X108680286Y-38495314D01*
X108680286Y-38495314D02*
X108737429Y-38381028D01*
X108737429Y-38381028D02*
X108794572Y-38323885D01*
X108794572Y-38323885D02*
X108908857Y-38266742D01*
X108908857Y-67222742D02*
X109023143Y-67222742D01*
X109023143Y-67222742D02*
X109137429Y-67279885D01*
X109137429Y-67279885D02*
X109194572Y-67337028D01*
X109194572Y-67337028D02*
X109251714Y-67451314D01*
X109251714Y-67451314D02*
X109308857Y-67679885D01*
X109308857Y-67679885D02*
X109308857Y-67965600D01*
X109308857Y-67965600D02*
X109251714Y-68194171D01*
X109251714Y-68194171D02*
X109194572Y-68308457D01*
X109194572Y-68308457D02*
X109137429Y-68365600D01*
X109137429Y-68365600D02*
X109023143Y-68422742D01*
X109023143Y-68422742D02*
X108908857Y-68422742D01*
X108908857Y-68422742D02*
X108794572Y-68365600D01*
X108794572Y-68365600D02*
X108737429Y-68308457D01*
X108737429Y-68308457D02*
X108680286Y-68194171D01*
X108680286Y-68194171D02*
X108623143Y-67965600D01*
X108623143Y-67965600D02*
X108623143Y-67679885D01*
X108623143Y-67679885D02*
X108680286Y-67451314D01*
X108680286Y-67451314D02*
X108737429Y-67337028D01*
X108737429Y-67337028D02*
X108794572Y-67279885D01*
X108794572Y-67279885D02*
X108908857Y-67222742D01*
X99034572Y-67622742D02*
X99034572Y-68422742D01*
X98748857Y-67165600D02*
X98463143Y-68022742D01*
X98463143Y-68022742D02*
X99206000Y-68022742D01*
D13*
X96226785Y-71047828D02*
X96226785Y-69547828D01*
X96226785Y-69547828D02*
X96798214Y-69547828D01*
X96798214Y-69547828D02*
X96941071Y-69619257D01*
X96941071Y-69619257D02*
X97012500Y-69690685D01*
X97012500Y-69690685D02*
X97083928Y-69833542D01*
X97083928Y-69833542D02*
X97083928Y-70047828D01*
X97083928Y-70047828D02*
X97012500Y-70190685D01*
X97012500Y-70190685D02*
X96941071Y-70262114D01*
X96941071Y-70262114D02*
X96798214Y-70333542D01*
X96798214Y-70333542D02*
X96226785Y-70333542D01*
X98012500Y-69547828D02*
X98298214Y-69547828D01*
X98298214Y-69547828D02*
X98441071Y-69619257D01*
X98441071Y-69619257D02*
X98583928Y-69762114D01*
X98583928Y-69762114D02*
X98655357Y-70047828D01*
X98655357Y-70047828D02*
X98655357Y-70547828D01*
X98655357Y-70547828D02*
X98583928Y-70833542D01*
X98583928Y-70833542D02*
X98441071Y-70976400D01*
X98441071Y-70976400D02*
X98298214Y-71047828D01*
X98298214Y-71047828D02*
X98012500Y-71047828D01*
X98012500Y-71047828D02*
X97869643Y-70976400D01*
X97869643Y-70976400D02*
X97726785Y-70833542D01*
X97726785Y-70833542D02*
X97655357Y-70547828D01*
X97655357Y-70547828D02*
X97655357Y-70047828D01*
X97655357Y-70047828D02*
X97726785Y-69762114D01*
X97726785Y-69762114D02*
X97869643Y-69619257D01*
X97869643Y-69619257D02*
X98012500Y-69547828D01*
X100155357Y-71047828D02*
X99655357Y-70333542D01*
X99298214Y-71047828D02*
X99298214Y-69547828D01*
X99298214Y-69547828D02*
X99869643Y-69547828D01*
X99869643Y-69547828D02*
X100012500Y-69619257D01*
X100012500Y-69619257D02*
X100083929Y-69690685D01*
X100083929Y-69690685D02*
X100155357Y-69833542D01*
X100155357Y-69833542D02*
X100155357Y-70047828D01*
X100155357Y-70047828D02*
X100083929Y-70190685D01*
X100083929Y-70190685D02*
X100012500Y-70262114D01*
X100012500Y-70262114D02*
X99869643Y-70333542D01*
X99869643Y-70333542D02*
X99298214Y-70333542D01*
X100583929Y-69547828D02*
X101441072Y-69547828D01*
X101012500Y-71047828D02*
X101012500Y-69547828D01*
X103869643Y-71047828D02*
X103012500Y-71047828D01*
X103441071Y-71047828D02*
X103441071Y-69547828D01*
X103441071Y-69547828D02*
X103298214Y-69762114D01*
X103298214Y-69762114D02*
X103155357Y-69904971D01*
X103155357Y-69904971D02*
X103012500Y-69976400D01*
D11*
G36*
X120736343Y-59942990D02*
G01*
X120810456Y-60017103D01*
X120848949Y-60094090D01*
X120892333Y-60267624D01*
X120892333Y-60392013D01*
X120848949Y-60565547D01*
X120810455Y-60642534D01*
X120736343Y-60716647D01*
X120621830Y-60754819D01*
X120470905Y-60754819D01*
X120470905Y-59904819D01*
X120621830Y-59904819D01*
X120736343Y-59942990D01*
G37*
G36*
X121153444Y-61015930D02*
G01*
X118114556Y-61015930D01*
X118114556Y-60258390D01*
X118225667Y-60258390D01*
X118225667Y-60401247D01*
X118225918Y-60403800D01*
X118225756Y-60404893D01*
X118226565Y-60410366D01*
X118227108Y-60415879D01*
X118227530Y-60416900D01*
X118227906Y-60419437D01*
X118275525Y-60609913D01*
X118275910Y-60610992D01*
X118275949Y-60611532D01*
X118278276Y-60617613D01*
X118280472Y-60623759D01*
X118280794Y-60624194D01*
X118281204Y-60625264D01*
X118328823Y-60720502D01*
X118332786Y-60726798D01*
X118333544Y-60728628D01*
X118335233Y-60730686D01*
X118336655Y-60732945D01*
X118338153Y-60734244D01*
X118342872Y-60739994D01*
X118438110Y-60835233D01*
X118449475Y-60844561D01*
X118451965Y-60845592D01*
X118454000Y-60847357D01*
X118467426Y-60853351D01*
X118610282Y-60900970D01*
X118617537Y-60902619D01*
X118619368Y-60903378D01*
X118622021Y-60903639D01*
X118624619Y-60904230D01*
X118626593Y-60904089D01*
X118634000Y-60904819D01*
X118729238Y-60904819D01*
X118736643Y-60904089D01*
X118738618Y-60904230D01*
X118741215Y-60903639D01*
X118743870Y-60903378D01*
X118745701Y-60902619D01*
X118752955Y-60900970D01*
X118895812Y-60853351D01*
X118909237Y-60847357D01*
X118911272Y-60845591D01*
X118913763Y-60844560D01*
X118925129Y-60835232D01*
X118972747Y-60787613D01*
X118982075Y-60776247D01*
X118989356Y-60758668D01*
X118993273Y-60749212D01*
X118994714Y-60734580D01*
X118994714Y-60401247D01*
X118993273Y-60386615D01*
X118982074Y-60359579D01*
X118961382Y-60338887D01*
X118934346Y-60327688D01*
X118919714Y-60326247D01*
X118729238Y-60326247D01*
X118714606Y-60327688D01*
X118687570Y-60338887D01*
X118666878Y-60359579D01*
X118655679Y-60386615D01*
X118655679Y-60415879D01*
X118666878Y-60442915D01*
X118687570Y-60463607D01*
X118714606Y-60474806D01*
X118729238Y-60476247D01*
X118844714Y-60476247D01*
X118844714Y-60703514D01*
X118831581Y-60716647D01*
X118717068Y-60754819D01*
X118646170Y-60754819D01*
X118531657Y-60716648D01*
X118457544Y-60642534D01*
X118419050Y-60565547D01*
X118375667Y-60392013D01*
X118375667Y-60267624D01*
X118419050Y-60094090D01*
X118457544Y-60017103D01*
X118531657Y-59942990D01*
X118646170Y-59904819D01*
X118759152Y-59904819D01*
X118838554Y-59944520D01*
X118852285Y-59949775D01*
X118881475Y-59951849D01*
X118909237Y-59942595D01*
X118931344Y-59923422D01*
X118944432Y-59897247D01*
X118946506Y-59868057D01*
X118937252Y-59840296D01*
X118928166Y-59829819D01*
X119273286Y-59829819D01*
X119273286Y-60829819D01*
X119274727Y-60844451D01*
X119285926Y-60871487D01*
X119306618Y-60892179D01*
X119333654Y-60903378D01*
X119362918Y-60903378D01*
X119389954Y-60892179D01*
X119410646Y-60871487D01*
X119421845Y-60844451D01*
X119423286Y-60829819D01*
X119423286Y-60112235D01*
X119854596Y-60867030D01*
X119856785Y-60870114D01*
X119857354Y-60871487D01*
X119858751Y-60872884D01*
X119863106Y-60879019D01*
X119870994Y-60885127D01*
X119878046Y-60892179D01*
X119882464Y-60894009D01*
X119886244Y-60896936D01*
X119895865Y-60899560D01*
X119905082Y-60903378D01*
X119909863Y-60903378D01*
X119914475Y-60904636D01*
X119924372Y-60903378D01*
X119934346Y-60903378D01*
X119938761Y-60901548D01*
X119943505Y-60900946D01*
X119952169Y-60895995D01*
X119961382Y-60892179D01*
X119964760Y-60888800D01*
X119968914Y-60886427D01*
X119975023Y-60878537D01*
X119982074Y-60871487D01*
X119983903Y-60867070D01*
X119986831Y-60863290D01*
X119989455Y-60853666D01*
X119993273Y-60844451D01*
X119994009Y-60836968D01*
X119994531Y-60835058D01*
X119994343Y-60833582D01*
X119994714Y-60829819D01*
X119994714Y-59829819D01*
X120320905Y-59829819D01*
X120320905Y-60829819D01*
X120322346Y-60844451D01*
X120333545Y-60871487D01*
X120354237Y-60892179D01*
X120381273Y-60903378D01*
X120395905Y-60904819D01*
X120634000Y-60904819D01*
X120641405Y-60904089D01*
X120643380Y-60904230D01*
X120645977Y-60903639D01*
X120648632Y-60903378D01*
X120650463Y-60902619D01*
X120657717Y-60900970D01*
X120800574Y-60853351D01*
X120813999Y-60847357D01*
X120816034Y-60845591D01*
X120818525Y-60844560D01*
X120829890Y-60835233D01*
X120925129Y-60739993D01*
X120929846Y-60734244D01*
X120931345Y-60732945D01*
X120932766Y-60730686D01*
X120934456Y-60728628D01*
X120935213Y-60726798D01*
X120939177Y-60720502D01*
X120986796Y-60625264D01*
X120987205Y-60624194D01*
X120987528Y-60623759D01*
X120989720Y-60617622D01*
X120992051Y-60611533D01*
X120992089Y-60610992D01*
X120992475Y-60609913D01*
X121040094Y-60419437D01*
X121040469Y-60416900D01*
X121040892Y-60415879D01*
X121041434Y-60410366D01*
X121042244Y-60404893D01*
X121042081Y-60403800D01*
X121042333Y-60401247D01*
X121042333Y-60258390D01*
X121042081Y-60255836D01*
X121042244Y-60254744D01*
X121041434Y-60249270D01*
X121040892Y-60243758D01*
X121040469Y-60242736D01*
X121040094Y-60240200D01*
X120992475Y-60049724D01*
X120992089Y-60048644D01*
X120992051Y-60048104D01*
X120989720Y-60042014D01*
X120987528Y-60035878D01*
X120987205Y-60035442D01*
X120986796Y-60034373D01*
X120939177Y-59939135D01*
X120935214Y-59932840D01*
X120934456Y-59931008D01*
X120932764Y-59928946D01*
X120931345Y-59926692D01*
X120929848Y-59925393D01*
X120925128Y-59919643D01*
X120829890Y-59824405D01*
X120818525Y-59815078D01*
X120816034Y-59814046D01*
X120813999Y-59812281D01*
X120800574Y-59806287D01*
X120657717Y-59758668D01*
X120650463Y-59757018D01*
X120648632Y-59756260D01*
X120645977Y-59755998D01*
X120643380Y-59755408D01*
X120641405Y-59755548D01*
X120634000Y-59754819D01*
X120395905Y-59754819D01*
X120381273Y-59756260D01*
X120354237Y-59767459D01*
X120333545Y-59788151D01*
X120322346Y-59815187D01*
X120320905Y-59829819D01*
X119994714Y-59829819D01*
X119993273Y-59815187D01*
X119982074Y-59788151D01*
X119961382Y-59767459D01*
X119934346Y-59756260D01*
X119905082Y-59756260D01*
X119878046Y-59767459D01*
X119857354Y-59788151D01*
X119846155Y-59815187D01*
X119844714Y-59829819D01*
X119844714Y-60547402D01*
X119413404Y-59792609D01*
X119411215Y-59789525D01*
X119410646Y-59788151D01*
X119409246Y-59786751D01*
X119404894Y-59780619D01*
X119397004Y-59774509D01*
X119389954Y-59767459D01*
X119385537Y-59765629D01*
X119381757Y-59762702D01*
X119372133Y-59760077D01*
X119362918Y-59756260D01*
X119358137Y-59756260D01*
X119353525Y-59755002D01*
X119343628Y-59756260D01*
X119333654Y-59756260D01*
X119329238Y-59758089D01*
X119324495Y-59758692D01*
X119315830Y-59763642D01*
X119306618Y-59767459D01*
X119303239Y-59770837D01*
X119299086Y-59773211D01*
X119292976Y-59781100D01*
X119285926Y-59788151D01*
X119284096Y-59792567D01*
X119281169Y-59796348D01*
X119278544Y-59805971D01*
X119274727Y-59815187D01*
X119273990Y-59822669D01*
X119273469Y-59824580D01*
X119273656Y-59826055D01*
X119273286Y-59829819D01*
X118928166Y-59829819D01*
X118918079Y-59818188D01*
X118905636Y-59810356D01*
X118810398Y-59762737D01*
X118796666Y-59757482D01*
X118793978Y-59757291D01*
X118791489Y-59756260D01*
X118776857Y-59754819D01*
X118634000Y-59754819D01*
X118626593Y-59755548D01*
X118624619Y-59755408D01*
X118622021Y-59755998D01*
X118619368Y-59756260D01*
X118617537Y-59757018D01*
X118610282Y-59758668D01*
X118467426Y-59806287D01*
X118454000Y-59812281D01*
X118451965Y-59814045D01*
X118449475Y-59815077D01*
X118438110Y-59824405D01*
X118342872Y-59919643D01*
X118338153Y-59925392D01*
X118336655Y-59926692D01*
X118335233Y-59928951D01*
X118333545Y-59931008D01*
X118332787Y-59932835D01*
X118328823Y-59939135D01*
X118281204Y-60034373D01*
X118280794Y-60035442D01*
X118280472Y-60035878D01*
X118278276Y-60042023D01*
X118275949Y-60048105D01*
X118275910Y-60048644D01*
X118275525Y-60049724D01*
X118227906Y-60240200D01*
X118227530Y-60242736D01*
X118227108Y-60243758D01*
X118226565Y-60249270D01*
X118225756Y-60254744D01*
X118225918Y-60255836D01*
X118225667Y-60258390D01*
X118114556Y-60258390D01*
X118114556Y-59643708D01*
X121153444Y-59643708D01*
X121153444Y-61015930D01*
G37*
D12*
X99034572Y-38666742D02*
X99034572Y-39466742D01*
X98748857Y-38209600D02*
X98463143Y-39066742D01*
X98463143Y-39066742D02*
X99206000Y-39066742D01*
X103543143Y-67337028D02*
X103600286Y-67279885D01*
X103600286Y-67279885D02*
X103714572Y-67222742D01*
X103714572Y-67222742D02*
X104000286Y-67222742D01*
X104000286Y-67222742D02*
X104114572Y-67279885D01*
X104114572Y-67279885D02*
X104171714Y-67337028D01*
X104171714Y-67337028D02*
X104228857Y-67451314D01*
X104228857Y-67451314D02*
X104228857Y-67565600D01*
X104228857Y-67565600D02*
X104171714Y-67737028D01*
X104171714Y-67737028D02*
X103486000Y-68422742D01*
X103486000Y-68422742D02*
X104228857Y-68422742D01*
D11*
G36*
X120736343Y-56132990D02*
G01*
X120810456Y-56207103D01*
X120848949Y-56284090D01*
X120892333Y-56457624D01*
X120892333Y-56582013D01*
X120848949Y-56755547D01*
X120810455Y-56832534D01*
X120736343Y-56906647D01*
X120621830Y-56944819D01*
X120470905Y-56944819D01*
X120470905Y-56094819D01*
X120621830Y-56094819D01*
X120736343Y-56132990D01*
G37*
G36*
X121153444Y-57205930D02*
G01*
X118114556Y-57205930D01*
X118114556Y-56448390D01*
X118225667Y-56448390D01*
X118225667Y-56591247D01*
X118225918Y-56593800D01*
X118225756Y-56594893D01*
X118226565Y-56600366D01*
X118227108Y-56605879D01*
X118227530Y-56606900D01*
X118227906Y-56609437D01*
X118275525Y-56799913D01*
X118275910Y-56800992D01*
X118275949Y-56801532D01*
X118278276Y-56807613D01*
X118280472Y-56813759D01*
X118280794Y-56814194D01*
X118281204Y-56815264D01*
X118328823Y-56910502D01*
X118332786Y-56916798D01*
X118333544Y-56918628D01*
X118335233Y-56920686D01*
X118336655Y-56922945D01*
X118338153Y-56924244D01*
X118342872Y-56929994D01*
X118438110Y-57025233D01*
X118449475Y-57034561D01*
X118451965Y-57035592D01*
X118454000Y-57037357D01*
X118467426Y-57043351D01*
X118610282Y-57090970D01*
X118617537Y-57092619D01*
X118619368Y-57093378D01*
X118622021Y-57093639D01*
X118624619Y-57094230D01*
X118626593Y-57094089D01*
X118634000Y-57094819D01*
X118729238Y-57094819D01*
X118736643Y-57094089D01*
X118738618Y-57094230D01*
X118741215Y-57093639D01*
X118743870Y-57093378D01*
X118745701Y-57092619D01*
X118752955Y-57090970D01*
X118895812Y-57043351D01*
X118909237Y-57037357D01*
X118911272Y-57035591D01*
X118913763Y-57034560D01*
X118925129Y-57025232D01*
X118972747Y-56977613D01*
X118982075Y-56966247D01*
X118989356Y-56948668D01*
X118993273Y-56939212D01*
X118994714Y-56924580D01*
X118994714Y-56591247D01*
X118993273Y-56576615D01*
X118982074Y-56549579D01*
X118961382Y-56528887D01*
X118934346Y-56517688D01*
X118919714Y-56516247D01*
X118729238Y-56516247D01*
X118714606Y-56517688D01*
X118687570Y-56528887D01*
X118666878Y-56549579D01*
X118655679Y-56576615D01*
X118655679Y-56605879D01*
X118666878Y-56632915D01*
X118687570Y-56653607D01*
X118714606Y-56664806D01*
X118729238Y-56666247D01*
X118844714Y-56666247D01*
X118844714Y-56893514D01*
X118831581Y-56906647D01*
X118717068Y-56944819D01*
X118646170Y-56944819D01*
X118531657Y-56906648D01*
X118457544Y-56832534D01*
X118419050Y-56755547D01*
X118375667Y-56582013D01*
X118375667Y-56457624D01*
X118419050Y-56284090D01*
X118457544Y-56207103D01*
X118531657Y-56132990D01*
X118646170Y-56094819D01*
X118759152Y-56094819D01*
X118838554Y-56134520D01*
X118852285Y-56139775D01*
X118881475Y-56141849D01*
X118909237Y-56132595D01*
X118931344Y-56113422D01*
X118944432Y-56087247D01*
X118946506Y-56058057D01*
X118937252Y-56030296D01*
X118928166Y-56019819D01*
X119273286Y-56019819D01*
X119273286Y-57019819D01*
X119274727Y-57034451D01*
X119285926Y-57061487D01*
X119306618Y-57082179D01*
X119333654Y-57093378D01*
X119362918Y-57093378D01*
X119389954Y-57082179D01*
X119410646Y-57061487D01*
X119421845Y-57034451D01*
X119423286Y-57019819D01*
X119423286Y-56302235D01*
X119854596Y-57057030D01*
X119856785Y-57060114D01*
X119857354Y-57061487D01*
X119858751Y-57062884D01*
X119863106Y-57069019D01*
X119870994Y-57075127D01*
X119878046Y-57082179D01*
X119882464Y-57084009D01*
X119886244Y-57086936D01*
X119895865Y-57089560D01*
X119905082Y-57093378D01*
X119909863Y-57093378D01*
X119914475Y-57094636D01*
X119924372Y-57093378D01*
X119934346Y-57093378D01*
X119938761Y-57091548D01*
X119943505Y-57090946D01*
X119952169Y-57085995D01*
X119961382Y-57082179D01*
X119964760Y-57078800D01*
X119968914Y-57076427D01*
X119975023Y-57068537D01*
X119982074Y-57061487D01*
X119983903Y-57057070D01*
X119986831Y-57053290D01*
X119989455Y-57043666D01*
X119993273Y-57034451D01*
X119994009Y-57026968D01*
X119994531Y-57025058D01*
X119994343Y-57023582D01*
X119994714Y-57019819D01*
X119994714Y-56019819D01*
X120320905Y-56019819D01*
X120320905Y-57019819D01*
X120322346Y-57034451D01*
X120333545Y-57061487D01*
X120354237Y-57082179D01*
X120381273Y-57093378D01*
X120395905Y-57094819D01*
X120634000Y-57094819D01*
X120641405Y-57094089D01*
X120643380Y-57094230D01*
X120645977Y-57093639D01*
X120648632Y-57093378D01*
X120650463Y-57092619D01*
X120657717Y-57090970D01*
X120800574Y-57043351D01*
X120813999Y-57037357D01*
X120816034Y-57035591D01*
X120818525Y-57034560D01*
X120829890Y-57025233D01*
X120925129Y-56929993D01*
X120929846Y-56924244D01*
X120931345Y-56922945D01*
X120932766Y-56920686D01*
X120934456Y-56918628D01*
X120935213Y-56916798D01*
X120939177Y-56910502D01*
X120986796Y-56815264D01*
X120987205Y-56814194D01*
X120987528Y-56813759D01*
X120989720Y-56807622D01*
X120992051Y-56801533D01*
X120992089Y-56800992D01*
X120992475Y-56799913D01*
X121040094Y-56609437D01*
X121040469Y-56606900D01*
X121040892Y-56605879D01*
X121041434Y-56600366D01*
X121042244Y-56594893D01*
X121042081Y-56593800D01*
X121042333Y-56591247D01*
X121042333Y-56448390D01*
X121042081Y-56445836D01*
X121042244Y-56444744D01*
X121041434Y-56439270D01*
X121040892Y-56433758D01*
X121040469Y-56432736D01*
X121040094Y-56430200D01*
X120992475Y-56239724D01*
X120992089Y-56238644D01*
X120992051Y-56238104D01*
X120989720Y-56232014D01*
X120987528Y-56225878D01*
X120987205Y-56225442D01*
X120986796Y-56224373D01*
X120939177Y-56129135D01*
X120935214Y-56122840D01*
X120934456Y-56121008D01*
X120932764Y-56118946D01*
X120931345Y-56116692D01*
X120929848Y-56115393D01*
X120925128Y-56109643D01*
X120829890Y-56014405D01*
X120818525Y-56005078D01*
X120816034Y-56004046D01*
X120813999Y-56002281D01*
X120800574Y-55996287D01*
X120657717Y-55948668D01*
X120650463Y-55947018D01*
X120648632Y-55946260D01*
X120645977Y-55945998D01*
X120643380Y-55945408D01*
X120641405Y-55945548D01*
X120634000Y-55944819D01*
X120395905Y-55944819D01*
X120381273Y-55946260D01*
X120354237Y-55957459D01*
X120333545Y-55978151D01*
X120322346Y-56005187D01*
X120320905Y-56019819D01*
X119994714Y-56019819D01*
X119993273Y-56005187D01*
X119982074Y-55978151D01*
X119961382Y-55957459D01*
X119934346Y-55946260D01*
X119905082Y-55946260D01*
X119878046Y-55957459D01*
X119857354Y-55978151D01*
X119846155Y-56005187D01*
X119844714Y-56019819D01*
X119844714Y-56737402D01*
X119413404Y-55982609D01*
X119411215Y-55979525D01*
X119410646Y-55978151D01*
X119409246Y-55976751D01*
X119404894Y-55970619D01*
X119397004Y-55964509D01*
X119389954Y-55957459D01*
X119385537Y-55955629D01*
X119381757Y-55952702D01*
X119372133Y-55950077D01*
X119362918Y-55946260D01*
X119358137Y-55946260D01*
X119353525Y-55945002D01*
X119343628Y-55946260D01*
X119333654Y-55946260D01*
X119329238Y-55948089D01*
X119324495Y-55948692D01*
X119315830Y-55953642D01*
X119306618Y-55957459D01*
X119303239Y-55960837D01*
X119299086Y-55963211D01*
X119292976Y-55971100D01*
X119285926Y-55978151D01*
X119284096Y-55982567D01*
X119281169Y-55986348D01*
X119278544Y-55995971D01*
X119274727Y-56005187D01*
X119273990Y-56012669D01*
X119273469Y-56014580D01*
X119273656Y-56016055D01*
X119273286Y-56019819D01*
X118928166Y-56019819D01*
X118918079Y-56008188D01*
X118905636Y-56000356D01*
X118810398Y-55952737D01*
X118796666Y-55947482D01*
X118793978Y-55947291D01*
X118791489Y-55946260D01*
X118776857Y-55944819D01*
X118634000Y-55944819D01*
X118626593Y-55945548D01*
X118624619Y-55945408D01*
X118622021Y-55945998D01*
X118619368Y-55946260D01*
X118617537Y-55947018D01*
X118610282Y-55948668D01*
X118467426Y-55996287D01*
X118454000Y-56002281D01*
X118451965Y-56004045D01*
X118449475Y-56005077D01*
X118438110Y-56014405D01*
X118342872Y-56109643D01*
X118338153Y-56115392D01*
X118336655Y-56116692D01*
X118335233Y-56118951D01*
X118333545Y-56121008D01*
X118332787Y-56122835D01*
X118328823Y-56129135D01*
X118281204Y-56224373D01*
X118280794Y-56225442D01*
X118280472Y-56225878D01*
X118278276Y-56232023D01*
X118275949Y-56238105D01*
X118275910Y-56238644D01*
X118275525Y-56239724D01*
X118227906Y-56430200D01*
X118227530Y-56432736D01*
X118227108Y-56433758D01*
X118226565Y-56439270D01*
X118225756Y-56444744D01*
X118225918Y-56445836D01*
X118225667Y-56448390D01*
X118114556Y-56448390D01*
X118114556Y-55833708D01*
X121153444Y-55833708D01*
X121153444Y-57205930D01*
G37*
G36*
X112882045Y-61015930D02*
G01*
X110986953Y-61015930D01*
X110986953Y-60313249D01*
X111098064Y-60313249D01*
X111099155Y-60316864D01*
X111099155Y-60320640D01*
X111103349Y-60330765D01*
X111106517Y-60341265D01*
X111108908Y-60344188D01*
X111110354Y-60347677D01*
X111118107Y-60355430D01*
X111125048Y-60363913D01*
X111128374Y-60365697D01*
X111131046Y-60368369D01*
X111141173Y-60372564D01*
X111150835Y-60377747D01*
X111154594Y-60378122D01*
X111158083Y-60379568D01*
X111169044Y-60379568D01*
X111179954Y-60380659D01*
X111183570Y-60379568D01*
X111187345Y-60379568D01*
X111197470Y-60375373D01*
X111207970Y-60372206D01*
X111210893Y-60369814D01*
X111214382Y-60368369D01*
X111225747Y-60359042D01*
X111264760Y-60320029D01*
X111333276Y-60285771D01*
X111535961Y-60285771D01*
X111604477Y-60320029D01*
X111634884Y-60350436D01*
X111669142Y-60418952D01*
X111669142Y-60621637D01*
X111634883Y-60690153D01*
X111604476Y-60720561D01*
X111535961Y-60754819D01*
X111333276Y-60754819D01*
X111264760Y-60720561D01*
X111225748Y-60681548D01*
X111214382Y-60672220D01*
X111187346Y-60661021D01*
X111158083Y-60661021D01*
X111131047Y-60672219D01*
X111110354Y-60692912D01*
X111099155Y-60719948D01*
X111099155Y-60749211D01*
X111110353Y-60776247D01*
X111119680Y-60787612D01*
X111167299Y-60835232D01*
X111173048Y-60839950D01*
X111174349Y-60841450D01*
X111176608Y-60842872D01*
X111178665Y-60844560D01*
X111180492Y-60845317D01*
X111186792Y-60849282D01*
X111282030Y-60896901D01*
X111295761Y-60902156D01*
X111298450Y-60902347D01*
X111300939Y-60903378D01*
X111315571Y-60904819D01*
X111553666Y-60904819D01*
X111568298Y-60903378D01*
X111570787Y-60902346D01*
X111573475Y-60902156D01*
X111587207Y-60896901D01*
X111682445Y-60849282D01*
X111688744Y-60845317D01*
X111690572Y-60844560D01*
X111692628Y-60842872D01*
X111694888Y-60841450D01*
X111696188Y-60839950D01*
X111701938Y-60835232D01*
X111749556Y-60787613D01*
X111754274Y-60781863D01*
X111755773Y-60780564D01*
X111757194Y-60778305D01*
X111758884Y-60776247D01*
X111759641Y-60774417D01*
X111763605Y-60768121D01*
X111811224Y-60672883D01*
X111816479Y-60659152D01*
X111816670Y-60656462D01*
X111817701Y-60653974D01*
X111819142Y-60639342D01*
X111819142Y-60401247D01*
X111817701Y-60386615D01*
X111816670Y-60384126D01*
X111816479Y-60381437D01*
X111811224Y-60367706D01*
X111763605Y-60272468D01*
X111759640Y-60266168D01*
X111758883Y-60264341D01*
X111757194Y-60262284D01*
X111755773Y-60260025D01*
X111754274Y-60258725D01*
X111749556Y-60252976D01*
X111701937Y-60205357D01*
X111696187Y-60200638D01*
X111694888Y-60199140D01*
X111692628Y-60197718D01*
X111690572Y-60196030D01*
X111688744Y-60195272D01*
X111682445Y-60191308D01*
X111587207Y-60143689D01*
X111573475Y-60138434D01*
X111570787Y-60138243D01*
X111568298Y-60137212D01*
X111553666Y-60135771D01*
X111315571Y-60135771D01*
X111300939Y-60137212D01*
X111298450Y-60138242D01*
X111295761Y-60138434D01*
X111282030Y-60143689D01*
X111263388Y-60153009D01*
X111288207Y-59904819D01*
X111696523Y-59904819D01*
X111711155Y-59903378D01*
X111738191Y-59892179D01*
X111758883Y-59871487D01*
X111770082Y-59844451D01*
X111770082Y-59839199D01*
X111955446Y-59839199D01*
X111958706Y-59853536D01*
X112292039Y-60853536D01*
X112298033Y-60866961D01*
X112301543Y-60871008D01*
X112303940Y-60875802D01*
X112311048Y-60881967D01*
X112317207Y-60889068D01*
X112321996Y-60891462D01*
X112326047Y-60894976D01*
X112334972Y-60897950D01*
X112343380Y-60902155D01*
X112348724Y-60902534D01*
X112353810Y-60904230D01*
X112363190Y-60903563D01*
X112372570Y-60904230D01*
X112377655Y-60902534D01*
X112383000Y-60902155D01*
X112391410Y-60897949D01*
X112400332Y-60894976D01*
X112404379Y-60891465D01*
X112409173Y-60889069D01*
X112415336Y-60881963D01*
X112422440Y-60875802D01*
X112424835Y-60871010D01*
X112428347Y-60866962D01*
X112434341Y-60853536D01*
X112767674Y-59853536D01*
X112770934Y-59839200D01*
X112768859Y-59810010D01*
X112755773Y-59783836D01*
X112733665Y-59764662D01*
X112705903Y-59755408D01*
X112676713Y-59757483D01*
X112650540Y-59770570D01*
X112631366Y-59792677D01*
X112625372Y-59806102D01*
X112363190Y-60592648D01*
X112101008Y-59806102D01*
X112095014Y-59792676D01*
X112075840Y-59770569D01*
X112049667Y-59757483D01*
X112020477Y-59755408D01*
X111992714Y-59764662D01*
X111970607Y-59783836D01*
X111957521Y-59810009D01*
X111955446Y-59839199D01*
X111770082Y-59839199D01*
X111770082Y-59815187D01*
X111758883Y-59788151D01*
X111738191Y-59767459D01*
X111711155Y-59756260D01*
X111696523Y-59754819D01*
X111220333Y-59754819D01*
X111214921Y-59755351D01*
X111213093Y-59755169D01*
X111211306Y-59755707D01*
X111205701Y-59756260D01*
X111195574Y-59760454D01*
X111185077Y-59763622D01*
X111182153Y-59766013D01*
X111178665Y-59767459D01*
X111170911Y-59775212D01*
X111162429Y-59782153D01*
X111160644Y-59785479D01*
X111157973Y-59788151D01*
X111153777Y-59798280D01*
X111148595Y-59807940D01*
X111147487Y-59813464D01*
X111146774Y-59815187D01*
X111146774Y-59817023D01*
X111145705Y-59822356D01*
X111098086Y-60298546D01*
X111098064Y-60313249D01*
X110986953Y-60313249D01*
X110986953Y-59643708D01*
X112882045Y-59643708D01*
X112882045Y-61015930D01*
G37*
D12*
X87090428Y-55157600D02*
X87261857Y-55214742D01*
X87261857Y-55214742D02*
X87547571Y-55214742D01*
X87547571Y-55214742D02*
X87661857Y-55157600D01*
X87661857Y-55157600D02*
X87718999Y-55100457D01*
X87718999Y-55100457D02*
X87776142Y-54986171D01*
X87776142Y-54986171D02*
X87776142Y-54871885D01*
X87776142Y-54871885D02*
X87718999Y-54757600D01*
X87718999Y-54757600D02*
X87661857Y-54700457D01*
X87661857Y-54700457D02*
X87547571Y-54643314D01*
X87547571Y-54643314D02*
X87318999Y-54586171D01*
X87318999Y-54586171D02*
X87204714Y-54529028D01*
X87204714Y-54529028D02*
X87147571Y-54471885D01*
X87147571Y-54471885D02*
X87090428Y-54357600D01*
X87090428Y-54357600D02*
X87090428Y-54243314D01*
X87090428Y-54243314D02*
X87147571Y-54129028D01*
X87147571Y-54129028D02*
X87204714Y-54071885D01*
X87204714Y-54071885D02*
X87318999Y-54014742D01*
X87318999Y-54014742D02*
X87604714Y-54014742D01*
X87604714Y-54014742D02*
X87776142Y-54071885D01*
X88976142Y-55100457D02*
X88918999Y-55157600D01*
X88918999Y-55157600D02*
X88747571Y-55214742D01*
X88747571Y-55214742D02*
X88633285Y-55214742D01*
X88633285Y-55214742D02*
X88461856Y-55157600D01*
X88461856Y-55157600D02*
X88347571Y-55043314D01*
X88347571Y-55043314D02*
X88290428Y-54929028D01*
X88290428Y-54929028D02*
X88233285Y-54700457D01*
X88233285Y-54700457D02*
X88233285Y-54529028D01*
X88233285Y-54529028D02*
X88290428Y-54300457D01*
X88290428Y-54300457D02*
X88347571Y-54186171D01*
X88347571Y-54186171D02*
X88461856Y-54071885D01*
X88461856Y-54071885D02*
X88633285Y-54014742D01*
X88633285Y-54014742D02*
X88747571Y-54014742D01*
X88747571Y-54014742D02*
X88918999Y-54071885D01*
X88918999Y-54071885D02*
X88976142Y-54129028D01*
X90061856Y-55214742D02*
X89490428Y-55214742D01*
X89490428Y-55214742D02*
X89490428Y-54014742D01*
D11*
G36*
X112882045Y-57205930D02*
G01*
X110986953Y-57205930D01*
X110986953Y-56503249D01*
X111098064Y-56503249D01*
X111099155Y-56506864D01*
X111099155Y-56510640D01*
X111103349Y-56520765D01*
X111106517Y-56531265D01*
X111108908Y-56534188D01*
X111110354Y-56537677D01*
X111118107Y-56545430D01*
X111125048Y-56553913D01*
X111128374Y-56555697D01*
X111131046Y-56558369D01*
X111141173Y-56562564D01*
X111150835Y-56567747D01*
X111154594Y-56568122D01*
X111158083Y-56569568D01*
X111169044Y-56569568D01*
X111179954Y-56570659D01*
X111183570Y-56569568D01*
X111187345Y-56569568D01*
X111197470Y-56565373D01*
X111207970Y-56562206D01*
X111210893Y-56559814D01*
X111214382Y-56558369D01*
X111225747Y-56549042D01*
X111264760Y-56510029D01*
X111333276Y-56475771D01*
X111535961Y-56475771D01*
X111604477Y-56510029D01*
X111634884Y-56540436D01*
X111669142Y-56608952D01*
X111669142Y-56811637D01*
X111634883Y-56880153D01*
X111604476Y-56910561D01*
X111535961Y-56944819D01*
X111333276Y-56944819D01*
X111264760Y-56910561D01*
X111225748Y-56871548D01*
X111214382Y-56862220D01*
X111187346Y-56851021D01*
X111158083Y-56851021D01*
X111131047Y-56862219D01*
X111110354Y-56882912D01*
X111099155Y-56909948D01*
X111099155Y-56939211D01*
X111110353Y-56966247D01*
X111119680Y-56977612D01*
X111167299Y-57025232D01*
X111173048Y-57029950D01*
X111174349Y-57031450D01*
X111176608Y-57032872D01*
X111178665Y-57034560D01*
X111180492Y-57035317D01*
X111186792Y-57039282D01*
X111282030Y-57086901D01*
X111295761Y-57092156D01*
X111298450Y-57092347D01*
X111300939Y-57093378D01*
X111315571Y-57094819D01*
X111553666Y-57094819D01*
X111568298Y-57093378D01*
X111570787Y-57092346D01*
X111573475Y-57092156D01*
X111587207Y-57086901D01*
X111682445Y-57039282D01*
X111688744Y-57035317D01*
X111690572Y-57034560D01*
X111692628Y-57032872D01*
X111694888Y-57031450D01*
X111696188Y-57029950D01*
X111701938Y-57025232D01*
X111749556Y-56977613D01*
X111754274Y-56971863D01*
X111755773Y-56970564D01*
X111757194Y-56968305D01*
X111758884Y-56966247D01*
X111759641Y-56964417D01*
X111763605Y-56958121D01*
X111811224Y-56862883D01*
X111816479Y-56849152D01*
X111816670Y-56846462D01*
X111817701Y-56843974D01*
X111819142Y-56829342D01*
X111819142Y-56591247D01*
X111817701Y-56576615D01*
X111816670Y-56574126D01*
X111816479Y-56571437D01*
X111811224Y-56557706D01*
X111763605Y-56462468D01*
X111759640Y-56456168D01*
X111758883Y-56454341D01*
X111757194Y-56452284D01*
X111755773Y-56450025D01*
X111754274Y-56448725D01*
X111749556Y-56442976D01*
X111701937Y-56395357D01*
X111696187Y-56390638D01*
X111694888Y-56389140D01*
X111692628Y-56387718D01*
X111690572Y-56386030D01*
X111688744Y-56385272D01*
X111682445Y-56381308D01*
X111587207Y-56333689D01*
X111573475Y-56328434D01*
X111570787Y-56328243D01*
X111568298Y-56327212D01*
X111553666Y-56325771D01*
X111315571Y-56325771D01*
X111300939Y-56327212D01*
X111298450Y-56328242D01*
X111295761Y-56328434D01*
X111282030Y-56333689D01*
X111263388Y-56343009D01*
X111288207Y-56094819D01*
X111696523Y-56094819D01*
X111711155Y-56093378D01*
X111738191Y-56082179D01*
X111758883Y-56061487D01*
X111770082Y-56034451D01*
X111770082Y-56029199D01*
X111955446Y-56029199D01*
X111958706Y-56043536D01*
X112292039Y-57043536D01*
X112298033Y-57056961D01*
X112301543Y-57061008D01*
X112303940Y-57065802D01*
X112311048Y-57071967D01*
X112317207Y-57079068D01*
X112321996Y-57081462D01*
X112326047Y-57084976D01*
X112334972Y-57087950D01*
X112343380Y-57092155D01*
X112348724Y-57092534D01*
X112353810Y-57094230D01*
X112363190Y-57093563D01*
X112372570Y-57094230D01*
X112377655Y-57092534D01*
X112383000Y-57092155D01*
X112391410Y-57087949D01*
X112400332Y-57084976D01*
X112404379Y-57081465D01*
X112409173Y-57079069D01*
X112415336Y-57071963D01*
X112422440Y-57065802D01*
X112424835Y-57061010D01*
X112428347Y-57056962D01*
X112434341Y-57043536D01*
X112767674Y-56043536D01*
X112770934Y-56029200D01*
X112768859Y-56000010D01*
X112755773Y-55973836D01*
X112733665Y-55954662D01*
X112705903Y-55945408D01*
X112676713Y-55947483D01*
X112650540Y-55960570D01*
X112631366Y-55982677D01*
X112625372Y-55996102D01*
X112363190Y-56782648D01*
X112101008Y-55996102D01*
X112095014Y-55982676D01*
X112075840Y-55960569D01*
X112049667Y-55947483D01*
X112020477Y-55945408D01*
X111992714Y-55954662D01*
X111970607Y-55973836D01*
X111957521Y-56000009D01*
X111955446Y-56029199D01*
X111770082Y-56029199D01*
X111770082Y-56005187D01*
X111758883Y-55978151D01*
X111738191Y-55957459D01*
X111711155Y-55946260D01*
X111696523Y-55944819D01*
X111220333Y-55944819D01*
X111214921Y-55945351D01*
X111213093Y-55945169D01*
X111211306Y-55945707D01*
X111205701Y-55946260D01*
X111195574Y-55950454D01*
X111185077Y-55953622D01*
X111182153Y-55956013D01*
X111178665Y-55957459D01*
X111170911Y-55965212D01*
X111162429Y-55972153D01*
X111160644Y-55975479D01*
X111157973Y-55978151D01*
X111153777Y-55988280D01*
X111148595Y-55997940D01*
X111147487Y-56003464D01*
X111146774Y-56005187D01*
X111146774Y-56007023D01*
X111145705Y-56012356D01*
X111098086Y-56488546D01*
X111098064Y-56503249D01*
X110986953Y-56503249D01*
X110986953Y-55833708D01*
X112882045Y-55833708D01*
X112882045Y-57205930D01*
G37*
D12*
X100946000Y-67222742D02*
X101688857Y-67222742D01*
X101688857Y-67222742D02*
X101288857Y-67679885D01*
X101288857Y-67679885D02*
X101460286Y-67679885D01*
X101460286Y-67679885D02*
X101574572Y-67737028D01*
X101574572Y-67737028D02*
X101631714Y-67794171D01*
X101631714Y-67794171D02*
X101688857Y-67908457D01*
X101688857Y-67908457D02*
X101688857Y-68194171D01*
X101688857Y-68194171D02*
X101631714Y-68308457D01*
X101631714Y-68308457D02*
X101574572Y-68365600D01*
X101574572Y-68365600D02*
X101460286Y-68422742D01*
X101460286Y-68422742D02*
X101117429Y-68422742D01*
X101117429Y-68422742D02*
X101003143Y-68365600D01*
X101003143Y-68365600D02*
X100946000Y-68308457D01*
D15*
G36*
X79670887Y-67786665D02*
G01*
X79730536Y-67785749D01*
X79765556Y-67784321D01*
X79826647Y-67781367D01*
X79866379Y-67779924D01*
X79877517Y-67815388D01*
X79867259Y-67850852D01*
X79826226Y-67853490D01*
X79779331Y-67860231D01*
X79757349Y-67869317D01*
X79751780Y-67911229D01*
X79750901Y-67968968D01*
X79750901Y-67979226D01*
X79750901Y-67989191D01*
X79750901Y-68276421D01*
X79745919Y-68273490D01*
X79747384Y-68270559D01*
X79807028Y-68272318D01*
X79869310Y-68274076D01*
X79930095Y-68275128D01*
X79988919Y-68275529D01*
X80001787Y-68275542D01*
X80062897Y-68275175D01*
X80124180Y-68274166D01*
X80128403Y-68274076D01*
X80188544Y-68272428D01*
X80247984Y-68270559D01*
X80250036Y-68272904D01*
X80246226Y-68274956D01*
X80246226Y-67989191D01*
X80245553Y-67928604D01*
X80245346Y-67920608D01*
X80238019Y-67869024D01*
X80216037Y-67860231D01*
X80169729Y-67853490D01*
X80129868Y-67850852D01*
X80119024Y-67815095D01*
X80130748Y-67779924D01*
X80189944Y-67782181D01*
X80233037Y-67784321D01*
X80292548Y-67786336D01*
X80327705Y-67786665D01*
X80387491Y-67785749D01*
X80422374Y-67784321D01*
X80483465Y-67781367D01*
X80523197Y-67779924D01*
X80534628Y-67815095D01*
X80524076Y-67850852D01*
X80484216Y-67853490D01*
X80437907Y-67860231D01*
X80415633Y-67869610D01*
X80408598Y-67920608D01*
X80407733Y-67980041D01*
X80407719Y-67989191D01*
X80407719Y-68679715D01*
X80408392Y-68739853D01*
X80408598Y-68747712D01*
X80415633Y-68797538D01*
X80437907Y-68807210D01*
X80484216Y-68815709D01*
X80524076Y-68818347D01*
X80534628Y-68853811D01*
X80522904Y-68889275D01*
X80464264Y-68885689D01*
X80422374Y-68883413D01*
X80360842Y-68881087D01*
X80327705Y-68880775D01*
X80268995Y-68881806D01*
X80233330Y-68883413D01*
X80174222Y-68886611D01*
X80131041Y-68889275D01*
X80119024Y-68853811D01*
X80129868Y-68818347D01*
X80169436Y-68815709D01*
X80216037Y-68807210D01*
X80238019Y-68798417D01*
X80245346Y-68747712D01*
X80246212Y-68688856D01*
X80246226Y-68679715D01*
X80246226Y-68353797D01*
X80250036Y-68356142D01*
X80249743Y-68358193D01*
X80188697Y-68356160D01*
X80130162Y-68354090D01*
X80069694Y-68352197D01*
X80009742Y-68351463D01*
X80001787Y-68351452D01*
X79942431Y-68351591D01*
X79882856Y-68352139D01*
X79834139Y-68353211D01*
X79775228Y-68355574D01*
X79764970Y-68356435D01*
X79748556Y-68358487D01*
X79747970Y-68353797D01*
X79750901Y-68353797D01*
X79750901Y-68679715D01*
X79750901Y-68689973D01*
X79750901Y-68699938D01*
X79751780Y-68757091D01*
X79757056Y-68797831D01*
X79779331Y-68807210D01*
X79826519Y-68815709D01*
X79867259Y-68818347D01*
X79877517Y-68853811D01*
X79866379Y-68889275D01*
X79807409Y-68885689D01*
X79765263Y-68883413D01*
X79703858Y-68881087D01*
X79670887Y-68880775D01*
X79611834Y-68881806D01*
X79575633Y-68883413D01*
X79515790Y-68886611D01*
X79472464Y-68889275D01*
X79460448Y-68853811D01*
X79471292Y-68818347D01*
X79511739Y-68815709D01*
X79559219Y-68807210D01*
X79581201Y-68798417D01*
X79588529Y-68747712D01*
X79589394Y-68688856D01*
X79589408Y-68679715D01*
X79589408Y-67989191D01*
X79588735Y-67928604D01*
X79588529Y-67920608D01*
X79581201Y-67869024D01*
X79559219Y-67860231D01*
X79512032Y-67853490D01*
X79471292Y-67850852D01*
X79460448Y-67815095D01*
X79472171Y-67779924D01*
X79531646Y-67782181D01*
X79575339Y-67784321D01*
X79635606Y-67786336D01*
X79670887Y-67786665D01*
G37*
G36*
X81006585Y-68151337D02*
G01*
X81064654Y-68169472D01*
X81070985Y-68172667D01*
X81120362Y-68205907D01*
X81149533Y-68237147D01*
X81180044Y-68287540D01*
X81189980Y-68313937D01*
X81201232Y-68372152D01*
X81201411Y-68379003D01*
X81192059Y-68438176D01*
X81191446Y-68439673D01*
X81152464Y-68465758D01*
X81092381Y-68468103D01*
X81031770Y-68469545D01*
X80990678Y-68470741D01*
X80930449Y-68472609D01*
X80878131Y-68474258D01*
X80818136Y-68475791D01*
X80783755Y-68476602D01*
X80745067Y-68474844D01*
X80749793Y-68537013D01*
X80764349Y-68597724D01*
X80781704Y-68638389D01*
X80814913Y-68688070D01*
X80859440Y-68728590D01*
X80877545Y-68739799D01*
X80931769Y-68762439D01*
X80989808Y-68772400D01*
X81007091Y-68772918D01*
X81065358Y-68765044D01*
X81085933Y-68757677D01*
X81137849Y-68728125D01*
X81145723Y-68721920D01*
X81182360Y-68687042D01*
X81200824Y-68695835D01*
X81209617Y-68718403D01*
X81198187Y-68753574D01*
X81161246Y-68799296D01*
X81149533Y-68811606D01*
X81101883Y-68850761D01*
X81066589Y-68871397D01*
X81008559Y-68891750D01*
X80949938Y-68897482D01*
X80890719Y-68892931D01*
X80830536Y-68877412D01*
X80775549Y-68850880D01*
X80727072Y-68814796D01*
X80686423Y-68771023D01*
X80656261Y-68724558D01*
X80631731Y-68667735D01*
X80617384Y-68606479D01*
X80613176Y-68546944D01*
X80617380Y-68485423D01*
X80629992Y-68427033D01*
X80640081Y-68398347D01*
X80746826Y-68398347D01*
X81013832Y-68398347D01*
X81033762Y-68392192D01*
X81043141Y-68368159D01*
X81032004Y-68315109D01*
X81001373Y-68262600D01*
X80991557Y-68251801D01*
X80937340Y-68225011D01*
X80917991Y-68223665D01*
X80859392Y-68236825D01*
X80837977Y-68251508D01*
X80799137Y-68295806D01*
X80787566Y-68315695D01*
X80762397Y-68368755D01*
X80757963Y-68379296D01*
X80746826Y-68398347D01*
X80640081Y-68398347D01*
X80643071Y-68389847D01*
X80670695Y-68333647D01*
X80704511Y-68283638D01*
X80722206Y-68262646D01*
X80766942Y-68219633D01*
X80815492Y-68185485D01*
X80830064Y-68177356D01*
X80884649Y-68155057D01*
X80944956Y-68146288D01*
X81006585Y-68151337D01*
G37*
G36*
X81579499Y-68147754D02*
G01*
X81640112Y-68151356D01*
X81662443Y-68155374D01*
X81720450Y-68165852D01*
X81755060Y-68170615D01*
X81766252Y-68230968D01*
X81770301Y-68264697D01*
X81775270Y-68324689D01*
X81777042Y-68358487D01*
X81750957Y-68376658D01*
X81733958Y-68374607D01*
X81714028Y-68364348D01*
X81692095Y-68308691D01*
X81686477Y-68298110D01*
X81651635Y-68250125D01*
X81642220Y-68241250D01*
X81586472Y-68218704D01*
X81584481Y-68218682D01*
X81525174Y-68230168D01*
X81503881Y-68245353D01*
X81478719Y-68299751D01*
X81478089Y-68311885D01*
X81493254Y-68370212D01*
X81496554Y-68374900D01*
X81541384Y-68414128D01*
X81547259Y-68417691D01*
X81597982Y-68447476D01*
X81616135Y-68458138D01*
X81668019Y-68489519D01*
X81697614Y-68507670D01*
X81746346Y-68543617D01*
X81775284Y-68572736D01*
X81804249Y-68627119D01*
X81808989Y-68666233D01*
X81800875Y-68727181D01*
X81776532Y-68781431D01*
X81772060Y-68788159D01*
X81732754Y-68833144D01*
X81683531Y-68868083D01*
X81676219Y-68871983D01*
X81618461Y-68893862D01*
X81556194Y-68902345D01*
X81547552Y-68902464D01*
X81487500Y-68898940D01*
X81448487Y-68891327D01*
X81390578Y-68877657D01*
X81349129Y-68869345D01*
X81333302Y-68812778D01*
X81323300Y-68754723D01*
X81322164Y-68746247D01*
X81318061Y-68686749D01*
X81357628Y-68672094D01*
X81379024Y-68678542D01*
X81404197Y-68733876D01*
X81414195Y-68749177D01*
X81454615Y-68792988D01*
X81473399Y-68806916D01*
X81529288Y-68828624D01*
X81549310Y-68830071D01*
X81608242Y-68815838D01*
X81626686Y-68802520D01*
X81655027Y-68749473D01*
X81657461Y-68721627D01*
X81642774Y-68663722D01*
X81629031Y-68646009D01*
X81582447Y-68608203D01*
X81556051Y-68592667D01*
X81504305Y-68564702D01*
X81462262Y-68541669D01*
X81412217Y-68506640D01*
X81372869Y-68469275D01*
X81341996Y-68416219D01*
X81333302Y-68357314D01*
X81342314Y-68297524D01*
X81369352Y-68245939D01*
X81413198Y-68201778D01*
X81461090Y-68173253D01*
X81518682Y-68154129D01*
X81579499Y-68147754D01*
G37*
G36*
X82369380Y-68146288D02*
G01*
X82432221Y-68151770D01*
X82489907Y-68172022D01*
X82509478Y-68185270D01*
X82547585Y-68230702D01*
X82570602Y-68289141D01*
X82573958Y-68303678D01*
X82583302Y-68363099D01*
X82588431Y-68425473D01*
X82590307Y-68488412D01*
X82590371Y-68503274D01*
X82590371Y-68684697D01*
X82591044Y-68745060D01*
X82591250Y-68752988D01*
X82597991Y-68802520D01*
X82618215Y-68812778D01*
X82660127Y-68820985D01*
X82698228Y-68823330D01*
X82708780Y-68856449D01*
X82697056Y-68889275D01*
X82637899Y-68885512D01*
X82603853Y-68883413D01*
X82543512Y-68880984D01*
X82517098Y-68880775D01*
X82457177Y-68882022D01*
X82432688Y-68883413D01*
X82373069Y-68887191D01*
X82340657Y-68889275D01*
X82328640Y-68856449D01*
X82339485Y-68823330D01*
X82376414Y-68820985D01*
X82418033Y-68812778D01*
X82437377Y-68803399D01*
X82444704Y-68752695D01*
X82445570Y-68693838D01*
X82445584Y-68684697D01*
X82445584Y-68520273D01*
X82444324Y-68461357D01*
X82439488Y-68402446D01*
X82432688Y-68363176D01*
X82410347Y-68308272D01*
X82386965Y-68284041D01*
X82328933Y-68262884D01*
X82293762Y-68260594D01*
X82235339Y-68277080D01*
X82231041Y-68279352D01*
X82181226Y-68310518D01*
X82171543Y-68318040D01*
X82146924Y-68342073D01*
X82146924Y-68684697D01*
X82147372Y-68744836D01*
X82147510Y-68752695D01*
X82154544Y-68802520D01*
X82174767Y-68812778D01*
X82216679Y-68820985D01*
X82254781Y-68823330D01*
X82265332Y-68856449D01*
X82253609Y-68889275D01*
X82194452Y-68885512D01*
X82160406Y-68883413D01*
X82100065Y-68880984D01*
X82073651Y-68880775D01*
X82013465Y-68882022D01*
X81988947Y-68883413D01*
X81929328Y-68887191D01*
X81896917Y-68889275D01*
X81885193Y-68856449D01*
X81895744Y-68823330D01*
X81932967Y-68820985D01*
X81974293Y-68812778D01*
X81993930Y-68803399D01*
X82001257Y-68752695D01*
X82002123Y-68693838D01*
X82002136Y-68684697D01*
X82002136Y-67959003D01*
X82001257Y-67916505D01*
X81994223Y-67876937D01*
X81962862Y-67858766D01*
X81903951Y-67854076D01*
X81891934Y-67825060D01*
X81903658Y-67791941D01*
X81964987Y-67782562D01*
X82024118Y-67767907D01*
X82080978Y-67748710D01*
X82135493Y-67726288D01*
X82157475Y-67738891D01*
X82165388Y-67763511D01*
X82156009Y-67800734D01*
X82148201Y-67858917D01*
X82146924Y-67905367D01*
X82146924Y-68276421D01*
X82142527Y-68270559D01*
X82140476Y-68269973D01*
X82184680Y-68230730D01*
X82196163Y-68221906D01*
X82247614Y-68187926D01*
X82281453Y-68169736D01*
X82337781Y-68149586D01*
X82369380Y-68146288D01*
G37*
G36*
X83164313Y-68161992D02*
G01*
X83197656Y-68181459D01*
X83240748Y-68223798D01*
X83266826Y-68265577D01*
X83286610Y-68321264D01*
X83293178Y-68379859D01*
X83293204Y-68383986D01*
X83293204Y-68721627D01*
X83303169Y-68770573D01*
X83334237Y-68789624D01*
X83367356Y-68780245D01*
X83386407Y-68767935D01*
X83401062Y-68777021D01*
X83404286Y-68790503D01*
X83393441Y-68828605D01*
X83358857Y-68854104D01*
X83309910Y-68881655D01*
X83263895Y-68893965D01*
X83207416Y-68870888D01*
X83193846Y-68856156D01*
X83164445Y-68803399D01*
X83161313Y-68787572D01*
X83139038Y-68809847D01*
X83089895Y-68843411D01*
X83081885Y-68848242D01*
X83029495Y-68876774D01*
X83017405Y-68882534D01*
X82961425Y-68897482D01*
X82901785Y-68889403D01*
X82845455Y-68862419D01*
X82818689Y-68840036D01*
X82783147Y-68793407D01*
X82763155Y-68734892D01*
X82760364Y-68699938D01*
X82763091Y-68684697D01*
X82915409Y-68684697D01*
X82931731Y-68741520D01*
X82944425Y-68757970D01*
X82996138Y-68787646D01*
X83016819Y-68789624D01*
X83075730Y-68776728D01*
X83129073Y-68749471D01*
X83150175Y-68731885D01*
X83150175Y-68521152D01*
X83093595Y-68538944D01*
X83081885Y-68542548D01*
X83025119Y-68560704D01*
X83010078Y-68565995D01*
X82958242Y-68596014D01*
X82942081Y-68611718D01*
X82916686Y-68666379D01*
X82915409Y-68684697D01*
X82763091Y-68684697D01*
X82770800Y-68641619D01*
X82789966Y-68607907D01*
X82832368Y-68566677D01*
X82848877Y-68558375D01*
X82905539Y-68538746D01*
X82954097Y-68522325D01*
X83009931Y-68503200D01*
X83061955Y-68484516D01*
X83118526Y-68463006D01*
X83135814Y-68455793D01*
X83147831Y-68447586D01*
X83150175Y-68422674D01*
X83150175Y-68379003D01*
X83137656Y-68320850D01*
X83132590Y-68310127D01*
X83096170Y-68262142D01*
X83085402Y-68253267D01*
X83029946Y-68230964D01*
X83018577Y-68230406D01*
X82964045Y-68253236D01*
X82962890Y-68254732D01*
X82939606Y-68311355D01*
X82936805Y-68325367D01*
X82914759Y-68381348D01*
X82863055Y-68411069D01*
X82850343Y-68411829D01*
X82801983Y-68386916D01*
X82785570Y-68333574D01*
X82789087Y-68311885D01*
X82799638Y-68287265D01*
X82846021Y-68249547D01*
X82873790Y-68230113D01*
X82924861Y-68199924D01*
X82978730Y-68175349D01*
X82982527Y-68173839D01*
X83039616Y-68156378D01*
X83100368Y-68149536D01*
X83104160Y-68149512D01*
X83164313Y-68161992D01*
G37*
G36*
X83938005Y-68146288D02*
G01*
X84000011Y-68152572D01*
X84057549Y-68175140D01*
X84063741Y-68179115D01*
X84106731Y-68222347D01*
X84129687Y-68274369D01*
X84174891Y-68236811D01*
X84222299Y-68202177D01*
X84238424Y-68191131D01*
X84291517Y-68162097D01*
X84350976Y-68146989D01*
X84366505Y-68146288D01*
X84429483Y-68151770D01*
X84487121Y-68172022D01*
X84506603Y-68185270D01*
X84544710Y-68230702D01*
X84567727Y-68289141D01*
X84571083Y-68303678D01*
X84580427Y-68363099D01*
X84585556Y-68425473D01*
X84587432Y-68488412D01*
X84587496Y-68503274D01*
X84587496Y-68684697D01*
X84588169Y-68744836D01*
X84588375Y-68752695D01*
X84595409Y-68802520D01*
X84615339Y-68812778D01*
X84656665Y-68820985D01*
X84693888Y-68823330D01*
X84704439Y-68856449D01*
X84692716Y-68889275D01*
X84633869Y-68885512D01*
X84600392Y-68883413D01*
X84540709Y-68880984D01*
X84514223Y-68880775D01*
X84453886Y-68882022D01*
X84428933Y-68883413D01*
X84368521Y-68887191D01*
X84336023Y-68889275D01*
X84324300Y-68856449D01*
X84334851Y-68823330D01*
X84372953Y-68820985D01*
X84415158Y-68812778D01*
X84434795Y-68803399D01*
X84440364Y-68762073D01*
X84441243Y-68704921D01*
X84441243Y-68694956D01*
X84441243Y-68684697D01*
X84441243Y-68508256D01*
X84439502Y-68446597D01*
X84433165Y-68386152D01*
X84430692Y-68371969D01*
X84411446Y-68315901D01*
X84390538Y-68288731D01*
X84337170Y-68263919D01*
X84297628Y-68260594D01*
X84239704Y-68272937D01*
X84224062Y-68280817D01*
X84174310Y-68315362D01*
X84167203Y-68321850D01*
X84145807Y-68345297D01*
X84146393Y-68354090D01*
X84147272Y-68364935D01*
X84152255Y-68423846D01*
X84154014Y-68483050D01*
X84154014Y-68684697D01*
X84154687Y-68744836D01*
X84154893Y-68752695D01*
X84161927Y-68802520D01*
X84182150Y-68812778D01*
X84223183Y-68820985D01*
X84260406Y-68823330D01*
X84270957Y-68856449D01*
X84259233Y-68889275D01*
X84200386Y-68885512D01*
X84166910Y-68883413D01*
X84107379Y-68880984D01*
X84081034Y-68880775D01*
X84020433Y-68882022D01*
X83995451Y-68883413D01*
X83934900Y-68887191D01*
X83902248Y-68889275D01*
X83890817Y-68856449D01*
X83901369Y-68823330D01*
X83939471Y-68820985D01*
X83981676Y-68812778D01*
X84001313Y-68803399D01*
X84008640Y-68752695D01*
X84009506Y-68693838D01*
X84009519Y-68684697D01*
X84009519Y-68516756D01*
X84008033Y-68456818D01*
X84001753Y-68392778D01*
X83987402Y-68334406D01*
X83978452Y-68315109D01*
X83934488Y-68274223D01*
X83874381Y-68260807D01*
X83864146Y-68260594D01*
X83806410Y-68273322D01*
X83795856Y-68278473D01*
X83746745Y-68310594D01*
X83741341Y-68315402D01*
X83720824Y-68342073D01*
X83720824Y-68684697D01*
X83721273Y-68744836D01*
X83721411Y-68752695D01*
X83728445Y-68802520D01*
X83748668Y-68812778D01*
X83789701Y-68820985D01*
X83826924Y-68823330D01*
X83837475Y-68856449D01*
X83825751Y-68889275D01*
X83766904Y-68885512D01*
X83733427Y-68883413D01*
X83673896Y-68880984D01*
X83647552Y-68880775D01*
X83587089Y-68882022D01*
X83562262Y-68883413D01*
X83501850Y-68887191D01*
X83469352Y-68889275D01*
X83457335Y-68856449D01*
X83468180Y-68823330D01*
X83505988Y-68820985D01*
X83548194Y-68812778D01*
X83567831Y-68803399D01*
X83575158Y-68752695D01*
X83576024Y-68693838D01*
X83576037Y-68684697D01*
X83576037Y-68385744D01*
X83575158Y-68339729D01*
X83568124Y-68296937D01*
X83543797Y-68281110D01*
X83500420Y-68274956D01*
X83465542Y-68274076D01*
X83458215Y-68244767D01*
X83465835Y-68212234D01*
X83527294Y-68202462D01*
X83585275Y-68189084D01*
X83592744Y-68187028D01*
X83649896Y-68167611D01*
X83702360Y-68142771D01*
X83724635Y-68156254D01*
X83732548Y-68179115D01*
X83729910Y-68203441D01*
X83724635Y-68240371D01*
X83722290Y-68264697D01*
X83716428Y-68262060D01*
X83714963Y-68261180D01*
X83761189Y-68222808D01*
X83769478Y-68216337D01*
X83818777Y-68183477D01*
X83848026Y-68167977D01*
X83903920Y-68149338D01*
X83938005Y-68146288D01*
G37*
G36*
X85467063Y-67786665D02*
G01*
X85526712Y-67785749D01*
X85561732Y-67784321D01*
X85622823Y-67781367D01*
X85662555Y-67779924D01*
X85673693Y-67815388D01*
X85663434Y-67850852D01*
X85622402Y-67853490D01*
X85575507Y-67860231D01*
X85553525Y-67869317D01*
X85547956Y-67911229D01*
X85547077Y-67968968D01*
X85547077Y-67979226D01*
X85547077Y-67989191D01*
X85547077Y-68276421D01*
X85542095Y-68273490D01*
X85543560Y-68270559D01*
X85603204Y-68272318D01*
X85665486Y-68274076D01*
X85726271Y-68275128D01*
X85785095Y-68275529D01*
X85797963Y-68275542D01*
X85859073Y-68275175D01*
X85920356Y-68274166D01*
X85924579Y-68274076D01*
X85984720Y-68272428D01*
X86044160Y-68270559D01*
X86046212Y-68272904D01*
X86042402Y-68274956D01*
X86042402Y-67989191D01*
X86041728Y-67928604D01*
X86041522Y-67920608D01*
X86034195Y-67869024D01*
X86012213Y-67860231D01*
X85965905Y-67853490D01*
X85926044Y-67850852D01*
X85915200Y-67815095D01*
X85926924Y-67779924D01*
X85986120Y-67782181D01*
X86029212Y-67784321D01*
X86088724Y-67786336D01*
X86123881Y-67786665D01*
X86183667Y-67785749D01*
X86218550Y-67784321D01*
X86279641Y-67781367D01*
X86319373Y-67779924D01*
X86330804Y-67815095D01*
X86320252Y-67850852D01*
X86280392Y-67853490D01*
X86234083Y-67860231D01*
X86211808Y-67869610D01*
X86204774Y-67920608D01*
X86203909Y-67980041D01*
X86203895Y-67989191D01*
X86203895Y-68679715D01*
X86204568Y-68739853D01*
X86204774Y-68747712D01*
X86211808Y-68797538D01*
X86234083Y-68807210D01*
X86280392Y-68815709D01*
X86320252Y-68818347D01*
X86330804Y-68853811D01*
X86319080Y-68889275D01*
X86260440Y-68885689D01*
X86218550Y-68883413D01*
X86157018Y-68881087D01*
X86123881Y-68880775D01*
X86065171Y-68881806D01*
X86029506Y-68883413D01*
X85970398Y-68886611D01*
X85927217Y-68889275D01*
X85915200Y-68853811D01*
X85926044Y-68818347D01*
X85965612Y-68815709D01*
X86012213Y-68807210D01*
X86034195Y-68798417D01*
X86041522Y-68747712D01*
X86042388Y-68688856D01*
X86042402Y-68679715D01*
X86042402Y-68353797D01*
X86046212Y-68356142D01*
X86045919Y-68358193D01*
X85984873Y-68356160D01*
X85926337Y-68354090D01*
X85865870Y-68352197D01*
X85805918Y-68351463D01*
X85797963Y-68351452D01*
X85738607Y-68351591D01*
X85679032Y-68352139D01*
X85630315Y-68353211D01*
X85571404Y-68355574D01*
X85561145Y-68356435D01*
X85544732Y-68358487D01*
X85544146Y-68353797D01*
X85547077Y-68353797D01*
X85547077Y-68679715D01*
X85547077Y-68689973D01*
X85547077Y-68699938D01*
X85547956Y-68757091D01*
X85553232Y-68797831D01*
X85575507Y-68807210D01*
X85622695Y-68815709D01*
X85663434Y-68818347D01*
X85673693Y-68853811D01*
X85662555Y-68889275D01*
X85603585Y-68885689D01*
X85561439Y-68883413D01*
X85500034Y-68881087D01*
X85467063Y-68880775D01*
X85408010Y-68881806D01*
X85371808Y-68883413D01*
X85311966Y-68886611D01*
X85268640Y-68889275D01*
X85256623Y-68853811D01*
X85267468Y-68818347D01*
X85307914Y-68815709D01*
X85355395Y-68807210D01*
X85377377Y-68798417D01*
X85384704Y-68747712D01*
X85385570Y-68688856D01*
X85385584Y-68679715D01*
X85385584Y-67989191D01*
X85384911Y-67928604D01*
X85384704Y-67920608D01*
X85377377Y-67869024D01*
X85355395Y-67860231D01*
X85308208Y-67853490D01*
X85267468Y-67850852D01*
X85256623Y-67815095D01*
X85268347Y-67779924D01*
X85327822Y-67782181D01*
X85371515Y-67784321D01*
X85431782Y-67786336D01*
X85467063Y-67786665D01*
G37*
G36*
X86579931Y-68521739D02*
G01*
X86638102Y-68508935D01*
X86640894Y-68510894D01*
X86788905Y-68613183D01*
X86804072Y-68671467D01*
X86797405Y-68691732D01*
X86731459Y-68847949D01*
X86678923Y-68875372D01*
X86653497Y-68859966D01*
X86527468Y-68764418D01*
X86501301Y-68711543D01*
X86504607Y-68701110D01*
X86579931Y-68521739D01*
G37*
G36*
X87837880Y-67773183D02*
G01*
X87896841Y-67775587D01*
X87925514Y-67779338D01*
X87983441Y-67791766D01*
X87997028Y-67795458D01*
X88054701Y-67810683D01*
X88092869Y-67820371D01*
X88101805Y-67881527D01*
X88108609Y-67941898D01*
X88110162Y-67959003D01*
X88114998Y-68018501D01*
X88117782Y-68060413D01*
X88102541Y-68082101D01*
X88074697Y-68087670D01*
X88047440Y-68075946D01*
X88032928Y-68019106D01*
X88027217Y-68004725D01*
X87999233Y-67952524D01*
X87982667Y-67929987D01*
X87940556Y-67888357D01*
X87914670Y-67870782D01*
X87858830Y-67850106D01*
X87826156Y-67847335D01*
X87765815Y-67854945D01*
X87725626Y-67874300D01*
X87685212Y-67917345D01*
X87673162Y-67941124D01*
X87658324Y-68000091D01*
X87657335Y-68019380D01*
X87666600Y-68079920D01*
X87690162Y-68123720D01*
X87733449Y-68167852D01*
X87775451Y-68198459D01*
X87827988Y-68232164D01*
X87877906Y-68264828D01*
X87881257Y-68267042D01*
X87932284Y-68298834D01*
X87970650Y-68322729D01*
X88022057Y-68356955D01*
X88065905Y-68390727D01*
X88110392Y-68434061D01*
X88141815Y-68478068D01*
X88164913Y-68534501D01*
X88171418Y-68590615D01*
X88165357Y-68651323D01*
X88144921Y-68711705D01*
X88120127Y-68752988D01*
X88081602Y-68797475D01*
X88036151Y-68834620D01*
X87988822Y-68862018D01*
X87932704Y-68884044D01*
X87874369Y-68896928D01*
X87819415Y-68900706D01*
X87757673Y-68898109D01*
X87697745Y-68890319D01*
X87658801Y-68882241D01*
X87598150Y-68867968D01*
X87536729Y-68854760D01*
X87515772Y-68850587D01*
X87504474Y-68791959D01*
X87496428Y-68740092D01*
X87489112Y-68681709D01*
X87484704Y-68642199D01*
X87480601Y-68585339D01*
X87505221Y-68566288D01*
X87531892Y-68559547D01*
X87559443Y-68581822D01*
X87577430Y-68637751D01*
X87580252Y-68645130D01*
X87606952Y-68698841D01*
X87625974Y-68727782D01*
X87667919Y-68773185D01*
X87703644Y-68798417D01*
X87761021Y-68820371D01*
X87822639Y-68826554D01*
X87884845Y-68816961D01*
X87939646Y-68788182D01*
X87953944Y-68776435D01*
X87990189Y-68728655D01*
X88007245Y-68672443D01*
X88009924Y-68634286D01*
X88002524Y-68575960D01*
X87980322Y-68532290D01*
X87936015Y-68489814D01*
X87902067Y-68467517D01*
X87851142Y-68438427D01*
X87799807Y-68409426D01*
X87796261Y-68407433D01*
X87744574Y-68375932D01*
X87691436Y-68341915D01*
X87666421Y-68325367D01*
X87619105Y-68289083D01*
X87574172Y-68244288D01*
X87552702Y-68217803D01*
X87522339Y-68163258D01*
X87508051Y-68106126D01*
X87505807Y-68069792D01*
X87511452Y-68010500D01*
X87530487Y-67952138D01*
X87553581Y-67912695D01*
X87593368Y-67866862D01*
X87641069Y-67829603D01*
X87677265Y-67809526D01*
X87735572Y-67787380D01*
X87796187Y-67775454D01*
X87837880Y-67773183D01*
G37*
G36*
X88425235Y-68521739D02*
G01*
X88483405Y-68508935D01*
X88486198Y-68510894D01*
X88634209Y-68613183D01*
X88649375Y-68671467D01*
X88642709Y-68691732D01*
X88576763Y-68847949D01*
X88524226Y-68875372D01*
X88498801Y-68859966D01*
X88372771Y-68764418D01*
X88346604Y-68711543D01*
X88349910Y-68701110D01*
X88425235Y-68521739D01*
G37*
D11*
X90457580Y-59221666D02*
X90505200Y-59269285D01*
X90505200Y-59269285D02*
X90552819Y-59412142D01*
X90552819Y-59412142D02*
X90552819Y-59507380D01*
X90552819Y-59507380D02*
X90505200Y-59650237D01*
X90505200Y-59650237D02*
X90409961Y-59745475D01*
X90409961Y-59745475D02*
X90314723Y-59793094D01*
X90314723Y-59793094D02*
X90124247Y-59840713D01*
X90124247Y-59840713D02*
X89981390Y-59840713D01*
X89981390Y-59840713D02*
X89790914Y-59793094D01*
X89790914Y-59793094D02*
X89695676Y-59745475D01*
X89695676Y-59745475D02*
X89600438Y-59650237D01*
X89600438Y-59650237D02*
X89552819Y-59507380D01*
X89552819Y-59507380D02*
X89552819Y-59412142D01*
X89552819Y-59412142D02*
X89600438Y-59269285D01*
X89600438Y-59269285D02*
X89648057Y-59221666D01*
X89648057Y-58840713D02*
X89600438Y-58793094D01*
X89600438Y-58793094D02*
X89552819Y-58697856D01*
X89552819Y-58697856D02*
X89552819Y-58459761D01*
X89552819Y-58459761D02*
X89600438Y-58364523D01*
X89600438Y-58364523D02*
X89648057Y-58316904D01*
X89648057Y-58316904D02*
X89743295Y-58269285D01*
X89743295Y-58269285D02*
X89838533Y-58269285D01*
X89838533Y-58269285D02*
X89981390Y-58316904D01*
X89981390Y-58316904D02*
X90552819Y-58888332D01*
X90552819Y-58888332D02*
X90552819Y-58269285D01*
X78406666Y-45428819D02*
X78406666Y-46143104D01*
X78406666Y-46143104D02*
X78359047Y-46285961D01*
X78359047Y-46285961D02*
X78263809Y-46381200D01*
X78263809Y-46381200D02*
X78120952Y-46428819D01*
X78120952Y-46428819D02*
X78025714Y-46428819D01*
X79406666Y-46428819D02*
X78835238Y-46428819D01*
X79120952Y-46428819D02*
X79120952Y-45428819D01*
X79120952Y-45428819D02*
X79025714Y-45571676D01*
X79025714Y-45571676D02*
X78930476Y-45666914D01*
X78930476Y-45666914D02*
X78835238Y-45714533D01*
D10*
X118284285Y-54882371D02*
X118084285Y-54596657D01*
X117941428Y-54882371D02*
X117941428Y-54282371D01*
X117941428Y-54282371D02*
X118169999Y-54282371D01*
X118169999Y-54282371D02*
X118227142Y-54310942D01*
X118227142Y-54310942D02*
X118255713Y-54339514D01*
X118255713Y-54339514D02*
X118284285Y-54396657D01*
X118284285Y-54396657D02*
X118284285Y-54482371D01*
X118284285Y-54482371D02*
X118255713Y-54539514D01*
X118255713Y-54539514D02*
X118227142Y-54568085D01*
X118227142Y-54568085D02*
X118169999Y-54596657D01*
X118169999Y-54596657D02*
X117941428Y-54596657D01*
X118855713Y-54882371D02*
X118512856Y-54882371D01*
X118684285Y-54882371D02*
X118684285Y-54282371D01*
X118684285Y-54282371D02*
X118627142Y-54368085D01*
X118627142Y-54368085D02*
X118569999Y-54425228D01*
X118569999Y-54425228D02*
X118512856Y-54453800D01*
X119370000Y-54282371D02*
X119255714Y-54282371D01*
X119255714Y-54282371D02*
X119198571Y-54310942D01*
X119198571Y-54310942D02*
X119170000Y-54339514D01*
X119170000Y-54339514D02*
X119112857Y-54425228D01*
X119112857Y-54425228D02*
X119084285Y-54539514D01*
X119084285Y-54539514D02*
X119084285Y-54768085D01*
X119084285Y-54768085D02*
X119112857Y-54825228D01*
X119112857Y-54825228D02*
X119141428Y-54853800D01*
X119141428Y-54853800D02*
X119198571Y-54882371D01*
X119198571Y-54882371D02*
X119312857Y-54882371D01*
X119312857Y-54882371D02*
X119370000Y-54853800D01*
X119370000Y-54853800D02*
X119398571Y-54825228D01*
X119398571Y-54825228D02*
X119427142Y-54768085D01*
X119427142Y-54768085D02*
X119427142Y-54625228D01*
X119427142Y-54625228D02*
X119398571Y-54568085D01*
X119398571Y-54568085D02*
X119370000Y-54539514D01*
X119370000Y-54539514D02*
X119312857Y-54510942D01*
X119312857Y-54510942D02*
X119198571Y-54510942D01*
X119198571Y-54510942D02*
X119141428Y-54539514D01*
X119141428Y-54539514D02*
X119112857Y-54568085D01*
X119112857Y-54568085D02*
X119084285Y-54625228D01*
X113152285Y-62502371D02*
X112952285Y-62216657D01*
X112809428Y-62502371D02*
X112809428Y-61902371D01*
X112809428Y-61902371D02*
X113037999Y-61902371D01*
X113037999Y-61902371D02*
X113095142Y-61930942D01*
X113095142Y-61930942D02*
X113123713Y-61959514D01*
X113123713Y-61959514D02*
X113152285Y-62016657D01*
X113152285Y-62016657D02*
X113152285Y-62102371D01*
X113152285Y-62102371D02*
X113123713Y-62159514D01*
X113123713Y-62159514D02*
X113095142Y-62188085D01*
X113095142Y-62188085D02*
X113037999Y-62216657D01*
X113037999Y-62216657D02*
X112809428Y-62216657D01*
X113723713Y-62502371D02*
X113380856Y-62502371D01*
X113552285Y-62502371D02*
X113552285Y-61902371D01*
X113552285Y-61902371D02*
X113495142Y-61988085D01*
X113495142Y-61988085D02*
X113437999Y-62045228D01*
X113437999Y-62045228D02*
X113380856Y-62073800D01*
X114266571Y-61902371D02*
X113980857Y-61902371D01*
X113980857Y-61902371D02*
X113952285Y-62188085D01*
X113952285Y-62188085D02*
X113980857Y-62159514D01*
X113980857Y-62159514D02*
X114038000Y-62130942D01*
X114038000Y-62130942D02*
X114180857Y-62130942D01*
X114180857Y-62130942D02*
X114238000Y-62159514D01*
X114238000Y-62159514D02*
X114266571Y-62188085D01*
X114266571Y-62188085D02*
X114295142Y-62245228D01*
X114295142Y-62245228D02*
X114295142Y-62388085D01*
X114295142Y-62388085D02*
X114266571Y-62445228D01*
X114266571Y-62445228D02*
X114238000Y-62473800D01*
X114238000Y-62473800D02*
X114180857Y-62502371D01*
X114180857Y-62502371D02*
X114038000Y-62502371D01*
X114038000Y-62502371D02*
X113980857Y-62473800D01*
X113980857Y-62473800D02*
X113952285Y-62445228D01*
X113178285Y-58692371D02*
X112978285Y-58406657D01*
X112835428Y-58692371D02*
X112835428Y-58092371D01*
X112835428Y-58092371D02*
X113063999Y-58092371D01*
X113063999Y-58092371D02*
X113121142Y-58120942D01*
X113121142Y-58120942D02*
X113149713Y-58149514D01*
X113149713Y-58149514D02*
X113178285Y-58206657D01*
X113178285Y-58206657D02*
X113178285Y-58292371D01*
X113178285Y-58292371D02*
X113149713Y-58349514D01*
X113149713Y-58349514D02*
X113121142Y-58378085D01*
X113121142Y-58378085D02*
X113063999Y-58406657D01*
X113063999Y-58406657D02*
X112835428Y-58406657D01*
X113749713Y-58692371D02*
X113406856Y-58692371D01*
X113578285Y-58692371D02*
X113578285Y-58092371D01*
X113578285Y-58092371D02*
X113521142Y-58178085D01*
X113521142Y-58178085D02*
X113463999Y-58235228D01*
X113463999Y-58235228D02*
X113406856Y-58263800D01*
X114264000Y-58292371D02*
X114264000Y-58692371D01*
X114121142Y-58063800D02*
X113978285Y-58492371D01*
X113978285Y-58492371D02*
X114349714Y-58492371D01*
X113152285Y-54882371D02*
X112952285Y-54596657D01*
X112809428Y-54882371D02*
X112809428Y-54282371D01*
X112809428Y-54282371D02*
X113037999Y-54282371D01*
X113037999Y-54282371D02*
X113095142Y-54310942D01*
X113095142Y-54310942D02*
X113123713Y-54339514D01*
X113123713Y-54339514D02*
X113152285Y-54396657D01*
X113152285Y-54396657D02*
X113152285Y-54482371D01*
X113152285Y-54482371D02*
X113123713Y-54539514D01*
X113123713Y-54539514D02*
X113095142Y-54568085D01*
X113095142Y-54568085D02*
X113037999Y-54596657D01*
X113037999Y-54596657D02*
X112809428Y-54596657D01*
X113723713Y-54882371D02*
X113380856Y-54882371D01*
X113552285Y-54882371D02*
X113552285Y-54282371D01*
X113552285Y-54282371D02*
X113495142Y-54368085D01*
X113495142Y-54368085D02*
X113437999Y-54425228D01*
X113437999Y-54425228D02*
X113380856Y-54453800D01*
X113923714Y-54282371D02*
X114295142Y-54282371D01*
X114295142Y-54282371D02*
X114095142Y-54510942D01*
X114095142Y-54510942D02*
X114180857Y-54510942D01*
X114180857Y-54510942D02*
X114238000Y-54539514D01*
X114238000Y-54539514D02*
X114266571Y-54568085D01*
X114266571Y-54568085D02*
X114295142Y-54625228D01*
X114295142Y-54625228D02*
X114295142Y-54768085D01*
X114295142Y-54768085D02*
X114266571Y-54825228D01*
X114266571Y-54825228D02*
X114238000Y-54853800D01*
X114238000Y-54853800D02*
X114180857Y-54882371D01*
X114180857Y-54882371D02*
X114009428Y-54882371D01*
X114009428Y-54882371D02*
X113952285Y-54853800D01*
X113952285Y-54853800D02*
X113923714Y-54825228D01*
D11*
X98552095Y-57320819D02*
X98552095Y-58130342D01*
X98552095Y-58130342D02*
X98599714Y-58225580D01*
X98599714Y-58225580D02*
X98647333Y-58273200D01*
X98647333Y-58273200D02*
X98742571Y-58320819D01*
X98742571Y-58320819D02*
X98933047Y-58320819D01*
X98933047Y-58320819D02*
X99028285Y-58273200D01*
X99028285Y-58273200D02*
X99075904Y-58225580D01*
X99075904Y-58225580D02*
X99123523Y-58130342D01*
X99123523Y-58130342D02*
X99123523Y-57320819D01*
X99552095Y-57416057D02*
X99599714Y-57368438D01*
X99599714Y-57368438D02*
X99694952Y-57320819D01*
X99694952Y-57320819D02*
X99933047Y-57320819D01*
X99933047Y-57320819D02*
X100028285Y-57368438D01*
X100028285Y-57368438D02*
X100075904Y-57416057D01*
X100075904Y-57416057D02*
X100123523Y-57511295D01*
X100123523Y-57511295D02*
X100123523Y-57606533D01*
X100123523Y-57606533D02*
X100075904Y-57749390D01*
X100075904Y-57749390D02*
X99504476Y-58320819D01*
X99504476Y-58320819D02*
X100123523Y-58320819D01*
D10*
X118232285Y-62502371D02*
X118032285Y-62216657D01*
X117889428Y-62502371D02*
X117889428Y-61902371D01*
X117889428Y-61902371D02*
X118117999Y-61902371D01*
X118117999Y-61902371D02*
X118175142Y-61930942D01*
X118175142Y-61930942D02*
X118203713Y-61959514D01*
X118203713Y-61959514D02*
X118232285Y-62016657D01*
X118232285Y-62016657D02*
X118232285Y-62102371D01*
X118232285Y-62102371D02*
X118203713Y-62159514D01*
X118203713Y-62159514D02*
X118175142Y-62188085D01*
X118175142Y-62188085D02*
X118117999Y-62216657D01*
X118117999Y-62216657D02*
X117889428Y-62216657D01*
X118803713Y-62502371D02*
X118460856Y-62502371D01*
X118632285Y-62502371D02*
X118632285Y-61902371D01*
X118632285Y-61902371D02*
X118575142Y-61988085D01*
X118575142Y-61988085D02*
X118517999Y-62045228D01*
X118517999Y-62045228D02*
X118460856Y-62073800D01*
X119146571Y-62159514D02*
X119089428Y-62130942D01*
X119089428Y-62130942D02*
X119060857Y-62102371D01*
X119060857Y-62102371D02*
X119032285Y-62045228D01*
X119032285Y-62045228D02*
X119032285Y-62016657D01*
X119032285Y-62016657D02*
X119060857Y-61959514D01*
X119060857Y-61959514D02*
X119089428Y-61930942D01*
X119089428Y-61930942D02*
X119146571Y-61902371D01*
X119146571Y-61902371D02*
X119260857Y-61902371D01*
X119260857Y-61902371D02*
X119318000Y-61930942D01*
X119318000Y-61930942D02*
X119346571Y-61959514D01*
X119346571Y-61959514D02*
X119375142Y-62016657D01*
X119375142Y-62016657D02*
X119375142Y-62045228D01*
X119375142Y-62045228D02*
X119346571Y-62102371D01*
X119346571Y-62102371D02*
X119318000Y-62130942D01*
X119318000Y-62130942D02*
X119260857Y-62159514D01*
X119260857Y-62159514D02*
X119146571Y-62159514D01*
X119146571Y-62159514D02*
X119089428Y-62188085D01*
X119089428Y-62188085D02*
X119060857Y-62216657D01*
X119060857Y-62216657D02*
X119032285Y-62273800D01*
X119032285Y-62273800D02*
X119032285Y-62388085D01*
X119032285Y-62388085D02*
X119060857Y-62445228D01*
X119060857Y-62445228D02*
X119089428Y-62473800D01*
X119089428Y-62473800D02*
X119146571Y-62502371D01*
X119146571Y-62502371D02*
X119260857Y-62502371D01*
X119260857Y-62502371D02*
X119318000Y-62473800D01*
X119318000Y-62473800D02*
X119346571Y-62445228D01*
X119346571Y-62445228D02*
X119375142Y-62388085D01*
X119375142Y-62388085D02*
X119375142Y-62273800D01*
X119375142Y-62273800D02*
X119346571Y-62216657D01*
X119346571Y-62216657D02*
X119318000Y-62188085D01*
X119318000Y-62188085D02*
X119260857Y-62159514D01*
D11*
X83957333Y-45020033D02*
X83724000Y-44686700D01*
X83557333Y-45020033D02*
X83557333Y-44320033D01*
X83557333Y-44320033D02*
X83824000Y-44320033D01*
X83824000Y-44320033D02*
X83890667Y-44353366D01*
X83890667Y-44353366D02*
X83924000Y-44386700D01*
X83924000Y-44386700D02*
X83957333Y-44453366D01*
X83957333Y-44453366D02*
X83957333Y-44553366D01*
X83957333Y-44553366D02*
X83924000Y-44620033D01*
X83924000Y-44620033D02*
X83890667Y-44653366D01*
X83890667Y-44653366D02*
X83824000Y-44686700D01*
X83824000Y-44686700D02*
X83557333Y-44686700D01*
X84557333Y-44320033D02*
X84424000Y-44320033D01*
X84424000Y-44320033D02*
X84357333Y-44353366D01*
X84357333Y-44353366D02*
X84324000Y-44386700D01*
X84324000Y-44386700D02*
X84257333Y-44486700D01*
X84257333Y-44486700D02*
X84224000Y-44620033D01*
X84224000Y-44620033D02*
X84224000Y-44886700D01*
X84224000Y-44886700D02*
X84257333Y-44953366D01*
X84257333Y-44953366D02*
X84290667Y-44986700D01*
X84290667Y-44986700D02*
X84357333Y-45020033D01*
X84357333Y-45020033D02*
X84490667Y-45020033D01*
X84490667Y-45020033D02*
X84557333Y-44986700D01*
X84557333Y-44986700D02*
X84590667Y-44953366D01*
X84590667Y-44953366D02*
X84624000Y-44886700D01*
X84624000Y-44886700D02*
X84624000Y-44720033D01*
X84624000Y-44720033D02*
X84590667Y-44653366D01*
X84590667Y-44653366D02*
X84557333Y-44620033D01*
X84557333Y-44620033D02*
X84490667Y-44586700D01*
X84490667Y-44586700D02*
X84357333Y-44586700D01*
X84357333Y-44586700D02*
X84290667Y-44620033D01*
X84290667Y-44620033D02*
X84257333Y-44653366D01*
X84257333Y-44653366D02*
X84224000Y-44720033D01*
D10*
X118232285Y-58692371D02*
X118032285Y-58406657D01*
X117889428Y-58692371D02*
X117889428Y-58092371D01*
X117889428Y-58092371D02*
X118117999Y-58092371D01*
X118117999Y-58092371D02*
X118175142Y-58120942D01*
X118175142Y-58120942D02*
X118203713Y-58149514D01*
X118203713Y-58149514D02*
X118232285Y-58206657D01*
X118232285Y-58206657D02*
X118232285Y-58292371D01*
X118232285Y-58292371D02*
X118203713Y-58349514D01*
X118203713Y-58349514D02*
X118175142Y-58378085D01*
X118175142Y-58378085D02*
X118117999Y-58406657D01*
X118117999Y-58406657D02*
X117889428Y-58406657D01*
X118803713Y-58692371D02*
X118460856Y-58692371D01*
X118632285Y-58692371D02*
X118632285Y-58092371D01*
X118632285Y-58092371D02*
X118575142Y-58178085D01*
X118575142Y-58178085D02*
X118517999Y-58235228D01*
X118517999Y-58235228D02*
X118460856Y-58263800D01*
X119003714Y-58092371D02*
X119403714Y-58092371D01*
X119403714Y-58092371D02*
X119146571Y-58692371D01*
D11*
X88312666Y-64732819D02*
X88312666Y-65447104D01*
X88312666Y-65447104D02*
X88265047Y-65589961D01*
X88265047Y-65589961D02*
X88169809Y-65685200D01*
X88169809Y-65685200D02*
X88026952Y-65732819D01*
X88026952Y-65732819D02*
X87931714Y-65732819D01*
X88741238Y-64828057D02*
X88788857Y-64780438D01*
X88788857Y-64780438D02*
X88884095Y-64732819D01*
X88884095Y-64732819D02*
X89122190Y-64732819D01*
X89122190Y-64732819D02*
X89217428Y-64780438D01*
X89217428Y-64780438D02*
X89265047Y-64828057D01*
X89265047Y-64828057D02*
X89312666Y-64923295D01*
X89312666Y-64923295D02*
X89312666Y-65018533D01*
X89312666Y-65018533D02*
X89265047Y-65161390D01*
X89265047Y-65161390D02*
X88693619Y-65732819D01*
X88693619Y-65732819D02*
X89312666Y-65732819D01*
X88312666Y-40983819D02*
X88312666Y-41698104D01*
X88312666Y-41698104D02*
X88265047Y-41840961D01*
X88265047Y-41840961D02*
X88169809Y-41936200D01*
X88169809Y-41936200D02*
X88026952Y-41983819D01*
X88026952Y-41983819D02*
X87931714Y-41983819D01*
X88693619Y-40983819D02*
X89312666Y-40983819D01*
X89312666Y-40983819D02*
X88979333Y-41364771D01*
X88979333Y-41364771D02*
X89122190Y-41364771D01*
X89122190Y-41364771D02*
X89217428Y-41412390D01*
X89217428Y-41412390D02*
X89265047Y-41460009D01*
X89265047Y-41460009D02*
X89312666Y-41555247D01*
X89312666Y-41555247D02*
X89312666Y-41793342D01*
X89312666Y-41793342D02*
X89265047Y-41888580D01*
X89265047Y-41888580D02*
X89217428Y-41936200D01*
X89217428Y-41936200D02*
X89122190Y-41983819D01*
X89122190Y-41983819D02*
X88836476Y-41983819D01*
X88836476Y-41983819D02*
X88741238Y-41936200D01*
X88741238Y-41936200D02*
X88693619Y-41888580D01*
D16*
%TO.C,C2*%
X91038000Y-59766252D02*
X91038000Y-58343748D01*
X92858000Y-59766252D02*
X92858000Y-58343748D01*
%TO.C,J1*%
X77662000Y-47001200D02*
X84266000Y-47001200D01*
X77662000Y-53311200D02*
X77662000Y-47001200D01*
X77662000Y-53315000D02*
X77662000Y-59625000D01*
X77662000Y-59625000D02*
X84266000Y-59621200D01*
X77674000Y-49311200D02*
X77674000Y-49811200D01*
X77674000Y-49811200D02*
X83174000Y-49811200D01*
X77674000Y-51811200D02*
X77674000Y-52311200D01*
X77674000Y-52311200D02*
X83174000Y-52311200D01*
X77674000Y-54311200D02*
X77674000Y-54811200D01*
X77674000Y-54811200D02*
X83174000Y-54811200D01*
X77674000Y-56811200D02*
X77674000Y-57311200D01*
X77674000Y-57311200D02*
X83174000Y-57311200D01*
X83174000Y-49311200D02*
X77674000Y-49311200D01*
X83174000Y-49811200D02*
X83174000Y-49311200D01*
X83174000Y-51811200D02*
X77674000Y-51811200D01*
X83174000Y-52311200D02*
X83174000Y-51811200D01*
X83174000Y-54311200D02*
X77674000Y-54311200D01*
X83174000Y-54811200D02*
X83174000Y-54311200D01*
X83174000Y-56811200D02*
X77674000Y-56811200D01*
X83174000Y-57311200D02*
X83174000Y-56811200D01*
X84266000Y-47001200D02*
X84266000Y-48421200D01*
X84266000Y-59621200D02*
X84266000Y-58201200D01*
%TO.C,R16*%
X117916936Y-53688000D02*
X119371064Y-53688000D01*
X117916936Y-55508000D02*
X119371064Y-55508000D01*
%TO.C,R15*%
X112810936Y-61320000D02*
X114265064Y-61320000D01*
X112810936Y-63140000D02*
X114265064Y-63140000D01*
%TO.C,R14*%
X112836936Y-57510000D02*
X114291064Y-57510000D01*
X112836936Y-59330000D02*
X114291064Y-59330000D01*
%TO.C,R13*%
X112836936Y-53700000D02*
X114291064Y-53700000D01*
X112836936Y-55520000D02*
X114291064Y-55520000D01*
%TO.C,U2*%
X96554000Y-46606000D02*
X96554000Y-46811000D01*
X96554000Y-57026000D02*
X96554000Y-56821000D01*
X99314000Y-46606000D02*
X96554000Y-46606000D01*
X99314000Y-46606000D02*
X102074000Y-46606000D01*
X99314000Y-57026000D02*
X96554000Y-57026000D01*
X99314000Y-57026000D02*
X102074000Y-57026000D01*
X102074000Y-46606000D02*
X102074000Y-46811000D01*
X102074000Y-57026000D02*
X102074000Y-56821000D01*
X103104000Y-57151000D02*
X102624000Y-57151000D01*
X102864000Y-56821000D01*
X103104000Y-57151000D01*
G36*
X103104000Y-57151000D02*
G01*
X102624000Y-57151000D01*
X102864000Y-56821000D01*
X103104000Y-57151000D01*
G37*
%TO.C,R18*%
X117916936Y-61320000D02*
X119371064Y-61320000D01*
X117916936Y-63140000D02*
X119371064Y-63140000D01*
%TO.C,R6*%
X83346936Y-43794000D02*
X84801064Y-43794000D01*
X83346936Y-45614000D02*
X84801064Y-45614000D01*
%TO.C,R17*%
X117916936Y-57522000D02*
X119371064Y-57522000D01*
X117916936Y-59342000D02*
X119371064Y-59342000D01*
%TD*%
M02*
