%TF.GenerationSoftware,KiCad,Pcbnew,8.0.5*%
%TF.CreationDate,2025-02-04T09:15:57+02:00*%
%TF.ProjectId,IOExpander_PCF8574,494f4578-7061-46e6-9465-725f50434638,rev?*%
%TF.SameCoordinates,Original*%
%TF.FileFunction,Copper,L1,Top*%
%TF.FilePolarity,Positive*%
%FSLAX46Y46*%
G04 Gerber Fmt 4.6, Leading zero omitted, Abs format (unit mm)*
G04 Created by KiCad (PCBNEW 8.0.5) date 2025-02-04 09:15:57*
%MOMM*%
%LPD*%
G01*
G04 APERTURE LIST*
G04 Aperture macros list*
%AMRoundRect*
0 Rectangle with rounded corners*
0 $1 Rounding radius*
0 $2 $3 $4 $5 $6 $7 $8 $9 X,Y pos of 4 corners*
0 Add a 4 corners polygon primitive as box body*
4,1,4,$2,$3,$4,$5,$6,$7,$8,$9,$2,$3,0*
0 Add four circle primitives for the rounded corners*
1,1,$1+$1,$2,$3*
1,1,$1+$1,$4,$5*
1,1,$1+$1,$6,$7*
1,1,$1+$1,$8,$9*
0 Add four rect primitives between the rounded corners*
20,1,$1+$1,$2,$3,$4,$5,0*
20,1,$1+$1,$4,$5,$6,$7,0*
20,1,$1+$1,$6,$7,$8,$9,0*
20,1,$1+$1,$8,$9,$2,$3,0*%
G04 Aperture macros list end*
%TA.AperFunction,SMDPad,CuDef*%
%ADD10RoundRect,0.250000X0.650000X-0.412500X0.650000X0.412500X-0.650000X0.412500X-0.650000X-0.412500X0*%
%TD*%
%TA.AperFunction,ComponentPad*%
%ADD11O,1.950000X1.700000*%
%TD*%
%TA.AperFunction,ComponentPad*%
%ADD12RoundRect,0.250000X-0.725000X0.600000X-0.725000X-0.600000X0.725000X-0.600000X0.725000X0.600000X0*%
%TD*%
%TA.AperFunction,SMDPad,CuDef*%
%ADD13RoundRect,0.250000X-0.400000X-0.625000X0.400000X-0.625000X0.400000X0.625000X-0.400000X0.625000X0*%
%TD*%
%TA.AperFunction,SMDPad,CuDef*%
%ADD14RoundRect,0.162500X0.750000X0.162500X-0.750000X0.162500X-0.750000X-0.162500X0.750000X-0.162500X0*%
%TD*%
%TA.AperFunction,ComponentPad*%
%ADD15O,1.700000X1.700000*%
%TD*%
%TA.AperFunction,ComponentPad*%
%ADD16R,1.700000X1.700000*%
%TD*%
%TA.AperFunction,ViaPad*%
%ADD17C,1.500000*%
%TD*%
%TA.AperFunction,ViaPad*%
%ADD18C,1.000000*%
%TD*%
%TA.AperFunction,Conductor*%
%ADD19C,0.800000*%
%TD*%
%TA.AperFunction,Conductor*%
%ADD20C,0.600000*%
%TD*%
%TA.AperFunction,Conductor*%
%ADD21C,1.000000*%
%TD*%
%TA.AperFunction,Conductor*%
%ADD22C,1.500000*%
%TD*%
G04 APERTURE END LIST*
D10*
%TO.P,C2,1*%
%TO.N,GND*%
X93472000Y-59855500D03*
%TO.P,C2,2*%
%TO.N,5V*%
X93472000Y-56730500D03*
%TD*%
D11*
%TO.P,J1,4,Pin_4*%
%TO.N,/SDA*%
X84774000Y-57061200D03*
%TO.P,J1,3,Pin_3*%
%TO.N,/SCL*%
X84774000Y-54561200D03*
%TO.P,J1,2,Pin_2*%
%TO.N,GND*%
X84774000Y-52061200D03*
D12*
%TO.P,J1,1,Pin_1*%
%TO.N,5V*%
X84774000Y-49561200D03*
%TD*%
D13*
%TO.P,R16,2*%
%TO.N,GND*%
X120194000Y-54598000D03*
%TO.P,R16,1*%
%TO.N,/2_A2*%
X117094000Y-54598000D03*
%TD*%
%TO.P,R15,1*%
%TO.N,5V*%
X111988000Y-62230000D03*
%TO.P,R15,2*%
%TO.N,/2_A0*%
X115088000Y-62230000D03*
%TD*%
%TO.P,R14,1*%
%TO.N,5V*%
X112014000Y-58420000D03*
%TO.P,R14,2*%
%TO.N,/2_A1*%
X115114000Y-58420000D03*
%TD*%
%TO.P,R13,2*%
%TO.N,/2_A2*%
X115114000Y-54610000D03*
%TO.P,R13,1*%
%TO.N,5V*%
X112014000Y-54610000D03*
%TD*%
D14*
%TO.P,U2,16,VDD*%
%TO.N,5V*%
X96226500Y-56261000D03*
%TO.P,U2,15,SDA*%
%TO.N,/SDA*%
X96226500Y-54991000D03*
%TO.P,U2,14,SCL*%
%TO.N,/SCL*%
X96226500Y-53721000D03*
%TO.P,U2,13,~{INT}*%
%TO.N,Net-(U2-~{INT})*%
X96226500Y-52451000D03*
%TO.P,U2,12,P7*%
%TO.N,Net-(J3-Pin_8)*%
X96226500Y-51181000D03*
%TO.P,U2,11,P6*%
%TO.N,Net-(J3-Pin_7)*%
X96226500Y-49911000D03*
%TO.P,U2,10,P5*%
%TO.N,Net-(J3-Pin_6)*%
X96226500Y-48641000D03*
%TO.P,U2,9,P4*%
%TO.N,Net-(J3-Pin_5)*%
X96226500Y-47371000D03*
%TO.P,U2,8,VSS*%
%TO.N,GND*%
X102401500Y-47371000D03*
%TO.P,U2,7,P3*%
%TO.N,Net-(J3-Pin_4)*%
X102401500Y-48641000D03*
%TO.P,U2,6,P2*%
%TO.N,Net-(J3-Pin_3)*%
X102401500Y-49911000D03*
%TO.P,U2,5,P1*%
%TO.N,Net-(J3-Pin_2)*%
X102401500Y-51181000D03*
%TO.P,U2,4,P0*%
%TO.N,Net-(J3-Pin_1)*%
X102401500Y-52451000D03*
%TO.P,U2,3,A2*%
%TO.N,/2_A2*%
X102401500Y-53721000D03*
%TO.P,U2,2,A1*%
%TO.N,/2_A1*%
X102401500Y-54991000D03*
%TO.P,U2,1,A0*%
%TO.N,/2_A0*%
X102401500Y-56261000D03*
%TD*%
D13*
%TO.P,R18,1*%
%TO.N,/2_A0*%
X117094000Y-62230000D03*
%TO.P,R18,2*%
%TO.N,GND*%
X120194000Y-62230000D03*
%TD*%
%TO.P,R6,2*%
%TO.N,Net-(U2-~{INT})*%
X85624000Y-44704000D03*
%TO.P,R6,1*%
%TO.N,5V*%
X82524000Y-44704000D03*
%TD*%
%TO.P,R17,1*%
%TO.N,/2_A1*%
X117094000Y-58432000D03*
%TO.P,R17,2*%
%TO.N,GND*%
X120194000Y-58432000D03*
%TD*%
D15*
%TO.P,J2,8,Pin_8*%
%TO.N,Net-(J2-Pin_8)*%
X91124000Y-65240000D03*
%TO.P,J2,7,Pin_7*%
%TO.N,Net-(J2-Pin_7)*%
X93664000Y-65240000D03*
%TO.P,J2,6,Pin_6*%
%TO.N,Net-(J2-Pin_6)*%
X96204000Y-65240000D03*
%TO.P,J2,5,Pin_5*%
%TO.N,Net-(J2-Pin_5)*%
X98744000Y-65240000D03*
%TO.P,J2,4,Pin_4*%
%TO.N,Net-(J2-Pin_4)*%
X101284000Y-65240000D03*
%TO.P,J2,3,Pin_3*%
%TO.N,Net-(J2-Pin_3)*%
X103824000Y-65240000D03*
%TO.P,J2,2,Pin_2*%
%TO.N,Net-(J2-Pin_2)*%
X106364000Y-65240000D03*
D16*
%TO.P,J2,1,Pin_1*%
%TO.N,Net-(J2-Pin_1)*%
X108904000Y-65240000D03*
%TD*%
D15*
%TO.P,J3,8,Pin_8*%
%TO.N,Net-(J3-Pin_8)*%
X91124000Y-41364000D03*
%TO.P,J3,7,Pin_7*%
%TO.N,Net-(J3-Pin_7)*%
X93664000Y-41364000D03*
%TO.P,J3,6,Pin_6*%
%TO.N,Net-(J3-Pin_6)*%
X96204000Y-41364000D03*
%TO.P,J3,5,Pin_5*%
%TO.N,Net-(J3-Pin_5)*%
X98744000Y-41364000D03*
%TO.P,J3,4,Pin_4*%
%TO.N,Net-(J3-Pin_4)*%
X101284000Y-41364000D03*
%TO.P,J3,3,Pin_3*%
%TO.N,Net-(J3-Pin_3)*%
X103824000Y-41364000D03*
%TO.P,J3,2,Pin_2*%
%TO.N,Net-(J3-Pin_2)*%
X106364000Y-41364000D03*
D16*
%TO.P,J3,1,Pin_1*%
%TO.N,Net-(J3-Pin_1)*%
X108904000Y-41364000D03*
%TD*%
D17*
%TO.N,GND*%
X83439000Y-65151000D03*
X85725000Y-65151000D03*
X84582000Y-62738000D03*
X82296000Y-62738000D03*
X98552000Y-47879000D03*
X102362000Y-60960000D03*
D18*
%TO.N,/SCL*%
X88773000Y-53467000D03*
D17*
%TO.N,GND*%
X80264000Y-44450000D03*
X102362000Y-44450000D03*
D18*
%TO.N,5V*%
X98044000Y-56261000D03*
%TO.N,/1_A0*%
X108458000Y-46482000D03*
%TO.N,/1_A1*%
X108458000Y-48260000D03*
D17*
%TO.N,GND*%
X120142000Y-41910000D03*
D18*
%TO.N,/1_A0*%
X113792000Y-42418000D03*
%TO.N,/1_A1*%
X114300000Y-46482000D03*
%TO.N,/1_A2*%
X108390684Y-50354228D03*
X113792000Y-50292000D03*
%TO.N,5V*%
X110236000Y-62230000D03*
X110236000Y-58420000D03*
X110236000Y-54610000D03*
%TD*%
D19*
%TO.N,GND*%
X87464500Y-59855500D02*
X84582000Y-62738000D01*
X93472000Y-59855500D02*
X87464500Y-59855500D01*
%TO.N,5V*%
X93941500Y-56261000D02*
X93472000Y-56730500D01*
X96226500Y-56261000D02*
X93941500Y-56261000D01*
D20*
%TO.N,/SCL*%
X87678800Y-54561200D02*
X87424800Y-54561200D01*
X88773000Y-53467000D02*
X87678800Y-54561200D01*
%TO.N,/1_A1*%
X111887000Y-46482000D02*
X114300000Y-46482000D01*
X110109000Y-48260000D02*
X111887000Y-46482000D01*
X108458000Y-48260000D02*
X110109000Y-48260000D01*
D21*
%TO.N,GND*%
X99949000Y-50927000D02*
X99949000Y-59817000D01*
X101092000Y-60960000D02*
X102362000Y-60960000D01*
X98552000Y-49530000D02*
X99949000Y-50927000D01*
X98552000Y-47879000D02*
X98552000Y-49530000D01*
X99949000Y-59817000D02*
X101092000Y-60960000D01*
%TO.N,Net-(J3-Pin_4)*%
X100965000Y-48641000D02*
X102401500Y-48641000D01*
X100330000Y-48006000D02*
X100965000Y-48641000D01*
X100330000Y-43434000D02*
X100330000Y-48006000D01*
X100520500Y-43243500D02*
X100330000Y-43434000D01*
X101284000Y-42480000D02*
X100520500Y-43243500D01*
X101284000Y-41364000D02*
X101284000Y-42480000D01*
%TO.N,Net-(J3-Pin_5)*%
X98744000Y-44853500D02*
X98744000Y-41364000D01*
X96226500Y-47371000D02*
X98744000Y-44853500D01*
D19*
%TO.N,5V*%
X96226500Y-56261000D02*
X98044000Y-56261000D01*
D20*
%TO.N,/SCL*%
X89075800Y-54561200D02*
X89916000Y-53721000D01*
X87424800Y-54561200D02*
X89075800Y-54561200D01*
X88978200Y-54561200D02*
X89075800Y-54561200D01*
X96226500Y-53721000D02*
X89916000Y-53721000D01*
X84774000Y-54561200D02*
X88978200Y-54561200D01*
%TO.N,/SDA*%
X88861800Y-57061200D02*
X90932000Y-54991000D01*
X84774000Y-57061200D02*
X88861800Y-57061200D01*
X96226500Y-54991000D02*
X90932000Y-54991000D01*
D22*
%TO.N,GND*%
X82033200Y-52061200D02*
X84774000Y-52061200D01*
X80264000Y-50292000D02*
X82033200Y-52061200D01*
X80264000Y-44450000D02*
X80264000Y-50292000D01*
D19*
X102401500Y-44489500D02*
X102362000Y-44450000D01*
X102401500Y-45251500D02*
X102401500Y-44489500D01*
X102401500Y-45251500D02*
X102362000Y-45212000D01*
X102401500Y-47371000D02*
X102401500Y-45251500D01*
D20*
%TO.N,/SCL*%
X87424800Y-54561200D02*
X84774000Y-54561200D01*
%TO.N,Net-(U2-~{INT})*%
X88646000Y-44704000D02*
X85624000Y-44704000D01*
X89662000Y-49784000D02*
X89662000Y-45720000D01*
X92329000Y-52451000D02*
X89662000Y-49784000D01*
X89662000Y-45720000D02*
X88646000Y-44704000D01*
X96226500Y-52451000D02*
X92329000Y-52451000D01*
%TO.N,5V*%
X83089200Y-49561200D02*
X84774000Y-49561200D01*
X82524000Y-48996000D02*
X83089200Y-49561200D01*
X82524000Y-44704000D02*
X82524000Y-48996000D01*
D19*
%TO.N,Net-(J3-Pin_2)*%
X105664000Y-45212000D02*
X106364000Y-44512000D01*
X105664000Y-50292000D02*
X105664000Y-45212000D01*
X104775000Y-51181000D02*
X105664000Y-50292000D01*
%TO.N,Net-(J3-Pin_7)*%
X92710000Y-48768000D02*
X93853000Y-49911000D01*
X92710000Y-45212000D02*
X92710000Y-48768000D01*
X93664000Y-44258000D02*
X92710000Y-45212000D01*
X93853000Y-49911000D02*
X96226500Y-49911000D01*
X93664000Y-41364000D02*
X93664000Y-44258000D01*
%TO.N,Net-(J3-Pin_6)*%
X94234000Y-46482000D02*
X96204000Y-44512000D01*
X94234000Y-47752000D02*
X94234000Y-46482000D01*
X95123000Y-48641000D02*
X94234000Y-47752000D01*
X96226500Y-48641000D02*
X95123000Y-48641000D01*
X96204000Y-44512000D02*
X96204000Y-41364000D01*
%TO.N,Net-(J3-Pin_2)*%
X106364000Y-44512000D02*
X106364000Y-41364000D01*
X102401500Y-51181000D02*
X104775000Y-51181000D01*
%TO.N,Net-(J3-Pin_3)*%
X103632000Y-49911000D02*
X104267000Y-49276000D01*
X102401500Y-49911000D02*
X103632000Y-49911000D01*
X104267000Y-49276000D02*
X104267000Y-41807000D01*
X104267000Y-41807000D02*
X103824000Y-41364000D01*
%TO.N,Net-(J3-Pin_1)*%
X108904000Y-44004000D02*
X108904000Y-41364000D01*
X107188000Y-45720000D02*
X108904000Y-44004000D01*
X107188000Y-51562000D02*
X107188000Y-45720000D01*
X102401500Y-52451000D02*
X106299000Y-52451000D01*
X106299000Y-52451000D02*
X107188000Y-51562000D01*
D20*
%TO.N,/2_A2*%
X115062000Y-54558000D02*
X115114000Y-54610000D01*
X115062000Y-53340000D02*
X115062000Y-54558000D01*
X114554000Y-52832000D02*
X115062000Y-53340000D01*
X108077000Y-53721000D02*
X108966000Y-52832000D01*
X102401500Y-53721000D02*
X108077000Y-53721000D01*
X108966000Y-52832000D02*
X114554000Y-52832000D01*
D19*
%TO.N,Net-(J3-Pin_8)*%
X91124000Y-49468000D02*
X91124000Y-41364000D01*
X92837000Y-51181000D02*
X91124000Y-49468000D01*
X96226500Y-51181000D02*
X92837000Y-51181000D01*
D20*
%TO.N,/1_A0*%
X112522000Y-42418000D02*
X113792000Y-42418000D01*
X108458000Y-46482000D02*
X112522000Y-42418000D01*
D22*
%TO.N,GND*%
X120194000Y-41962000D02*
X120142000Y-41910000D01*
X120194000Y-42216000D02*
X120194000Y-41962000D01*
X120194000Y-54598000D02*
X120194000Y-42216000D01*
X120194000Y-58432000D02*
X120194000Y-54598000D01*
X120194000Y-62230000D02*
X120194000Y-58432000D01*
D20*
%TO.N,/1_A2*%
X108328456Y-50292000D02*
X108390684Y-50354228D01*
X113792000Y-50292000D02*
X108328456Y-50292000D01*
%TO.N,/2_A1*%
X105791000Y-54991000D02*
X102401500Y-54991000D01*
X114352000Y-56642000D02*
X107442000Y-56642000D01*
X107442000Y-56642000D02*
X105791000Y-54991000D01*
%TO.N,/2_A0*%
X105283000Y-56261000D02*
X102401500Y-56261000D01*
X109474000Y-60452000D02*
X105283000Y-56261000D01*
X114352000Y-60452000D02*
X109474000Y-60452000D01*
D21*
%TO.N,5V*%
X111988000Y-62230000D02*
X110236000Y-62230000D01*
X112014000Y-58420000D02*
X110236000Y-58420000D01*
X112014000Y-54610000D02*
X110236000Y-54610000D01*
D20*
%TO.N,/2_A1*%
X114352000Y-56642000D02*
X115114000Y-57404000D01*
X115114000Y-57404000D02*
X115114000Y-58420000D01*
%TO.N,/2_A0*%
X115088000Y-61188000D02*
X115088000Y-62230000D01*
X114352000Y-60452000D02*
X115088000Y-61188000D01*
%TO.N,5V*%
X84805200Y-49530000D02*
X84774000Y-49561200D01*
%TO.N,/2_A0*%
X117094000Y-62230000D02*
X115088000Y-62230000D01*
%TO.N,/2_A1*%
X115126000Y-58432000D02*
X115114000Y-58420000D01*
X117094000Y-58432000D02*
X115126000Y-58432000D01*
%TO.N,/2_A2*%
X115126000Y-54598000D02*
X115114000Y-54610000D01*
X117094000Y-54598000D02*
X115126000Y-54598000D01*
%TD*%
%TA.AperFunction,Conductor*%
%TO.N,GND*%
G36*
X102790797Y-43087665D02*
G01*
X102902025Y-43144339D01*
X102990297Y-43232610D01*
X103046971Y-43343838D01*
X103066500Y-43467136D01*
X103066500Y-46962446D01*
X103046972Y-47085744D01*
X102990298Y-47196972D01*
X102902026Y-47285244D01*
X102790798Y-47341918D01*
X102667500Y-47361446D01*
X102605082Y-47356533D01*
X102503858Y-47340500D01*
X102503852Y-47340500D01*
X102029500Y-47340500D01*
X101906202Y-47320972D01*
X101794974Y-47264298D01*
X101706702Y-47176026D01*
X101650028Y-47064798D01*
X101630500Y-46941500D01*
X101630500Y-44137956D01*
X101650028Y-44014658D01*
X101706702Y-43903430D01*
X101747358Y-43855826D01*
X102275966Y-43327219D01*
X102344702Y-43232612D01*
X102432973Y-43144340D01*
X102544201Y-43087666D01*
X102667499Y-43068137D01*
X102790797Y-43087665D01*
G37*
%TD.AperFunction*%
%TA.AperFunction,Conductor*%
G36*
X116848703Y-34790879D02*
G01*
X117221733Y-34807166D01*
X117256399Y-34810199D01*
X117617950Y-34857799D01*
X117652222Y-34863841D01*
X118008257Y-34942773D01*
X118041867Y-34951778D01*
X118389681Y-35061444D01*
X118422366Y-35073340D01*
X118759300Y-35212902D01*
X118790808Y-35227594D01*
X119114313Y-35396001D01*
X119144432Y-35413390D01*
X119452001Y-35609333D01*
X119480513Y-35629298D01*
X119769821Y-35851291D01*
X119796486Y-35873665D01*
X120065351Y-36120034D01*
X120089965Y-36144648D01*
X120336334Y-36413513D01*
X120358708Y-36440178D01*
X120580701Y-36729486D01*
X120600666Y-36757998D01*
X120796601Y-37065554D01*
X120814002Y-37095693D01*
X120982400Y-37419182D01*
X120997104Y-37450715D01*
X121136654Y-37787621D01*
X121148559Y-37820329D01*
X121258218Y-38168123D01*
X121267227Y-38201746D01*
X121346157Y-38557776D01*
X121352201Y-38592055D01*
X121399799Y-38953595D01*
X121402833Y-38988270D01*
X121419120Y-39361295D01*
X121419500Y-39378700D01*
X121419500Y-67301299D01*
X121419120Y-67318704D01*
X121402833Y-67691729D01*
X121399799Y-67726404D01*
X121352201Y-68087944D01*
X121346157Y-68122223D01*
X121267227Y-68478253D01*
X121258218Y-68511876D01*
X121148559Y-68859670D01*
X121136654Y-68892378D01*
X120997104Y-69229284D01*
X120982393Y-69260833D01*
X120814005Y-69584301D01*
X120796601Y-69614445D01*
X120600666Y-69922001D01*
X120580701Y-69950513D01*
X120358708Y-70239821D01*
X120336334Y-70266486D01*
X120089965Y-70535351D01*
X120065351Y-70559965D01*
X119796486Y-70806334D01*
X119769821Y-70828708D01*
X119480513Y-71050701D01*
X119452001Y-71070666D01*
X119144445Y-71266601D01*
X119114301Y-71284005D01*
X118974027Y-71357027D01*
X118790826Y-71452396D01*
X118759284Y-71467104D01*
X118422378Y-71606654D01*
X118389670Y-71618559D01*
X118041876Y-71728218D01*
X118008253Y-71737227D01*
X117652223Y-71816157D01*
X117617944Y-71822201D01*
X117256404Y-71869799D01*
X117221729Y-71872833D01*
X116877125Y-71887879D01*
X116848702Y-71889120D01*
X116831300Y-71889500D01*
X82558700Y-71889500D01*
X82541297Y-71889120D01*
X82511205Y-71887806D01*
X82168270Y-71872833D01*
X82133595Y-71869799D01*
X81772055Y-71822201D01*
X81737776Y-71816157D01*
X81381746Y-71737227D01*
X81348123Y-71728218D01*
X81000329Y-71618559D01*
X80967621Y-71606654D01*
X80938388Y-71594545D01*
X80630709Y-71467101D01*
X80599182Y-71452400D01*
X80275693Y-71284002D01*
X80245560Y-71266604D01*
X79937998Y-71070666D01*
X79909486Y-71050701D01*
X79620178Y-70828708D01*
X79593513Y-70806334D01*
X79324648Y-70559965D01*
X79300034Y-70535351D01*
X79053665Y-70266486D01*
X79031291Y-70239821D01*
X78809298Y-69950513D01*
X78789333Y-69922001D01*
X78614860Y-69648133D01*
X78593390Y-69614432D01*
X78576001Y-69584313D01*
X78407594Y-69260808D01*
X78392902Y-69229300D01*
X78253340Y-68892366D01*
X78241444Y-68859681D01*
X78131778Y-68511867D01*
X78122772Y-68478253D01*
X78043842Y-68122223D01*
X78037798Y-68087944D01*
X78021799Y-67966424D01*
X77990199Y-67726399D01*
X77987166Y-67691727D01*
X77970880Y-67318702D01*
X77970500Y-67301299D01*
X77970500Y-44027392D01*
X81073500Y-44027392D01*
X81073500Y-45380608D01*
X81088700Y-45534934D01*
X81148768Y-45732954D01*
X81198774Y-45826508D01*
X81227741Y-45880702D01*
X81246315Y-45915450D01*
X81332932Y-46020993D01*
X81396055Y-46128691D01*
X81422808Y-46250625D01*
X81423500Y-46274115D01*
X81423500Y-48909389D01*
X81423500Y-49082611D01*
X81450598Y-49253701D01*
X81450599Y-49253707D01*
X81504124Y-49418436D01*
X81504127Y-49418445D01*
X81582768Y-49572789D01*
X81684585Y-49712927D01*
X82372272Y-50400614D01*
X82512404Y-50502427D01*
X82512408Y-50502429D01*
X82512412Y-50502432D01*
X82570147Y-50531849D01*
X82635512Y-50565154D01*
X82635515Y-50565156D01*
X82666746Y-50581069D01*
X82666752Y-50581071D01*
X82666755Y-50581073D01*
X82831500Y-50634603D01*
X82965649Y-50655849D01*
X83084368Y-50694422D01*
X83185363Y-50767796D01*
X83211658Y-50796809D01*
X83302590Y-50907610D01*
X83462550Y-51038885D01*
X83645046Y-51136432D01*
X83843066Y-51196500D01*
X83997392Y-51211700D01*
X83997397Y-51211700D01*
X85550603Y-51211700D01*
X85550608Y-51211700D01*
X85704934Y-51196500D01*
X85902954Y-51136432D01*
X86085450Y-51038885D01*
X86245410Y-50907610D01*
X86376685Y-50747650D01*
X86474232Y-50565154D01*
X86534300Y-50367134D01*
X86549500Y-50212808D01*
X86549500Y-48909592D01*
X86534300Y-48755266D01*
X86474232Y-48557246D01*
X86376685Y-48374750D01*
X86245410Y-48214790D01*
X86085450Y-48083515D01*
X86085446Y-48083513D01*
X86085445Y-48083512D01*
X86010087Y-48043232D01*
X85902954Y-47985968D01*
X85704934Y-47925900D01*
X85550608Y-47910700D01*
X84023500Y-47910700D01*
X83900202Y-47891172D01*
X83788974Y-47834498D01*
X83700702Y-47746226D01*
X83644028Y-47634998D01*
X83624500Y-47511700D01*
X83624500Y-46274115D01*
X83644028Y-46150817D01*
X83700702Y-46039589D01*
X83715058Y-46021005D01*
X83765570Y-45959455D01*
X83858882Y-45876536D01*
X83973254Y-45826508D01*
X84097488Y-45814272D01*
X84219422Y-45841025D01*
X84327122Y-45904148D01*
X84382432Y-45959459D01*
X84477582Y-46075401D01*
X84477585Y-46075404D01*
X84477590Y-46075410D01*
X84637550Y-46206685D01*
X84820046Y-46304232D01*
X85018066Y-46364300D01*
X85172392Y-46379500D01*
X85172397Y-46379500D01*
X86075603Y-46379500D01*
X86075608Y-46379500D01*
X86229934Y-46364300D01*
X86427954Y-46304232D01*
X86610450Y-46206685D01*
X86770410Y-46075410D01*
X86873021Y-45950376D01*
X86966335Y-45867456D01*
X87080706Y-45817428D01*
X87181452Y-45804500D01*
X88024886Y-45804500D01*
X88148184Y-45824028D01*
X88259412Y-45880702D01*
X88307022Y-45921364D01*
X88444636Y-46058978D01*
X88518012Y-46159972D01*
X88556588Y-46278697D01*
X88561500Y-46341114D01*
X88561500Y-49697389D01*
X88561500Y-49870611D01*
X88586076Y-50025780D01*
X88588599Y-50041707D01*
X88642124Y-50206436D01*
X88642127Y-50206445D01*
X88720768Y-50360789D01*
X88822585Y-50500927D01*
X90261022Y-51939364D01*
X90334398Y-52040358D01*
X90372974Y-52159083D01*
X90372974Y-52283917D01*
X90334398Y-52402642D01*
X90261022Y-52503636D01*
X90160028Y-52577012D01*
X90041303Y-52615588D01*
X89978886Y-52620500D01*
X89930957Y-52620500D01*
X89807659Y-52600972D01*
X89696431Y-52544298D01*
X89648827Y-52503641D01*
X89612139Y-52466953D01*
X89612135Y-52466950D01*
X89612134Y-52466949D01*
X89425736Y-52336433D01*
X89425731Y-52336430D01*
X89219496Y-52240260D01*
X88999696Y-52181366D01*
X88999694Y-52181365D01*
X88999692Y-52181365D01*
X88773000Y-52161532D01*
X88546308Y-52181365D01*
X88546303Y-52181366D01*
X88326503Y-52240260D01*
X88120268Y-52336430D01*
X88120263Y-52336433D01*
X87933865Y-52466949D01*
X87772949Y-52627865D01*
X87642433Y-52814263D01*
X87642430Y-52814268D01*
X87546263Y-53020498D01*
X87546261Y-53020502D01*
X87531144Y-53076919D01*
X87480367Y-53190960D01*
X87427880Y-53255776D01*
X87339826Y-53343832D01*
X87238833Y-53417210D01*
X87120109Y-53455787D01*
X87057687Y-53460700D01*
X86297931Y-53460700D01*
X86174633Y-53441172D01*
X86063405Y-53384498D01*
X86015801Y-53343841D01*
X85974229Y-53302269D01*
X85870066Y-53226590D01*
X85764050Y-53149565D01*
X85532575Y-53031622D01*
X85532572Y-53031621D01*
X85285494Y-52951340D01*
X85199378Y-52937701D01*
X85028897Y-52910700D01*
X84519103Y-52910700D01*
X84365145Y-52935084D01*
X84262505Y-52951340D01*
X84015427Y-53031621D01*
X84015424Y-53031622D01*
X83783949Y-53149565D01*
X83573773Y-53302267D01*
X83390067Y-53485973D01*
X83237365Y-53696149D01*
X83119422Y-53927624D01*
X83119421Y-53927627D01*
X83039140Y-54174705D01*
X83018820Y-54303005D01*
X82998500Y-54431303D01*
X82998500Y-54691097D01*
X83021560Y-54836692D01*
X83039140Y-54947694D01*
X83119421Y-55194772D01*
X83119422Y-55194775D01*
X83237367Y-55426253D01*
X83237368Y-55426255D01*
X83346654Y-55576675D01*
X83403328Y-55687903D01*
X83422856Y-55811201D01*
X83403327Y-55934499D01*
X83346654Y-56045725D01*
X83237368Y-56196144D01*
X83237367Y-56196146D01*
X83119422Y-56427624D01*
X83119421Y-56427627D01*
X83039140Y-56674705D01*
X83018820Y-56803005D01*
X82998500Y-56931303D01*
X82998500Y-57191097D01*
X83025489Y-57361500D01*
X83039140Y-57447694D01*
X83119421Y-57694772D01*
X83119422Y-57694775D01*
X83237365Y-57926250D01*
X83271697Y-57973504D01*
X83390069Y-58136429D01*
X83573771Y-58320131D01*
X83783949Y-58472834D01*
X84015428Y-58590779D01*
X84262507Y-58671060D01*
X84519103Y-58711700D01*
X84519106Y-58711700D01*
X85028894Y-58711700D01*
X85028897Y-58711700D01*
X85285493Y-58671060D01*
X85532572Y-58590779D01*
X85764051Y-58472834D01*
X85974229Y-58320131D01*
X86015798Y-58278561D01*
X86116789Y-58205188D01*
X86235514Y-58166612D01*
X86297931Y-58161700D01*
X88948408Y-58161700D01*
X88948411Y-58161700D01*
X89119501Y-58134602D01*
X89284245Y-58081073D01*
X89438588Y-58002432D01*
X89578728Y-57900614D01*
X91090364Y-56388978D01*
X91191358Y-56315602D01*
X91310083Y-56277026D01*
X91434917Y-56277026D01*
X91553642Y-56315602D01*
X91654636Y-56388978D01*
X91728012Y-56489972D01*
X91766588Y-56608697D01*
X91771500Y-56671114D01*
X91771500Y-57194608D01*
X91786700Y-57348934D01*
X91846768Y-57546954D01*
X91846769Y-57546955D01*
X91925780Y-57694775D01*
X91944315Y-57729450D01*
X92075590Y-57889410D01*
X92235550Y-58020685D01*
X92418046Y-58118232D01*
X92616066Y-58178300D01*
X92770392Y-58193500D01*
X92770397Y-58193500D01*
X94173603Y-58193500D01*
X94173608Y-58193500D01*
X94327934Y-58178300D01*
X94525954Y-58118232D01*
X94708450Y-58020685D01*
X94868410Y-57889410D01*
X94999685Y-57729450D01*
X95030173Y-57672409D01*
X95105519Y-57572878D01*
X95207933Y-57501500D01*
X95327393Y-57465263D01*
X95382059Y-57461500D01*
X96132019Y-57461500D01*
X97455058Y-57461500D01*
X97578356Y-57481028D01*
X97591528Y-57485564D01*
X97597504Y-57487739D01*
X97817308Y-57546635D01*
X98044000Y-57566468D01*
X98270692Y-57546635D01*
X98490496Y-57487739D01*
X98696734Y-57391568D01*
X98883139Y-57261047D01*
X99044047Y-57100139D01*
X99174568Y-56913734D01*
X99270739Y-56707496D01*
X99329635Y-56487692D01*
X99349468Y-56261000D01*
X99329635Y-56034308D01*
X99270739Y-55814504D01*
X99269198Y-55811200D01*
X99174569Y-55608268D01*
X99174566Y-55608263D01*
X99044050Y-55421865D01*
X99044049Y-55421864D01*
X99044047Y-55421861D01*
X98883139Y-55260953D01*
X98883135Y-55260950D01*
X98883134Y-55260949D01*
X98696736Y-55130433D01*
X98696731Y-55130430D01*
X98490496Y-55034260D01*
X98270696Y-54975366D01*
X98270695Y-54975365D01*
X98270692Y-54975365D01*
X98270688Y-54975364D01*
X98253537Y-54972341D01*
X98254158Y-54968815D01*
X98164509Y-54946435D01*
X98058663Y-54880251D01*
X97978449Y-54784599D01*
X97934587Y-54675944D01*
X97934501Y-54675969D01*
X97934265Y-54675145D01*
X97931720Y-54668840D01*
X97929745Y-54659348D01*
X97929283Y-54657732D01*
X97875405Y-54469433D01*
X97875403Y-54469430D01*
X97874354Y-54465762D01*
X97859211Y-54341849D01*
X97874354Y-54246238D01*
X97875403Y-54242569D01*
X97875405Y-54242567D01*
X97929283Y-54054268D01*
X97939500Y-53939354D01*
X97939500Y-53502646D01*
X97938017Y-53485971D01*
X97937186Y-53476619D01*
X97929283Y-53387732D01*
X97875405Y-53199433D01*
X97875403Y-53199430D01*
X97874354Y-53195762D01*
X97859211Y-53071849D01*
X97874354Y-52976238D01*
X97875403Y-52972569D01*
X97875405Y-52972567D01*
X97929283Y-52784268D01*
X97939500Y-52669354D01*
X97939500Y-52232646D01*
X97929283Y-52117732D01*
X97875405Y-51929433D01*
X97875403Y-51929430D01*
X97874354Y-51925762D01*
X97859211Y-51801849D01*
X97874354Y-51706238D01*
X97875403Y-51702569D01*
X97875405Y-51702567D01*
X97929283Y-51514268D01*
X97939500Y-51399354D01*
X97939500Y-50962646D01*
X97937907Y-50944734D01*
X97934607Y-50907612D01*
X97929283Y-50847732D01*
X97875405Y-50659433D01*
X97875403Y-50659430D01*
X97874354Y-50655762D01*
X97859211Y-50531849D01*
X97874354Y-50436238D01*
X97875403Y-50432569D01*
X97875405Y-50432567D01*
X97929283Y-50244268D01*
X97939500Y-50129354D01*
X97939500Y-49692646D01*
X97929283Y-49577732D01*
X97875405Y-49389433D01*
X97875403Y-49389430D01*
X97874354Y-49385762D01*
X97859211Y-49261849D01*
X97874354Y-49166238D01*
X97875403Y-49162569D01*
X97875405Y-49162567D01*
X97929283Y-48974268D01*
X97939500Y-48859354D01*
X97939500Y-48422646D01*
X97929283Y-48307732D01*
X97875405Y-48119433D01*
X97875403Y-48119430D01*
X97874354Y-48115762D01*
X97859211Y-47991849D01*
X97874354Y-47896238D01*
X97875403Y-47892569D01*
X97875405Y-47892567D01*
X97929283Y-47704268D01*
X97935661Y-47632525D01*
X97966031Y-47511444D01*
X98032332Y-47405671D01*
X98050958Y-47385726D01*
X98348365Y-47088320D01*
X98449358Y-47014944D01*
X98568083Y-46976368D01*
X98692918Y-46976368D01*
X98811643Y-47014945D01*
X98912636Y-47088321D01*
X98986012Y-47189314D01*
X99024588Y-47308039D01*
X99029500Y-47370456D01*
X99029500Y-47903648D01*
X99029500Y-48108352D01*
X99046359Y-48214793D01*
X99061524Y-48310540D01*
X99069944Y-48336451D01*
X99069946Y-48336465D01*
X99069948Y-48336465D01*
X99124778Y-48505215D01*
X99124779Y-48505218D01*
X99124780Y-48505219D01*
X99167350Y-48588768D01*
X99217713Y-48687611D01*
X99338034Y-48853219D01*
X99338037Y-48853222D01*
X99338038Y-48853223D01*
X99973030Y-49488216D01*
X99973031Y-49488216D01*
X99973034Y-49488219D01*
X100117781Y-49632966D01*
X100277652Y-49749118D01*
X100283390Y-49753287D01*
X100283398Y-49753291D01*
X100475965Y-49851410D01*
X100576958Y-49924786D01*
X100650334Y-50025780D01*
X100688910Y-50144505D01*
X100692254Y-50171581D01*
X100698717Y-50244272D01*
X100753645Y-50436240D01*
X100768788Y-50560153D01*
X100753645Y-50655760D01*
X100698717Y-50847728D01*
X100688500Y-50962643D01*
X100688500Y-51399356D01*
X100698717Y-51514271D01*
X100753645Y-51706240D01*
X100768788Y-51830153D01*
X100753645Y-51925760D01*
X100698717Y-52117728D01*
X100688500Y-52232643D01*
X100688500Y-52669356D01*
X100698717Y-52784271D01*
X100753645Y-52976240D01*
X100768788Y-53100153D01*
X100753645Y-53195760D01*
X100698717Y-53387728D01*
X100688500Y-53502643D01*
X100688500Y-53939356D01*
X100698717Y-54054271D01*
X100753645Y-54246240D01*
X100768788Y-54370153D01*
X100753645Y-54465760D01*
X100698717Y-54657728D01*
X100688500Y-54772643D01*
X100688500Y-55209356D01*
X100698717Y-55324271D01*
X100753645Y-55516240D01*
X100768788Y-55640153D01*
X100753645Y-55735760D01*
X100698717Y-55927728D01*
X100688500Y-56042643D01*
X100688500Y-56479356D01*
X100698717Y-56594268D01*
X100752595Y-56782567D01*
X100752596Y-56782570D01*
X100843277Y-56956166D01*
X100967040Y-57107950D01*
X100967049Y-57107959D01*
X101068238Y-57190467D01*
X101118835Y-57231724D01*
X101292433Y-57322405D01*
X101480732Y-57376283D01*
X101576878Y-57384831D01*
X101595644Y-57386500D01*
X101595646Y-57386500D01*
X103207356Y-57386500D01*
X103222428Y-57385159D01*
X103322268Y-57376283D01*
X103322281Y-57376279D01*
X103340925Y-57372817D01*
X103341135Y-57373948D01*
X103429895Y-57361500D01*
X104661886Y-57361500D01*
X104785184Y-57381028D01*
X104896412Y-57437702D01*
X104944022Y-57478364D01*
X108634586Y-61168928D01*
X108757072Y-61291414D01*
X108856682Y-61363785D01*
X108944953Y-61452056D01*
X109001627Y-61563284D01*
X109021155Y-61686582D01*
X109007559Y-61789853D01*
X108991325Y-61850438D01*
X108985395Y-61870458D01*
X108967522Y-61925466D01*
X108965444Y-61938589D01*
X108956765Y-61979422D01*
X108950364Y-62003309D01*
X108945619Y-62057544D01*
X108942227Y-62085174D01*
X108935500Y-62127650D01*
X108935500Y-62155791D01*
X108933982Y-62190563D01*
X108930532Y-62229999D01*
X108933982Y-62269433D01*
X108935500Y-62304207D01*
X108935500Y-62332350D01*
X108942227Y-62374827D01*
X108945619Y-62402456D01*
X108950365Y-62456694D01*
X108956765Y-62480580D01*
X108965443Y-62521406D01*
X108966829Y-62530156D01*
X108967523Y-62534536D01*
X108967525Y-62534540D01*
X108985393Y-62589533D01*
X108991325Y-62609561D01*
X109009258Y-62676489D01*
X109009260Y-62676495D01*
X109013423Y-62685422D01*
X109028651Y-62724079D01*
X109030777Y-62729213D01*
X109063766Y-62793958D01*
X109069868Y-62806469D01*
X109105434Y-62882738D01*
X109106513Y-62884607D01*
X109116486Y-62899817D01*
X109123712Y-62911608D01*
X109155946Y-62955975D01*
X109212619Y-63067204D01*
X109232147Y-63190502D01*
X109212618Y-63313799D01*
X109155944Y-63425028D01*
X109067672Y-63513299D01*
X108956443Y-63569972D01*
X108833147Y-63589500D01*
X108009037Y-63589500D01*
X107874748Y-63604631D01*
X107874745Y-63604632D01*
X107704478Y-63664211D01*
X107555100Y-63758072D01*
X107542304Y-63766112D01*
X107427515Y-63815175D01*
X107303182Y-63826365D01*
X107181478Y-63798587D01*
X107121544Y-63768471D01*
X107115629Y-63764846D01*
X106875609Y-63665426D01*
X106622991Y-63604778D01*
X106364001Y-63584396D01*
X106363999Y-63584396D01*
X106105008Y-63604778D01*
X105852390Y-63665426D01*
X105612370Y-63764846D01*
X105390867Y-63900582D01*
X105390853Y-63900593D01*
X105353126Y-63932815D01*
X105246687Y-63998040D01*
X105125301Y-64027180D01*
X105000851Y-64017385D01*
X104885519Y-63969611D01*
X104834874Y-63932815D01*
X104797146Y-63900593D01*
X104797132Y-63900582D01*
X104575629Y-63764846D01*
X104335609Y-63665426D01*
X104082991Y-63604778D01*
X103824001Y-63584396D01*
X103823999Y-63584396D01*
X103565008Y-63604778D01*
X103312390Y-63665426D01*
X103072370Y-63764846D01*
X102850867Y-63900582D01*
X102850853Y-63900593D01*
X102813126Y-63932815D01*
X102706687Y-63998040D01*
X102585301Y-64027180D01*
X102460851Y-64017385D01*
X102345519Y-63969611D01*
X102294874Y-63932815D01*
X102257146Y-63900593D01*
X102257132Y-63900582D01*
X102035629Y-63764846D01*
X101795609Y-63665426D01*
X101542991Y-63604778D01*
X101284001Y-63584396D01*
X101283999Y-63584396D01*
X101025008Y-63604778D01*
X100772390Y-63665426D01*
X100532370Y-63764846D01*
X100310867Y-63900582D01*
X100310853Y-63900593D01*
X100273126Y-63932815D01*
X100166687Y-63998040D01*
X100045301Y-64027180D01*
X99920851Y-64017385D01*
X99805519Y-63969611D01*
X99754874Y-63932815D01*
X99717146Y-63900593D01*
X99717132Y-63900582D01*
X99495629Y-63764846D01*
X99255609Y-63665426D01*
X99002991Y-63604778D01*
X98744001Y-63584396D01*
X98743999Y-63584396D01*
X98485008Y-63604778D01*
X98232390Y-63665426D01*
X97992370Y-63764846D01*
X97770867Y-63900582D01*
X97770853Y-63900593D01*
X97733126Y-63932815D01*
X97626687Y-63998040D01*
X97505301Y-64027180D01*
X97380851Y-64017385D01*
X97265519Y-63969611D01*
X97214874Y-63932815D01*
X97177146Y-63900593D01*
X97177132Y-63900582D01*
X96955629Y-63764846D01*
X96715609Y-63665426D01*
X96462991Y-63604778D01*
X96204001Y-63584396D01*
X96203999Y-63584396D01*
X95945008Y-63604778D01*
X95692390Y-63665426D01*
X95452370Y-63764846D01*
X95230867Y-63900582D01*
X95230853Y-63900593D01*
X95193126Y-63932815D01*
X95086687Y-63998040D01*
X94965301Y-64027180D01*
X94840851Y-64017385D01*
X94725519Y-63969611D01*
X94674874Y-63932815D01*
X94637146Y-63900593D01*
X94637132Y-63900582D01*
X94415629Y-63764846D01*
X94175609Y-63665426D01*
X93922991Y-63604778D01*
X93664001Y-63584396D01*
X93663999Y-63584396D01*
X93405008Y-63604778D01*
X93152390Y-63665426D01*
X92912370Y-63764846D01*
X92690867Y-63900582D01*
X92690853Y-63900593D01*
X92653126Y-63932815D01*
X92546687Y-63998040D01*
X92425301Y-64027180D01*
X92300851Y-64017385D01*
X92185519Y-63969611D01*
X92134874Y-63932815D01*
X92097146Y-63900593D01*
X92097132Y-63900582D01*
X91875629Y-63764846D01*
X91635609Y-63665426D01*
X91382991Y-63604778D01*
X91124001Y-63584396D01*
X91123999Y-63584396D01*
X90865008Y-63604778D01*
X90612390Y-63665426D01*
X90372370Y-63764846D01*
X90150867Y-63900582D01*
X90150859Y-63900588D01*
X89953313Y-64069308D01*
X89953308Y-64069313D01*
X89784588Y-64266859D01*
X89784582Y-64266867D01*
X89648846Y-64488370D01*
X89549426Y-64728390D01*
X89488778Y-64981008D01*
X89468396Y-65239999D01*
X89468396Y-65240000D01*
X89488778Y-65498991D01*
X89549426Y-65751609D01*
X89648846Y-65991629D01*
X89784582Y-66213132D01*
X89784588Y-66213140D01*
X89953308Y-66410686D01*
X89953313Y-66410691D01*
X90014104Y-66462611D01*
X90150856Y-66579409D01*
X90150859Y-66579411D01*
X90150867Y-66579417D01*
X90360758Y-66708037D01*
X90372372Y-66715154D01*
X90612390Y-66814573D01*
X90865006Y-66875221D01*
X91037668Y-66888809D01*
X91123999Y-66895604D01*
X91124000Y-66895604D01*
X91124001Y-66895604D01*
X91188866Y-66890499D01*
X91382994Y-66875221D01*
X91635610Y-66814573D01*
X91875628Y-66715154D01*
X92097140Y-66579412D01*
X92134871Y-66547186D01*
X92241305Y-66481962D01*
X92362690Y-66452818D01*
X92487140Y-66462611D01*
X92602473Y-66510382D01*
X92653124Y-66547182D01*
X92690860Y-66579412D01*
X92690863Y-66579413D01*
X92690867Y-66579417D01*
X92900758Y-66708037D01*
X92912372Y-66715154D01*
X93152390Y-66814573D01*
X93405006Y-66875221D01*
X93577668Y-66888809D01*
X93663999Y-66895604D01*
X93664000Y-66895604D01*
X93664001Y-66895604D01*
X93728866Y-66890499D01*
X93922994Y-66875221D01*
X94175610Y-66814573D01*
X94415628Y-66715154D01*
X94637140Y-66579412D01*
X94674871Y-66547186D01*
X94781305Y-66481962D01*
X94902690Y-66452818D01*
X95027140Y-66462611D01*
X95142473Y-66510382D01*
X95193124Y-66547182D01*
X95230860Y-66579412D01*
X95230863Y-66579413D01*
X95230867Y-66579417D01*
X95440758Y-66708037D01*
X95452372Y-66715154D01*
X95692390Y-66814573D01*
X95945006Y-66875221D01*
X96117668Y-66888809D01*
X96203999Y-66895604D01*
X96204000Y-66895604D01*
X96204001Y-66895604D01*
X96268866Y-66890499D01*
X96462994Y-66875221D01*
X96715610Y-66814573D01*
X96955628Y-66715154D01*
X97177140Y-66579412D01*
X97214871Y-66547186D01*
X97321305Y-66481962D01*
X97442690Y-66452818D01*
X97567140Y-66462611D01*
X97682473Y-66510382D01*
X97733124Y-66547182D01*
X97770860Y-66579412D01*
X97770863Y-66579413D01*
X97770867Y-66579417D01*
X97980758Y-66708037D01*
X97992372Y-66715154D01*
X98232390Y-66814573D01*
X98485006Y-66875221D01*
X98657668Y-66888809D01*
X98743999Y-66895604D01*
X98744000Y-66895604D01*
X98744001Y-66895604D01*
X98808866Y-66890499D01*
X99002994Y-66875221D01*
X99255610Y-66814573D01*
X99495628Y-66715154D01*
X99717140Y-66579412D01*
X99754871Y-66547186D01*
X99861305Y-66481962D01*
X99982690Y-66452818D01*
X100107140Y-66462611D01*
X100222473Y-66510382D01*
X100273124Y-66547182D01*
X100310860Y-66579412D01*
X100310863Y-66579413D01*
X100310867Y-66579417D01*
X100520758Y-66708037D01*
X100532372Y-66715154D01*
X100772390Y-66814573D01*
X101025006Y-66875221D01*
X101197668Y-66888809D01*
X101283999Y-66895604D01*
X101284000Y-66895604D01*
X101284001Y-66895604D01*
X101348866Y-66890499D01*
X101542994Y-66875221D01*
X101795610Y-66814573D01*
X102035628Y-66715154D01*
X102257140Y-66579412D01*
X102294871Y-66547186D01*
X102401305Y-66481962D01*
X102522690Y-66452818D01*
X102647140Y-66462611D01*
X102762473Y-66510382D01*
X102813124Y-66547182D01*
X102850860Y-66579412D01*
X102850863Y-66579413D01*
X102850867Y-66579417D01*
X103060758Y-66708037D01*
X103072372Y-66715154D01*
X103312390Y-66814573D01*
X103565006Y-66875221D01*
X103737668Y-66888809D01*
X103823999Y-66895604D01*
X103824000Y-66895604D01*
X103824001Y-66895604D01*
X103888866Y-66890499D01*
X104082994Y-66875221D01*
X104335610Y-66814573D01*
X104575628Y-66715154D01*
X104797140Y-66579412D01*
X104834871Y-66547186D01*
X104941305Y-66481962D01*
X105062690Y-66452818D01*
X105187140Y-66462611D01*
X105302473Y-66510382D01*
X105353124Y-66547182D01*
X105390860Y-66579412D01*
X105390863Y-66579413D01*
X105390867Y-66579417D01*
X105600758Y-66708037D01*
X105612372Y-66715154D01*
X105852390Y-66814573D01*
X106105006Y-66875221D01*
X106277668Y-66888809D01*
X106363999Y-66895604D01*
X106364000Y-66895604D01*
X106364001Y-66895604D01*
X106428866Y-66890499D01*
X106622994Y-66875221D01*
X106875610Y-66814573D01*
X107115628Y-66715154D01*
X107121534Y-66711534D01*
X107127943Y-66708879D01*
X107129597Y-66708037D01*
X107129663Y-66708167D01*
X107236862Y-66663758D01*
X107361311Y-66653959D01*
X107482698Y-66683096D01*
X107542305Y-66713888D01*
X107551735Y-66719813D01*
X107551738Y-66719816D01*
X107704478Y-66815789D01*
X107874745Y-66875368D01*
X108009046Y-66890500D01*
X108009048Y-66890500D01*
X109798952Y-66890500D01*
X109798954Y-66890500D01*
X109933255Y-66875368D01*
X110103522Y-66815789D01*
X110256262Y-66719816D01*
X110383816Y-66592262D01*
X110479789Y-66439522D01*
X110539368Y-66269255D01*
X110554500Y-66134954D01*
X110554500Y-64345046D01*
X110539368Y-64210745D01*
X110539367Y-64210742D01*
X110537440Y-64193639D01*
X110543040Y-64068930D01*
X110586903Y-63952055D01*
X110664736Y-63854455D01*
X110768919Y-63785683D01*
X110889255Y-63752472D01*
X111013964Y-63758072D01*
X111122017Y-63797076D01*
X111184046Y-63830232D01*
X111382066Y-63890300D01*
X111536392Y-63905500D01*
X111536397Y-63905500D01*
X112439603Y-63905500D01*
X112439608Y-63905500D01*
X112593934Y-63890300D01*
X112791954Y-63830232D01*
X112974450Y-63732685D01*
X113134410Y-63601410D01*
X113229568Y-63485459D01*
X113322882Y-63402536D01*
X113437254Y-63352508D01*
X113561487Y-63340272D01*
X113683422Y-63367025D01*
X113791121Y-63430148D01*
X113846432Y-63485459D01*
X113941582Y-63601401D01*
X113941585Y-63601404D01*
X113941590Y-63601410D01*
X114101550Y-63732685D01*
X114284046Y-63830232D01*
X114482066Y-63890300D01*
X114636392Y-63905500D01*
X114636397Y-63905500D01*
X115539603Y-63905500D01*
X115539608Y-63905500D01*
X115693934Y-63890300D01*
X115891954Y-63830232D01*
X115902911Y-63824375D01*
X116020849Y-63783475D01*
X116145660Y-63781022D01*
X116265120Y-63817257D01*
X116279054Y-63824356D01*
X116290046Y-63830232D01*
X116488066Y-63890300D01*
X116642392Y-63905500D01*
X116642397Y-63905500D01*
X117545603Y-63905500D01*
X117545608Y-63905500D01*
X117699934Y-63890300D01*
X117897954Y-63830232D01*
X118080450Y-63732685D01*
X118240410Y-63601410D01*
X118371685Y-63441450D01*
X118469232Y-63258954D01*
X118529300Y-63060934D01*
X118544500Y-62906608D01*
X118544500Y-61553392D01*
X118529300Y-61399066D01*
X118469232Y-61201046D01*
X118371685Y-61018550D01*
X118240410Y-60858590D01*
X118080450Y-60727315D01*
X117997325Y-60682883D01*
X117897797Y-60607542D01*
X117826418Y-60505128D01*
X117790180Y-60385669D01*
X117792631Y-60260858D01*
X117833530Y-60142913D01*
X117908875Y-60043380D01*
X117997325Y-59979116D01*
X118080450Y-59934685D01*
X118240410Y-59803410D01*
X118371685Y-59643450D01*
X118469232Y-59460954D01*
X118529300Y-59262934D01*
X118544500Y-59108608D01*
X118544500Y-57755392D01*
X118529300Y-57601066D01*
X118469232Y-57403046D01*
X118371685Y-57220550D01*
X118240410Y-57060590D01*
X118080450Y-56929315D01*
X118080446Y-56929313D01*
X118080445Y-56929312D01*
X118020481Y-56897260D01*
X117963652Y-56866884D01*
X117864121Y-56791542D01*
X117792742Y-56689127D01*
X117756505Y-56569668D01*
X117758956Y-56444857D01*
X117799856Y-56326912D01*
X117875200Y-56227379D01*
X117963652Y-56163115D01*
X118080450Y-56100685D01*
X118240410Y-55969410D01*
X118371685Y-55809450D01*
X118469232Y-55626954D01*
X118529300Y-55428934D01*
X118544500Y-55274608D01*
X118544500Y-53921392D01*
X118529300Y-53767066D01*
X118469232Y-53569046D01*
X118371685Y-53386550D01*
X118240410Y-53226590D01*
X118080450Y-53095315D01*
X118080446Y-53095313D01*
X118080445Y-53095312D01*
X118005087Y-53055032D01*
X117897954Y-52997768D01*
X117699934Y-52937700D01*
X117545608Y-52922500D01*
X116642392Y-52922500D01*
X116488066Y-52937700D01*
X116488063Y-52937700D01*
X116488062Y-52937701D01*
X116464363Y-52944890D01*
X116340705Y-52961993D01*
X116217815Y-52940046D01*
X116107721Y-52881198D01*
X116021200Y-52791210D01*
X116008340Y-52771547D01*
X116003232Y-52763212D01*
X115901414Y-52623072D01*
X115270927Y-51992585D01*
X115130789Y-51890768D01*
X114976445Y-51812127D01*
X114942523Y-51801104D01*
X114831297Y-51744432D01*
X114743025Y-51656161D01*
X114686351Y-51544933D01*
X114666822Y-51421635D01*
X114686350Y-51298337D01*
X114743024Y-51187109D01*
X114783687Y-51139498D01*
X114792047Y-51131139D01*
X114922568Y-50944734D01*
X115018739Y-50738496D01*
X115077635Y-50518692D01*
X115097468Y-50292000D01*
X115077635Y-50065308D01*
X115034734Y-49905199D01*
X115018739Y-49845503D01*
X114922569Y-49639268D01*
X114922566Y-49639263D01*
X114792050Y-49452865D01*
X114792049Y-49452864D01*
X114792047Y-49452861D01*
X114631139Y-49291953D01*
X114631135Y-49291950D01*
X114631134Y-49291949D01*
X114444736Y-49161433D01*
X114444731Y-49161430D01*
X114238496Y-49065260D01*
X114018696Y-49006366D01*
X114018694Y-49006365D01*
X114018692Y-49006365D01*
X113792000Y-48986532D01*
X113565308Y-49006365D01*
X113565303Y-49006366D01*
X113345505Y-49065260D01*
X113308303Y-49082608D01*
X113154952Y-49154117D01*
X113034958Y-49188526D01*
X112986330Y-49191500D01*
X111697114Y-49191500D01*
X111573816Y-49171972D01*
X111462588Y-49115298D01*
X111374316Y-49027026D01*
X111317642Y-48915798D01*
X111298114Y-48792500D01*
X111317642Y-48669202D01*
X111374316Y-48557974D01*
X111414978Y-48510364D01*
X112225978Y-47699364D01*
X112326972Y-47625988D01*
X112445697Y-47587412D01*
X112508114Y-47582500D01*
X113494330Y-47582500D01*
X113617628Y-47602028D01*
X113662944Y-47619879D01*
X113853504Y-47708739D01*
X114073308Y-47767635D01*
X114300000Y-47787468D01*
X114526692Y-47767635D01*
X114746496Y-47708739D01*
X114952734Y-47612568D01*
X115139139Y-47482047D01*
X115300047Y-47321139D01*
X115430568Y-47134734D01*
X115526739Y-46928496D01*
X115585635Y-46708692D01*
X115605468Y-46482000D01*
X115585635Y-46255308D01*
X115526739Y-46035504D01*
X115519972Y-46020993D01*
X115430569Y-45829268D01*
X115430566Y-45829263D01*
X115300050Y-45642865D01*
X115300049Y-45642864D01*
X115300047Y-45642861D01*
X115139139Y-45481953D01*
X115139135Y-45481950D01*
X115139134Y-45481949D01*
X114952736Y-45351433D01*
X114952731Y-45351430D01*
X114746496Y-45255260D01*
X114526696Y-45196366D01*
X114526694Y-45196365D01*
X114526692Y-45196365D01*
X114300000Y-45176532D01*
X114073308Y-45196365D01*
X114073303Y-45196366D01*
X113853505Y-45255260D01*
X113781684Y-45288751D01*
X113662952Y-45344117D01*
X113542958Y-45378526D01*
X113494330Y-45381500D01*
X112078114Y-45381500D01*
X111954816Y-45361972D01*
X111843588Y-45305298D01*
X111755316Y-45217026D01*
X111698642Y-45105798D01*
X111679114Y-44982500D01*
X111698642Y-44859202D01*
X111755316Y-44747974D01*
X111795978Y-44700365D01*
X112811117Y-43685225D01*
X112912111Y-43611848D01*
X113030835Y-43573272D01*
X113155670Y-43573272D01*
X113261879Y-43605744D01*
X113345503Y-43644739D01*
X113408953Y-43661740D01*
X113565308Y-43703635D01*
X113792000Y-43723468D01*
X114018692Y-43703635D01*
X114238496Y-43644739D01*
X114444734Y-43548568D01*
X114631139Y-43418047D01*
X114792047Y-43257139D01*
X114922568Y-43070734D01*
X115018739Y-42864496D01*
X115077635Y-42644692D01*
X115097468Y-42418000D01*
X115077635Y-42191308D01*
X115018739Y-41971504D01*
X114922568Y-41765266D01*
X114792047Y-41578861D01*
X114631139Y-41417953D01*
X114631135Y-41417950D01*
X114631134Y-41417949D01*
X114444736Y-41287433D01*
X114444731Y-41287430D01*
X114238496Y-41191260D01*
X114018696Y-41132366D01*
X114018694Y-41132365D01*
X114018692Y-41132365D01*
X113792000Y-41112532D01*
X113565308Y-41132365D01*
X113565303Y-41132366D01*
X113345505Y-41191260D01*
X113273684Y-41224751D01*
X113154952Y-41280117D01*
X113034958Y-41314526D01*
X112986330Y-41317500D01*
X112608611Y-41317500D01*
X112435389Y-41317500D01*
X112296144Y-41339554D01*
X112264292Y-41344599D01*
X112099563Y-41398124D01*
X112099554Y-41398127D01*
X111945210Y-41476768D01*
X111805072Y-41578585D01*
X111235636Y-42148022D01*
X111134642Y-42221398D01*
X111015917Y-42259974D01*
X110891083Y-42259974D01*
X110772358Y-42221398D01*
X110671364Y-42148022D01*
X110597988Y-42047028D01*
X110559412Y-41928303D01*
X110554500Y-41865886D01*
X110554500Y-40469047D01*
X110554499Y-40469037D01*
X110545691Y-40390867D01*
X110539368Y-40334745D01*
X110479789Y-40164478D01*
X110383816Y-40011738D01*
X110256262Y-39884184D01*
X110103522Y-39788211D01*
X109933255Y-39728632D01*
X109933253Y-39728631D01*
X109933251Y-39728631D01*
X109798962Y-39713500D01*
X109798954Y-39713500D01*
X108009046Y-39713500D01*
X108009037Y-39713500D01*
X107874748Y-39728631D01*
X107874745Y-39728632D01*
X107704478Y-39788211D01*
X107542304Y-39890112D01*
X107427515Y-39939175D01*
X107303182Y-39950365D01*
X107181478Y-39922587D01*
X107121544Y-39892471D01*
X107115629Y-39888846D01*
X106875609Y-39789426D01*
X106622991Y-39728778D01*
X106364001Y-39708396D01*
X106363999Y-39708396D01*
X106105008Y-39728778D01*
X105852390Y-39789426D01*
X105612370Y-39888846D01*
X105390867Y-40024582D01*
X105390853Y-40024593D01*
X105353126Y-40056815D01*
X105246687Y-40122040D01*
X105125301Y-40151180D01*
X105000851Y-40141385D01*
X104885519Y-40093611D01*
X104834874Y-40056815D01*
X104797146Y-40024593D01*
X104797132Y-40024582D01*
X104575629Y-39888846D01*
X104335609Y-39789426D01*
X104082991Y-39728778D01*
X103824001Y-39708396D01*
X103823999Y-39708396D01*
X103565008Y-39728778D01*
X103312390Y-39789426D01*
X103072370Y-39888846D01*
X102850867Y-40024582D01*
X102850853Y-40024593D01*
X102813126Y-40056815D01*
X102706687Y-40122040D01*
X102585301Y-40151180D01*
X102460851Y-40141385D01*
X102345519Y-40093611D01*
X102294874Y-40056815D01*
X102257146Y-40024593D01*
X102257132Y-40024582D01*
X102035629Y-39888846D01*
X101795609Y-39789426D01*
X101542991Y-39728778D01*
X101284001Y-39708396D01*
X101283999Y-39708396D01*
X101025008Y-39728778D01*
X100772390Y-39789426D01*
X100532370Y-39888846D01*
X100310867Y-40024582D01*
X100310853Y-40024593D01*
X100273126Y-40056815D01*
X100166687Y-40122040D01*
X100045301Y-40151180D01*
X99920851Y-40141385D01*
X99805519Y-40093611D01*
X99754874Y-40056815D01*
X99717146Y-40024593D01*
X99717132Y-40024582D01*
X99495629Y-39888846D01*
X99255609Y-39789426D01*
X99002991Y-39728778D01*
X98744001Y-39708396D01*
X98743999Y-39708396D01*
X98485008Y-39728778D01*
X98232390Y-39789426D01*
X97992370Y-39888846D01*
X97770867Y-40024582D01*
X97770853Y-40024593D01*
X97733126Y-40056815D01*
X97626687Y-40122040D01*
X97505301Y-40151180D01*
X97380851Y-40141385D01*
X97265519Y-40093611D01*
X97214874Y-40056815D01*
X97177146Y-40024593D01*
X97177132Y-40024582D01*
X96955629Y-39888846D01*
X96715609Y-39789426D01*
X96462991Y-39728778D01*
X96204001Y-39708396D01*
X96203999Y-39708396D01*
X95945008Y-39728778D01*
X95692390Y-39789426D01*
X95452370Y-39888846D01*
X95230867Y-40024582D01*
X95230853Y-40024593D01*
X95193126Y-40056815D01*
X95086687Y-40122040D01*
X94965301Y-40151180D01*
X94840851Y-40141385D01*
X94725519Y-40093611D01*
X94674874Y-40056815D01*
X94637146Y-40024593D01*
X94637132Y-40024582D01*
X94415629Y-39888846D01*
X94175609Y-39789426D01*
X93922991Y-39728778D01*
X93664001Y-39708396D01*
X93663999Y-39708396D01*
X93405008Y-39728778D01*
X93152390Y-39789426D01*
X92912370Y-39888846D01*
X92690867Y-40024582D01*
X92690853Y-40024593D01*
X92653126Y-40056815D01*
X92546687Y-40122040D01*
X92425301Y-40151180D01*
X92300851Y-40141385D01*
X92185519Y-40093611D01*
X92134874Y-40056815D01*
X92097146Y-40024593D01*
X92097132Y-40024582D01*
X91875629Y-39888846D01*
X91635609Y-39789426D01*
X91382991Y-39728778D01*
X91124001Y-39708396D01*
X91123999Y-39708396D01*
X90865008Y-39728778D01*
X90612390Y-39789426D01*
X90372370Y-39888846D01*
X90150867Y-40024582D01*
X90150859Y-40024588D01*
X89953313Y-40193308D01*
X89953308Y-40193313D01*
X89784588Y-40390859D01*
X89784582Y-40390867D01*
X89648846Y-40612370D01*
X89549426Y-40852390D01*
X89488778Y-41105008D01*
X89468396Y-41363999D01*
X89468396Y-41364000D01*
X89488778Y-41622991D01*
X89549426Y-41875609D01*
X89648846Y-42115629D01*
X89784586Y-42337138D01*
X89784589Y-42337142D01*
X89827901Y-42387853D01*
X89893127Y-42494292D01*
X89922270Y-42615677D01*
X89923500Y-42646984D01*
X89923500Y-43488783D01*
X89903972Y-43612081D01*
X89847298Y-43723309D01*
X89759026Y-43811581D01*
X89647798Y-43868255D01*
X89524500Y-43887783D01*
X89401202Y-43868255D01*
X89289975Y-43811582D01*
X89222787Y-43762767D01*
X89068445Y-43684127D01*
X89068436Y-43684124D01*
X88903707Y-43630599D01*
X88903701Y-43630598D01*
X88732611Y-43603500D01*
X88732608Y-43603500D01*
X87181452Y-43603500D01*
X87058154Y-43583972D01*
X86946926Y-43527298D01*
X86873022Y-43457624D01*
X86770410Y-43332590D01*
X86610450Y-43201315D01*
X86610446Y-43201313D01*
X86610445Y-43201312D01*
X86503856Y-43144339D01*
X86427954Y-43103768D01*
X86229934Y-43043700D01*
X86075608Y-43028500D01*
X85172392Y-43028500D01*
X85018065Y-43043700D01*
X84937507Y-43068137D01*
X84820046Y-43103768D01*
X84820044Y-43103768D01*
X84820044Y-43103769D01*
X84637554Y-43201312D01*
X84637546Y-43201318D01*
X84477593Y-43332587D01*
X84477586Y-43332594D01*
X84382431Y-43448542D01*
X84289117Y-43531463D01*
X84174745Y-43581491D01*
X84050511Y-43593727D01*
X83928577Y-43566974D01*
X83820877Y-43503850D01*
X83765569Y-43448542D01*
X83670413Y-43332594D01*
X83670412Y-43332593D01*
X83670410Y-43332590D01*
X83510450Y-43201315D01*
X83510446Y-43201313D01*
X83510445Y-43201312D01*
X83403856Y-43144339D01*
X83327954Y-43103768D01*
X83129934Y-43043700D01*
X82975608Y-43028500D01*
X82072392Y-43028500D01*
X81918065Y-43043700D01*
X81837507Y-43068137D01*
X81720046Y-43103768D01*
X81720044Y-43103768D01*
X81720044Y-43103769D01*
X81537554Y-43201312D01*
X81537546Y-43201318D01*
X81377593Y-43332587D01*
X81377587Y-43332593D01*
X81246318Y-43492546D01*
X81246312Y-43492554D01*
X81148769Y-43675044D01*
X81148768Y-43675046D01*
X81088700Y-43873066D01*
X81073500Y-44027392D01*
X77970500Y-44027392D01*
X77970500Y-39378700D01*
X77970880Y-39361297D01*
X77987166Y-38988272D01*
X77990200Y-38953595D01*
X78037799Y-38592045D01*
X78043842Y-38557776D01*
X78122772Y-38201746D01*
X78131777Y-38168137D01*
X78241446Y-37820310D01*
X78253337Y-37787640D01*
X78392906Y-37450690D01*
X78407589Y-37419200D01*
X78576006Y-37095675D01*
X78593384Y-37065576D01*
X78789342Y-36757985D01*
X78809298Y-36729486D01*
X79031291Y-36440178D01*
X79053658Y-36413520D01*
X79300041Y-36144640D01*
X79324640Y-36120041D01*
X79593520Y-35873658D01*
X79620171Y-35851296D01*
X79909488Y-35629295D01*
X79937985Y-35609342D01*
X80245576Y-35413384D01*
X80275675Y-35396006D01*
X80599200Y-35227589D01*
X80630690Y-35212906D01*
X80967640Y-35073337D01*
X81000310Y-35061446D01*
X81348137Y-34951777D01*
X81381737Y-34942774D01*
X81737781Y-34863840D01*
X81772045Y-34857799D01*
X82133602Y-34810199D01*
X82168266Y-34807166D01*
X82501537Y-34792615D01*
X82541297Y-34790880D01*
X82558700Y-34790500D01*
X82615892Y-34790500D01*
X116774108Y-34790500D01*
X116831300Y-34790500D01*
X116848703Y-34790879D01*
G37*
%TD.AperFunction*%
%TD*%
M02*
