%TF.GenerationSoftware,KiCad,Pcbnew,8.0.5*%
%TF.CreationDate,2025-02-04T09:15:57+02:00*%
%TF.ProjectId,IOExpander_PCF8574,494f4578-7061-46e6-9465-725f50434638,rev?*%
%TF.SameCoordinates,Original*%
%TF.FileFunction,Soldermask,Bot*%
%TF.FilePolarity,Negative*%
%FSLAX46Y46*%
G04 Gerber Fmt 4.6, Leading zero omitted, Abs format (unit mm)*
G04 Created by KiCad (PCBNEW 8.0.5) date 2025-02-04 09:15:57*
%MOMM*%
%LPD*%
G01*
G04 APERTURE LIST*
G04 Aperture macros list*
%AMRoundRect*
0 Rectangle with rounded corners*
0 $1 Rounding radius*
0 $2 $3 $4 $5 $6 $7 $8 $9 X,Y pos of 4 corners*
0 Add a 4 corners polygon primitive as box body*
4,1,4,$2,$3,$4,$5,$6,$7,$8,$9,$2,$3,0*
0 Add four circle primitives for the rounded corners*
1,1,$1+$1,$2,$3*
1,1,$1+$1,$4,$5*
1,1,$1+$1,$6,$7*
1,1,$1+$1,$8,$9*
0 Add four rect primitives between the rounded corners*
20,1,$1+$1,$2,$3,$4,$5,0*
20,1,$1+$1,$4,$5,$6,$7,0*
20,1,$1+$1,$6,$7,$8,$9,0*
20,1,$1+$1,$8,$9,$2,$3,0*%
G04 Aperture macros list end*
%ADD10RoundRect,0.250000X-0.650000X0.412500X-0.650000X-0.412500X0.650000X-0.412500X0.650000X0.412500X0*%
%ADD11O,1.950000X1.700000*%
%ADD12RoundRect,0.250000X-0.725000X0.600000X-0.725000X-0.600000X0.725000X-0.600000X0.725000X0.600000X0*%
%ADD13RoundRect,0.250000X-0.400000X-0.625000X0.400000X-0.625000X0.400000X0.625000X-0.400000X0.625000X0*%
%ADD14O,1.700000X1.700000*%
%ADD15R,1.700000X1.700000*%
%ADD16RoundRect,0.162500X0.750000X0.162500X-0.750000X0.162500X-0.750000X-0.162500X0.750000X-0.162500X0*%
G04 APERTURE END LIST*
D10*
%TO.C,C1*%
X93599000Y-45300500D03*
X93599000Y-48425500D03*
%TD*%
D11*
%TO.C,J1*%
X84774000Y-57061200D03*
X84774000Y-54561200D03*
X84774000Y-52061200D03*
D12*
X84774000Y-49561200D03*
%TD*%
D13*
%TO.C,R1*%
X82068000Y-54610000D03*
X78968000Y-54610000D03*
%TD*%
%TO.C,R7*%
X115088000Y-48260000D03*
X111988000Y-48260000D03*
%TD*%
%TO.C,R10*%
X120142000Y-52070000D03*
X117042000Y-52070000D03*
%TD*%
%TO.C,R9*%
X115088000Y-52070000D03*
X111988000Y-52070000D03*
%TD*%
%TO.C,R8*%
X115114000Y-44450000D03*
X112014000Y-44450000D03*
%TD*%
%TO.C,R11*%
X120168000Y-48260000D03*
X117068000Y-48260000D03*
%TD*%
%TO.C,R2*%
X82068000Y-56896000D03*
X78968000Y-56896000D03*
%TD*%
%TO.C,R12*%
X120168000Y-44450000D03*
X117068000Y-44450000D03*
%TD*%
D14*
%TO.C,J2*%
X91124000Y-65240000D03*
X93664000Y-65240000D03*
X96204000Y-65240000D03*
X98744000Y-65240000D03*
X101284000Y-65240000D03*
X103824000Y-65240000D03*
X106364000Y-65240000D03*
D15*
X108904000Y-65240000D03*
%TD*%
D13*
%TO.C,R3*%
X82068000Y-59182000D03*
X78968000Y-59182000D03*
%TD*%
D14*
%TO.C,J3*%
X91124000Y-41364000D03*
X93664000Y-41364000D03*
X96204000Y-41364000D03*
X98744000Y-41364000D03*
X101284000Y-41364000D03*
X103824000Y-41364000D03*
X106364000Y-41364000D03*
D15*
X108904000Y-41364000D03*
%TD*%
D16*
%TO.C,U1*%
X96187000Y-49911000D03*
X96187000Y-51181000D03*
X96187000Y-52451000D03*
X96187000Y-53721000D03*
X96187000Y-54991000D03*
X96187000Y-56261000D03*
X96187000Y-57531000D03*
X96187000Y-58801000D03*
X102362000Y-58801000D03*
X102362000Y-57531000D03*
X102362000Y-56261000D03*
X102362000Y-54991000D03*
X102362000Y-53721000D03*
X102362000Y-52451000D03*
X102362000Y-51181000D03*
X102362000Y-49911000D03*
%TD*%
M02*
