%TF.GenerationSoftware,KiCad,Pcbnew,8.0.5*%
%TF.CreationDate,2025-03-06T11:43:34+02:00*%
%TF.ProjectId,IOExpander_PCF8574,494f4578-7061-46e6-9465-725f50434638,rev?*%
%TF.SameCoordinates,Original*%
%TF.FileFunction,Soldermask,Top*%
%TF.FilePolarity,Negative*%
%FSLAX46Y46*%
G04 Gerber Fmt 4.6, Leading zero omitted, Abs format (unit mm)*
G04 Created by KiCad (PCBNEW 8.0.5) date 2025-03-06 11:43:34*
%MOMM*%
%LPD*%
G01*
G04 APERTURE LIST*
G04 Aperture macros list*
%AMRoundRect*
0 Rectangle with rounded corners*
0 $1 Rounding radius*
0 $2 $3 $4 $5 $6 $7 $8 $9 X,Y pos of 4 corners*
0 Add a 4 corners polygon primitive as box body*
4,1,4,$2,$3,$4,$5,$6,$7,$8,$9,$2,$3,0*
0 Add four circle primitives for the rounded corners*
1,1,$1+$1,$2,$3*
1,1,$1+$1,$4,$5*
1,1,$1+$1,$6,$7*
1,1,$1+$1,$8,$9*
0 Add four rect primitives between the rounded corners*
20,1,$1+$1,$2,$3,$4,$5,0*
20,1,$1+$1,$4,$5,$6,$7,0*
20,1,$1+$1,$6,$7,$8,$9,0*
20,1,$1+$1,$8,$9,$2,$3,0*%
G04 Aperture macros list end*
%ADD10RoundRect,0.250000X0.650000X-0.412500X0.650000X0.412500X-0.650000X0.412500X-0.650000X-0.412500X0*%
%ADD11RoundRect,0.250000X-0.725000X0.600000X-0.725000X-0.600000X0.725000X-0.600000X0.725000X0.600000X0*%
%ADD12O,1.950000X1.700000*%
%ADD13RoundRect,0.250000X-0.400000X-0.625000X0.400000X-0.625000X0.400000X0.625000X-0.400000X0.625000X0*%
%ADD14C,3.200000*%
%ADD15RoundRect,0.150000X1.100000X0.150000X-1.100000X0.150000X-1.100000X-0.150000X1.100000X-0.150000X0*%
%ADD16R,1.700000X1.700000*%
%ADD17O,1.700000X1.700000*%
G04 APERTURE END LIST*
D10*
%TO.C,C2*%
X91948000Y-60617500D03*
X91948000Y-57492500D03*
%TD*%
D11*
%TO.C,J1*%
X84774000Y-49561200D03*
D12*
X84774000Y-52061200D03*
X84774000Y-54561200D03*
X84774000Y-57061200D03*
%TD*%
D13*
%TO.C,R16*%
X117094000Y-54598000D03*
X120194000Y-54598000D03*
%TD*%
%TO.C,R15*%
X111988000Y-62230000D03*
X115088000Y-62230000D03*
%TD*%
%TO.C,R14*%
X112014000Y-58420000D03*
X115114000Y-58420000D03*
%TD*%
%TO.C,R13*%
X112014000Y-54610000D03*
X115114000Y-54610000D03*
%TD*%
D14*
%TO.C,REF\u002A\u002A*%
X116840000Y-67310000D03*
%TD*%
D15*
%TO.C,U2*%
X103987600Y-56337200D03*
X103987600Y-55067200D03*
X103987600Y-53797200D03*
X103987600Y-52527200D03*
X103987600Y-51257200D03*
X103987600Y-49987200D03*
X103987600Y-48717200D03*
X103987600Y-47447200D03*
X94589600Y-47396400D03*
X94589600Y-48666400D03*
X94589600Y-49936400D03*
X94589600Y-51206400D03*
X94589600Y-52476400D03*
X94589600Y-53746400D03*
X94589600Y-55016400D03*
X94589600Y-56286400D03*
%TD*%
D13*
%TO.C,R18*%
X117094000Y-62230000D03*
X120194000Y-62230000D03*
%TD*%
%TO.C,R6*%
X82524000Y-44704000D03*
X85624000Y-44704000D03*
%TD*%
%TO.C,R17*%
X117094000Y-58432000D03*
X120194000Y-58432000D03*
%TD*%
D16*
%TO.C,J2*%
X108904000Y-65240000D03*
D17*
X106364000Y-65240000D03*
X103824000Y-65240000D03*
X101284000Y-65240000D03*
X98744000Y-65240000D03*
X96204000Y-65240000D03*
X93664000Y-65240000D03*
X91124000Y-65240000D03*
%TD*%
D16*
%TO.C,J3*%
X108904000Y-41364000D03*
D17*
X106364000Y-41364000D03*
X103824000Y-41364000D03*
X101284000Y-41364000D03*
X98744000Y-41364000D03*
X96204000Y-41364000D03*
X93664000Y-41364000D03*
X91124000Y-41364000D03*
%TD*%
M02*
